<?xml version="1.0" encoding="UTF-8"?>
<!DOCTYPE svg PUBLIC "-//W3C//DTD SVG 1.1//EN" "http://www.w3.org/Graphics/SVG/1.1/DTD/svg11.dtd">
<!-- Creator: CorelDRAW -->
<svg xmlns="http://www.w3.org/2000/svg" xml:space="preserve" width="210mm" height="297mm" style="shape-rendering:geometricPrecision; text-rendering:geometricPrecision; image-rendering:optimizeQuality; fill-rule:evenodd; clip-rule:evenodd"
viewBox="0 0 210 297"
 xmlns:xlink="http://www.w3.org/1999/xlink">
 <defs>
  <style type="text/css">
   <![CDATA[
    .str0 {stroke:#0093DD;stroke-width:0.3527}
    .fil1 {fill:none}
    .fil6 {fill:#1F1A17}
    .fil5 {fill:#DA251D}
    .fil2 {fill:#FFF500}
    .fil8 {fill:white}
    .fil0 {fill:#0093DD;fill-rule:nonzero}
    .fil3 {fill:#1F1A17;fill-rule:nonzero}
    .fil4 {fill:#DA251D;fill-rule:nonzero}
    .fil7 {fill:white;fill-rule:nonzero}
   ]]>
  </style>
 </defs>
 <g id="Camada_x0020_1">
  <metadata id="CorelCorpID_0Corel-Layer"/>
  <polygon class="fil0" points="15.587,15.3936 15.587,12.3633 17.7778,12.3633 17.7778,12.721 15.9878,12.721 15.9878,13.6488 17.6642,13.6488 17.6642,14.0044 15.9878,14.0044 15.9878,15.0359 17.8483,15.0359 17.8483,15.3936 "/>
  <polygon id="1" class="fil0" points="18.3464,15.3936 18.3464,12.3633 18.7183,12.3633 18.7183,15.3936 "/>
  <path id="12" class="fil0" d="M20.7975 14.6866l0.3845 0.0473c-0.0606,0.2251 -0.1728,0.3994 -0.3365,0.5235 -0.1644,0.1235 -0.374,0.1856 -0.6287,0.1856 -0.321,0 -0.5757,-0.0988 -0.7634,-0.2963 -0.1883,-0.1976 -0.2822,-0.4749 -0.2822,-0.8319 0,-0.3697 0.0953,-0.6561 0.2851,-0.8601 0.1905,-0.2039 0.4367,-0.3062 0.7401,-0.3062 0.2935,0 0.5334,0.1002 0.7189,0.2999 0.1863,0.1997 0.2794,0.4812 0.2794,0.8431 0,0.0226 -0.0007,0.0558 -0.0021,0.0995l-1.6369 0c0.0135,0.2413 0.0819,0.4262 0.2047,0.5539 0.1227,0.1284 0.2751,0.1926 0.4586,0.1926 0.1361,0 0.2525,-0.036 0.3492,-0.108 0.0967,-0.0712 0.1729,-0.1855 0.2293,-0.3429zm-1.2213 -0.6018l1.2255 0c-0.0162,-0.1841 -0.0635,-0.3231 -0.1404,-0.4149 -0.1185,-0.1432 -0.2723,-0.2152 -0.4607,-0.2152 -0.1707,0 -0.3147,0.0572 -0.4311,0.1715 -0.1164,0.1143 -0.1806,0.2674 -0.1933,0.4586z"/>
  <path id="123" class="fil0" d="M21.6498 15.3936l0 -2.195 0.3323 0 0 0.3077c0.0692,-0.1073 0.1609,-0.1941 0.2752,-0.259 0.1143,-0.0656 0.2448,-0.0988 0.3909,-0.0988 0.1622,0 0.2956,0.0339 0.3993,0.1016 0.1044,0.0678 0.1778,0.1616 0.2201,0.283 0.1743,-0.2562 0.4001,-0.3846 0.6781,-0.3846 0.218,0 0.3852,0.0607 0.5023,0.1814 0.1171,0.1206 0.1757,0.3062 0.1757,0.5566l0 1.5071 -0.3697 0 0 -1.3829c0,-0.1488 -0.012,-0.2561 -0.036,-0.3217 -0.0247,-0.0649 -0.0684,-0.1178 -0.1312,-0.1581 -0.0635,-0.0395 -0.1383,-0.0599 -0.2237,-0.0599 -0.1545,0 -0.2822,0.0515 -0.3845,0.1545 -0.1016,0.1023 -0.1531,0.2667 -0.1531,0.4925l0 1.2756 -0.3718 0 0 -1.4259c0,-0.1658 -0.0304,-0.29 -0.0911,-0.3725 -0.0606,-0.0826 -0.1594,-0.1242 -0.2977,-0.1242 -0.1044,0 -0.2011,0.0275 -0.29,0.0832 -0.0889,0.0551 -0.1538,0.1355 -0.1933,0.2413 -0.0402,0.1066 -0.06,0.2597 -0.06,0.4593l0 1.1388 -0.3718 0z"/>
  <path id="1234" class="fil0" d="M26.6782 14.6866l0.3845 0.0473c-0.0606,0.2251 -0.1728,0.3994 -0.3365,0.5235 -0.1644,0.1235 -0.374,0.1856 -0.6287,0.1856 -0.321,0 -0.5757,-0.0988 -0.7634,-0.2963 -0.1883,-0.1976 -0.2822,-0.4749 -0.2822,-0.8319 0,-0.3697 0.0953,-0.6561 0.2851,-0.8601 0.1905,-0.2039 0.4367,-0.3062 0.7401,-0.3062 0.2935,0 0.5334,0.1002 0.7189,0.2999 0.1863,0.1997 0.2794,0.4812 0.2794,0.8431 0,0.0226 -0.0007,0.0558 -0.0021,0.0995l-1.6369 0c0.0135,0.2413 0.0819,0.4262 0.2047,0.5539 0.1227,0.1284 0.2751,0.1926 0.4586,0.1926 0.1361,0 0.2525,-0.036 0.3492,-0.108 0.0967,-0.0712 0.1729,-0.1855 0.2293,-0.3429zm-1.2213 -0.6018l1.2255 0c-0.0162,-0.1841 -0.0635,-0.3231 -0.1404,-0.4149 -0.1185,-0.1432 -0.2723,-0.2152 -0.4607,-0.2152 -0.1707,0 -0.3147,0.0572 -0.4311,0.1715 -0.1164,0.1143 -0.1806,0.2674 -0.1933,0.4586z"/>
  <path id="12345" class="fil0" d="M27.5305 15.3936l0 -2.195 0.3344 0 0 0.3119c0.1616,-0.2413 0.3944,-0.362 0.6985,-0.362 0.1327,0 0.254,0.024 0.3648,0.0713 0.1115,0.048 0.194,0.1101 0.2491,0.1877 0.0557,0.0769 0.0938,0.1686 0.1164,0.2744 0.0134,0.0692 0.0204,0.1898 0.0204,0.362l0 1.3497 -0.3725 0 0 -1.3356c0,-0.151 -0.0141,-0.2646 -0.043,-0.3401 -0.029,-0.0748 -0.0805,-0.1347 -0.1539,-0.1792 -0.074,-0.0451 -0.1601,-0.0677 -0.2596,-0.0677 -0.1587,0 -0.2949,0.0508 -0.4106,0.151 -0.115,0.1009 -0.1722,0.2914 -0.1722,0.5729l0 1.1987 -0.3718 0z"/>
  <path id="123456" class="fil0" d="M30.697 15.0606l0.0536 0.3288c-0.1044,0.0218 -0.1983,0.0331 -0.2808,0.0331 -0.1355,0 -0.2399,-0.0211 -0.3147,-0.0642 -0.0741,-0.0423 -0.1263,-0.0988 -0.1566,-0.1686 -0.0303,-0.0691 -0.0459,-0.2159 -0.0459,-0.4389l0 -1.2629 -0.273 0 0 -0.2893 0.273 0 0 -0.5439 0.3704 -0.223 0 0.7669 0.374 0 0 0.2893 -0.374 0 0 1.2834c0,0.1065 0.0064,0.1743 0.0191,0.2046 0.0134,0.0304 0.0346,0.0543 0.0642,0.0727 0.0296,0.0176 0.072,0.0268 0.127,0.0268 0.0416,0 0.096,-0.0049 0.1637,-0.0148z"/>
  <path id="1234567" class="fil0" d="M30.9221 14.2958c0,-0.4064 0.1129,-0.7077 0.3394,-0.9031 0.1884,-0.1623 0.4184,-0.2442 0.69,-0.2442 0.302,0 0.5489,0.0988 0.7401,0.2971 0.1919,0.1975 0.2872,0.4706 0.2872,0.8191 0,0.2829 -0.0424,0.5052 -0.127,0.6668 -0.0847,0.1622 -0.2082,0.2878 -0.3697,0.3774 -0.1623,0.0896 -0.3387,0.1341 -0.5306,0.1341 -0.3069,0 -0.5553,-0.0981 -0.7451,-0.2956 -0.1898,-0.1969 -0.2843,-0.4805 -0.2843,-0.8516zm0.3824 0c0,0.2815 0.0614,0.4917 0.1842,0.6314 0.1227,0.1404 0.2772,0.2103 0.4628,0.2103 0.1849,0 0.3387,-0.0706 0.4614,-0.211 0.1221,-0.1404 0.1835,-0.3549 0.1835,-0.6427 0,-0.2717 -0.0614,-0.4777 -0.1849,-0.6174 -0.1235,-0.1397 -0.2766,-0.2095 -0.46,-0.2095 -0.1856,0 -0.3401,0.0698 -0.4628,0.2088 -0.1228,0.139 -0.1842,0.3493 -0.1842,0.6301z"/>
  <path id="12345678" class="fil0" d="M33.2666 14.7381l0.3676 -0.0578c0.0205,0.1474 0.0783,0.2603 0.1729,0.3394 0.0938,0.0783 0.2258,0.1178 0.3958,0.1178 0.1707,0 0.2977,-0.0353 0.3803,-0.1044 0.0825,-0.0699 0.1242,-0.1517 0.1242,-0.2449 0,-0.0846 -0.0367,-0.1502 -0.1101,-0.1989 -0.0508,-0.0332 -0.1778,-0.0748 -0.3803,-0.1256 -0.2723,-0.0692 -0.4621,-0.1284 -0.5673,-0.1792 -0.1051,-0.0501 -0.1855,-0.12 -0.2398,-0.2089 -0.0544,-0.0889 -0.0819,-0.1869 -0.0819,-0.2942 0,-0.0981 0.0226,-0.1884 0.0677,-0.2716 0.0445,-0.084 0.1059,-0.1531 0.1828,-0.2082 0.0578,-0.0423 0.1369,-0.079 0.2363,-0.1086 0.1002,-0.0296 0.2075,-0.0445 0.3218,-0.0445 0.1721,0 0.3231,0.0254 0.4536,0.0748 0.1306,0.0494 0.2265,0.1164 0.2886,0.2011 0.0621,0.0854 0.1044,0.1983 0.1277,0.3401l-0.3633 0.0501c-0.017,-0.1129 -0.065,-0.2011 -0.144,-0.2646 -0.079,-0.0635 -0.1912,-0.0953 -0.3358,-0.0953 -0.1708,0 -0.2928,0.0283 -0.3655,0.0847 -0.0734,0.0565 -0.1101,0.1228 -0.1101,0.1983 0,0.0487 0.0156,0.0917 0.0459,0.1305 0.0303,0.0402 0.0776,0.0727 0.1425,0.0995 0.0374,0.0134 0.1468,0.0451 0.3288,0.0945 0.2632,0.0706 0.4466,0.1277 0.5503,0.1729 0.1045,0.0444 0.1863,0.1101 0.2456,0.1954 0.0592,0.0854 0.0889,0.1912 0.0889,0.3182 0,0.1242 -0.0367,0.2406 -0.1087,0.3507 -0.0727,0.1093 -0.1771,0.194 -0.3133,0.254 -0.1361,0.06 -0.2906,0.0896 -0.4628,0.0896 -0.2857,0 -0.503,-0.0593 -0.6526,-0.1778 -0.1496,-0.1185 -0.2449,-0.2942 -0.2858,-0.5271z"/>
  <path id="123456789" class="fil0" d="M36.64 15.5756l0.3619 0.0537c0.0148,0.1114 0.0572,0.1926 0.1256,0.2441 0.0924,0.0684 0.2187,0.103 0.3782,0.103 0.1728,0 0.3055,-0.0346 0.3993,-0.103 0.0938,-0.0692 0.1566,-0.1658 0.1898,-0.2893 0.0198,-0.0762 0.0282,-0.2349 0.0268,-0.4777 -0.1623,0.1912 -0.3648,0.2872 -0.6075,0.2872 -0.3019,0 -0.5355,-0.1087 -0.7006,-0.3267 -0.1651,-0.2173 -0.2483,-0.479 -0.2483,-0.7831 0,-0.2096 0.0381,-0.4029 0.1136,-0.58 0.0762,-0.1771 0.1862,-0.314 0.3302,-0.4106 0.1439,-0.096 0.3132,-0.1447 0.5073,-0.1447 0.2589,0 0.4727,0.1052 0.6406,0.3147l0 -0.2646 0.3436 0 0 1.8973c0,0.3414 -0.0353,0.5842 -0.1044,0.7267 -0.0699,0.1425 -0.1799,0.2554 -0.3309,0.3379 -0.151,0.0826 -0.3366,0.1242 -0.5574,0.1242 -0.2618,0 -0.4734,-0.0593 -0.6343,-0.1771 -0.1616,-0.1178 -0.2392,-0.2949 -0.2335,-0.532zm0.3076 -1.3186c0,0.2878 0.0571,0.4981 0.1721,0.63 0.1143,0.1327 0.2576,0.1983 0.4297,0.1983 0.1708,0 0.314,-0.0656 0.4297,-0.1969 0.1157,-0.1319 0.1736,-0.3379 0.1736,-0.6194 0,-0.2689 -0.0593,-0.4714 -0.1785,-0.6075 -0.1193,-0.1362 -0.2632,-0.2046 -0.4311,-0.2046 -0.1651,0 -0.3055,0.067 -0.422,0.2018 -0.1157,0.134 -0.1735,0.3337 -0.1735,0.5983z"/>
  <path id="12345678910" class="fil0" d="M39.0586 15.3936l0 -2.195 0.3344 0 0 0.3323c0.0854,-0.1552 0.1644,-0.2582 0.2371,-0.3076 0.0719,-0.0494 0.1517,-0.0748 0.2384,-0.0748 0.1256,0 0.2526,0.0403 0.3824,0.12l-0.1284 0.3457c-0.0903,-0.0543 -0.1813,-0.0811 -0.2723,-0.0811 -0.0819,0 -0.1545,0.0247 -0.2194,0.0733 -0.0649,0.0494 -0.1108,0.1172 -0.1383,0.2039 -0.0416,0.132 -0.0621,0.2766 -0.0621,0.434l0 1.1493 -0.3718 0z"/>
  <path id="1234567891011" class="fil0" d="M41.9048 15.1227c-0.1383,0.1171 -0.271,0.1996 -0.398,0.2483 -0.1277,0.048 -0.2645,0.072 -0.4106,0.072 -0.2413,0 -0.4261,-0.0586 -0.556,-0.1764 -0.1291,-0.1178 -0.194,-0.2688 -0.194,-0.4516 0,-0.1079 0.024,-0.206 0.0734,-0.2949 0.0487,-0.0889 0.1129,-0.1601 0.1919,-0.2138 0.0797,-0.0536 0.1686,-0.0945 0.2681,-0.122 0.0727,-0.0191 0.1827,-0.0381 0.3302,-0.0558 0.3006,-0.0359 0.5221,-0.0783 0.6639,-0.1284 0.0014,-0.0508 0.0021,-0.0832 0.0021,-0.0966 0,-0.1517 -0.0352,-0.259 -0.1058,-0.3203 -0.0945,-0.0847 -0.2364,-0.1263 -0.4233,-0.1263 -0.175,0 -0.3041,0.0303 -0.3881,0.0917 -0.0832,0.0614 -0.1446,0.17 -0.1848,0.326l-0.3634 -0.0501c0.0332,-0.1553 0.0875,-0.2816 0.163,-0.3768 0.0755,-0.096 0.1856,-0.17 0.3288,-0.2215 0.1432,-0.0516 0.309,-0.0777 0.4981,-0.0777 0.1877,0 0.3394,0.0226 0.4565,0.0664 0.1171,0.0444 0.2032,0.0994 0.2589,0.1665 0.0551,0.067 0.0932,0.151 0.1157,0.2533 0.012,0.0635 0.0184,0.1778 0.0184,0.3429l0 0.496c0,0.3464 0.0077,0.5651 0.024,0.6561 0.0155,0.0917 0.0472,0.1799 0.0938,0.2639l-0.3888 0c-0.0381,-0.0769 -0.0635,-0.1672 -0.074,-0.2709zm-0.0311 -0.8312c-0.1354,0.0558 -0.3379,0.1023 -0.6075,0.1411 -0.1531,0.0219 -0.2617,0.0466 -0.3245,0.0741 -0.0635,0.0275 -0.1129,0.0678 -0.1468,0.1214 -0.0345,0.0529 -0.0522,0.1115 -0.0522,0.1764 0,0.0994 0.0381,0.182 0.1129,0.2483 0.0748,0.0656 0.1849,0.0988 0.3295,0.0988 0.1432,0 0.2709,-0.031 0.3824,-0.0938 0.1115,-0.0628 0.194,-0.1489 0.2462,-0.2576 0.0403,-0.0839 0.06,-0.2081 0.06,-0.3718l0 -0.1369zm-0.7239 -1.3659l0.2752 -0.5786 0.4875 0 -0.4543 0.5786 -0.3084 0z"/>
  <path id="123456789101112" class="fil0" d="M42.9151 15.3936l0 -1.9057 -0.3281 0 0 -0.2893 0.3281 0 0 -0.2335c0,-0.1475 0.0134,-0.2575 0.0395,-0.3288 0.036,-0.0966 0.0988,-0.175 0.1891,-0.2349 0.0903,-0.06 0.2166,-0.0896 0.3796,-0.0896 0.1044,0 0.2201,0.012 0.3471,0.0374l-0.0557 0.3245c-0.0769,-0.0141 -0.1503,-0.0212 -0.2195,-0.0212 -0.1128,0 -0.1926,0.024 -0.2391,0.0727 -0.0473,0.048 -0.0706,0.1383 -0.0706,0.2709l0 0.2025 0.4276 0 0 0.2893 -0.4276 0 0 1.9057 -0.3704 0z"/>
  <path id="12345678910111213" class="fil0" d="M44.0045 12.7915l0 -0.4282 0.3725 0 0 0.4282 -0.3725 0zm0 2.6021l0 -2.195 0.3725 0 0 2.195 -0.3725 0z"/>
  <path id="1234567891011121314" class="fil0" d="M46.3759 14.5893l0.3654 0.048c-0.0395,0.2518 -0.1418,0.4494 -0.3069,0.5919 -0.1644,0.1425 -0.3669,0.2138 -0.6067,0.2138 -0.2999,0 -0.5419,-0.0981 -0.7239,-0.2942 -0.1828,-0.1962 -0.2745,-0.4777 -0.2745,-0.8446 0,-0.237 0.0395,-0.4445 0.1178,-0.6223 0.079,-0.1778 0.1983,-0.3111 0.3592,-0.4 0.1601,-0.0889 0.3351,-0.1334 0.5235,-0.1334 0.2384,0 0.4339,0.0607 0.5849,0.1814 0.1517,0.1206 0.249,0.2914 0.2921,0.5136l-0.362 0.0557c-0.0346,-0.1474 -0.0952,-0.2582 -0.1827,-0.333 -0.0875,-0.0741 -0.1933,-0.1115 -0.3175,-0.1115 -0.1877,0 -0.3401,0.0671 -0.4572,0.2018 -0.1171,0.1341 -0.1757,0.3465 -0.1757,0.6371 0,0.295 0.0565,0.5095 0.17,0.6435 0.1129,0.1334 0.2604,0.2004 0.4424,0.2004 0.1461,0 0.2674,-0.0452 0.3655,-0.1348 0.0981,-0.0896 0.1602,-0.2272 0.1863,-0.4134z"/>
  <path id="123456789101112131415" class="fil0" d="M46.9213 14.2958c0,-0.4064 0.1129,-0.7077 0.3394,-0.9031 0.1884,-0.1623 0.4184,-0.2442 0.69,-0.2442 0.302,0 0.5489,0.0988 0.7401,0.2971 0.1919,0.1975 0.2872,0.4706 0.2872,0.8191 0,0.2829 -0.0424,0.5052 -0.127,0.6668 -0.0847,0.1622 -0.2082,0.2878 -0.3697,0.3774 -0.1623,0.0896 -0.3387,0.1341 -0.5306,0.1341 -0.3069,0 -0.5553,-0.0981 -0.7451,-0.2956 -0.1898,-0.1969 -0.2843,-0.4805 -0.2843,-0.8516zm0.3824 0c0,0.2815 0.0614,0.4917 0.1842,0.6314 0.1227,0.1404 0.2772,0.2103 0.4628,0.2103 0.1849,0 0.3387,-0.0706 0.4614,-0.211 0.1221,-0.1404 0.1835,-0.3549 0.1835,-0.6427 0,-0.2717 -0.0614,-0.4777 -0.1849,-0.6174 -0.1235,-0.1397 -0.2766,-0.2095 -0.46,-0.2095 -0.1856,0 -0.3401,0.0698 -0.4628,0.2088 -0.1228,0.139 -0.1842,0.3493 -0.1842,0.6301z"/>
  <path id="12345678910111213141516" class="fil0" d="M49.2658 14.7381l0.3676 -0.0578c0.0205,0.1474 0.0783,0.2603 0.1729,0.3394 0.0938,0.0783 0.2258,0.1178 0.3958,0.1178 0.1707,0 0.2977,-0.0353 0.3803,-0.1044 0.0825,-0.0699 0.1242,-0.1517 0.1242,-0.2449 0,-0.0846 -0.0367,-0.1502 -0.1101,-0.1989 -0.0508,-0.0332 -0.1778,-0.0748 -0.3803,-0.1256 -0.2723,-0.0692 -0.4621,-0.1284 -0.5673,-0.1792 -0.1051,-0.0501 -0.1855,-0.12 -0.2398,-0.2089 -0.0544,-0.0889 -0.0819,-0.1869 -0.0819,-0.2942 0,-0.0981 0.0226,-0.1884 0.0677,-0.2716 0.0445,-0.084 0.1059,-0.1531 0.1828,-0.2082 0.0578,-0.0423 0.1369,-0.079 0.2363,-0.1086 0.1002,-0.0296 0.2075,-0.0445 0.3218,-0.0445 0.1721,0 0.3231,0.0254 0.4536,0.0748 0.1306,0.0494 0.2265,0.1164 0.2886,0.2011 0.0621,0.0854 0.1044,0.1983 0.1277,0.3401l-0.3633 0.0501c-0.017,-0.1129 -0.065,-0.2011 -0.144,-0.2646 -0.079,-0.0635 -0.1912,-0.0953 -0.3358,-0.0953 -0.1708,0 -0.2928,0.0283 -0.3655,0.0847 -0.0734,0.0565 -0.1101,0.1228 -0.1101,0.1983 0,0.0487 0.0156,0.0917 0.0459,0.1305 0.0303,0.0402 0.0776,0.0727 0.1425,0.0995 0.0374,0.0134 0.1468,0.0451 0.3288,0.0945 0.2632,0.0706 0.4466,0.1277 0.5503,0.1729 0.1045,0.0444 0.1863,0.1101 0.2456,0.1954 0.0592,0.0854 0.0889,0.1912 0.0889,0.3182 0,0.1242 -0.0367,0.2406 -0.1087,0.3507 -0.0727,0.1093 -0.1771,0.194 -0.3133,0.254 -0.1361,0.06 -0.2906,0.0896 -0.4628,0.0896 -0.2857,0 -0.503,-0.0593 -0.6526,-0.1778 -0.1496,-0.1185 -0.2449,-0.2942 -0.2858,-0.5271z"/>
  <polygon id="1234567891011121314151617" class="fil0" points="52.4282,15.4451 53.3066,12.3118 53.6044,12.3118 52.7281,15.4451 "/>
  <path id="123456789101112131415161718" class="fil0" d="M54.9337 14.4079l0.5955 -0.0585c0.0353,0.2004 0.1079,0.3471 0.218,0.441 0.1094,0.0931 0.2568,0.1404 0.4431,0.1404 0.1968,0 0.3457,-0.0417 0.4452,-0.1256 0.1002,-0.0833 0.1503,-0.1806 0.1503,-0.2921 0,-0.072 -0.0212,-0.1327 -0.0635,-0.1828 -0.0417,-0.0508 -0.115,-0.0945 -0.2202,-0.1312 -0.0712,-0.0254 -0.2349,-0.0691 -0.4896,-0.1326 -0.3281,-0.0812 -0.5581,-0.1814 -0.69,-0.2999 -0.1863,-0.1665 -0.2794,-0.3697 -0.2794,-0.6096 0,-0.1545 0.0437,-0.2984 0.1312,-0.4332 0.0875,-0.1341 0.2138,-0.2364 0.3782,-0.3069 0.1651,-0.0699 0.3633,-0.1051 0.5962,-0.1051 0.381,0 0.6667,0.0832 0.8593,0.2497 0.1919,0.1672 0.2928,0.3895 0.3027,0.6682l-0.6117 0.0268c-0.0261,-0.1559 -0.0826,-0.2681 -0.1686,-0.3359 -0.0861,-0.0684 -0.2152,-0.1023 -0.3874,-0.1023 -0.1778,0 -0.3175,0.036 -0.4177,0.1094 -0.0649,0.0466 -0.0973,0.1094 -0.0973,0.1877 0,0.0719 0.0303,0.1333 0.091,0.1841 0.0769,0.0649 0.2646,0.1327 0.5623,0.2025 0.2977,0.0706 0.5179,0.1432 0.6604,0.218 0.1425,0.0755 0.254,0.1778 0.3351,0.3084 0.0805,0.1305 0.1207,0.2914 0.1207,0.4826 0,0.1735 -0.048,0.3365 -0.1447,0.4875 -0.0966,0.1517 -0.2328,0.2646 -0.4092,0.338 -0.1764,0.074 -0.3965,0.1107 -0.6597,0.1107 -0.3831,0 -0.6773,-0.0882 -0.8826,-0.2653 -0.2053,-0.1771 -0.3281,-0.4353 -0.3676,-0.774z"/>
  <path id="12345678910111213141516171819" class="fil0" d="M59.179 14.6951l0.5792 0.0967c-0.0747,0.2123 -0.1919,0.3739 -0.3527,0.4847 -0.1602,0.1115 -0.3613,0.1665 -0.6026,0.1665 -0.3817,0 -0.6639,-0.1242 -0.8473,-0.374 -0.1447,-0.1996 -0.2173,-0.4522 -0.2173,-0.7563 0,-0.3641 0.0952,-0.6491 0.2857,-0.8551 0.1898,-0.206 0.4304,-0.3091 0.7211,-0.3091 0.3266,0 0.5842,0.108 0.7733,0.3239 0.1883,0.2159 0.2786,0.5461 0.2709,0.9913l-1.4556 0c0.0043,0.1721 0.0508,0.3062 0.1404,0.4014 0.0896,0.096 0.2018,0.144 0.3352,0.144 0.091,0 0.1672,-0.0247 0.2293,-0.0741 0.0621,-0.0501 0.1093,-0.1298 0.1404,-0.2399zm0.0331 -0.587c-0.0042,-0.1686 -0.0472,-0.2963 -0.1298,-0.3838 -0.0825,-0.0875 -0.1834,-0.1313 -0.3019,-0.1313 -0.127,0 -0.2315,0.0466 -0.314,0.139 -0.0826,0.0918 -0.1235,0.2173 -0.1221,0.3761l0.8678 0z"/>
  <polygon id="1234567891011121314151617181920" class="fil0" points="60.2627,15.3936 60.2627,12.3633 60.8434,12.3633 60.8434,15.3936 "/>
  <path id="123456789101112131415161718192021" class="fil0" d="M61.3041 14.2647c0,-0.1926 0.048,-0.3796 0.1426,-0.5602 0.0952,-0.1799 0.23,-0.3182 0.4042,-0.4127 0.1743,-0.0953 0.369,-0.1433 0.5842,-0.1433 0.3316,0 0.604,0.108 0.8164,0.3239 0.2123,0.2159 0.3182,0.4882 0.3182,0.8177 0,0.3316 -0.1073,0.6068 -0.3211,0.8255 -0.2145,0.2187 -0.484,0.3274 -0.8092,0.3274 -0.2018,0 -0.393,-0.0452 -0.5758,-0.1362 -0.1827,-0.091 -0.3217,-0.2243 -0.4169,-0.4 -0.0946,-0.1757 -0.1426,-0.3895 -0.1426,-0.6421zm0.5955 0.0311c0,0.218 0.0515,0.3845 0.1552,0.5002 0.103,0.1157 0.2308,0.1736 0.3824,0.1736 0.1517,0 0.2787,-0.0579 0.381,-0.1736 0.1031,-0.1157 0.1546,-0.2836 0.1546,-0.5045 0,-0.2145 -0.0515,-0.3803 -0.1546,-0.496 -0.1023,-0.1157 -0.2293,-0.1735 -0.381,-0.1735 -0.1516,0 -0.2794,0.0578 -0.3824,0.1735 -0.1037,0.1157 -0.1552,0.283 -0.1552,0.5003z"/>
  <path id="12345678910111213141516171819202122" class="fil0" d="M66.5626 15.3936l-0.5807 0 0 -2.1893c-0.2123,0.1989 -0.4621,0.3457 -0.75,0.4402l0 -0.527c0.151,-0.0494 0.3161,-0.1432 0.4939,-0.2815 0.1778,-0.139 0.2999,-0.3006 0.3655,-0.4854l0.4713 0 0 3.043z"/>
  <line class="fil1 str0" x1="15.2519" y1="20.421" x2="195.261" y2= "20.421" />
  <polygon class="fil2" points="54.4026,42.9806 145.177,42.9806 145.177,75.3055 54.4026,75.3055 "/>
  <path class="fil3" d="M62.2835 55.3196l0 3.113c0,0.6727 0.0754,1.0897 0.2234,1.2539 0.1991,0.2314 0.5004,0.347 0.904,0.347l0.4117 0 0 0.2906 -4.5794 0 0 -0.2906 0.4009 0c0.452,0 0.7748,-0.1479 0.9686,-0.4412 0.1049,-0.1642 0.1587,-0.5516 0.1587,-1.1597l0 -6.9068c0,-0.6726 -0.0699,-1.0896 -0.2126,-1.2511 -0.2044,-0.2314 -0.5112,-0.3471 -0.9147,-0.3471l-0.4009 0 0 -0.2933 3.9175 0c0.9551,0 1.7085,0.0996 2.2601,0.296 0.5543,0.1964 1.0171,0.5301 1.3964,0.9982 0.3794,0.4682 0.5677,1.0224 0.5677,1.6628 0,0.8718 -0.2878,1.5821 -0.8636,2.1283 -0.5759,0.5462 -1.3884,0.8206 -2.4404,0.8206 -0.2556,0 -0.5355,-0.0188 -0.8341,-0.0565 -0.2987,-0.0377 -0.6216,-0.0914 -0.9633,-0.1641zm0 -0.4493c0.2799,0.0511 0.5274,0.0914 0.7427,0.1184 0.2152,0.0242 0.3982,0.0376 0.5515,0.0376 0.5462,0 1.0171,-0.2098 1.4153,-0.635 0.3955,-0.4224 0.5946,-0.9686 0.5946,-1.6412 0,-0.4628 -0.0942,-0.8933 -0.2825,-1.2888 -0.191,-0.3982 -0.4574,-0.6942 -0.8045,-0.8906 -0.3471,-0.1991 -0.7426,-0.296 -1.1839,-0.296 -0.2663,0 -0.6107,0.0484 -1.0332,0.148l0 4.4476zm13.3697 -4.9427l0 -0.2933 3.7857 0 0 0.2933 -0.4036 0c-0.4198,0 -0.7426,0.1749 -0.9687,0.5274 -0.1103,0.1641 -0.1668,0.5408 -0.1668,1.1354l0 4.3346c0,1.0735 -0.1049,1.905 -0.3175,2.4942 -0.2125,0.5919 -0.6322,1.1005 -1.2538,1.5229 -0.6242,0.4224 -1.4717,0.635 -2.5426,0.635 -1.1677,0 -2.0529,-0.2019 -2.6556,-0.6081 -0.6054,-0.4036 -1.0332,-0.9471 -1.2861,-1.6305 -0.1669,-0.4682 -0.253,-1.3453 -0.253,-2.6341l0 -4.1786c0,-0.6565 -0.0888,-1.0869 -0.2717,-1.2915 -0.1803,-0.2044 -0.4736,-0.3067 -0.8771,-0.3067l-0.4036 0 0 -0.2933 4.6198 0 0 0.2933 -0.409 0c-0.4413,0 -0.7588,0.1373 -0.9471,0.417 -0.1319,0.1884 -0.1965,0.5839 -0.1965,1.1812l0 4.6602c0,0.4143 0.0377,0.8906 0.113,1.426 0.0781,0.5354 0.2153,0.9552 0.4144,1.2538 0.1991,0.2987 0.487,0.5462 0.8637,0.7399 0.3767,0.1964 0.8368,0.2933 1.383,0.2933 0.6995,0 1.3237,-0.1533 1.8753,-0.4574 0.5516,-0.304 0.931,-0.6942 1.1328,-1.1704 0.2018,-0.4762 0.304,-1.2807 0.304,-2.4162l0 -4.3292c0,-0.6672 -0.0753,-1.0843 -0.2206,-1.2511 -0.2072,-0.2314 -0.5113,-0.3471 -0.9148,-0.3471l-0.4036 0zm-0.1345 -3.7668l-2.3247 2.7175 -0.2691 0 0.8287 -2.7175 1.7651 0zm11.5481 8.7095c0.7425,0.156 1.2968,0.409 1.6654,0.7561 0.5086,0.4843 0.7641,1.0735 0.7641,1.773 0,0.5301 -0.1695,1.0386 -0.5058,1.5256 -0.3363,0.487 -0.7964,0.8395 -1.383,1.0628 -0.5865,0.2233 -1.4798,0.3363 -2.6825,0.3363l-5.0449 0 0 -0.2906 0.4009 0c0.4466,0 0.7668,-0.1426 0.9606,-0.4278 0.121,-0.1829 0.1829,-0.5731 0.1829,-1.1731l0 -6.9068c0,-0.6618 -0.0753,-1.0789 -0.2287,-1.2511 -0.2045,-0.2314 -0.5112,-0.3471 -0.9148,-0.3471l-0.4009 0 0 -0.2933 4.6171 0c0.8637,0 1.5552,0.0646 2.0745,0.1911 0.7883,0.1883 1.391,0.522 1.8053,1.0036 0.4144,0.4816 0.6216,1.0331 0.6216,1.6601 0,0.5354 -0.1615,1.0143 -0.487,1.4394 -0.3256,0.4225 -0.8072,0.7346 -1.4448,0.9418zm-4.1301 -0.4278c0.1964,0.0376 0.417,0.0646 0.6672,0.0834 0.2503,0.0188 0.5247,0.0269 0.8234,0.0269 0.7668,0 1.3453,-0.0807 1.73,-0.2476 0.3875,-0.1641 0.6834,-0.4197 0.8879,-0.7614 0.2045,-0.339 0.3068,-0.713 0.3068,-1.1193 0,-0.6242 -0.2557,-1.157 -0.7642,-1.5982 -0.5112,-0.4413 -1.2538,-0.6619 -2.2305,-0.6619 -0.5274,0 -0.9982,0.0565 -1.4206,0.1722l0 4.1059zm0 5.1094c0.6107,0.1426 1.2134,0.2126 1.8054,0.2126 0.9524,0 1.6762,-0.2153 2.1767,-0.6431 0.4977,-0.4278 0.7479,-0.9578 0.7479,-1.5874 0,-0.4144 -0.113,-0.8153 -0.339,-1.1973 -0.226,-0.3848 -0.5946,-0.6861 -1.1031,-0.9068 -0.5086,-0.2206 -1.1408,-0.3309 -1.8915,-0.3309 -0.3256,0 -0.6054,0.0054 -0.8368,0.0134 -0.2314,0.0108 -0.4171,0.0296 -0.5596,0.0565l0 4.383zm16.6952 -2.1847l0.261 0.0564 -0.9148 2.9005 -8.2763 0 0 -0.2906 0.4035 0c0.4521,0 0.7749,-0.1479 0.9687,-0.4412 0.1103,-0.1695 0.1641,-0.5597 0.1641,-1.1677l0 -6.8988c0,-0.6672 -0.0727,-1.0843 -0.2206,-1.2511 -0.2045,-0.2314 -0.5085,-0.3471 -0.9122,-0.3471l-0.4035 0 0 -0.2933 4.8404 0 0 0.2933c-0.5678,-0.0054 -0.966,0.0458 -1.1946,0.1561 -0.2288,0.1103 -0.3848,0.2502 -0.4683,0.4197 -0.0833,0.1668 -0.1264,0.5704 -0.1264,1.2054l0 6.7158c0,0.4359 0.0431,0.7345 0.1264,0.8986 0.0619,0.1104 0.1588,0.191 0.2907,0.2449 0.1318,0.0511 0.5408,0.078 1.2296,0.078l0.7802 0c0.8207,0 1.3964,-0.0592 1.7274,-0.1803 0.331,-0.121 0.6323,-0.3363 0.9068,-0.643 0.2717,-0.3068 0.5462,-0.7937 0.8179,-1.4556zm5.5911 2.6663l0 0.2906 -4.5821 0 0 -0.2906 0.3793 0c0.4413,0 0.7615,-0.1291 0.9606,-0.3874 0.1264,-0.1668 0.191,-0.5731 0.191,-1.2135l0 -6.9068c0,-0.5408 -0.035,-0.8986 -0.1022,-1.0708 -0.0539,-0.1319 -0.1615,-0.2449 -0.3229,-0.339 -0.2314,-0.1265 -0.4735,-0.1884 -0.7265,-0.1884l-0.3793 0 0 -0.2933 4.5821 0 0 0.2933 -0.3875 0c-0.4359,0 -0.7534,0.1292 -0.9525,0.3848 -0.1318,0.1695 -0.1991,0.5731 -0.1991,1.2134l0 6.9068c0,0.5409 0.035,0.8987 0.1023,1.0709 0.0538,0.1318 0.1641,0.2448 0.3309,0.339 0.226,0.1265 0.4655,0.191 0.7184,0.191l0.3875 0zm10.1113 -10.6413l0.2448 3.6323 -0.2448 0c-0.3256,-1.087 -0.7911,-1.87 -1.3938,-2.3489 -0.6054,-0.4789 -1.3291,-0.7184 -2.1767,-0.7184 -0.7103,0 -1.3507,0.1803 -1.9238,0.5408 -0.5731,0.3606 -1.0224,0.9337 -1.3506,1.722 -0.3283,0.7884 -0.4924,1.7704 -0.4924,2.9408 0,0.966 0.1533,1.8054 0.4654,2.5158 0.3095,0.7076 0.775,1.2511 1.3992,1.6305 0.6215,0.3794 1.3318,0.5677 2.1309,0.5677 0.6942,0 1.3049,-0.148 1.8377,-0.4467 0.5301,-0.2959 1.1139,-0.8852 1.7489,-1.7677l0.2448 0.1561c-0.5354,0.9524 -1.1623,1.6493 -1.8753,2.0906 -0.7157,0.4412 -1.5632,0.6619 -2.548,0.6619 -1.7704,0 -3.1427,-0.6566 -4.114,-1.9722 -0.7237,-0.9767 -1.0869,-2.1283 -1.0869,-3.4521 0,-1.0655 0.2394,-2.0475 0.7156,-2.9408 0.479,-0.8933 1.1382,-1.5848 1.975,-2.0772 0.8394,-0.4897 1.7542,-0.7345 2.7471,-0.7345 0.7722,0 1.5363,0.1884 2.287,0.565 0.2206,0.1157 0.3793,0.1749 0.4735,0.1749 0.1399,0 0.2637,-0.0511 0.3686,-0.1507 0.1372,-0.1399 0.2341,-0.339 0.2933,-0.5892l0.2745 0zm6.9525 0c1.3883,0 2.5911,0.5247 3.6081,1.5794 1.017,1.0547 1.5256,2.3677 1.5256,3.9444 0,1.6251 -0.5139,2.9731 -1.5391,4.044 -1.0251,1.0735 -2.2655,1.609 -3.7211,1.609 -1.4691,0 -2.7067,-0.5247 -3.7076,-1.5686 -1.0009,-1.0467 -1.5014,-2.4001 -1.5014,-4.0602 0,-1.6978 0.5785,-3.0807 1.7328,-4.1543 1.0063,-0.9309 2.2063,-1.3937 3.6027,-1.3937zm-0.148 0.5731c-0.9578,0 -1.7247,0.3551 -2.3031,1.0655 -0.7184,0.8825 -1.079,2.174 -1.079,3.8771 0,1.7462 0.374,3.0888 1.1193,4.0279 0.5731,0.7157 1.3292,1.0735 2.2709,1.0735 1.0036,0 1.8323,-0.3928 2.4861,-1.1758 0.6538,-0.7829 0.9821,-2.0179 0.9821,-3.7049 0,-1.8269 -0.3606,-3.1911 -1.0817,-4.0898 -0.5784,-0.7157 -1.3748,-1.0735 -2.3946,-1.0735z"/>
  <path class="fil4" d="M61.4058 63.8l0 3.0021 1.6693 0c0.434,0 0.7228,-0.065 0.8681,-0.1951 0.195,-0.1721 0.3021,-0.4742 0.3251,-0.9082l0.2065 0 0 2.6445 -0.2065 0c-0.0517,-0.3691 -0.1052,-0.6062 -0.1568,-0.7114 -0.067,-0.13 -0.1779,-0.2332 -0.3308,-0.3078 -0.153,-0.0746 -0.3882,-0.1128 -0.7056,-0.1128l-1.6693 0 0 2.5049c0,0.3365 0.0153,0.5411 0.044,0.6138 0.0306,0.0726 0.0822,0.13 0.1568,0.174 0.0746,0.0421 0.2179,0.0631 0.4264,0.0631l1.2888 0c0.4283,0 0.7419,-0.0287 0.935,-0.0899 0.1951,-0.0593 0.3805,-0.1759 0.5602,-0.3518 0.2314,-0.2314 0.4685,-0.5813 0.7114,-1.0479l0.2237 0 -0.654 1.9045 -5.8549 0 0 -0.2065 0.2696 0c0.1778,0 0.348,-0.044 0.5086,-0.13 0.1205,-0.0593 0.2008,-0.1492 0.2448,-0.2677 0.042,-0.1205 0.0631,-0.3652 0.0631,-0.7343l0 -4.9352c0,-0.4819 -0.0478,-0.7783 -0.1453,-0.8911 -0.1339,-0.1491 -0.3576,-0.2237 -0.6712,-0.2237l-0.2696 0 0 -0.2084 5.8549 0 0.0842 1.6636 -0.2199 0c-0.0784,-0.3997 -0.1645,-0.6731 -0.2601,-0.8223 -0.0956,-0.1491 -0.2352,-0.2638 -0.4225,-0.3422 -0.1492,-0.0555 -0.4131,-0.0842 -0.7898,-0.0842l-2.0842 0zm2.3806 -2.8835l-1.6521 1.9313 -0.1912 0 0.5889 -1.9313 1.2544 0zm5.2947 10.0655l0 -0.2065 0.2849 0c0.3213,0 0.5488,-0.1032 0.6827,-0.3097 0.0822,-0.1224 0.1243,-0.3997 0.1243,-0.828l0 -4.9085c0,-0.4742 -0.0536,-0.7705 -0.1569,-0.8891 -0.1453,-0.1644 -0.3632,-0.2467 -0.6501,-0.2467l-0.2849 0 0 -0.2084 3.092 0c1.1338,0 1.9981,0.13 2.5909,0.3863 0.5909,0.2581 1.067,0.6883 1.4283,1.2887 0.3595,0.6024 0.5412,1.2965 0.5412,2.0843 0,1.0574 -0.3213,1.9408 -0.9637,2.6502 -0.7209,0.7916 -1.8204,1.1874 -3.2946,1.1874l-3.3941 0zm2.1665 -0.5488c0.4742,0.1052 0.8719,0.1568 1.1932,0.1568 0.8661,0 1.5851,-0.304 2.1568,-0.914 0.5718,-0.608 0.8586,-1.434 0.8586,-2.4762 0,-1.0478 -0.2868,-1.8758 -0.8586,-2.48 -0.5717,-0.6062 -1.304,-0.9083 -2.2008,-0.9083 -0.3366,0 -0.719,0.0536 -1.1492,0.1625l0 6.4592zm8.3197 -6.6332l0 3.0021 1.6693 0c0.434,0 0.7228,-0.065 0.8681,-0.1951 0.195,-0.1721 0.3021,-0.4742 0.3251,-0.9082l0.2065 0 0 2.6445 -0.2065 0c-0.0517,-0.3691 -0.1052,-0.6062 -0.1569,-0.7114 -0.0669,-0.13 -0.1778,-0.2332 -0.3307,-0.3078 -0.153,-0.0746 -0.3882,-0.1128 -0.7056,-0.1128l-1.6693 0 0 2.5049c0,0.3365 0.0153,0.5411 0.0439,0.6138 0.0307,0.0726 0.0823,0.13 0.1569,0.174 0.0745,0.0421 0.2179,0.0631 0.4263,0.0631l1.2888 0c0.4284,0 0.742,-0.0287 0.9351,-0.0899 0.195,-0.0593 0.3805,-0.1759 0.5602,-0.3518 0.2314,-0.2314 0.4685,-0.5813 0.7113,-1.0479l0.2238 0 -0.654 1.9045 -5.855 0 0 -0.2065 0.2697 0c0.1778,0 0.348,-0.044 0.5086,-0.13 0.1204,-0.0593 0.2008,-0.1492 0.2448,-0.2677 0.042,-0.1205 0.063,-0.3652 0.063,-0.7343l0 -4.9352c0,-0.4819 -0.0477,-0.7783 -0.1453,-0.8911 -0.1338,-0.1491 -0.3576,-0.2237 -0.6711,-0.2237l-0.2697 0 0 -0.2084 5.855 0 0.0842 1.6636 -0.2199 0c-0.0784,-0.3997 -0.1645,-0.6731 -0.2601,-0.8223 -0.0956,-0.1491 -0.2352,-0.2638 -0.4226,-0.3422 -0.1491,-0.0555 -0.413,-0.0842 -0.7897,-0.0842l-2.0842 0zm13.9108 -0.4149l0.0841 1.7821 -0.2142 0c-0.0401,-0.3136 -0.0956,-0.5373 -0.1682,-0.6731 -0.1148,-0.216 -0.2696,-0.3747 -0.4608,-0.478 -0.1932,-0.1033 -0.4456,-0.1549 -0.7592,-0.1549l-1.0707 0 0 5.8053c0,0.4665 0.0516,0.7572 0.151,0.8738 0.1415,0.1568 0.3614,0.2352 0.6559,0.2352l0.2638 0 0 0.2065 -3.2219 0 0 -0.2065 0.2696 0c0.3212,0 0.5488,-0.0975 0.6827,-0.2925 0.0821,-0.1186 0.1242,-0.392 0.1242,-0.8165l0 -5.8053 -0.914 0c-0.3537,0 -0.6061,0.0268 -0.7553,0.0784 -0.195,0.0708 -0.3614,0.2084 -0.499,0.4092 -0.1377,0.2027 -0.2199,0.4742 -0.2467,0.8184l-0.2123 0 0.0899 -1.7821 6.2011 0zm4.3577 -0.1721c0.9867,0 1.8414,0.3729 2.5642,1.1224 0.7228,0.7496 1.0842,1.6827 1.0842,2.8032 0,1.155 -0.3652,2.113 -1.0937,2.874 -0.7286,0.7629 -1.61,1.1434 -2.6445,1.1434 -1.044,0 -1.9236,-0.3728 -2.6349,-1.1147 -0.7114,-0.7439 -1.067,-1.7057 -1.067,-2.8854 0,-1.2066 0.4111,-2.1894 1.2314,-2.9524 0.7151,-0.6616 1.5679,-0.9905 2.5603,-0.9905zm-0.1051 0.4073c-0.6808,0 -1.2257,0.2524 -1.6368,0.7572 -0.5106,0.6272 -0.7668,1.545 -0.7668,2.7554 0,1.241 0.2658,2.1951 0.7955,2.8625 0.4072,0.5086 0.9445,0.7629 1.6138,0.7629 0.7132,0 1.3022,-0.2792 1.7668,-0.8356 0.4647,-0.5564 0.698,-1.4341 0.698,-2.633 0,-1.2984 -0.2563,-2.2678 -0.7687,-2.9065 -0.4111,-0.5086 -0.9771,-0.7629 -1.7018,-0.7629zm4.3921 7.3617l0 -0.2065 0.285 0c0.3212,0 0.5487,-0.1032 0.6826,-0.3097 0.0822,-0.1224 0.1243,-0.3997 0.1243,-0.828l0 -4.9085c0,-0.4742 -0.0536,-0.7705 -0.1568,-0.8891 -0.1453,-0.1644 -0.3633,-0.2467 -0.6501,-0.2467l-0.285 0 0 -0.2084 3.092 0c1.1339,0 1.9982,0.13 2.5909,0.3863 0.5909,0.2581 1.067,0.6883 1.4284,1.2887 0.3595,0.6024 0.5411,1.2965 0.5411,2.0843 0,1.0574 -0.3212,1.9408 -0.9637,2.6502 -0.7209,0.7916 -1.8203,1.1874 -3.2946,1.1874l-3.3941 0zm2.1665 -0.5488c0.4742,0.1052 0.8719,0.1568 1.1932,0.1568 0.8662,0 1.5852,-0.304 2.1569,-0.914 0.5717,-0.608 0.8585,-1.434 0.8585,-2.4762 0,-1.0478 -0.2868,-1.8758 -0.8585,-2.48 -0.5717,-0.6062 -1.3041,-0.9083 -2.2009,-0.9083 -0.3365,0 -0.719,0.0536 -1.1492,0.1625l0 6.4592zm10.1171 -7.2202c0.9867,0 1.8414,0.3729 2.5642,1.1224 0.7228,0.7496 1.0842,1.6827 1.0842,2.8032 0,1.155 -0.3652,2.113 -1.0938,2.874 -0.7285,0.7629 -1.61,1.1434 -2.6445,1.1434 -1.044,0 -1.9236,-0.3728 -2.6349,-1.1147 -0.7113,-0.7439 -1.067,-1.7057 -1.067,-2.8854 0,-1.2066 0.4111,-2.1894 1.2314,-2.9524 0.7152,-0.6616 1.568,-0.9905 2.5604,-0.9905zm-0.1052 0.4073c-0.6807,0 -1.2256,0.2524 -1.6367,0.7572 -0.5106,0.6272 -0.7668,1.545 -0.7668,2.7554 0,1.241 0.2658,2.1951 0.7954,2.8625 0.4073,0.5086 0.9446,0.7629 1.6139,0.7629 0.7132,0 1.3021,-0.2792 1.7668,-0.8356 0.4646,-0.5564 0.6979,-1.4341 0.6979,-2.633 0,-1.2984 -0.2562,-2.2678 -0.7687,-2.9065 -0.4111,-0.5086 -0.9771,-0.7629 -1.7018,-0.7629zm9.4556 -0.4073l0 2.6273 -0.2065 0c-0.0689,-0.5048 -0.1893,-0.9064 -0.3614,-1.2047 -0.1741,-0.3002 -0.4226,-0.5373 -0.7438,-0.7113 -0.3213,-0.1759 -0.6521,-0.2638 -0.9963,-0.2638 -0.3881,0 -0.7094,0.1185 -0.9637,0.3556 -0.2543,0.2371 -0.3805,0.5067 -0.3805,0.8088 0,0.2314 0.0803,0.4437 0.2409,0.633 0.2314,0.281 0.7821,0.6539 1.6521,1.1205 0.7094,0.3805 1.1951,0.6731 1.4532,0.8777 0.2601,0.2026 0.4608,0.4436 0.6005,0.7189 0.1395,0.2773 0.2103,0.566 0.2103,0.8681 0,0.5756 -0.2237,1.0708 -0.6693,1.4876 -0.4474,0.4169 -1.0211,0.6253 -1.7228,0.6253 -0.2218,0 -0.4283,-0.0172 -0.6234,-0.0516 -0.1147,-0.0172 -0.3556,-0.0861 -0.719,-0.2027 -0.3632,-0.1185 -0.5946,-0.1778 -0.6921,-0.1778 -0.0937,0 -0.1664,0.0287 -0.2218,0.0841 -0.0536,0.0555 -0.0937,0.1721 -0.1205,0.348l-0.2065 0 0 -2.6043 0.2065 0c0.0975,0.5449 0.2294,0.9522 0.3939,1.2238 0.1645,0.2696 0.4149,0.4952 0.7534,0.675 0.3365,0.1778 0.7075,0.2676 1.111,0.2676 0.4665,0 0.8355,-0.1223 1.1071,-0.369 0.2696,-0.2467 0.4053,-0.5373 0.4053,-0.8738 0,-0.1874 -0.0516,-0.3748 -0.1529,-0.566 -0.1033,-0.1913 -0.2639,-0.3671 -0.48,-0.5316 -0.1453,-0.1128 -0.543,-0.3499 -1.1932,-0.7151 -0.6501,-0.3634 -1.1109,-0.654 -1.3862,-0.8701 -0.2754,-0.2179 -0.4819,-0.457 -0.6253,-0.717 -0.1415,-0.262 -0.2123,-0.5507 -0.2123,-0.8643 0,-0.545 0.2084,-1.0134 0.6272,-1.4073 0.4188,-0.3939 0.9503,-0.5909 1.5966,-0.5909 0.4035,0 0.8318,0.0975 1.2831,0.2964 0.2084,0.0937 0.3576,0.1396 0.4417,0.1396 0.0975,0 0.1778,-0.0287 0.239,-0.0861 0.0612,-0.0592 0.1109,-0.1759 0.1492,-0.3499l0.2065 0zm3.1378 5.7575l-0.2142 0 -0.4914 -4.5376c-0.0229,-0.1969 -0.0344,-0.3441 -0.0344,-0.4416 0,-0.2352 0.0631,-0.4245 0.1874,-0.5661 0.1262,-0.1414 0.2753,-0.2122 0.4512,-0.2122 0.176,0 0.3232,0.0708 0.4456,0.2122 0.1204,0.1416 0.1816,0.3519 0.1816,0.633 0,0.0898 -0.0076,0.2141 -0.0229,0.3747l-0.5029 4.5376zm-0.1128 0.9312c0.1721,0 0.3193,0.0593 0.4397,0.1816 0.1225,0.1205 0.1817,0.2658 0.1817,0.4341 0,0.1721 -0.0592,0.3174 -0.1817,0.4398 -0.1204,0.1204 -0.2676,0.1816 -0.4397,0.1816 -0.1721,0 -0.3174,-0.0612 -0.4398,-0.1816 -0.1205,-0.1224 -0.1817,-0.2677 -0.1817,-0.4398 0,-0.1683 0.0612,-0.3136 0.1817,-0.4341 0.1224,-0.1223 0.2677,-0.1816 0.4398,-0.1816z"/>
  <polygon class="fil5" points="132.704,46.1691 132.074,46.5726 131.634,46.6304 131.175,46.8722 130.343,47.8847 130.726,49.69 130.7,49.9429 131.333,51.7284 130.571,55.7684 130.813,56.0912 130.108,58.7014 129.321,59.699 128.98,59.8516 129.221,60.1631 129.065,61.2131 129.042,62.0701 128.818,62.544 129.011,63.2584 129.679,63.1939 130.445,62.7909 130.616,62.5037 130.754,62.5155 130.503,63.0828 129.798,63.2529 130.007,63.7379 130.001,64.5251 131.088,63.994 131.484,64.3845 131.652,65.6368 131.32,66.4841 131.603,66.7467 131.774,69.0364 131.521,69.4328 131.171,70.9201 131.383,71.1427 131.796,70.8932 132.983,70.4682 133.904,70.5774 134.277,70.5363 135.512,71.0196 136.793,70.0626 137.457,69.9527 136.909,68.0807 137.176,67.2841 137.797,66.0603 138.546,65.7271 138.755,64.7641 138.182,64.878 137.378,63.5053 137.452,62.4389 138.392,60.9161 138.11,60.243 137.757,60.2482 136.932,58.9 136.184,58.1043 137.855,57.8916 138.356,56.4492 138.313,55.9167 137.786,55.4569 137.918,55.1044 138.624,54.5123 138.349,53.3484 138.282,51.9397 137.967,51.4175 138.759,50.1915 139.312,49.9765 140.337,48.3898 139.547,47.7685 139.173,47.9465 138.776,47.8298 138.811,46.835 138.655,46.5852 136.377,46.6181 136.367,47.075 135.415,47.2875 133.78,47.2351 133.281,47.6967 132.915,47.3951 133.217,46.744 "/>
  <polygon class="fil6" points="54.4026,106.644 145.177,106.644 145.177,75.3055 54.4026,75.3055 "/>
  <path class="fil7" d="M62.8282 85.7086l0 3.6707c0,0.7931 0.0888,1.2849 0.2633,1.4784 0.2348,0.2729 0.5901,0.4093 1.0661,0.4093l0.4854 0 0 0.3426 -5.3998 0 0 -0.3426 0.4727 0c0.533,0 0.9137,-0.1745 1.1421,-0.5203 0.1237,-0.1936 0.1872,-0.6504 0.1872,-1.3674l0 -8.1441c0,-0.7932 -0.0825,-1.2849 -0.2506,-1.4753 -0.2412,-0.2728 -0.6028,-0.4093 -1.0787,-0.4093l-0.4727 0 0 -0.3458 4.6193 0c1.1263,0 2.0146,0.1174 2.665,0.349 0.6535,0.2316 1.1992,0.625 1.6466,1.1771 0.4473,0.552 0.6694,1.2055 0.6694,1.9606 0,1.0279 -0.3395,1.8655 -1.0184,2.5096 -0.679,0.644 -1.6371,0.9676 -2.8776,0.9676 -0.3014,0 -0.6313,-0.0222 -0.9835,-0.0666 -0.3522,-0.0444 -0.7329,-0.1079 -1.1358,-0.1935zm0 -0.5299c0.33,0.0603 0.6219,0.1079 0.8757,0.1396 0.2538,0.0286 0.4695,0.0444 0.6503,0.0444 0.6441,0 1.1993,-0.2474 1.6688,-0.7487 0.4664,-0.4981 0.7012,-1.1421 0.7012,-1.9353 0,-0.5457 -0.1111,-1.0533 -0.3331,-1.5197 -0.2253,-0.4695 -0.5394,-0.8185 -0.9487,-1.0501 -0.4092,-0.2348 -0.8756,-0.349 -1.3959,-0.349 -0.3141,0 -0.7202,0.0571 -1.2183,0.1745l0 5.2443zm19.5496 6.4309l-3.3661 0 -4.2671 -5.8915c-0.3141,0.0095 -0.5711,0.0158 -0.771,0.0158 -0.0793,0 -0.165,0 -0.2601,-0.0031 -0.0921,-0.0032 -0.1872,-0.0064 -0.2888,-0.0127l0 3.6612c0,0.7931 0.0889,1.2849 0.2602,1.4784 0.238,0.2729 0.5901,0.4093 1.0597,0.4093l0.4949 0 0 0.3426 -5.3998 0 0 -0.3426 0.4727 0c0.533,0 0.9137,-0.1745 1.1422,-0.5203 0.13,-0.1936 0.1966,-0.6504 0.1966,-1.3674l0 -8.1441c0,-0.7932 -0.0888,-1.2849 -0.2601,-1.4753 -0.2411,-0.2728 -0.6028,-0.4093 -1.0787,-0.4093l-0.4727 0 0 -0.3458 4.5908 0c1.3388,0 2.3255,0.0984 2.96,0.2951 0.6345,0.1935 1.1739,0.552 1.618,1.0755 0.4411,0.5266 0.6631,1.1485 0.6631,1.875 0,0.7741 -0.2506,1.4467 -0.7582,2.0178 -0.5045,0.5679 -1.285,0.9708 -2.3446,1.2056l2.6015 3.6168c0.5933,0.8312 1.1073,1.3832 1.5324,1.6561 0.4283,0.2696 0.9867,0.4441 1.6751,0.5203l0 0.3426zm-8.9531 -6.4785c0.1206,0 0.2221,0 0.3078,0.0032 0.0857,0.0032 0.1586,0.0064 0.2126,0.0064 1.2024,0 2.1097,-0.2602 2.7189,-0.7805 0.6123,-0.5203 0.9169,-1.1834 0.9169,-1.9893 0,-0.7867 -0.2475,-1.4276 -0.7393,-1.9194 -0.4917,-0.4917 -1.1453,-0.7392 -1.9574,-0.7392 -0.3586,0 -0.844,0.0603 -1.4595,0.1777l0 5.2411zm14.6607 6.1359l0 0.3426 -5.403 0 0 -0.3426 0.4474 0c0.5203,0 0.8978,-0.1523 1.1326,-0.4569 0.1491,-0.1967 0.2252,-0.6758 0.2252,-1.4308l0 -8.1441c0,-0.6377 -0.0412,-1.0597 -0.1205,-1.2627 -0.0635,-0.1555 -0.1904,-0.2887 -0.3807,-0.3998 -0.2729,-0.1491 -0.5584,-0.2221 -0.8566,-0.2221l-0.4474 0 0 -0.3458 5.403 0 0 0.3458 -0.4569 0c-0.5139,0 -0.8883,0.1523 -1.1231,0.4537 -0.1554,0.1999 -0.2347,0.6758 -0.2347,1.4309l0 8.1441c0,0.6376 0.0412,1.0596 0.1205,1.2627 0.0635,0.1554 0.1935,0.2887 0.3902,0.3997 0.2665,0.1491 0.5489,0.2253 0.8471,0.2253l0.4569 0zm13.9785 -12.2622l0 0.3458c-0.4473,0.0793 -0.7836,0.2221 -1.0152,0.4251 -0.3268,0.3046 -0.6187,0.771 -0.8725,1.396l-4.3972 10.7266 -0.3426 0 -4.7209 -10.8662c-0.2443,-0.5584 -0.4124,-0.8978 -0.514,-1.0216 -0.1522,-0.1935 -0.3426,-0.3426 -0.5711,-0.4505 -0.2252,-0.111 -0.5298,-0.1776 -0.9137,-0.2094l0 -0.3458 5.1492 0 0 0.3458c-0.5838,0.054 -0.9613,0.1555 -1.1358,0.2951 -0.1713,0.1427 -0.2602,0.3268 -0.2602,0.5489 0,0.3109 0.1428,0.7931 0.4283,1.4498l3.2075 7.3891 2.9728 -7.2939c0.2919,-0.7202 0.4378,-1.2183 0.4378,-1.4975 0,-0.1808 -0.0888,-0.3521 -0.2696,-0.5171 -0.1809,-0.1618 -0.4823,-0.2792 -0.9106,-0.3458 -0.0317,-0.0064 -0.0825,-0.0159 -0.1586,-0.0286l0 -0.3458 3.8864 0zm6.488 8.3852l-4.8794 0 -0.8535 1.9893c-0.2125,0.4885 -0.3172,0.8534 -0.3172,1.0977 0,0.1904 0.0919,0.3585 0.2728,0.5045 0.184,0.1459 0.5774,0.2411 1.1866,0.2855l0 0.3426 -3.969 0 0 -0.3426c0.5267,-0.0952 0.8662,-0.2158 1.0216,-0.3649 0.3173,-0.295 0.6663,-0.901 1.0501,-1.8115l4.4354 -10.3713 0.3235 0 4.3878 10.4823c0.3522,0.8439 0.6726,1.3896 0.9613,1.6402 0.2887,0.2507 0.6916,0.3935 1.2056,0.4252l0 0.3426 -4.9747 0 0 -0.3426c0.5013,-0.0254 0.8408,-0.1111 1.0184,-0.2538 0.1777,-0.1396 0.2665,-0.3141 0.2665,-0.5204 0,-0.2728 -0.1269,-0.7011 -0.3743,-1.2912l-0.7615 -1.8116zm-0.2601 -0.6884l-2.1384 -5.0921 -2.1922 5.0921 4.3306 0zm5.625 4.908l0 -0.3426 0.4728 0c0.5329,0 0.9105,-0.1713 1.1325,-0.514 0.1365,-0.203 0.2063,-0.6631 0.2063,-1.3737l0 -8.1441c0,-0.7868 -0.0889,-1.2786 -0.2602,-1.4753 -0.2411,-0.2728 -0.6028,-0.4093 -1.0786,-0.4093l-0.4728 0 0 -0.3458 5.1301 0c1.8814,0 3.3154,0.2158 4.2989,0.6409 0.9804,0.4283 1.7704,1.1421 2.37,2.1383 0.5964,0.9994 0.8978,2.1511 0.8978,3.4582 0,1.7544 -0.533,3.2202 -1.599,4.3972 -1.196,1.3135 -3.0203,1.9702 -5.4664,1.9702l-5.6314 0zm3.5946 -0.9105c0.7868,0.1745 1.4467,0.2601 1.9797,0.2601 1.4372,0 2.6301,-0.5044 3.5787,-1.5165 0.9486,-1.0089 1.4245,-2.3795 1.4245,-4.1085 0,-1.7386 -0.4759,-3.1124 -1.4245,-4.1149 -0.9486,-1.0057 -2.1637,-1.507 -3.6516,-1.507 -0.5584,0 -1.193,0.0889 -1.9068,0.2697l0 10.7171zm16.7863 -11.9798c1.6371,0 3.0552,0.6187 4.2545,1.8623 1.1992,1.2437 1.7989,2.7919 1.7989,4.6511 0,1.9162 -0.606,3.5057 -1.8148,4.7684 -1.2087,1.2659 -2.6713,1.8972 -4.3877,1.8972 -1.7323,0 -3.1917,-0.6186 -4.3719,-1.8496 -1.1802,-1.2342 -1.7703,-2.83 -1.7703,-4.7875 0,-2.0019 0.6821,-3.6326 2.0432,-4.8985 1.1865,-1.0977 2.6015,-1.6434 4.2481,-1.6434zm-0.1745 0.6757c-1.1294,0 -2.0337,0.4189 -2.7157,1.2564 -0.8472,1.0406 -1.2723,2.5635 -1.2723,4.5718 0,2.059 0.441,3.6421 1.3198,4.7493 0.6758,0.844 1.5673,1.2659 2.6777,1.2659 1.1834,0 2.1606,-0.4632 2.9315,-1.3864 0.771,-0.9233 1.158,-2.3795 1.158,-4.3687 0,-2.1542 -0.4251,-3.7627 -1.2754,-4.8224 -0.6821,-0.8439 -1.6212,-1.2659 -2.8236,-1.2659z"/>
  <path class="fil7" d="M61.5178 95.4749l0 3.1575 1.7557 0c0.4566,0 0.7602,-0.0684 0.9131,-0.2051 0.2051,-0.1811 0.3177,-0.4988 0.3419,-0.9553l0.2172 0 0 2.7813 -0.2172 0c-0.0544,-0.3881 -0.1106,-0.6375 -0.1649,-0.7481 -0.0704,-0.1367 -0.1871,-0.2454 -0.348,-0.3238 -0.1608,-0.0784 -0.4082,-0.1186 -0.7421,-0.1186l-1.7557 0 0 2.6346c0,0.3539 0.0161,0.5691 0.0462,0.6455 0.0322,0.0765 0.0865,0.1368 0.1649,0.183 0.0785,0.0443 0.2293,0.0664 0.4485,0.0664l1.3555 0c0.4506,0 0.7804,-0.0302 0.9835,-0.0945 0.2051,-0.0624 0.4002,-0.185 0.5893,-0.3701 0.2433,-0.2433 0.4927,-0.6113 0.7481,-1.1021l0.2353 0 -0.6878 2.0031 -6.1581 0 0 -0.2172 0.2836 0c0.187,0 0.366,-0.0462 0.5349,-0.1367 0.1267,-0.0624 0.2112,-0.1569 0.2574,-0.2816 0.0443,-0.1267 0.0664,-0.3841 0.0664,-0.7723l0 -5.1907c0,-0.5068 -0.0503,-0.8186 -0.1529,-0.9372 -0.1407,-0.1569 -0.376,-0.2353 -0.7058,-0.2353l-0.2836 0 0 -0.2192 6.1581 0 0.0885 1.7497 -0.2313 0c-0.0824,-0.4203 -0.173,-0.708 -0.2735,-0.8648 -0.1005,-0.1569 -0.2474,-0.2776 -0.4444,-0.36 -0.1569,-0.0583 -0.4345,-0.0885 -0.8307,-0.0885l-2.1921 0zm2.5039 -3.0328l-1.7377 2.0312 -0.2011 0 0.6195 -2.0312 1.3193 0zm5.5688 10.5866l0 -0.2172 0.2997 0c0.3379,0 0.5772,-0.1086 0.7179,-0.3258 0.0865,-0.1287 0.1308,-0.4203 0.1308,-0.8708l0 -5.1626c0,-0.4988 -0.0563,-0.8105 -0.1649,-0.9352 -0.1529,-0.1729 -0.3821,-0.2594 -0.6838,-0.2594l-0.2997 0 0 -0.2192 3.252 0c1.1926,0 2.1017,0.1367 2.7251,0.4062 0.6215,0.2715 1.1222,0.724 1.5023,1.3555 0.3782,0.6336 0.5692,1.3636 0.5692,2.1922 0,1.1121 -0.3379,2.0413 -1.0136,2.7874 -0.7582,0.8326 -1.9146,1.2489 -3.4652,1.2489l-3.5698 0zm2.2787 -0.5771c0.4987,0.1105 0.917,0.1649 1.2549,0.1649 0.911,0 1.6672,-0.3198 2.2686,-0.9614 0.6013,-0.6395 0.903,-1.5083 0.903,-2.6044 0,-1.1021 -0.3017,-1.973 -0.903,-2.6085 -0.6014,-0.6375 -1.3716,-0.9553 -2.3149,-0.9553 -0.3539,0 -0.7562,0.0564 -1.2086,0.171l0 6.7937zm8.7504 -6.9767l0 3.1575 1.7558 0c0.4565,0 0.7602,-0.0684 0.913,-0.2051 0.2051,-0.1811 0.3178,-0.4988 0.3419,-0.9553l0.2172 0 0 2.7813 -0.2172 0c-0.0543,-0.3881 -0.1106,-0.6375 -0.1649,-0.7481 -0.0704,-0.1367 -0.187,-0.2454 -0.348,-0.3238 -0.1608,-0.0784 -0.4082,-0.1186 -0.742,-0.1186l-1.7558 0 0 2.6346c0,0.3539 0.0161,0.5691 0.0463,0.6455 0.0322,0.0765 0.0865,0.1368 0.1649,0.183 0.0784,0.0443 0.2292,0.0664 0.4485,0.0664l1.3555 0c0.4505,0 0.7803,-0.0302 0.9834,-0.0945 0.2052,-0.0624 0.4002,-0.185 0.5893,-0.3701 0.2433,-0.2433 0.4927,-0.6113 0.7481,-1.1021l0.2353 0 -0.6878 2.0031 -6.1581 0 0 -0.2172 0.2836 0c0.187,0 0.366,-0.0462 0.535,-0.1367 0.1267,-0.0624 0.2111,-0.1569 0.2574,-0.2816 0.0442,-0.1267 0.0663,-0.3841 0.0663,-0.7723l0 -5.1907c0,-0.5068 -0.0503,-0.8186 -0.1528,-0.9372 -0.1408,-0.1569 -0.3761,-0.2353 -0.7059,-0.2353l-0.2836 0 0 -0.2192 6.1581 0 0.0885 1.7497 -0.2313 0c-0.0824,-0.4203 -0.1729,-0.708 -0.2734,-0.8648 -0.1006,-0.1569 -0.2474,-0.2776 -0.4445,-0.36 -0.1569,-0.0583 -0.4345,-0.0885 -0.8306,-0.0885l-2.1922 0zm12.7205 4.879l-3.0931 0 -0.541 1.261c-0.1348,0.3097 -0.2011,0.541 -0.2011,0.6958 0,0.1207 0.0583,0.2273 0.1729,0.3198 0.1167,0.0925 0.3661,0.1529 0.7522,0.181l0 0.2172 -2.516 0 0 -0.2172c0.3339,-0.0603 0.5491,-0.1367 0.6476,-0.2312 0.2012,-0.1871 0.4224,-0.5712 0.6657,-1.1484l2.8116 -6.5744 0.2051 0 2.7814 6.6448c0.2233,0.5349 0.4264,0.8809 0.6094,1.0398 0.1831,0.1588 0.4385,0.2493 0.7642,0.2694l0 0.2172 -3.1534 0 0 -0.2172c0.3177,-0.016 0.5329,-0.0704 0.6456,-0.1609 0.1126,-0.0885 0.1689,-0.199 0.1689,-0.3298 0,-0.1729 -0.0804,-0.4445 -0.2373,-0.8185l-0.4827 -1.1484zm-0.1649 -0.4364l-1.3555 -3.2279 -1.3897 3.2279 2.7452 0zm10.275 0.901l0.195 0.0422 -0.6838 2.168 -6.1862 0 0 -0.2172 0.3016 0c0.3379,0 0.5792,-0.1106 0.724,-0.3298 0.0825,-0.1267 0.1227,-0.4183 0.1227,-0.8728l0 -5.1566c0,-0.4988 -0.0543,-0.8105 -0.1649,-0.9352 -0.1529,-0.1729 -0.3801,-0.2594 -0.6818,-0.2594l-0.3016 0 0 -0.2192 3.618 0 0 0.2192c-0.4244,-0.004 -0.722,0.0342 -0.8929,0.1166 -0.171,0.0825 -0.2876,0.1871 -0.35,0.3138 -0.0623,0.1247 -0.0945,0.4263 -0.0945,0.901l0 5.0198c0,0.3258 0.0322,0.549 0.0945,0.6717 0.0463,0.0825 0.1187,0.1428 0.2172,0.183 0.0986,0.0382 0.4043,0.0583 0.9191,0.0583l0.5832 0c0.6135,0 1.0438,-0.0442 1.2912,-0.1347 0.2473,-0.0905 0.4726,-0.2514 0.6777,-0.4807 0.2032,-0.2292 0.4083,-0.5933 0.6115,-1.088zm7.8615 -5.961l0.2051 2.5199 -0.2051 0c-0.2092,-0.6274 -0.4787,-1.1001 -0.8085,-1.4199 -0.4746,-0.4585 -1.086,-0.6878 -1.8322,-0.6878 -1.0176,0 -1.7919,0.4023 -2.3208,1.2067 -0.4445,0.6798 -0.6657,1.4883 -0.6657,2.4275 0,0.7622 0.1468,1.4581 0.4404,2.0855 0.2957,0.6295 0.6818,1.0901 1.1585,1.3817 0.4766,0.2936 0.9673,0.4404 1.4701,0.4404 0.2956,0 0.5792,-0.0382 0.8547,-0.1126 0.2756,-0.0744 0.539,-0.185 0.7945,-0.3298l0 -2.3108c0,-0.4002 -0.0302,-0.6617 -0.0906,-0.7864 -0.0603,-0.1226 -0.1548,-0.2172 -0.2835,-0.2815 -0.1267,-0.0664 -0.352,-0.0986 -0.6738,-0.0986l0 -0.2232 3.0932 0 0 0.2232 -0.1468 0c-0.3077,0 -0.5169,0.1026 -0.6316,0.3077 -0.0784,0.1448 -0.1166,0.4324 -0.1166,0.8588l0 2.4455c-0.4525,0.2434 -0.899,0.4224 -1.3374,0.537 -0.4404,0.1146 -0.9291,0.1709 -1.4681,0.1709 -1.5426,0 -2.7151,-0.4947 -3.5175,-1.4842 -0.6014,-0.7441 -0.901,-1.5988 -0.901,-2.5702 0,-0.7019 0.1689,-1.3756 0.5068,-2.0212 0.4002,-0.7662 0.9513,-1.3555 1.6491,-1.7678 0.5853,-0.3419 1.2771,-0.5108 2.0735,-0.5108 0.2916,0 0.5551,0.0221 0.7944,0.0703 0.2374,0.0463 0.5732,0.1509 1.0096,0.3118 0.2192,0.0824 0.368,0.1226 0.4425,0.1226 0.0744,0 0.1387,-0.0341 0.191,-0.1025 0.0523,-0.0684 0.0845,-0.2031 0.0966,-0.4022l0.2192 0zm7.0631 0.4002l0 -0.2192 2.8297 0 0 0.2192 -0.3017 0c-0.3138,0 -0.5551,0.1307 -0.724,0.3942 -0.0824,0.1227 -0.1247,0.4042 -0.1247,0.8487l0 3.2399c0,0.8025 -0.0784,1.4239 -0.2373,1.8644 -0.1589,0.4424 -0.4726,0.8225 -0.9372,1.1383 -0.4666,0.3157 -1.1001,0.4746 -1.9005,0.4746 -0.8728,0 -1.5346,-0.1509 -1.985,-0.4545 -0.4526,-0.3017 -0.7723,-0.708 -0.9614,-1.2188 -0.1247,-0.3499 -0.189,-1.0056 -0.189,-1.9689l0 -3.1233c0,-0.4907 -0.0664,-0.8125 -0.2031,-0.9654 -0.1348,-0.1528 -0.354,-0.2292 -0.6557,-0.2292l-0.3016 0 0 -0.2192 3.4531 0 0 0.2192 -0.3057 0c-0.3298,0 -0.5671,0.1025 -0.7079,0.3117 -0.0986,0.1408 -0.1468,0.4364 -0.1468,0.8829l0 3.4833c0,0.3097 0.0281,0.6657 0.0844,1.0659 0.0584,0.4002 0.1609,0.714 0.3098,0.9372 0.1488,0.2232 0.364,0.4082 0.6455,0.5531 0.2816,0.1468 0.6255,0.2192 1.0338,0.2192 0.5229,0 0.9895,-0.1147 1.4017,-0.3419 0.4123,-0.2273 0.6959,-0.5189 0.8467,-0.8749 0.1509,-0.3559 0.2273,-0.9573 0.2273,-1.806l0 -3.2359c0,-0.4988 -0.0563,-0.8105 -0.1649,-0.9352 -0.1549,-0.1729 -0.3821,-0.2594 -0.6838,-0.2594l-0.3017 0zm2.7995 -0.2192l2.168 0 4.8851 5.9932 0 -4.6076c0,-0.4907 -0.0563,-0.7984 -0.1649,-0.919 -0.1469,-0.1649 -0.3761,-0.2474 -0.6899,-0.2474l-0.2775 0 0 -0.2192 2.7814 0 0 0.2192 -0.2836 0c-0.3378,0 -0.5771,0.1025 -0.7179,0.3057 -0.0865,0.1267 -0.1287,0.4123 -0.1287,0.8607l0 6.7333 -0.2132 0 -5.2672 -6.4336 0 4.9213c0,0.4907 0.0523,0.7964 0.1589,0.919 0.1488,0.165 0.3801,0.2474 0.6898,0.2474l0.2816 0 0 0.2172 -2.7795 0 0 -0.2172 0.2756 0c0.3419,0 0.5832,-0.1025 0.726,-0.3077 0.0865,-0.1247 0.1287,-0.4123 0.1287,-0.8587l0 -5.5568c-0.2313,-0.2715 -0.4082,-0.4505 -0.5269,-0.537 -0.1207,-0.0864 -0.2956,-0.1669 -0.5269,-0.2413 -0.1147,-0.0342 -0.2876,-0.0523 -0.5189,-0.0523l0 -0.2192zm14.4058 -0.181l0 2.7633 -0.2172 0c-0.0724,-0.531 -0.1991,-0.9533 -0.3801,-1.2671 -0.183,-0.3157 -0.4444,-0.5651 -0.7823,-0.7481 -0.3379,-0.185 -0.6858,-0.2775 -1.0479,-0.2775 -0.4082,0 -0.7461,0.1247 -1.0135,0.374 -0.2675,0.2494 -0.4003,0.533 -0.4003,0.8508 0,0.2433 0.0845,0.4665 0.2534,0.6657 0.2434,0.2956 0.8226,0.6878 1.7377,1.1785 0.7461,0.4002 1.2569,0.7079 1.5284,0.9231 0.2736,0.2132 0.4847,0.4666 0.6315,0.7562 0.1469,0.2916 0.2212,0.5953 0.2212,0.913 0,0.6054 -0.2352,1.1263 -0.7038,1.5647 -0.4706,0.4384 -1.074,0.6576 -1.8121,0.6576 -0.2333,0 -0.4505,-0.018 -0.6556,-0.0543 -0.1207,-0.018 -0.3741,-0.0905 -0.7562,-0.2131 -0.3821,-0.1247 -0.6255,-0.1871 -0.728,-0.1871 -0.0986,0 -0.175,0.0302 -0.2333,0.0885 -0.0563,0.0583 -0.0986,0.181 -0.1268,0.366l-0.2172 0 0 -2.7391 0.2172 0c0.1027,0.5732 0.2414,1.0015 0.4144,1.2871 0.1729,0.2836 0.4364,0.5209 0.7923,0.7099 0.354,0.1871 0.7442,0.2816 1.1685,0.2816 0.4907,0 0.8789,-0.1287 1.1645,-0.3881 0.2835,-0.2595 0.4264,-0.5652 0.4264,-0.9192 0,-0.197 -0.0544,-0.3941 -0.161,-0.5953 -0.1085,-0.201 -0.2775,-0.3861 -0.5048,-0.5591 -0.1528,-0.1186 -0.5711,-0.368 -1.2549,-0.7521 -0.6838,-0.3821 -1.1684,-0.6878 -1.4581,-0.9151 -0.2896,-0.2292 -0.5068,-0.4807 -0.6576,-0.7541 -0.1489,-0.2756 -0.2233,-0.5793 -0.2233,-0.9091 0,-0.5732 0.2193,-1.0659 0.6597,-1.4802 0.4404,-0.4143 0.9995,-0.6214 1.6793,-0.6214 0.4244,0 0.8748,0.1025 1.3495,0.3117 0.2192,0.0985 0.376,0.1468 0.4645,0.1468 0.1026,0 0.1871,-0.0302 0.2514,-0.0905 0.0644,-0.0623 0.1167,-0.185 0.1569,-0.368l0.2172 0zm3.3003 6.0555l-0.2253 0 -0.5168 -4.7724c-0.0241,-0.2072 -0.0362,-0.362 -0.0362,-0.4646 0,-0.2474 0.0663,-0.4465 0.1971,-0.5953 0.1327,-0.1488 0.2896,-0.2232 0.4746,-0.2232 0.185,0 0.3399,0.0744 0.4686,0.2232 0.1267,0.1488 0.1911,0.37 0.1911,0.6657 0,0.0945 -0.0081,0.2252 -0.0242,0.3942l-0.5289 4.7724zm-0.1187 0.9795c0.181,0 0.3359,0.0623 0.4626,0.191 0.1287,0.1267 0.191,0.2796 0.191,0.4566 0,0.1809 -0.0623,0.3338 -0.191,0.4625 -0.1267,0.1267 -0.2816,0.1911 -0.4626,0.1911 -0.181,0 -0.3338,-0.0644 -0.4625,-0.1911 -0.1268,-0.1287 -0.1911,-0.2816 -0.1911,-0.4625 0,-0.177 0.0643,-0.3299 0.1911,-0.4566 0.1287,-0.1287 0.2815,-0.191 0.4625,-0.191z"/>
  <g id="_42365536">
   <g>
    <polygon id="_42378976" class="fil8" points="54.4026,144.233 145.177,144.233 145.177,176.558 54.4026,176.558 "/>
    <path id="_423789761" class="fil3" d="M145.53 144.233l-0.3527 0.3518 -90.7748 0 0 -0.7036 90.7748 0 0.3527 0.3518zm-0.3527 -0.3518l0.3527 0 0 0.3518 -0.3527 -0.3518zm0 33.0285l-0.3527 -0.3518 0 -32.3249 0.7054 0 0 32.3249 -0.3527 0.3518zm0.3527 -0.3518l0 0.3518 -0.3527 0 0.3527 -0.3518zm-91.4802 0l0.3527 -0.3518 90.7748 0 0 0.7036 -90.7748 0 -0.3527 -0.3518zm0.3527 0.3518l-0.3527 0 0 -0.3518 0.3527 0.3518zm0 -33.0285l0.3527 0.3518 0 32.3249 -0.7054 0 0 -32.3249 0.3527 -0.3518zm-0.3527 0.3518l0 -0.3518 0.3527 0 -0.3527 0.3518z"/>
   </g>
   <path class="fil3" d="M62.2835 156.572l0 3.113c0,0.6727 0.0754,1.0897 0.2234,1.2539 0.1991,0.2314 0.5004,0.347 0.904,0.347l0.4117 0 0 0.2906 -4.5794 0 0 -0.2906 0.4009 0c0.452,0 0.7748,-0.1479 0.9686,-0.4412 0.1049,-0.1642 0.1587,-0.5516 0.1587,-1.1597l0 -6.9068c0,-0.6726 -0.0699,-1.0896 -0.2126,-1.2511 -0.2044,-0.2314 -0.5112,-0.3471 -0.9147,-0.3471l-0.4009 0 0 -0.2933 3.9175 0c0.9551,0 1.7085,0.0996 2.2601,0.296 0.5543,0.1964 1.0171,0.5301 1.3964,0.9982 0.3794,0.4682 0.5677,1.0224 0.5677,1.6628 0,0.8718 -0.2878,1.5821 -0.8636,2.1283 -0.5759,0.5462 -1.3884,0.8206 -2.4404,0.8206 -0.2556,0 -0.5355,-0.0188 -0.8341,-0.0565 -0.2987,-0.0377 -0.6216,-0.0914 -0.9633,-0.1641zm0 -0.4493c0.2799,0.0511 0.5274,0.0914 0.7427,0.1184 0.2152,0.0242 0.3982,0.0376 0.5515,0.0376 0.5462,0 1.0171,-0.2098 1.4153,-0.635 0.3955,-0.4224 0.5946,-0.9686 0.5946,-1.6412 0,-0.4628 -0.0942,-0.8933 -0.2825,-1.2888 -0.191,-0.3982 -0.4574,-0.6942 -0.8045,-0.8906 -0.3471,-0.1991 -0.7426,-0.296 -1.1839,-0.296 -0.2663,0 -0.6107,0.0484 -1.0332,0.148l0 4.4476zm13.3697 -4.9427l0 -0.2933 3.7857 0 0 0.2933 -0.4036 0c-0.4198,0 -0.7426,0.1749 -0.9687,0.5274 -0.1103,0.1641 -0.1668,0.5408 -0.1668,1.1354l0 4.3346c0,1.0735 -0.1049,1.905 -0.3175,2.4942 -0.2125,0.5919 -0.6322,1.1005 -1.2538,1.5229 -0.6242,0.4224 -1.4717,0.635 -2.5426,0.635 -1.1677,0 -2.0529,-0.2019 -2.6556,-0.6081 -0.6054,-0.4036 -1.0332,-0.9471 -1.2861,-1.6305 -0.1669,-0.4682 -0.253,-1.3453 -0.253,-2.6341l0 -4.1786c0,-0.6565 -0.0888,-1.0869 -0.2717,-1.2915 -0.1803,-0.2044 -0.4736,-0.3067 -0.8771,-0.3067l-0.4036 0 0 -0.2933 4.6198 0 0 0.2933 -0.409 0c-0.4413,0 -0.7588,0.1373 -0.9471,0.417 -0.1319,0.1884 -0.1965,0.5839 -0.1965,1.1812l0 4.6602c0,0.4143 0.0377,0.8906 0.113,1.426 0.0781,0.5354 0.2153,0.9552 0.4144,1.2538 0.1991,0.2987 0.487,0.5462 0.8637,0.7399 0.3767,0.1964 0.8368,0.2933 1.383,0.2933 0.6995,0 1.3237,-0.1533 1.8753,-0.4574 0.5516,-0.304 0.931,-0.6942 1.1328,-1.1704 0.2018,-0.4762 0.304,-1.2807 0.304,-2.4162l0 -4.3292c0,-0.6672 -0.0753,-1.0843 -0.2206,-1.2511 -0.2072,-0.2314 -0.5113,-0.3471 -0.9148,-0.3471l-0.4036 0zm-0.1345 -3.7668l-2.3247 2.7175 -0.2691 0 0.8287 -2.7175 1.7651 0zm11.5481 8.7095c0.7425,0.156 1.2968,0.409 1.6654,0.7561 0.5086,0.4843 0.7641,1.0735 0.7641,1.773 0,0.5301 -0.1695,1.0386 -0.5058,1.5256 -0.3363,0.487 -0.7964,0.8395 -1.383,1.0628 -0.5865,0.2233 -1.4798,0.3363 -2.6825,0.3363l-5.0449 0 0 -0.2906 0.4009 0c0.4466,0 0.7668,-0.1426 0.9606,-0.4278 0.121,-0.1829 0.1829,-0.5731 0.1829,-1.1731l0 -6.9068c0,-0.6618 -0.0753,-1.0789 -0.2287,-1.2511 -0.2045,-0.2314 -0.5112,-0.3471 -0.9148,-0.3471l-0.4009 0 0 -0.2933 4.6171 0c0.8637,0 1.5552,0.0646 2.0745,0.1911 0.7883,0.1883 1.391,0.522 1.8053,1.0036 0.4144,0.4816 0.6216,1.0331 0.6216,1.6601 0,0.5354 -0.1615,1.0143 -0.487,1.4394 -0.3256,0.4225 -0.8072,0.7346 -1.4448,0.9418zm-4.1301 -0.4278c0.1964,0.0376 0.417,0.0646 0.6672,0.0834 0.2503,0.0188 0.5247,0.0269 0.8234,0.0269 0.7668,0 1.3453,-0.0807 1.73,-0.2476 0.3875,-0.1641 0.6834,-0.4197 0.8879,-0.7614 0.2045,-0.339 0.3068,-0.713 0.3068,-1.1193 0,-0.6242 -0.2557,-1.157 -0.7642,-1.5982 -0.5112,-0.4413 -1.2538,-0.6619 -2.2305,-0.6619 -0.5274,0 -0.9982,0.0565 -1.4206,0.1722l0 4.1059zm0 5.1094c0.6107,0.1426 1.2134,0.2126 1.8054,0.2126 0.9524,0 1.6762,-0.2153 2.1767,-0.6431 0.4977,-0.4278 0.7479,-0.9578 0.7479,-1.5874 0,-0.4144 -0.113,-0.8153 -0.339,-1.1973 -0.226,-0.3848 -0.5946,-0.6861 -1.1031,-0.9068 -0.5086,-0.2206 -1.1408,-0.3309 -1.8915,-0.3309 -0.3256,0 -0.6054,0.0054 -0.8368,0.0134 -0.2314,0.0108 -0.4171,0.0296 -0.5596,0.0565l0 4.383zm16.6952 -2.1847l0.261 0.0564 -0.9148 2.9005 -8.2763 0 0 -0.2906 0.4035 0c0.4521,0 0.7749,-0.1479 0.9687,-0.4412 0.1103,-0.1695 0.1641,-0.5597 0.1641,-1.1677l0 -6.8988c0,-0.6672 -0.0727,-1.0843 -0.2206,-1.2511 -0.2045,-0.2314 -0.5085,-0.3471 -0.9122,-0.3471l-0.4035 0 0 -0.2933 4.8404 0 0 0.2933c-0.5678,-0.0054 -0.966,0.0458 -1.1946,0.1561 -0.2288,0.1103 -0.3848,0.2502 -0.4683,0.4197 -0.0833,0.1668 -0.1264,0.5704 -0.1264,1.2054l0 6.7158c0,0.4359 0.0431,0.7345 0.1264,0.8986 0.0619,0.1104 0.1588,0.191 0.2907,0.2449 0.1318,0.0511 0.5408,0.078 1.2296,0.078l0.7802 0c0.8207,0 1.3964,-0.0592 1.7274,-0.1803 0.331,-0.121 0.6323,-0.3363 0.9068,-0.643 0.2717,-0.3068 0.5462,-0.7937 0.8179,-1.4556zm5.5911 2.6663l0 0.2906 -4.5821 0 0 -0.2906 0.3793 0c0.4413,0 0.7615,-0.1291 0.9606,-0.3874 0.1264,-0.1668 0.191,-0.5731 0.191,-1.2135l0 -6.9068c0,-0.5408 -0.035,-0.8986 -0.1022,-1.0708 -0.0539,-0.1319 -0.1615,-0.2449 -0.3229,-0.339 -0.2314,-0.1265 -0.4735,-0.1884 -0.7265,-0.1884l-0.3793 0 0 -0.2933 4.5821 0 0 0.2933 -0.3875 0c-0.4359,0 -0.7534,0.1292 -0.9525,0.3848 -0.1318,0.1695 -0.1991,0.5731 -0.1991,1.2134l0 6.9068c0,0.5409 0.035,0.8987 0.1023,1.0709 0.0538,0.1318 0.1641,0.2448 0.3309,0.339 0.226,0.1265 0.4655,0.191 0.7184,0.191l0.3875 0zm10.1113 -10.6413l0.2448 3.6323 -0.2448 0c-0.3256,-1.087 -0.7911,-1.87 -1.3938,-2.3489 -0.6054,-0.4789 -1.3291,-0.7184 -2.1767,-0.7184 -0.7103,0 -1.3507,0.1803 -1.9238,0.5408 -0.5731,0.3606 -1.0224,0.9337 -1.3506,1.722 -0.3283,0.7884 -0.4924,1.7704 -0.4924,2.9408 0,0.966 0.1533,1.8054 0.4654,2.5158 0.3095,0.7076 0.775,1.2511 1.3992,1.6305 0.6215,0.3794 1.3318,0.5677 2.1309,0.5677 0.6942,0 1.3049,-0.148 1.8377,-0.4467 0.5301,-0.2959 1.1139,-0.8852 1.7489,-1.7677l0.2448 0.1561c-0.5354,0.9524 -1.1623,1.6493 -1.8753,2.0906 -0.7157,0.4412 -1.5632,0.6619 -2.548,0.6619 -1.7704,0 -3.1427,-0.6566 -4.114,-1.9722 -0.7237,-0.9767 -1.0869,-2.1283 -1.0869,-3.4521 0,-1.0655 0.2394,-2.0475 0.7156,-2.9408 0.479,-0.8933 1.1382,-1.5848 1.975,-2.0772 0.8394,-0.4897 1.7542,-0.7345 2.7471,-0.7345 0.7722,0 1.5363,0.1884 2.287,0.565 0.2206,0.1157 0.3793,0.1749 0.4735,0.1749 0.1399,0 0.2637,-0.0511 0.3686,-0.1507 0.1372,-0.1399 0.2341,-0.339 0.2933,-0.5892l0.2745 0zm6.9525 0c1.3883,0 2.5911,0.5247 3.6081,1.5794 1.017,1.0547 1.5256,2.3677 1.5256,3.9444 0,1.6251 -0.5139,2.9731 -1.5391,4.044 -1.0251,1.0735 -2.2655,1.609 -3.7211,1.609 -1.4691,0 -2.7067,-0.5247 -3.7076,-1.5686 -1.0009,-1.0467 -1.5014,-2.4001 -1.5014,-4.0602 0,-1.6978 0.5785,-3.0807 1.7328,-4.1543 1.0063,-0.9309 2.2063,-1.3937 3.6027,-1.3937zm-0.148 0.5731c-0.9578,0 -1.7247,0.3551 -2.3031,1.0655 -0.7184,0.8825 -1.079,2.174 -1.079,3.8771 0,1.7462 0.374,3.0888 1.1193,4.0279 0.5731,0.7157 1.3292,1.0735 2.2709,1.0735 1.0036,0 1.8323,-0.3928 2.4861,-1.1758 0.6538,-0.7829 0.9821,-2.0179 0.9821,-3.7049 0,-1.8269 -0.3606,-3.1911 -1.0817,-4.0898 -0.5784,-0.7157 -1.3748,-1.0735 -2.3946,-1.0735z"/>
   <path class="fil3" d="M61.4058 165.053l0 3.0021 1.6693 0c0.434,0 0.7228,-0.065 0.8681,-0.1951 0.195,-0.1721 0.3021,-0.4742 0.3251,-0.9082l0.2065 0 0 2.6445 -0.2065 0c-0.0517,-0.3691 -0.1052,-0.6062 -0.1568,-0.7114 -0.067,-0.13 -0.1779,-0.2332 -0.3308,-0.3078 -0.153,-0.0746 -0.3882,-0.1128 -0.7056,-0.1128l-1.6693 0 0 2.5049c0,0.3365 0.0153,0.5411 0.044,0.6138 0.0306,0.0726 0.0822,0.13 0.1568,0.174 0.0746,0.0421 0.2179,0.0631 0.4264,0.0631l1.2888 0c0.4283,0 0.7419,-0.0287 0.935,-0.0899 0.1951,-0.0593 0.3805,-0.1759 0.5602,-0.3518 0.2314,-0.2314 0.4685,-0.5813 0.7114,-1.0479l0.2237 0 -0.654 1.9045 -5.8549 0 0 -0.2065 0.2696 0c0.1778,0 0.348,-0.044 0.5086,-0.13 0.1205,-0.0593 0.2008,-0.1492 0.2448,-0.2677 0.042,-0.1205 0.0631,-0.3652 0.0631,-0.7343l0 -4.9352c0,-0.4819 -0.0478,-0.7783 -0.1453,-0.8911 -0.1339,-0.1491 -0.3576,-0.2237 -0.6712,-0.2237l-0.2696 0 0 -0.2084 5.8549 0 0.0842 1.6636 -0.2199 0c-0.0784,-0.3997 -0.1645,-0.6731 -0.2601,-0.8223 -0.0956,-0.1491 -0.2352,-0.2638 -0.4225,-0.3422 -0.1492,-0.0555 -0.4131,-0.0842 -0.7898,-0.0842l-2.0842 0zm2.3806 -2.8835l-1.6521 1.9313 -0.1912 0 0.5889 -1.9313 1.2544 0zm5.2947 10.0655l0 -0.2065 0.2849 0c0.3213,0 0.5488,-0.1032 0.6827,-0.3097 0.0822,-0.1224 0.1243,-0.3997 0.1243,-0.828l0 -4.9085c0,-0.4742 -0.0536,-0.7705 -0.1569,-0.8891 -0.1453,-0.1644 -0.3632,-0.2467 -0.6501,-0.2467l-0.2849 0 0 -0.2084 3.092 0c1.1338,0 1.9981,0.13 2.5909,0.3863 0.5909,0.2581 1.067,0.6883 1.4283,1.2887 0.3595,0.6024 0.5412,1.2965 0.5412,2.0843 0,1.0574 -0.3213,1.9408 -0.9637,2.6502 -0.7209,0.7916 -1.8204,1.1874 -3.2946,1.1874l-3.3941 0zm2.1665 -0.5488c0.4742,0.1052 0.8719,0.1568 1.1932,0.1568 0.8661,0 1.5851,-0.304 2.1568,-0.914 0.5718,-0.608 0.8586,-1.434 0.8586,-2.4762 0,-1.0478 -0.2868,-1.8758 -0.8586,-2.48 -0.5717,-0.6062 -1.304,-0.9083 -2.2008,-0.9083 -0.3366,0 -0.719,0.0536 -1.1492,0.1625l0 6.4592zm8.3197 -6.6332l0 3.0021 1.6693 0c0.434,0 0.7228,-0.065 0.8681,-0.1951 0.195,-0.1721 0.3021,-0.4742 0.3251,-0.9082l0.2065 0 0 2.6445 -0.2065 0c-0.0517,-0.3691 -0.1052,-0.6062 -0.1569,-0.7114 -0.0669,-0.13 -0.1778,-0.2332 -0.3307,-0.3078 -0.153,-0.0746 -0.3882,-0.1128 -0.7056,-0.1128l-1.6693 0 0 2.5049c0,0.3365 0.0153,0.5411 0.0439,0.6138 0.0307,0.0726 0.0823,0.13 0.1569,0.174 0.0745,0.0421 0.2179,0.0631 0.4263,0.0631l1.2888 0c0.4284,0 0.742,-0.0287 0.9351,-0.0899 0.195,-0.0593 0.3805,-0.1759 0.5602,-0.3518 0.2314,-0.2314 0.4685,-0.5813 0.7113,-1.0479l0.2238 0 -0.654 1.9045 -5.855 0 0 -0.2065 0.2697 0c0.1778,0 0.348,-0.044 0.5086,-0.13 0.1204,-0.0593 0.2008,-0.1492 0.2448,-0.2677 0.042,-0.1205 0.063,-0.3652 0.063,-0.7343l0 -4.9352c0,-0.4819 -0.0477,-0.7783 -0.1453,-0.8911 -0.1338,-0.1491 -0.3576,-0.2237 -0.6711,-0.2237l-0.2697 0 0 -0.2084 5.855 0 0.0842 1.6636 -0.2199 0c-0.0784,-0.3997 -0.1645,-0.6731 -0.2601,-0.8223 -0.0956,-0.1491 -0.2352,-0.2638 -0.4226,-0.3422 -0.1491,-0.0555 -0.413,-0.0842 -0.7897,-0.0842l-2.0842 0zm13.9108 -0.4149l0.0841 1.7821 -0.2142 0c-0.0401,-0.3136 -0.0956,-0.5373 -0.1682,-0.6731 -0.1148,-0.216 -0.2696,-0.3747 -0.4608,-0.478 -0.1932,-0.1033 -0.4456,-0.1549 -0.7592,-0.1549l-1.0707 0 0 5.8053c0,0.4665 0.0516,0.7572 0.151,0.8738 0.1415,0.1568 0.3614,0.2352 0.6559,0.2352l0.2638 0 0 0.2065 -3.2219 0 0 -0.2065 0.2696 0c0.3212,0 0.5488,-0.0975 0.6827,-0.2925 0.0821,-0.1186 0.1242,-0.392 0.1242,-0.8165l0 -5.8053 -0.914 0c-0.3537,0 -0.6061,0.0268 -0.7553,0.0784 -0.195,0.0708 -0.3614,0.2084 -0.499,0.4092 -0.1377,0.2027 -0.2199,0.4742 -0.2467,0.8184l-0.2123 0 0.0899 -1.7821 6.2011 0zm4.3577 -0.1721c0.9867,0 1.8414,0.3729 2.5642,1.1224 0.7228,0.7496 1.0842,1.6827 1.0842,2.8032 0,1.155 -0.3652,2.113 -1.0937,2.874 -0.7286,0.7629 -1.61,1.1434 -2.6445,1.1434 -1.044,0 -1.9236,-0.3728 -2.6349,-1.1147 -0.7114,-0.7439 -1.067,-1.7057 -1.067,-2.8854 0,-1.2066 0.4111,-2.1894 1.2314,-2.9524 0.7151,-0.6616 1.5679,-0.9905 2.5603,-0.9905zm-0.1051 0.4073c-0.6808,0 -1.2257,0.2524 -1.6368,0.7572 -0.5106,0.6272 -0.7668,1.545 -0.7668,2.7554 0,1.241 0.2658,2.1951 0.7955,2.8625 0.4072,0.5086 0.9445,0.7629 1.6138,0.7629 0.7132,0 1.3022,-0.2792 1.7668,-0.8356 0.4647,-0.5564 0.698,-1.4341 0.698,-2.633 0,-1.2984 -0.2563,-2.2678 -0.7687,-2.9065 -0.4111,-0.5086 -0.9771,-0.7629 -1.7018,-0.7629zm4.3921 7.3617l0 -0.2065 0.285 0c0.3212,0 0.5487,-0.1032 0.6826,-0.3097 0.0822,-0.1224 0.1243,-0.3997 0.1243,-0.828l0 -4.9085c0,-0.4742 -0.0536,-0.7705 -0.1568,-0.8891 -0.1453,-0.1644 -0.3633,-0.2467 -0.6501,-0.2467l-0.285 0 0 -0.2084 3.092 0c1.1339,0 1.9982,0.13 2.5909,0.3863 0.5909,0.2581 1.067,0.6883 1.4284,1.2887 0.3595,0.6024 0.5411,1.2965 0.5411,2.0843 0,1.0574 -0.3212,1.9408 -0.9637,2.6502 -0.7209,0.7916 -1.8203,1.1874 -3.2946,1.1874l-3.3941 0zm2.1665 -0.5488c0.4742,0.1052 0.8719,0.1568 1.1932,0.1568 0.8662,0 1.5852,-0.304 2.1569,-0.914 0.5717,-0.608 0.8585,-1.434 0.8585,-2.4762 0,-1.0478 -0.2868,-1.8758 -0.8585,-2.48 -0.5717,-0.6062 -1.3041,-0.9083 -2.2009,-0.9083 -0.3365,0 -0.719,0.0536 -1.1492,0.1625l0 6.4592zm10.1171 -7.2202c0.9867,0 1.8414,0.3729 2.5642,1.1224 0.7228,0.7496 1.0842,1.6827 1.0842,2.8032 0,1.155 -0.3652,2.113 -1.0938,2.874 -0.7285,0.7629 -1.61,1.1434 -2.6445,1.1434 -1.044,0 -1.9236,-0.3728 -2.6349,-1.1147 -0.7113,-0.7439 -1.067,-1.7057 -1.067,-2.8854 0,-1.2066 0.4111,-2.1894 1.2314,-2.9524 0.7152,-0.6616 1.568,-0.9905 2.5604,-0.9905zm-0.1052 0.4073c-0.6807,0 -1.2256,0.2524 -1.6367,0.7572 -0.5106,0.6272 -0.7668,1.545 -0.7668,2.7554 0,1.241 0.2658,2.1951 0.7954,2.8625 0.4073,0.5086 0.9446,0.7629 1.6139,0.7629 0.7132,0 1.3021,-0.2792 1.7668,-0.8356 0.4646,-0.5564 0.6979,-1.4341 0.6979,-2.633 0,-1.2984 -0.2562,-2.2678 -0.7687,-2.9065 -0.4111,-0.5086 -0.9771,-0.7629 -1.7018,-0.7629zm9.4556 -0.4073l0 2.6273 -0.2065 0c-0.0689,-0.5048 -0.1893,-0.9064 -0.3614,-1.2047 -0.1741,-0.3002 -0.4226,-0.5373 -0.7438,-0.7113 -0.3213,-0.1759 -0.6521,-0.2638 -0.9963,-0.2638 -0.3881,0 -0.7094,0.1185 -0.9637,0.3556 -0.2543,0.2371 -0.3805,0.5067 -0.3805,0.8088 0,0.2314 0.0803,0.4437 0.2409,0.633 0.2314,0.281 0.7821,0.6539 1.6521,1.1205 0.7094,0.3805 1.1951,0.6731 1.4532,0.8777 0.2601,0.2026 0.4608,0.4436 0.6005,0.7189 0.1395,0.2773 0.2103,0.566 0.2103,0.8681 0,0.5756 -0.2237,1.0708 -0.6693,1.4876 -0.4474,0.4169 -1.0211,0.6253 -1.7228,0.6253 -0.2218,0 -0.4283,-0.0172 -0.6234,-0.0516 -0.1147,-0.0172 -0.3556,-0.0861 -0.719,-0.2027 -0.3632,-0.1185 -0.5946,-0.1778 -0.6921,-0.1778 -0.0937,0 -0.1664,0.0287 -0.2218,0.0841 -0.0536,0.0555 -0.0937,0.1721 -0.1205,0.348l-0.2065 0 0 -2.6043 0.2065 0c0.0975,0.5449 0.2294,0.9522 0.3939,1.2238 0.1645,0.2696 0.4149,0.4952 0.7534,0.675 0.3365,0.1778 0.7075,0.2676 1.111,0.2676 0.4665,0 0.8355,-0.1223 1.1071,-0.369 0.2696,-0.2467 0.4053,-0.5373 0.4053,-0.8738 0,-0.1874 -0.0516,-0.3748 -0.1529,-0.566 -0.1033,-0.1913 -0.2639,-0.3671 -0.48,-0.5316 -0.1453,-0.1128 -0.543,-0.3499 -1.1932,-0.7151 -0.6501,-0.3634 -1.1109,-0.654 -1.3862,-0.8701 -0.2754,-0.2179 -0.4819,-0.457 -0.6253,-0.717 -0.1415,-0.262 -0.2123,-0.5507 -0.2123,-0.8643 0,-0.545 0.2084,-1.0134 0.6272,-1.4073 0.4188,-0.3939 0.9503,-0.5909 1.5966,-0.5909 0.4035,0 0.8318,0.0975 1.2831,0.2964 0.2084,0.0937 0.3576,0.1396 0.4417,0.1396 0.0975,0 0.1778,-0.0287 0.239,-0.0861 0.0612,-0.0592 0.1109,-0.1759 0.1492,-0.3499l0.2065 0zm3.1378 5.7575l-0.2142 0 -0.4914 -4.5376c-0.0229,-0.1969 -0.0344,-0.3441 -0.0344,-0.4416 0,-0.2352 0.0631,-0.4245 0.1874,-0.5661 0.1262,-0.1414 0.2753,-0.2122 0.4512,-0.2122 0.176,0 0.3232,0.0708 0.4456,0.2122 0.1204,0.1416 0.1816,0.3519 0.1816,0.633 0,0.0898 -0.0076,0.2141 -0.0229,0.3747l-0.5029 4.5376zm-0.1128 0.9312c0.1721,0 0.3193,0.0593 0.4397,0.1816 0.1225,0.1205 0.1817,0.2658 0.1817,0.4341 0,0.1721 -0.0592,0.3174 -0.1817,0.4398 -0.1204,0.1204 -0.2676,0.1816 -0.4397,0.1816 -0.1721,0 -0.3174,-0.0612 -0.4398,-0.1816 -0.1205,-0.1224 -0.1817,-0.2677 -0.1817,-0.4398 0,-0.1683 0.0612,-0.3136 0.1817,-0.4341 0.1224,-0.1223 0.2677,-0.1816 0.4398,-0.1816z"/>
   <polygon class="fil6" points="132.704,147.422 132.074,147.825 131.634,147.883 131.175,148.125 130.343,149.137 130.726,150.943 130.7,151.196 131.333,152.981 130.571,157.021 130.813,157.344 130.108,159.954 129.321,160.952 128.98,161.104 129.221,161.416 129.065,162.466 129.042,163.323 128.818,163.797 129.011,164.511 129.679,164.447 130.445,164.043 130.616,163.756 130.754,163.768 130.503,164.335 129.798,164.506 130.007,164.991 130.001,165.778 131.088,165.247 131.484,165.637 131.652,166.889 131.32,167.737 131.603,167.999 131.774,170.289 131.521,170.685 131.171,172.173 131.383,172.395 131.796,172.146 132.983,171.721 133.904,171.83 134.277,171.789 135.512,172.272 136.793,171.315 137.457,171.205 136.909,169.333 137.176,168.537 137.797,167.313 138.546,166.98 138.755,166.017 138.182,166.131 137.378,164.758 137.452,163.691 138.392,162.169 138.11,161.496 137.757,161.501 136.932,160.153 136.184,159.357 137.855,159.144 138.356,157.702 138.313,157.169 137.786,156.709 137.918,156.357 138.624,155.765 138.349,154.601 138.282,153.192 137.967,152.67 138.759,151.444 139.312,151.229 140.337,149.642 139.547,149.021 139.173,149.199 138.776,149.082 138.811,148.088 138.655,147.838 136.377,147.871 136.367,148.328 135.415,148.54 133.78,148.488 133.281,148.949 132.915,148.648 133.217,147.997 "/>
   <g>
    <polygon class="fil6" points="54.4026,207.897 145.177,207.897 145.177,176.558 54.4026,176.558 "/>
    <path id="1" class="fil3" d="M145.53 207.897l-0.3527 0.3525 -90.7748 0 0 -0.705 90.7748 0 0.3527 0.3525zm0 0l0 0.3525 -0.3527 0 0.3527 -0.3525zm-0.3527 -31.6909l0.3527 0.3525 0 31.3384 -0.7054 0 0 -31.3384 0.3527 -0.3525zm0 0l0.3527 0 0 0.3525 -0.3527 -0.3525zm-91.1275 0.3525l0.3527 -0.3525 90.7748 0 0 0.705 -90.7748 0 -0.3527 -0.3525zm0 0l0 -0.3525 0.3527 0 -0.3527 0.3525zm0.3527 31.6909l-0.3527 -0.3525 0 -31.3384 0.7054 0 0 31.3384 -0.3527 0.3525zm0 0l-0.3527 0 0 -0.3525 0.3527 0.3525z"/>
   </g>
   <path class="fil7" d="M62.8282 186.961l0 3.6707c0,0.7931 0.0888,1.2849 0.2633,1.4784 0.2348,0.2729 0.5901,0.4093 1.0661,0.4093l0.4854 0 0 0.3426 -5.3998 0 0 -0.3426 0.4727 0c0.533,0 0.9137,-0.1745 1.1421,-0.5203 0.1237,-0.1936 0.1872,-0.6504 0.1872,-1.3674l0 -8.1441c0,-0.7932 -0.0825,-1.2849 -0.2506,-1.4753 -0.2412,-0.2728 -0.6028,-0.4093 -1.0787,-0.4093l-0.4727 0 0 -0.3458 4.6193 0c1.1263,0 2.0146,0.1174 2.665,0.349 0.6535,0.2316 1.1992,0.625 1.6466,1.1771 0.4473,0.552 0.6694,1.2055 0.6694,1.9606 0,1.0279 -0.3395,1.8655 -1.0184,2.5096 -0.679,0.644 -1.6371,0.9676 -2.8776,0.9676 -0.3014,0 -0.6313,-0.0222 -0.9835,-0.0666 -0.3522,-0.0444 -0.7329,-0.1079 -1.1358,-0.1935zm0 -0.5299c0.33,0.0603 0.6219,0.1079 0.8757,0.1396 0.2538,0.0286 0.4695,0.0444 0.6503,0.0444 0.6441,0 1.1993,-0.2474 1.6688,-0.7487 0.4664,-0.4981 0.7012,-1.1421 0.7012,-1.9353 0,-0.5457 -0.1111,-1.0533 -0.3331,-1.5197 -0.2253,-0.4695 -0.5394,-0.8185 -0.9487,-1.0501 -0.4092,-0.2348 -0.8756,-0.349 -1.3959,-0.349 -0.3141,0 -0.7202,0.0571 -1.2183,0.1745l0 5.2443zm19.5496 6.4309l-3.3661 0 -4.2671 -5.8915c-0.3141,0.0095 -0.5711,0.0158 -0.771,0.0158 -0.0793,0 -0.165,0 -0.2601,-0.0031 -0.0921,-0.0032 -0.1872,-0.0064 -0.2888,-0.0127l0 3.6612c0,0.7931 0.0889,1.2849 0.2602,1.4784 0.238,0.2729 0.5901,0.4093 1.0597,0.4093l0.4949 0 0 0.3426 -5.3998 0 0 -0.3426 0.4727 0c0.533,0 0.9137,-0.1745 1.1422,-0.5203 0.13,-0.1936 0.1966,-0.6504 0.1966,-1.3674l0 -8.1441c0,-0.7932 -0.0888,-1.2849 -0.2601,-1.4753 -0.2411,-0.2728 -0.6028,-0.4093 -1.0787,-0.4093l-0.4727 0 0 -0.3458 4.5908 0c1.3388,0 2.3255,0.0984 2.96,0.2951 0.6345,0.1935 1.1739,0.552 1.618,1.0755 0.4411,0.5266 0.6631,1.1485 0.6631,1.875 0,0.7741 -0.2506,1.4467 -0.7582,2.0178 -0.5045,0.5679 -1.285,0.9708 -2.3446,1.2056l2.6015 3.6168c0.5933,0.8312 1.1073,1.3832 1.5324,1.6561 0.4283,0.2696 0.9867,0.4441 1.6751,0.5203l0 0.3426zm-8.9531 -6.4785c0.1206,0 0.2221,0 0.3078,0.0032 0.0857,0.0032 0.1586,0.0064 0.2126,0.0064 1.2024,0 2.1097,-0.2602 2.7189,-0.7805 0.6123,-0.5203 0.9169,-1.1834 0.9169,-1.9893 0,-0.7867 -0.2475,-1.4276 -0.7393,-1.9194 -0.4917,-0.4917 -1.1453,-0.7392 -1.9574,-0.7392 -0.3586,0 -0.844,0.0603 -1.4595,0.1777l0 5.2411zm14.6607 6.1359l0 0.3426 -5.403 0 0 -0.3426 0.4474 0c0.5203,0 0.8978,-0.1523 1.1326,-0.4569 0.1491,-0.1967 0.2252,-0.6758 0.2252,-1.4308l0 -8.1441c0,-0.6377 -0.0412,-1.0597 -0.1205,-1.2627 -0.0635,-0.1555 -0.1904,-0.2887 -0.3807,-0.3998 -0.2729,-0.1491 -0.5584,-0.2221 -0.8566,-0.2221l-0.4474 0 0 -0.3458 5.403 0 0 0.3458 -0.4569 0c-0.5139,0 -0.8883,0.1523 -1.1231,0.4537 -0.1554,0.1999 -0.2347,0.6758 -0.2347,1.4309l0 8.1441c0,0.6376 0.0412,1.0596 0.1205,1.2627 0.0635,0.1554 0.1935,0.2887 0.3902,0.3997 0.2665,0.1491 0.5489,0.2253 0.8471,0.2253l0.4569 0zm13.9785 -12.2622l0 0.3458c-0.4473,0.0793 -0.7836,0.2221 -1.0152,0.4251 -0.3268,0.3046 -0.6187,0.771 -0.8725,1.396l-4.3972 10.7266 -0.3426 0 -4.7209 -10.8662c-0.2443,-0.5584 -0.4124,-0.8978 -0.514,-1.0216 -0.1522,-0.1935 -0.3426,-0.3426 -0.5711,-0.4505 -0.2252,-0.111 -0.5298,-0.1776 -0.9137,-0.2094l0 -0.3458 5.1492 0 0 0.3458c-0.5838,0.054 -0.9613,0.1555 -1.1358,0.2951 -0.1713,0.1427 -0.2602,0.3268 -0.2602,0.5489 0,0.3109 0.1428,0.7931 0.4283,1.4498l3.2075 7.3891 2.9728 -7.2939c0.2919,-0.7202 0.4378,-1.2183 0.4378,-1.4975 0,-0.1808 -0.0888,-0.3521 -0.2696,-0.5171 -0.1809,-0.1618 -0.4823,-0.2792 -0.9106,-0.3458 -0.0317,-0.0064 -0.0825,-0.0159 -0.1586,-0.0286l0 -0.3458 3.8864 0zm6.488 8.3852l-4.8794 0 -0.8535 1.9893c-0.2125,0.4885 -0.3172,0.8534 -0.3172,1.0977 0,0.1904 0.0919,0.3585 0.2728,0.5045 0.184,0.1459 0.5774,0.2411 1.1866,0.2855l0 0.3426 -3.969 0 0 -0.3426c0.5267,-0.0952 0.8662,-0.2158 1.0216,-0.3649 0.3173,-0.295 0.6663,-0.901 1.0501,-1.8115l4.4354 -10.3713 0.3235 0 4.3878 10.4823c0.3522,0.8439 0.6726,1.3896 0.9613,1.6402 0.2887,0.2507 0.6916,0.3935 1.2056,0.4252l0 0.3426 -4.9747 0 0 -0.3426c0.5013,-0.0254 0.8408,-0.1111 1.0184,-0.2538 0.1777,-0.1396 0.2665,-0.3141 0.2665,-0.5204 0,-0.2728 -0.1269,-0.7011 -0.3743,-1.2912l-0.7615 -1.8116zm-0.2601 -0.6884l-2.1384 -5.0921 -2.1922 5.0921 4.3306 0zm5.625 4.908l0 -0.3426 0.4728 0c0.5329,0 0.9105,-0.1713 1.1325,-0.514 0.1365,-0.203 0.2063,-0.6631 0.2063,-1.3737l0 -8.1441c0,-0.7868 -0.0889,-1.2786 -0.2602,-1.4753 -0.2411,-0.2728 -0.6028,-0.4093 -1.0786,-0.4093l-0.4728 0 0 -0.3458 5.1301 0c1.8814,0 3.3154,0.2158 4.2989,0.6409 0.9804,0.4283 1.7704,1.1421 2.37,2.1383 0.5964,0.9994 0.8978,2.1511 0.8978,3.4582 0,1.7544 -0.533,3.2202 -1.599,4.3972 -1.196,1.3135 -3.0203,1.9702 -5.4664,1.9702l-5.6314 0zm3.5946 -0.9105c0.7868,0.1745 1.4467,0.2601 1.9797,0.2601 1.4372,0 2.6301,-0.5044 3.5787,-1.5165 0.9486,-1.0089 1.4245,-2.3795 1.4245,-4.1085 0,-1.7386 -0.4759,-3.1124 -1.4245,-4.1149 -0.9486,-1.0057 -2.1637,-1.507 -3.6516,-1.507 -0.5584,0 -1.193,0.0889 -1.9068,0.2697l0 10.7171zm16.7863 -11.9798c1.6371,0 3.0552,0.6187 4.2545,1.8623 1.1992,1.2437 1.7989,2.7919 1.7989,4.6511 0,1.9162 -0.606,3.5057 -1.8148,4.7684 -1.2087,1.2659 -2.6713,1.8972 -4.3877,1.8972 -1.7323,0 -3.1917,-0.6186 -4.3719,-1.8496 -1.1802,-1.2342 -1.7703,-2.83 -1.7703,-4.7875 0,-2.0019 0.6821,-3.6326 2.0432,-4.8985 1.1865,-1.0977 2.6015,-1.6434 4.2481,-1.6434zm-0.1745 0.6757c-1.1294,0 -2.0337,0.4189 -2.7157,1.2564 -0.8472,1.0406 -1.2723,2.5635 -1.2723,4.5718 0,2.059 0.441,3.6421 1.3198,4.7493 0.6758,0.844 1.5673,1.2659 2.6777,1.2659 1.1834,0 2.1606,-0.4632 2.9315,-1.3864 0.771,-0.9233 1.158,-2.3795 1.158,-4.3687 0,-2.1542 -0.4251,-3.7627 -1.2754,-4.8224 -0.6821,-0.8439 -1.6212,-1.2659 -2.8236,-1.2659z"/>
   <path class="fil7" d="M61.5178 196.727l0 3.1575 1.7557 0c0.4566,0 0.7602,-0.0684 0.9131,-0.2051 0.2051,-0.1811 0.3177,-0.4988 0.3419,-0.9553l0.2172 0 0 2.7813 -0.2172 0c-0.0544,-0.3881 -0.1106,-0.6375 -0.1649,-0.7481 -0.0704,-0.1367 -0.1871,-0.2454 -0.348,-0.3238 -0.1608,-0.0784 -0.4082,-0.1186 -0.7421,-0.1186l-1.7557 0 0 2.6346c0,0.3539 0.0161,0.5691 0.0462,0.6455 0.0322,0.0765 0.0865,0.1368 0.1649,0.183 0.0785,0.0443 0.2293,0.0664 0.4485,0.0664l1.3555 0c0.4506,0 0.7804,-0.0302 0.9835,-0.0945 0.2051,-0.0624 0.4002,-0.185 0.5893,-0.3701 0.2433,-0.2433 0.4927,-0.6113 0.7481,-1.1021l0.2353 0 -0.6878 2.0031 -6.1581 0 0 -0.2172 0.2836 0c0.187,0 0.366,-0.0462 0.5349,-0.1367 0.1267,-0.0624 0.2112,-0.1569 0.2574,-0.2816 0.0443,-0.1267 0.0664,-0.3841 0.0664,-0.7723l0 -5.1907c0,-0.5068 -0.0503,-0.8186 -0.1529,-0.9372 -0.1407,-0.1569 -0.376,-0.2353 -0.7058,-0.2353l-0.2836 0 0 -0.2192 6.1581 0 0.0885 1.7497 -0.2313 0c-0.0824,-0.4203 -0.173,-0.708 -0.2735,-0.8648 -0.1005,-0.1569 -0.2474,-0.2776 -0.4444,-0.36 -0.1569,-0.0583 -0.4345,-0.0885 -0.8307,-0.0885l-2.1921 0zm2.5039 -3.0328l-1.7377 2.0312 -0.2011 0 0.6195 -2.0312 1.3193 0zm5.5688 10.5866l0 -0.2172 0.2997 0c0.3379,0 0.5772,-0.1086 0.7179,-0.3258 0.0865,-0.1287 0.1308,-0.4203 0.1308,-0.8708l0 -5.1626c0,-0.4988 -0.0563,-0.8105 -0.1649,-0.9352 -0.1529,-0.1729 -0.3821,-0.2594 -0.6838,-0.2594l-0.2997 0 0 -0.2192 3.252 0c1.1926,0 2.1017,0.1367 2.7251,0.4062 0.6215,0.2715 1.1222,0.724 1.5023,1.3555 0.3782,0.6336 0.5692,1.3636 0.5692,2.1922 0,1.1121 -0.3379,2.0413 -1.0136,2.7874 -0.7582,0.8326 -1.9146,1.2489 -3.4652,1.2489l-3.5698 0zm2.2787 -0.5771c0.4987,0.1105 0.917,0.1649 1.2549,0.1649 0.911,0 1.6672,-0.3198 2.2686,-0.9614 0.6013,-0.6395 0.903,-1.5083 0.903,-2.6044 0,-1.1021 -0.3017,-1.973 -0.903,-2.6085 -0.6014,-0.6375 -1.3716,-0.9553 -2.3149,-0.9553 -0.3539,0 -0.7562,0.0564 -1.2086,0.171l0 6.7937zm8.7504 -6.9767l0 3.1575 1.7558 0c0.4565,0 0.7602,-0.0684 0.913,-0.2051 0.2051,-0.1811 0.3178,-0.4988 0.3419,-0.9553l0.2172 0 0 2.7813 -0.2172 0c-0.0543,-0.3881 -0.1106,-0.6375 -0.1649,-0.7481 -0.0704,-0.1367 -0.187,-0.2454 -0.348,-0.3238 -0.1608,-0.0784 -0.4082,-0.1186 -0.742,-0.1186l-1.7558 0 0 2.6346c0,0.3539 0.0161,0.5691 0.0463,0.6455 0.0322,0.0765 0.0865,0.1368 0.1649,0.183 0.0784,0.0443 0.2292,0.0664 0.4485,0.0664l1.3555 0c0.4505,0 0.7803,-0.0302 0.9834,-0.0945 0.2052,-0.0624 0.4002,-0.185 0.5893,-0.3701 0.2433,-0.2433 0.4927,-0.6113 0.7481,-1.1021l0.2353 0 -0.6878 2.0031 -6.1581 0 0 -0.2172 0.2836 0c0.187,0 0.366,-0.0462 0.535,-0.1367 0.1267,-0.0624 0.2111,-0.1569 0.2574,-0.2816 0.0442,-0.1267 0.0663,-0.3841 0.0663,-0.7723l0 -5.1907c0,-0.5068 -0.0503,-0.8186 -0.1528,-0.9372 -0.1408,-0.1569 -0.3761,-0.2353 -0.7059,-0.2353l-0.2836 0 0 -0.2192 6.1581 0 0.0885 1.7497 -0.2313 0c-0.0824,-0.4203 -0.1729,-0.708 -0.2734,-0.8648 -0.1006,-0.1569 -0.2474,-0.2776 -0.4445,-0.36 -0.1569,-0.0583 -0.4345,-0.0885 -0.8306,-0.0885l-2.1922 0zm12.7205 4.879l-3.0931 0 -0.541 1.261c-0.1348,0.3097 -0.2011,0.541 -0.2011,0.6958 0,0.1207 0.0583,0.2273 0.1729,0.3198 0.1167,0.0925 0.3661,0.1529 0.7522,0.181l0 0.2172 -2.516 0 0 -0.2172c0.3339,-0.0603 0.5491,-0.1367 0.6476,-0.2312 0.2012,-0.1871 0.4224,-0.5712 0.6657,-1.1484l2.8116 -6.5744 0.2051 0 2.7814 6.6448c0.2233,0.5349 0.4264,0.8809 0.6094,1.0398 0.1831,0.1588 0.4385,0.2493 0.7642,0.2694l0 0.2172 -3.1534 0 0 -0.2172c0.3177,-0.016 0.5329,-0.0704 0.6456,-0.1609 0.1126,-0.0885 0.1689,-0.199 0.1689,-0.3298 0,-0.1729 -0.0804,-0.4445 -0.2373,-0.8185l-0.4827 -1.1484zm-0.1649 -0.4364l-1.3555 -3.2279 -1.3897 3.2279 2.7452 0zm10.275 0.901l0.195 0.0422 -0.6838 2.168 -6.1862 0 0 -0.2172 0.3016 0c0.3379,0 0.5792,-0.1106 0.724,-0.3298 0.0825,-0.1267 0.1227,-0.4183 0.1227,-0.8728l0 -5.1566c0,-0.4988 -0.0543,-0.8105 -0.1649,-0.9352 -0.1529,-0.1729 -0.3801,-0.2594 -0.6818,-0.2594l-0.3016 0 0 -0.2192 3.618 0 0 0.2192c-0.4244,-0.004 -0.722,0.0342 -0.8929,0.1166 -0.171,0.0825 -0.2876,0.1871 -0.35,0.3138 -0.0623,0.1247 -0.0945,0.4263 -0.0945,0.901l0 5.0198c0,0.3258 0.0322,0.549 0.0945,0.6717 0.0463,0.0825 0.1187,0.1428 0.2172,0.183 0.0986,0.0382 0.4043,0.0583 0.9191,0.0583l0.5832 0c0.6135,0 1.0438,-0.0442 1.2912,-0.1347 0.2473,-0.0905 0.4726,-0.2514 0.6777,-0.4807 0.2032,-0.2292 0.4083,-0.5933 0.6115,-1.088zm7.8615 -5.961l0.2051 2.5199 -0.2051 0c-0.2092,-0.6274 -0.4787,-1.1001 -0.8085,-1.4199 -0.4746,-0.4585 -1.086,-0.6878 -1.8322,-0.6878 -1.0176,0 -1.7919,0.4023 -2.3208,1.2067 -0.4445,0.6798 -0.6657,1.4883 -0.6657,2.4275 0,0.7622 0.1468,1.4581 0.4404,2.0855 0.2957,0.6295 0.6818,1.0901 1.1585,1.3817 0.4766,0.2936 0.9673,0.4404 1.4701,0.4404 0.2956,0 0.5792,-0.0382 0.8547,-0.1126 0.2756,-0.0744 0.539,-0.185 0.7945,-0.3298l0 -2.3108c0,-0.4002 -0.0302,-0.6617 -0.0906,-0.7864 -0.0603,-0.1226 -0.1548,-0.2172 -0.2835,-0.2815 -0.1267,-0.0664 -0.352,-0.0986 -0.6738,-0.0986l0 -0.2232 3.0932 0 0 0.2232 -0.1468 0c-0.3077,0 -0.5169,0.1026 -0.6316,0.3077 -0.0784,0.1448 -0.1166,0.4324 -0.1166,0.8588l0 2.4455c-0.4525,0.2434 -0.899,0.4224 -1.3374,0.537 -0.4404,0.1146 -0.9291,0.1709 -1.4681,0.1709 -1.5426,0 -2.7151,-0.4947 -3.5175,-1.4842 -0.6014,-0.7441 -0.901,-1.5988 -0.901,-2.5702 0,-0.7019 0.1689,-1.3756 0.5068,-2.0212 0.4002,-0.7662 0.9513,-1.3555 1.6491,-1.7678 0.5853,-0.3419 1.2771,-0.5108 2.0735,-0.5108 0.2916,0 0.5551,0.0221 0.7944,0.0703 0.2374,0.0463 0.5732,0.1509 1.0096,0.3118 0.2192,0.0824 0.368,0.1226 0.4425,0.1226 0.0744,0 0.1387,-0.0341 0.191,-0.1025 0.0523,-0.0684 0.0845,-0.2031 0.0966,-0.4022l0.2192 0zm7.0631 0.4002l0 -0.2192 2.8297 0 0 0.2192 -0.3017 0c-0.3138,0 -0.5551,0.1307 -0.724,0.3942 -0.0824,0.1227 -0.1247,0.4042 -0.1247,0.8487l0 3.2399c0,0.8025 -0.0784,1.4239 -0.2373,1.8644 -0.1589,0.4424 -0.4726,0.8225 -0.9372,1.1383 -0.4666,0.3157 -1.1001,0.4746 -1.9005,0.4746 -0.8728,0 -1.5346,-0.1509 -1.985,-0.4545 -0.4526,-0.3017 -0.7723,-0.708 -0.9614,-1.2188 -0.1247,-0.3499 -0.189,-1.0056 -0.189,-1.9689l0 -3.1233c0,-0.4907 -0.0664,-0.8125 -0.2031,-0.9654 -0.1348,-0.1528 -0.354,-0.2292 -0.6557,-0.2292l-0.3016 0 0 -0.2192 3.4531 0 0 0.2192 -0.3057 0c-0.3298,0 -0.5671,0.1025 -0.7079,0.3117 -0.0986,0.1408 -0.1468,0.4364 -0.1468,0.8829l0 3.4833c0,0.3097 0.0281,0.6657 0.0844,1.0659 0.0584,0.4002 0.1609,0.714 0.3098,0.9372 0.1488,0.2232 0.364,0.4082 0.6455,0.5531 0.2816,0.1468 0.6255,0.2192 1.0338,0.2192 0.5229,0 0.9895,-0.1147 1.4017,-0.3419 0.4123,-0.2273 0.6959,-0.5189 0.8467,-0.8749 0.1509,-0.3559 0.2273,-0.9573 0.2273,-1.806l0 -3.2359c0,-0.4988 -0.0563,-0.8105 -0.1649,-0.9352 -0.1549,-0.1729 -0.3821,-0.2594 -0.6838,-0.2594l-0.3017 0zm2.7995 -0.2192l2.168 0 4.8851 5.9932 0 -4.6076c0,-0.4907 -0.0563,-0.7984 -0.1649,-0.919 -0.1469,-0.1649 -0.3761,-0.2474 -0.6899,-0.2474l-0.2775 0 0 -0.2192 2.7814 0 0 0.2192 -0.2836 0c-0.3378,0 -0.5771,0.1025 -0.7179,0.3057 -0.0865,0.1267 -0.1287,0.4123 -0.1287,0.8607l0 6.7333 -0.2132 0 -5.2672 -6.4336 0 4.9213c0,0.4907 0.0523,0.7964 0.1589,0.919 0.1488,0.165 0.3801,0.2474 0.6898,0.2474l0.2816 0 0 0.2172 -2.7795 0 0 -0.2172 0.2756 0c0.3419,0 0.5832,-0.1025 0.726,-0.3077 0.0865,-0.1247 0.1287,-0.4123 0.1287,-0.8587l0 -5.5568c-0.2313,-0.2715 -0.4082,-0.4505 -0.5269,-0.537 -0.1207,-0.0864 -0.2956,-0.1669 -0.5269,-0.2413 -0.1147,-0.0342 -0.2876,-0.0523 -0.5189,-0.0523l0 -0.2192zm14.4058 -0.181l0 2.7633 -0.2172 0c-0.0724,-0.531 -0.1991,-0.9533 -0.3801,-1.2671 -0.183,-0.3157 -0.4444,-0.5651 -0.7823,-0.7481 -0.3379,-0.185 -0.6858,-0.2775 -1.0479,-0.2775 -0.4082,0 -0.7461,0.1247 -1.0135,0.374 -0.2675,0.2494 -0.4003,0.533 -0.4003,0.8508 0,0.2433 0.0845,0.4665 0.2534,0.6657 0.2434,0.2956 0.8226,0.6878 1.7377,1.1785 0.7461,0.4002 1.2569,0.7079 1.5284,0.9231 0.2736,0.2132 0.4847,0.4666 0.6315,0.7562 0.1469,0.2916 0.2212,0.5953 0.2212,0.913 0,0.6054 -0.2352,1.1263 -0.7038,1.5647 -0.4706,0.4384 -1.074,0.6576 -1.8121,0.6576 -0.2333,0 -0.4505,-0.018 -0.6556,-0.0543 -0.1207,-0.018 -0.3741,-0.0905 -0.7562,-0.2131 -0.3821,-0.1247 -0.6255,-0.1871 -0.728,-0.1871 -0.0986,0 -0.175,0.0302 -0.2333,0.0885 -0.0563,0.0583 -0.0986,0.181 -0.1268,0.366l-0.2172 0 0 -2.7391 0.2172 0c0.1027,0.5732 0.2414,1.0015 0.4144,1.2871 0.1729,0.2836 0.4364,0.5209 0.7923,0.7099 0.354,0.1871 0.7442,0.2816 1.1685,0.2816 0.4907,0 0.8789,-0.1287 1.1645,-0.3881 0.2835,-0.2595 0.4264,-0.5652 0.4264,-0.9192 0,-0.197 -0.0544,-0.3941 -0.161,-0.5953 -0.1085,-0.201 -0.2775,-0.3861 -0.5048,-0.5591 -0.1528,-0.1186 -0.5711,-0.368 -1.2549,-0.7521 -0.6838,-0.3821 -1.1684,-0.6878 -1.4581,-0.9151 -0.2896,-0.2292 -0.5068,-0.4807 -0.6576,-0.7541 -0.1489,-0.2756 -0.2233,-0.5793 -0.2233,-0.9091 0,-0.5732 0.2193,-1.0659 0.6597,-1.4802 0.4404,-0.4143 0.9995,-0.6214 1.6793,-0.6214 0.4244,0 0.8748,0.1025 1.3495,0.3117 0.2192,0.0985 0.376,0.1468 0.4645,0.1468 0.1026,0 0.1871,-0.0302 0.2514,-0.0905 0.0644,-0.0623 0.1167,-0.185 0.1569,-0.368l0.2172 0zm3.3003 6.0555l-0.2253 0 -0.5168 -4.7724c-0.0241,-0.2072 -0.0362,-0.362 -0.0362,-0.4646 0,-0.2474 0.0663,-0.4465 0.1971,-0.5953 0.1327,-0.1488 0.2896,-0.2232 0.4746,-0.2232 0.185,0 0.3399,0.0744 0.4686,0.2232 0.1267,0.1488 0.1911,0.37 0.1911,0.6657 0,0.0945 -0.0081,0.2252 -0.0242,0.3942l-0.5289 4.7724zm-0.1187 0.9795c0.181,0 0.3359,0.0623 0.4626,0.191 0.1287,0.1267 0.191,0.2796 0.191,0.4566 0,0.1809 -0.0623,0.3338 -0.191,0.4625 -0.1267,0.1267 -0.2816,0.1911 -0.4626,0.1911 -0.181,0 -0.3338,-0.0644 -0.4625,-0.1911 -0.1268,-0.1287 -0.1911,-0.2816 -0.1911,-0.4625 0,-0.177 0.0643,-0.3299 0.1911,-0.4566 0.1287,-0.1287 0.2815,-0.191 0.4625,-0.191z"/>
  </g>
 </g>
</svg>
