<?xml version="1.0" encoding="UTF-8"?>
<!DOCTYPE svg PUBLIC "-//W3C//DTD SVG 1.1//EN" "http://www.w3.org/Graphics/SVG/1.1/DTD/svg11.dtd">
<!-- Creator: CorelDRAW -->
<svg xmlns="http://www.w3.org/2000/svg" xml:space="preserve" width="210mm" height="297mm" style="shape-rendering:geometricPrecision; text-rendering:geometricPrecision; image-rendering:optimizeQuality; fill-rule:evenodd; clip-rule:evenodd"
viewBox="0 0 210 297"
 xmlns:xlink="http://www.w3.org/1999/xlink">
 <defs>
  <style type="text/css">
   <![CDATA[
    .str0 {stroke:#0093DD;stroke-width:0.3527}
    .fil6 {fill:none}
    .fil3 {fill:#1F1A17}
    .fil0 {fill:#DA251D}
    .fil2 {fill:white}
    .fil5 {fill:#0093DD;fill-rule:nonzero}
    .fil4 {fill:#1F1A17;fill-rule:nonzero}
    .fil1 {fill:white;fill-rule:nonzero}
   ]]>
  </style>
 </defs>
 <g id="Camada_x0020_1">
  <metadata id="CorelCorpID_0Corel-Layer"/>
  <g id="_42500112">
   <polygon id="_42524608" class="fil0" points="22.7247,139.458 61.8547,139.458 61.8547,157.492 22.7247,157.492 "/>
   <g>
    <path id="_42523816" class="fil1" d="M25.9483 147.029l0 1.3563c0,0.2931 0.0328,0.4748 0.0973,0.5463 0.0867,0.1008 0.218,0.1512 0.3939,0.1512l0.1793 0 0 0.1266 -1.9952 0 0 -0.1266 0.1747 0c0.1969,0 0.3376,-0.0644 0.422,-0.1922 0.0457,-0.0715 0.0692,-0.2403 0.0692,-0.5053l0 -3.0092c0,-0.2931 -0.0305,-0.4748 -0.0927,-0.5451 -0.0891,-0.1008 -0.2227,-0.1513 -0.3985,-0.1513l-0.1747 0 0 -0.1277 1.7068 0c0.4162,0 0.7444,0.0433 0.9848,0.1289 0.2414,0.0856 0.4431,0.231 0.6084,0.4349 0.1653,0.204 0.2473,0.4455 0.2473,0.7245 0,0.3798 -0.1254,0.6893 -0.3763,0.9273 -0.2509,0.238 -0.6049,0.3575 -1.0633,0.3575 -0.1113,0 -0.2332,-0.0082 -0.3634,-0.0246 -0.1301,-0.0164 -0.2708,-0.0398 -0.4196,-0.0715zm0 -0.1958c0.1219,0.0223 0.2297,0.0399 0.3235,0.0516 0.0938,0.0106 0.1735,0.0164 0.2403,0.0164 0.238,0 0.4432,-0.0914 0.6167,-0.2766 0.1723,-0.1841 0.259,-0.4221 0.259,-0.7151 0,-0.2017 -0.041,-0.3892 -0.1231,-0.5615 -0.0832,-0.1735 -0.1992,-0.3025 -0.3505,-0.3881 -0.1512,-0.0867 -0.3235,-0.1289 -0.5158,-0.1289 -0.116,0 -0.2661,0.0211 -0.4501,0.0644l0 1.9378zm5.825 -2.1535l0 -0.1277 1.6494 0 0 0.1277 -0.1758 0c-0.1829,0 -0.3236,0.0762 -0.422,0.2298 -0.0481,0.0715 -0.0727,0.2356 -0.0727,0.4947l0 1.8886c0,0.4677 -0.0457,0.8299 -0.1383,1.0867 -0.0927,0.2579 -0.2755,0.4794 -0.5463,0.6635 -0.272,0.184 -0.6413,0.2766 -1.1078,0.2766 -0.5088,0 -0.8945,-0.0879 -1.1571,-0.2649 -0.2637,-0.1759 -0.4501,-0.4126 -0.5603,-0.7104 -0.0727,-0.204 -0.1102,-0.5861 -0.1102,-1.1477l0 -1.8205c0,-0.2861 -0.0387,-0.4736 -0.1184,-0.5627 -0.0786,-0.0891 -0.2063,-0.1337 -0.3822,-0.1337l-0.1758 0 0 -0.1277 2.0128 0 0 0.1277 -0.1782 0c-0.1922,0 -0.3306,0.0598 -0.4126,0.1817 -0.0575,0.0821 -0.0856,0.2544 -0.0856,0.5147l0 2.0304c0,0.1805 0.0164,0.388 0.0492,0.6213 0.034,0.2333 0.0938,0.4161 0.1805,0.5463 0.0868,0.1301 0.2122,0.2379 0.3763,0.3223 0.1642,0.0856 0.3646,0.1278 0.6026,0.1278 0.3048,0 0.5768,-0.0668 0.8171,-0.1993 0.2403,-0.1324 0.4056,-0.3024 0.4935,-0.5099 0.0879,-0.2075 0.1325,-0.558 0.1325,-1.0527l0 -1.8862c0,-0.2907 -0.0328,-0.4725 -0.0962,-0.5451 -0.0902,-0.1008 -0.2227,-0.1513 -0.3985,-0.1513l-0.1759 0zm-0.0586 -1.6411l-1.0128 1.184 -0.1173 0 0.3611 -1.184 0.769 0zm5.0315 3.7946c0.3235,0.068 0.565,0.1782 0.7256,0.3294 0.2215,0.2111 0.3329,0.4678 0.3329,0.7726 0,0.2309 -0.0738,0.4525 -0.2204,0.6646 -0.1465,0.2122 -0.347,0.3658 -0.6025,0.4631 -0.2556,0.0973 -0.6448,0.1465 -1.1688,0.1465l-2.198 0 0 -0.1266 0.1747 0c0.1945,0 0.334,-0.0621 0.4185,-0.1864 0.0527,-0.0797 0.0797,-0.2497 0.0797,-0.5111l0 -3.0092c0,-0.2884 -0.0328,-0.4701 -0.0997,-0.5451 -0.0891,-0.1008 -0.2227,-0.1513 -0.3985,-0.1513l-0.1747 0 0 -0.1277 2.0116 0c0.3763,0 0.6776,0.0281 0.9038,0.0832 0.3435,0.0821 0.6061,0.2274 0.7866,0.4373 0.1806,0.2098 0.2708,0.4501 0.2708,0.7233 0,0.2332 -0.0703,0.4419 -0.2121,0.6271 -0.1419,0.1841 -0.3517,0.3201 -0.6295,0.4103zm-1.7995 -0.1864c0.0856,0.0165 0.1817,0.0282 0.2907,0.0364 0.109,0.0082 0.2286,0.0117 0.3587,0.0117 0.3341,0 0.5862,-0.0352 0.7538,-0.1078 0.1688,-0.0716 0.2978,-0.1829 0.3869,-0.3318 0.089,-0.1477 0.1336,-0.3107 0.1336,-0.4877 0,-0.2719 -0.1114,-0.5041 -0.3329,-0.6963 -0.2228,-0.1923 -0.5463,-0.2884 -0.9718,-0.2884 -0.2298,0 -0.435,0.0246 -0.619,0.075l0 1.7889zm0 2.2262c0.2661,0.0621 0.5287,0.0926 0.7866,0.0926 0.415,0 0.7303,-0.0938 0.9484,-0.2802 0.2168,-0.1864 0.3259,-0.4173 0.3259,-0.6916 0,-0.1806 -0.0493,-0.3552 -0.1478,-0.5217 -0.0984,-0.1676 -0.259,-0.2989 -0.4806,-0.395 -0.2215,-0.0962 -0.497,-0.1442 -0.8241,-0.1442 -0.1418,0 -0.2638,0.0023 -0.3646,0.0058 -0.1008,0.0047 -0.1817,0.0129 -0.2438,0.0246l0 1.9097zm7.274 -0.9519l0.1137 0.0246 -0.3986 1.2637 -3.6059 0 0 -0.1266 0.1758 0c0.197,0 0.3377,-0.0644 0.4221,-0.1922 0.048,-0.0739 0.0715,-0.2439 0.0715,-0.5088l0 -3.0057c0,-0.2907 -0.0317,-0.4725 -0.0962,-0.5451 -0.089,-0.1008 -0.2215,-0.1513 -0.3974,-0.1513l-0.1758 0 0 -0.1277 2.1089 0 0 0.1277c-0.2473,-0.0023 -0.4208,0.02 -0.5205,0.0681 -0.0996,0.048 -0.1676,0.109 -0.204,0.1828 -0.0363,0.0727 -0.055,0.2485 -0.055,0.5252l0 2.926c0,0.1899 0.0187,0.32 0.055,0.3915 0.027,0.0481 0.0692,0.0833 0.1267,0.1067 0.0574,0.0223 0.2356,0.034 0.5357,0.034l0.34 0c0.3575,0 0.6084,-0.0258 0.7526,-0.0785 0.1442,-0.0528 0.2754,-0.1465 0.395,-0.2802 0.1184,-0.1336 0.238,-0.3458 0.3564,-0.6342zm2.436 1.1617l0 0.1266 -1.9964 0 0 -0.1266 0.1653 0c0.1922,0 0.3317,-0.0562 0.4185,-0.1688 0.0551,-0.0727 0.0832,-0.2497 0.0832,-0.5287l0 -3.0092c0,-0.2356 -0.0152,-0.3916 -0.0445,-0.4666 -0.0235,-0.0574 -0.0704,-0.1067 -0.1407,-0.1477 -0.1008,-0.0551 -0.2063,-0.0821 -0.3165,-0.0821l-0.1653 0 0 -0.1277 1.9964 0 0 0.1277 -0.1688 0c-0.1899,0 -0.3283,0.0563 -0.415,0.1677 -0.0575,0.0738 -0.0868,0.2497 -0.0868,0.5287l0 3.0092c0,0.2357 0.0153,0.3916 0.0446,0.4666 0.0234,0.0574 0.0715,0.1067 0.1442,0.1477 0.0985,0.0551 0.2028,0.0832 0.313,0.0832l0.1688 0zm4.4054 -4.6363l0.1067 1.5825 -0.1067 0c-0.1418,-0.4736 -0.3446,-0.8147 -0.6072,-1.0234 -0.2638,-0.2086 -0.5791,-0.313 -0.9484,-0.313 -0.3095,0 -0.5885,0.0786 -0.8382,0.2357 -0.2497,0.1571 -0.4455,0.4068 -0.5885,0.7502 -0.143,0.3435 -0.2145,0.7714 -0.2145,1.2813 0,0.4209 0.0668,0.7866 0.2028,1.0961 0.1348,0.3083 0.3376,0.5451 0.6096,0.7104 0.2708,0.1653 0.5803,0.2474 0.9284,0.2474 0.3025,0 0.5686,-0.0645 0.8007,-0.1946 0.2309,-0.129 0.4853,-0.3857 0.762,-0.7702l0.1067 0.068c-0.2333,0.415 -0.5065,0.7186 -0.8171,0.9108 -0.3118,0.1923 -0.6811,0.2884 -1.1102,0.2884 -0.7713,0 -1.3692,-0.286 -1.7924,-0.8593 -0.3153,-0.4255 -0.4736,-0.9272 -0.4736,-1.504 0,-0.4642 0.1043,-0.8921 0.3118,-1.2813 0.2087,-0.3892 0.4959,-0.6905 0.8605,-0.905 0.3658,-0.2134 0.7643,-0.32 1.1969,-0.32 0.3364,0 0.6694,0.082 0.9964,0.2461 0.0962,0.0505 0.1653,0.0762 0.2064,0.0762 0.0609,0 0.1148,-0.0222 0.1606,-0.0656 0.0597,-0.061 0.1019,-0.1477 0.1277,-0.2567l0.1196 0zm3.0292 0c0.6049,0 1.1289,0.2286 1.572,0.6881 0.4431,0.4595 0.6647,1.0316 0.6647,1.7185 0,0.7081 -0.2239,1.2954 -0.6705,1.762 -0.4467,0.4677 -0.9871,0.701 -1.6213,0.701 -0.6401,0 -1.1793,-0.2286 -1.6154,-0.6834 -0.4361,-0.456 -0.6541,-1.0457 -0.6541,-1.769 0,-0.7397 0.252,-1.3422 0.7549,-1.81 0.4384,-0.4056 0.9613,-0.6072 1.5697,-0.6072zm-0.0645 0.2497c-0.4173,0 -0.7514,0.1547 -1.0035,0.4642 -0.313,0.3845 -0.4701,0.9472 -0.4701,1.6892 0,0.7608 0.163,1.3458 0.4877,1.7549 0.2497,0.3119 0.5791,0.4678 0.9894,0.4678 0.4373,0 0.7983,-0.1712 1.0832,-0.5123 0.2849,-0.3411 0.4279,-0.8792 0.4279,-1.6142 0,-0.796 -0.1571,-1.3904 -0.4713,-1.7819 -0.252,-0.3118 -0.599,-0.4677 -1.0433,-0.4677z"/>
    <path id="_42523024" class="fil1" d="M25.5658 150.724l0 1.3079 0.7273 0c0.1892,0 0.315,-0.0283 0.3783,-0.0849 0.0849,-0.075 0.1316,-0.2067 0.1416,-0.3958l0.09 0 0 1.1522 -0.09 0c-0.0225,-0.1608 -0.0458,-0.2641 -0.0683,-0.3099 -0.0292,-0.0566 -0.0775,-0.1016 -0.1441,-0.1341 -0.0667,-0.0325 -0.1692,-0.0492 -0.3075,-0.0492l-0.7273 0 0 1.0914c0,0.1466 0.0067,0.2358 0.0192,0.2674 0.0133,0.0317 0.0358,0.0567 0.0683,0.0758 0.0325,0.0184 0.095,0.0275 0.1858,0.0275l0.5615 0c0.1866,0 0.3233,-0.0125 0.4074,-0.0391 0.085,-0.0259 0.1658,-0.0767 0.2441,-0.1533 0.1008,-0.1008 0.2041,-0.2533 0.3099,-0.4566l0.0975 0 -0.2849 0.8298 -2.551 0 0 -0.09 0.1175 0c0.0775,0 0.1516,-0.0191 0.2216,-0.0566 0.0525,-0.0258 0.0874,-0.065 0.1066,-0.1166 0.0183,-0.0525 0.0275,-0.1592 0.0275,-0.32l0 -2.1502c0,-0.21 -0.0208,-0.3391 -0.0633,-0.3882 -0.0583,-0.065 -0.1558,-0.0975 -0.2924,-0.0975l-0.1175 0 0 -0.0908 2.551 0 0.0366 0.7248 -0.0958 0c-0.0341,-0.1741 -0.0716,-0.2933 -0.1133,-0.3583 -0.0416,-0.0649 -0.1024,-0.1149 -0.1841,-0.1491 -0.065,-0.0241 -0.1799,-0.0366 -0.3441,-0.0366l-0.9081 0zm1.0373 -1.2564l-0.7198 0.8415 -0.0834 0 0.2566 -0.8415 0.5466 0zm2.3068 4.3855l0 -0.09 0.1242 0c0.1399,0 0.2391,-0.045 0.2974,-0.1349 0.0358,-0.0533 0.0541,-0.1741 0.0541,-0.3608l0 -2.1386c0,-0.2065 -0.0233,-0.3357 -0.0683,-0.3873 -0.0633,-0.0717 -0.1583,-0.1075 -0.2832,-0.1075l-0.1242 0 0 -0.0908 1.3472 0c0.494,0 0.8706,0.0566 1.1288,0.1683 0.2575,0.1124 0.4649,0.2999 0.6223,0.5615 0.1567,0.2624 0.2358,0.5648 0.2358,0.9081 0,0.4607 -0.14,0.8456 -0.4199,1.1546 -0.314,0.345 -0.7931,0.5174 -1.4354,0.5174l-1.4788 0zm0.9439 -0.2391c0.2066,0.0458 0.3799,0.0683 0.5199,0.0683 0.3774,0 0.6906,-0.1324 0.9397,-0.3982 0.2491,-0.2649 0.3741,-0.6248 0.3741,-1.0789 0,-0.4565 -0.125,-0.8173 -0.3741,-1.0805 -0.2491,-0.2641 -0.5681,-0.3957 -0.9589,-0.3957 -0.1466,0 -0.3132,0.0233 -0.5007,0.0708l0 2.8142zm3.6249 -2.89l0 1.3079 0.7273 0c0.1891,0 0.3149,-0.0283 0.3782,-0.0849 0.085,-0.075 0.1316,-0.2067 0.1416,-0.3958l0.09 0 0 1.1522 -0.09 0c-0.0225,-0.1608 -0.0458,-0.2641 -0.0683,-0.3099 -0.0291,-0.0566 -0.0775,-0.1016 -0.1441,-0.1341 -0.0667,-0.0325 -0.1691,-0.0492 -0.3074,-0.0492l-0.7273 0 0 1.0914c0,0.1466 0.0066,0.2358 0.0191,0.2674 0.0134,0.0317 0.0359,0.0567 0.0684,0.0758 0.0325,0.0184 0.0949,0.0275 0.1857,0.0275l0.5615 0c0.1867,0 0.3233,-0.0125 0.4074,-0.0391 0.085,-0.0259 0.1658,-0.0767 0.2441,-0.1533 0.1009,-0.1008 0.2042,-0.2533 0.3099,-0.4566l0.0975 0 -0.2849 0.8298 -2.551 0 0 -0.09 0.1175 0c0.0775,0 0.1516,-0.0191 0.2216,-0.0566 0.0525,-0.0258 0.0875,-0.065 0.1067,-0.1166 0.0183,-0.0525 0.0274,-0.1592 0.0274,-0.32l0 -2.1502c0,-0.21 -0.0208,-0.3391 -0.0633,-0.3882 -0.0583,-0.065 -0.1558,-0.0975 -0.2924,-0.0975l-0.1175 0 0 -0.0908 2.551 0 0.0367 0.7248 -0.0958 0c-0.0342,-0.1741 -0.0717,-0.2933 -0.1133,-0.3583 -0.0417,-0.0649 -0.1025,-0.1149 -0.1842,-0.1491 -0.065,-0.0241 -0.1799,-0.0366 -0.344,-0.0366l-0.9081 0zm6.0608 -0.1808l0.0367 0.7764 -0.0933 0c-0.0175,-0.1366 -0.0417,-0.2341 -0.0733,-0.2932 -0.05,-0.0942 -0.1175,-0.1633 -0.2008,-0.2083 -0.0842,-0.045 -0.1941,-0.0675 -0.3308,-0.0675l-0.4665 0 0 2.5293c0,0.2033 0.0225,0.3299 0.0658,0.3808 0.0617,0.0683 0.1575,0.1024 0.2858,0.1024l0.1149 0 0 0.09 -1.4037 0 0 -0.09 0.1174 0c0.14,0 0.2391,-0.0425 0.2974,-0.1274 0.0359,-0.0517 0.0542,-0.1708 0.0542,-0.3558l0 -2.5293 -0.3982 0c-0.1542,0 -0.2641,0.0117 -0.3291,0.0342 -0.085,0.0308 -0.1575,0.0908 -0.2175,0.1783 -0.0599,0.0883 -0.0958,0.2066 -0.1074,0.3565l-0.0925 0 0.0392 -0.7764 2.7017 0zm1.8987 -0.075c0.4299,0 0.8023,0.1625 1.1172,0.489 0.3149,0.3266 0.4723,0.7332 0.4723,1.2214 0,0.5032 -0.1591,0.9206 -0.4765,1.2521 -0.3174,0.3324 -0.7015,0.4982 -1.1522,0.4982 -0.4549,0 -0.8381,-0.1624 -1.148,-0.4857 -0.3099,-0.3241 -0.4649,-0.7431 -0.4649,-1.2571 0,-0.5257 0.1791,-0.9539 0.5365,-1.2863 0.3116,-0.2883 0.6832,-0.4316 1.1156,-0.4316zm-0.0459 0.1775c-0.2965,0 -0.534,0.1099 -0.7131,0.3299 -0.2224,0.2732 -0.3341,0.6731 -0.3341,1.2005 0,0.5407 0.1158,0.9564 0.3466,1.2471 0.1775,0.2216 0.4116,0.3324 0.7031,0.3324 0.3108,0 0.5674,-0.1216 0.7698,-0.364 0.2025,-0.2425 0.3041,-0.6249 0.3041,-1.1472 0,-0.5657 -0.1116,-0.9881 -0.3349,-1.2663 -0.1791,-0.2216 -0.4257,-0.3324 -0.7415,-0.3324zm1.9137 3.2074l0 -0.09 0.1241 0c0.14,0 0.2391,-0.045 0.2974,-0.1349 0.0359,-0.0533 0.0542,-0.1741 0.0542,-0.3608l0 -2.1386c0,-0.2065 -0.0233,-0.3357 -0.0683,-0.3873 -0.0633,-0.0717 -0.1583,-0.1075 -0.2833,-0.1075l-0.1241 0 0 -0.0908 1.3471 0c0.494,0 0.8706,0.0566 1.1289,0.1683 0.2574,0.1124 0.4649,0.2999 0.6223,0.5615 0.1566,0.2624 0.2358,0.5648 0.2358,0.9081 0,0.4607 -0.14,0.8456 -0.4199,1.1546 -0.3141,0.345 -0.7931,0.5174 -1.4354,0.5174l-1.4788 0zm0.9439 -0.2391c0.2066,0.0458 0.3799,0.0683 0.5199,0.0683 0.3773,0 0.6906,-0.1324 0.9397,-0.3982 0.2491,-0.2649 0.3741,-0.6248 0.3741,-1.0789 0,-0.4565 -0.125,-0.8173 -0.3741,-1.0805 -0.2491,-0.2641 -0.5682,-0.3957 -0.9589,-0.3957 -0.1466,0 -0.3133,0.0233 -0.5007,0.0708l0 2.8142zm4.408 -3.1458c0.4298,0 0.8022,0.1625 1.1172,0.489 0.3149,0.3266 0.4723,0.7332 0.4723,1.2214 0,0.5032 -0.1591,0.9206 -0.4765,1.2521 -0.3174,0.3324 -0.7015,0.4982 -1.1522,0.4982 -0.4549,0 -0.8381,-0.1624 -1.148,-0.4857 -0.3099,-0.3241 -0.4649,-0.7431 -0.4649,-1.2571 0,-0.5257 0.1791,-0.9539 0.5365,-1.2863 0.3116,-0.2883 0.6832,-0.4316 1.1156,-0.4316zm-0.0459 0.1775c-0.2966,0 -0.534,0.1099 -0.7131,0.3299 -0.2225,0.2732 -0.3341,0.6731 -0.3341,1.2005 0,0.5407 0.1158,0.9564 0.3466,1.2471 0.1774,0.2216 0.4115,0.3324 0.7031,0.3324 0.3108,0 0.5674,-0.1216 0.7698,-0.364 0.2025,-0.2425 0.3041,-0.6249 0.3041,-1.1472 0,-0.5657 -0.1116,-0.9881 -0.3349,-1.2663 -0.1791,-0.2216 -0.4257,-0.3324 -0.7415,-0.3324zm4.1197 -0.1775l0 1.1447 -0.0899 0c-0.03,-0.22 -0.0825,-0.3949 -0.1575,-0.5249 -0.0758,-0.1308 -0.1841,-0.2341 -0.3241,-0.3099 -0.1399,-0.0766 -0.2841,-0.1149 -0.434,-0.1149 -0.1691,0 -0.3091,0.0516 -0.4199,0.1549 -0.1108,0.1033 -0.1658,0.2208 -0.1658,0.3524 0,0.1008 0.035,0.1933 0.105,0.2758 0.1008,0.1224 0.3407,0.2849 0.7198,0.4882 0.3091,0.1658 0.5207,0.2932 0.6332,0.3824 0.1132,0.0883 0.2007,0.1932 0.2615,0.3132 0.0609,0.1208 0.0917,0.2466 0.0917,0.3783 0,0.2507 -0.0975,0.4665 -0.2916,0.6481 -0.1949,0.1816 -0.4449,0.2724 -0.7506,0.2724 -0.0967,0 -0.1866,-0.0075 -0.2716,-0.0225 -0.05,-0.0075 -0.155,-0.0375 -0.3133,-0.0883 -0.1583,-0.0516 -0.2591,-0.0775 -0.3016,-0.0775 -0.0408,0 -0.0724,0.0125 -0.0966,0.0367 -0.0233,0.0242 -0.0408,0.075 -0.0525,0.1516l-0.09 0 0 -1.1347 0.09 0c0.0425,0.2375 0.1,0.4149 0.1716,0.5332 0.0717,0.1175 0.1808,0.2158 0.3283,0.2941 0.1466,0.0775 0.3082,0.1166 0.484,0.1166 0.2033,0 0.3641,-0.0533 0.4824,-0.1607 0.1174,-0.1075 0.1766,-0.2342 0.1766,-0.3808 0,-0.0816 -0.0225,-0.1633 -0.0667,-0.2466 -0.0449,-0.0833 -0.1149,-0.1599 -0.2091,-0.2316 -0.0633,-0.0491 -0.2366,-0.1524 -0.5198,-0.3116 -0.2833,-0.1583 -0.4841,-0.2849 -0.604,-0.379 -0.12,-0.095 -0.21,-0.1991 -0.2724,-0.3124 -0.0617,-0.1142 -0.0925,-0.24 -0.0925,-0.3766 0,-0.2374 0.0908,-0.4415 0.2732,-0.6132 0.1825,-0.1716 0.4141,-0.2574 0.6957,-0.2574 0.1758,0 0.3624,0.0425 0.559,0.1291 0.0908,0.0409 0.1558,0.0608 0.1925,0.0608 0.0424,0 0.0774,-0.0124 0.1041,-0.0374 0.0266,-0.0259 0.0483,-0.0767 0.065,-0.1525l0.0899 0zm1.3672 2.5085l-0.0933 0 -0.2142 -1.977c-0.0099,-0.0858 -0.0149,-0.1499 -0.0149,-0.1924 0,-0.1025 0.0274,-0.185 0.0816,-0.2466 0.055,-0.0617 0.12,-0.0925 0.1966,-0.0925 0.0767,0 0.1408,0.0308 0.1941,0.0925 0.0525,0.0616 0.0792,0.1533 0.0792,0.2757 0,0.0392 -0.0034,0.0933 -0.01,0.1633l-0.2191 1.977zm-0.0492 0.4057c0.075,0 0.1391,0.0258 0.1916,0.0792 0.0534,0.0524 0.0792,0.1158 0.0792,0.1891 0,0.0749 -0.0258,0.1383 -0.0792,0.1916 -0.0525,0.0525 -0.1166,0.0791 -0.1916,0.0791 -0.075,0 -0.1383,-0.0266 -0.1916,-0.0791 -0.0525,-0.0533 -0.0791,-0.1167 -0.0791,-0.1916 0,-0.0733 0.0266,-0.1367 0.0791,-0.1891 0.0533,-0.0534 0.1166,-0.0792 0.1916,-0.0792z"/>
    <polygon id="_42527040" class="fil2" points="56.6298,143.043 56.3557,143.218 56.1639,143.244 55.9636,143.349 55.6013,143.79 55.7682,144.577 55.7571,144.687 56.0325,145.465 55.7006,147.225 55.8061,147.366 55.4991,148.503 55.1561,148.938 55.0074,149.004 55.1126,149.14 55.0447,149.597 55.0346,149.97 54.9368,150.177 55.0211,150.488 55.312,150.46 55.6458,150.285 55.7203,150.159 55.7803,150.165 55.6708,150.412 55.3637,150.486 55.455,150.697 55.4525,151.04 55.9259,150.809 56.0984,150.979 56.1716,151.524 56.0271,151.894 56.1505,152.008 56.2248,153.006 56.1144,153.178 55.9622,153.826 56.0544,153.923 56.2345,153.815 56.7514,153.63 57.1526,153.677 57.3151,153.659 57.8535,153.87 58.4115,153.453 58.7008,153.405 58.4621,152.589 58.5785,152.242 58.8491,151.709 59.1754,151.564 59.2662,151.144 59.0168,151.194 58.6662,150.596 58.6988,150.131 59.1081,149.468 58.9854,149.174 58.8316,149.177 58.4719,148.589 58.1462,148.243 58.8741,148.15 59.0924,147.522 59.074,147.29 58.8444,147.089 58.9018,146.936 59.2091,146.678 59.0893,146.171 59.0604,145.557 58.9231,145.329 59.2681,144.795 59.509,144.701 59.9558,144.01 59.6114,143.739 59.4486,143.817 59.2757,143.766 59.2909,143.333 59.2226,143.224 58.2302,143.238 58.2261,143.437 57.8112,143.53 57.099,143.507 56.8815,143.708 56.722,143.577 56.8534,143.293 "/>
   </g>
   <polygon id="_42525992" class="fil3" points="61.8547,157.492 102.296,157.492 102.296,139.458 61.8547,139.458 "/>
   <g>
    <path id="_42514224" class="fil1" d="M65.6052 146.41l0 1.6353c0,0.3534 0.0396,0.5725 0.1173,0.6587 0.1046,0.1215 0.2629,0.1823 0.475,0.1823l0.2162 0 0 0.1527 -2.4057 0 0 -0.1527 0.2107 0c0.2374,0 0.407,-0.0777 0.5088,-0.2318 0.0551,-0.0862 0.0834,-0.2897 0.0834,-0.6092l0 -3.6283c0,-0.3533 -0.0368,-0.5724 -0.1117,-0.6572 -0.1074,-0.1216 -0.2685,-0.1823 -0.4805,-0.1823l-0.2107 0 0 -0.1541 2.058 0c0.5018,0 0.8975,0.0523 1.1873,0.1555 0.2912,0.1032 0.5343,0.2784 0.7336,0.5244 0.1993,0.2459 0.2982,0.5371 0.2982,0.8734 0,0.458 -0.1512,0.8312 -0.4537,1.1181 -0.3025,0.2869 -0.7293,0.4311 -1.282,0.4311 -0.1343,0 -0.2813,-0.0099 -0.4382,-0.0297 -0.1569,-0.0198 -0.3265,-0.048 -0.506,-0.0862zm0 -0.2361c0.147,0.0269 0.2771,0.0481 0.3901,0.0622 0.1131,0.0128 0.2092,0.0198 0.2898,0.0198 0.2869,0 0.5343,-0.1102 0.7435,-0.3336 0.2077,-0.2219 0.3123,-0.5088 0.3123,-0.8622 0,-0.2431 -0.0495,-0.4692 -0.1484,-0.677 -0.1003,-0.2092 -0.2403,-0.3647 -0.4226,-0.4678 -0.1823,-0.1046 -0.3901,-0.1555 -0.6219,-0.1555 -0.1399,0 -0.3209,0.0254 -0.5428,0.0777l0 2.3364zm8.7096 2.8651l-1.4996 0 -1.9011 -2.6248c-0.1399,0.0043 -0.2544,0.0071 -0.3435,0.0071 -0.0353,0 -0.0735,0 -0.1159,-0.0014 -0.041,-0.0014 -0.0834,-0.0028 -0.1286,-0.0057l0 1.6311c0,0.3534 0.0396,0.5725 0.1159,0.6587 0.106,0.1215 0.2629,0.1823 0.4721,0.1823l0.2205 0 0 0.1527 -2.4057 0 0 -0.1527 0.2106 0c0.2375,0 0.4071,-0.0777 0.5089,-0.2318 0.0579,-0.0862 0.0876,-0.2897 0.0876,-0.6092l0 -3.6283c0,-0.3533 -0.0396,-0.5724 -0.1159,-0.6572 -0.1074,-0.1216 -0.2686,-0.1823 -0.4806,-0.1823l-0.2106 0 0 -0.1541 2.0453 0c0.5964,0 1.036,0.0438 1.3187,0.1314 0.2827,0.0863 0.523,0.246 0.7209,0.4792 0.1964,0.2346 0.2954,0.5117 0.2954,0.8353 0,0.3449 -0.1117,0.6446 -0.3378,0.899 -0.2248,0.253 -0.5725,0.4325 -1.0446,0.5371l1.159 1.6113c0.2644,0.3703 0.4933,0.6163 0.6827,0.7378 0.1909,0.1202 0.4396,0.1979 0.7463,0.2318l0 0.1527zm-3.9887 -2.8863c0.0537,0 0.0989,0 0.1371,0.0015 0.0382,0.0014 0.0707,0.0028 0.0947,0.0028 0.5357,0 0.94,-0.1159 1.2113,-0.3477 0.2728,-0.2318 0.4085,-0.5272 0.4085,-0.8863 0,-0.3505 -0.1102,-0.636 -0.3293,-0.8551 -0.2191,-0.2191 -0.5103,-0.3293 -0.8721,-0.3293 -0.1597,0 -0.376,0.0268 -0.6502,0.0791l0 2.335zm6.5315 2.7336l0 0.1527 -2.4071 0 0 -0.1527 0.1993 0c0.2318,0 0.4,-0.0678 0.5046,-0.2035 0.0664,-0.0876 0.1004,-0.3011 0.1004,-0.6375l0 -3.6283c0,-0.2841 -0.0184,-0.472 -0.0538,-0.5625 -0.0282,-0.0693 -0.0847,-0.1286 -0.1696,-0.1781 -0.1215,-0.0664 -0.2487,-0.0989 -0.3816,-0.0989l-0.1993 0 0 -0.1541 2.4071 0 0 0.1541 -0.2035 0c-0.229,0 -0.3958,0.0678 -0.5004,0.2021 -0.0693,0.089 -0.1046,0.301 -0.1046,0.6374l0 3.6283c0,0.2841 0.0184,0.4721 0.0537,0.5626 0.0283,0.0692 0.0862,0.1286 0.1739,0.1781 0.1187,0.0664 0.2445,0.1003 0.3774,0.1003l0.2035 0zm6.2276 -5.4629l0 0.1541c-0.1993,0.0353 -0.3491,0.0989 -0.4523,0.1893 -0.1456,0.1357 -0.2756,0.3435 -0.3887,0.622l-1.959 4.7788 -0.1527 0 -2.1032 -4.841c-0.1088,-0.2488 -0.1837,-0.4 -0.2289,-0.4552 -0.0679,-0.0862 -0.1527,-0.1526 -0.2545,-0.2007 -0.1003,-0.0494 -0.236,-0.0791 -0.407,-0.0932l0 -0.1541 2.294 0 0 0.1541c-0.2601,0.024 -0.4283,0.0692 -0.506,0.1314 -0.0764,0.0636 -0.1159,0.1456 -0.1159,0.2445 0,0.1386 0.0636,0.3534 0.1908,0.646l1.429 3.2919 1.3244 -3.2495c0.13,-0.3209 0.195,-0.5428 0.195,-0.6672 0,-0.0805 -0.0395,-0.1569 -0.1201,-0.2304 -0.0806,-0.0721 -0.2149,-0.1244 -0.4057,-0.154 -0.0141,-0.0029 -0.0367,-0.0071 -0.0706,-0.0127l0 -0.1541 1.7314 0zm2.8905 3.7357l-2.1739 0 -0.3802 0.8862c-0.0947,0.2177 -0.1413,0.3802 -0.1413,0.4891 0,0.0848 0.0409,0.1597 0.1215,0.2247 0.082,0.065 0.2573,0.1074 0.5286,0.1272l0 0.1527 -1.7682 0 0 -0.1527c0.2347,-0.0424 0.3859,-0.0961 0.4552,-0.1625 0.1413,-0.1315 0.2968,-0.4014 0.4678,-0.8071l1.976 -4.6205 0.1442 0 1.9548 4.67c0.1568,0.376 0.2996,0.6191 0.4282,0.7307 0.1286,0.1117 0.3082,0.1753 0.5371,0.1894l0 0.1527 -2.2162 0 0 -0.1527c0.2233,-0.0113 0.3745,-0.0494 0.4537,-0.113 0.0791,-0.0622 0.1187,-0.14 0.1187,-0.2319 0,-0.1215 -0.0565,-0.3123 -0.1668,-0.5752l-0.3392 -0.8071zm-0.1159 -0.3067l-0.9527 -2.2686 -0.9767 2.2686 1.9294 0zm2.506 2.1866l0 -0.1527 0.2106 0c0.2375,0 0.4057,-0.0763 0.5046,-0.2289 0.0608,-0.0905 0.0919,-0.2955 0.0919,-0.6121l0 -3.6283c0,-0.3505 -0.0396,-0.5696 -0.1159,-0.6572 -0.1074,-0.1216 -0.2686,-0.1823 -0.4806,-0.1823l-0.2106 0 0 -0.1541 2.2855 0c0.8382,0 1.4771,0.0961 1.9152,0.2855 0.4368,0.1908 0.7887,0.5088 1.0559,0.9527 0.2657,0.4452 0.4,0.9583 0.4,1.5406 0,0.7816 -0.2375,1.4346 -0.7124,1.959 -0.5328,0.5852 -1.3456,0.8778 -2.4353,0.8778l-2.5089 0zm1.6014 -0.4057c0.3506,0.0778 0.6446,0.1159 0.882,0.1159 0.6403,0 1.1718,-0.2247 1.5944,-0.6756 0.4226,-0.4495 0.6346,-1.0601 0.6346,-1.8304 0,-0.7746 -0.212,-1.3866 -0.6346,-1.8332 -0.4226,-0.4481 -0.964,-0.6714 -1.6269,-0.6714 -0.2487,0 -0.5314,0.0396 -0.8495,0.1201l0 4.7746zm7.4785 -5.3371c0.7294,0 1.3612,0.2756 1.8954,0.8297 0.5343,0.554 0.8015,1.2438 0.8015,2.0721 0,0.8537 -0.27,1.5618 -0.8085,2.1244 -0.5385,0.5639 -1.1901,0.8452 -1.9548,0.8452 -0.7717,0 -1.4219,-0.2756 -1.9477,-0.824 -0.5258,-0.5499 -0.7887,-1.2608 -0.7887,-2.1329 0,-0.8919 0.3039,-1.6184 0.9102,-2.1824 0.5287,-0.489 1.1591,-0.7321 1.8926,-0.7321zm-0.0777 0.301c-0.5032,0 -0.906,0.1866 -1.2099,0.5598 -0.3774,0.4636 -0.5668,1.142 -0.5668,2.0367 0,0.9173 0.1965,1.6227 0.588,2.1159 0.3011,0.376 0.6982,0.564 1.1929,0.564 0.5273,0 0.9626,-0.2064 1.3061,-0.6177 0.3434,-0.4113 0.5159,-1.06 0.5159,-1.9463 0,-0.9597 -0.1894,-1.6763 -0.5682,-2.1484 -0.3039,-0.376 -0.7223,-0.564 -1.258,-0.564z"/>
    <path id="_42515464" class="fil1" d="M65.0214 150.761l0 1.4067 0.7822 0c0.2034,0 0.3387,-0.0305 0.4068,-0.0914 0.0914,-0.0806 0.1416,-0.2222 0.1523,-0.4256l0.0968 0 0 1.2392 -0.0968 0c-0.0242,-0.173 -0.0493,-0.2841 -0.0735,-0.3333 -0.0313,-0.061 -0.0833,-0.1094 -0.155,-0.1443 -0.0716,-0.0349 -0.1819,-0.0529 -0.3306,-0.0529l-0.7822 0 0 1.1738c0,0.1577 0.0072,0.2535 0.0206,0.2876 0.0144,0.034 0.0386,0.0609 0.0735,0.0815 0.0349,0.0197 0.1021,0.0296 0.1998,0.0296l0.6039 0c0.2007,0 0.3476,-0.0134 0.4381,-0.0421 0.0914,-0.0278 0.1783,-0.0824 0.2626,-0.1649 0.1084,-0.1084 0.2195,-0.2724 0.3333,-0.491l0.1048 0 -0.3064 0.8924 -2.7436 0 0 -0.0967 0.1264 0c0.0833,0 0.1631,-0.0207 0.2383,-0.061 0.0565,-0.0277 0.0941,-0.0698 0.1147,-0.1254 0.0197,-0.0565 0.0296,-0.1711 0.0296,-0.3441l0 -2.3125c0,-0.2258 -0.0224,-0.3647 -0.0681,-0.4175 -0.0627,-0.0699 -0.1676,-0.1049 -0.3145,-0.1049l-0.1264 0 0 -0.0976 2.7436 0 0.0394 0.7795 -0.103 0c-0.0368,-0.1873 -0.0771,-0.3154 -0.1219,-0.3853 -0.0448,-0.0699 -0.1102,-0.1236 -0.198,-0.1604 -0.0699,-0.026 -0.1936,-0.0394 -0.3701,-0.0394l-0.9766 0zm1.1155 -1.3511l-0.7741 0.9049 -0.0896 0 0.276 -0.9049 0.5877 0zm2.481 4.7164l0 -0.0967 0.1335 0c0.1506,0 0.2572,-0.0484 0.3199,-0.1452 0.0385,-0.0573 0.0582,-0.1873 0.0582,-0.3879l0 -2.3001c0,-0.2222 -0.0251,-0.361 -0.0734,-0.4166 -0.0681,-0.077 -0.1703,-0.1156 -0.3047,-0.1156l-0.1335 0 0 -0.0976 1.4488 0c0.5313,0 0.9363,0.0609 1.2141,0.181 0.2769,0.1209 0.4999,0.3225 0.6693,0.6039 0.1684,0.2822 0.2536,0.6074 0.2536,0.9766 0,0.4955 -0.1506,0.9094 -0.4516,1.2418 -0.3378,0.371 -0.853,0.5564 -1.5438,0.5564l-1.5904 0zm1.0152 -0.2571c0.2222,0.0493 0.4085,0.0735 0.5591,0.0735 0.4058,0 0.7427,-0.1425 1.0106,-0.4283 0.2679,-0.2849 0.4023,-0.672 0.4023,-1.1603 0,-0.491 -0.1344,-0.879 -0.4023,-1.1621 -0.2679,-0.2841 -0.611,-0.4256 -1.0312,-0.4256 -0.1577,0 -0.3369,0.0251 -0.5385,0.0761l0 3.0267zm3.8984 -3.1082l0 1.4067 0.7822 0c0.2034,0 0.3387,-0.0305 0.4068,-0.0914 0.0914,-0.0806 0.1416,-0.2222 0.1523,-0.4256l0.0968 0 0 1.2392 -0.0968 0c-0.0242,-0.173 -0.0493,-0.2841 -0.0735,-0.3333 -0.0313,-0.061 -0.0833,-0.1094 -0.155,-0.1443 -0.0716,-0.0349 -0.1819,-0.0529 -0.3306,-0.0529l-0.7822 0 0 1.1738c0,0.1577 0.0072,0.2535 0.0206,0.2876 0.0144,0.034 0.0385,0.0609 0.0735,0.0815 0.0349,0.0197 0.1021,0.0296 0.1998,0.0296l0.6039 0c0.2007,0 0.3476,-0.0134 0.4381,-0.0421 0.0914,-0.0278 0.1783,-0.0824 0.2626,-0.1649 0.1084,-0.1084 0.2195,-0.2724 0.3333,-0.491l0.1048 0 -0.3064 0.8924 -2.7436 0 0 -0.0967 0.1264 0c0.0833,0 0.1631,-0.0207 0.2383,-0.061 0.0565,-0.0277 0.0941,-0.0698 0.1147,-0.1254 0.0197,-0.0565 0.0296,-0.1711 0.0296,-0.3441l0 -2.3125c0,-0.2258 -0.0224,-0.3647 -0.0681,-0.4175 -0.0627,-0.0699 -0.1676,-0.1049 -0.3145,-0.1049l-0.1264 0 0 -0.0976 2.7436 0 0.0394 0.7795 -0.1031 0c-0.0367,-0.1873 -0.077,-0.3154 -0.1218,-0.3853 -0.0448,-0.0699 -0.1102,-0.1236 -0.198,-0.1604 -0.0699,-0.026 -0.1936,-0.0394 -0.3701,-0.0394l-0.9766 0zm5.6672 2.1737l-1.3781 0 -0.241 0.5618c-0.06,0.1379 -0.0896,0.241 -0.0896,0.31 0,0.0537 0.026,0.1012 0.077,0.1424 0.052,0.0412 0.1631,0.0681 0.3352,0.0807l0 0.0967 -1.1209 0 0 -0.0967c0.1487,-0.0269 0.2446,-0.061 0.2885,-0.1031 0.0896,-0.0833 0.1881,-0.2544 0.2966,-0.5116l1.2525 -2.929 0.0914 0 1.2392 2.9604c0.0994,0.2383 0.1899,0.3924 0.2715,0.4632 0.0815,0.0708 0.1953,0.1111 0.3404,0.1201l0 0.0967 -1.4049 0 0 -0.0967c0.1416,-0.0072 0.2375,-0.0314 0.2876,-0.0717 0.0502,-0.0394 0.0753,-0.0887 0.0753,-0.147 0,-0.077 -0.0358,-0.198 -0.1057,-0.3646l-0.215 -0.5116zm-0.0735 -0.1945l-0.6039 -1.438 -0.6191 1.438 1.223 0zm4.5776 0.4014l0.0869 0.0188 -0.3046 0.9659 -2.7561 0 0 -0.0967 0.1344 0c0.1505,0 0.258,-0.0493 0.3226,-0.147 0.0367,-0.0564 0.0546,-0.1863 0.0546,-0.3888l0 -2.2974c0,-0.2222 -0.0242,-0.361 -0.0735,-0.4166 -0.0681,-0.077 -0.1693,-0.1156 -0.3037,-0.1156l-0.1344 0 0 -0.0976 1.6119 0 0 0.0976c-0.1891,-0.0018 -0.3217,0.0153 -0.3978,0.052 -0.0762,0.0367 -0.1282,0.0833 -0.1559,0.1398 -0.0278,0.0555 -0.0421,0.1899 -0.0421,0.4014l0 2.2364c0,0.1451 0.0143,0.2446 0.0421,0.2992 0.0206,0.0368 0.0528,0.0636 0.0967,0.0816 0.0439,0.017 0.1801,0.0259 0.4095,0.0259l0.2598 0c0.2733,0 0.4651,-0.0197 0.5752,-0.06 0.1102,-0.0403 0.2106,-0.112 0.302,-0.2141 0.0905,-0.1022 0.1819,-0.2643 0.2724,-0.4848zm3.5024 -2.6557l0.0914 1.1227 -0.0914 0c-0.0932,-0.2795 -0.2133,-0.4901 -0.3602,-0.6326 -0.2115,-0.2043 -0.4838,-0.3064 -0.8162,-0.3064 -0.4534,0 -0.7984,0.1792 -1.034,0.5376 -0.198,0.3029 -0.2966,0.663 -0.2966,1.0815 0,0.3395 0.0654,0.6495 0.1962,0.9291 0.1317,0.2804 0.3038,0.4856 0.5161,0.6155 0.2124,0.1308 0.431,0.1963 0.655,0.1963 0.1317,0 0.258,-0.0171 0.3808,-0.0502 0.1227,-0.0332 0.2401,-0.0825 0.3539,-0.147l0 -1.0294c0,-0.1783 -0.0134,-0.2948 -0.0403,-0.3504 -0.0269,-0.0546 -0.069,-0.0967 -0.1264,-0.1254 -0.0564,-0.0296 -0.1568,-0.0439 -0.3001,-0.0439l0 -0.0995 1.378 0 0 0.0995 -0.0654 0c-0.1371,0 -0.2303,0.0457 -0.2813,0.1371 -0.035,0.0645 -0.052,0.1926 -0.052,0.3826l0 1.0895c-0.2016,0.1084 -0.4005,0.1881 -0.5958,0.2392 -0.1963,0.0511 -0.414,0.0762 -0.6541,0.0762 -0.6872,0 -1.2096,-0.2205 -1.5671,-0.6613 -0.2679,-0.3315 -0.4014,-0.7123 -0.4014,-1.1451 0,-0.3126 0.0753,-0.6128 0.2258,-0.9004 0.1783,-0.3414 0.4238,-0.6039 0.7347,-0.7876 0.2607,-0.1523 0.569,-0.2276 0.9238,-0.2276 0.1299,0 0.2473,0.0099 0.3539,0.0314 0.1057,0.0206 0.2554,0.0672 0.4498,0.1389 0.0977,0.0367 0.1639,0.0546 0.1971,0.0546 0.0331,0 0.0618,-0.0152 0.0851,-0.0457 0.0233,-0.0304 0.0377,-0.0905 0.043,-0.1792l0.0977 0zm3.1467 0.1783l0 -0.0976 1.2607 0 0 0.0976 -0.1345 0c-0.1397,0 -0.2473,0.0583 -0.3225,0.1756 -0.0367,0.0547 -0.0556,0.1801 -0.0556,0.3782l0 1.4434c0,0.3575 -0.0349,0.6343 -0.1057,0.8306 -0.0708,0.1971 -0.2105,0.3664 -0.4175,0.5071 -0.2079,0.1407 -0.4901,0.2115 -0.8467,0.2115 -0.3889,0 -0.6837,-0.0672 -0.8844,-0.2025 -0.2016,-0.1344 -0.344,-0.3154 -0.4282,-0.543 -0.0556,-0.1559 -0.0843,-0.448 -0.0843,-0.8772l0 -1.3915c0,-0.2186 -0.0295,-0.3619 -0.0905,-0.43 -0.06,-0.0681 -0.1576,-0.1022 -0.292,-0.1022l-0.1345 0 0 -0.0976 1.5385 0 0 0.0976 -0.1362 0c-0.147,0 -0.2527,0.0457 -0.3154,0.1389 -0.0439,0.0627 -0.0654,0.1944 -0.0654,0.3933l0 1.5519c0,0.138 0.0125,0.2966 0.0376,0.4749 0.026,0.1783 0.0717,0.3181 0.138,0.4175 0.0663,0.0995 0.1622,0.1819 0.2876,0.2464 0.1254,0.0654 0.2787,0.0977 0.4605,0.0977 0.233,0 0.4409,-0.0511 0.6245,-0.1524 0.1837,-0.1012 0.3101,-0.2311 0.3773,-0.3897 0.0672,-0.1586 0.1012,-0.4265 0.1012,-0.8046l0 -1.4417c0,-0.2222 -0.0251,-0.361 -0.0735,-0.4166 -0.069,-0.077 -0.1702,-0.1156 -0.3046,-0.1156l-0.1344 0zm1.2472 -0.0976l0.9659 0 2.1763 2.67 0 -2.0527c0,-0.2186 -0.0251,-0.3557 -0.0734,-0.4095 -0.0654,-0.0734 -0.1676,-0.1102 -0.3074,-0.1102l-0.1236 0 0 -0.0976 1.2392 0 0 0.0976 -0.1264 0c-0.1505,0 -0.2571,0.0457 -0.3198,0.1362 -0.0386,0.0565 -0.0574,0.1837 -0.0574,0.3835l0 2.9998 -0.095 0 -2.3466 -2.8663 0 2.1925c0,0.2186 0.0233,0.3548 0.0708,0.4094 0.0663,0.0735 0.1694,0.1103 0.3073,0.1103l0.1255 0 0 0.0967 -1.2383 0 0 -0.0967 0.1228 0c0.1523,0 0.2598,-0.0457 0.3234,-0.1371 0.0386,-0.0556 0.0574,-0.1837 0.0574,-0.3826l0 -2.4756c-0.1031,-0.121 -0.1819,-0.2007 -0.2348,-0.2393 -0.0537,-0.0385 -0.1317,-0.0743 -0.2347,-0.1075 -0.0511,-0.0152 -0.1281,-0.0233 -0.2312,-0.0233l0 -0.0976zm6.418 -0.0807l0 1.2311 -0.0968 0c-0.0322,-0.2365 -0.0887,-0.4247 -0.1693,-0.5645 -0.0816,-0.1406 -0.198,-0.2517 -0.3486,-0.3333 -0.1505,-0.0824 -0.3055,-0.1236 -0.4668,-0.1236 -0.1819,0 -0.3324,0.0556 -0.4516,0.1666 -0.1191,0.1112 -0.1783,0.2375 -0.1783,0.379 0,0.1085 0.0377,0.2079 0.1129,0.2966 0.1084,0.1317 0.3665,0.3065 0.7742,0.5251 0.3324,0.1783 0.56,0.3154 0.6809,0.4112 0.1219,0.095 0.2159,0.2079 0.2814,0.3369 0.0654,0.1299 0.0985,0.2652 0.0985,0.4068 0,0.2697 -0.1048,0.5017 -0.3136,0.6971 -0.2096,0.1953 -0.4785,0.293 -0.8073,0.293 -0.1039,0 -0.2007,-0.0081 -0.2921,-0.0242 -0.0537,-0.0081 -0.1666,-0.0403 -0.3369,-0.095 -0.1702,-0.0555 -0.2786,-0.0833 -0.3243,-0.0833 -0.0439,0 -0.078,0.0134 -0.1039,0.0394 -0.0251,0.026 -0.0439,0.0806 -0.0565,0.1631l-0.0968 0 0 -1.2204 0.0968 0c0.0457,0.2554 0.1075,0.4462 0.1846,0.5735 0.077,0.1263 0.1944,0.232 0.353,0.3162 0.1577,0.0834 0.3315,0.1255 0.5206,0.1255 0.2186,0 0.3915,-0.0574 0.5188,-0.1729 0.1263,-0.1156 0.1899,-0.2518 0.1899,-0.4095 0,-0.0878 -0.0242,-0.1756 -0.0717,-0.2652 -0.0483,-0.0896 -0.1236,-0.1721 -0.2249,-0.2491 -0.0681,-0.0529 -0.2544,-0.164 -0.5591,-0.3351 -0.3046,-0.1702 -0.5205,-0.3064 -0.6496,-0.4077 -0.129,-0.1021 -0.2257,-0.2141 -0.2929,-0.336 -0.0664,-0.1227 -0.0995,-0.258 -0.0995,-0.405 0,-0.2553 0.0977,-0.4748 0.2939,-0.6594 0.1962,-0.1846 0.4453,-0.2769 0.7481,-0.2769 0.1891,0 0.3898,0.0457 0.6012,0.1389 0.0977,0.0439 0.1676,0.0654 0.207,0.0654 0.0457,0 0.0833,-0.0134 0.112,-0.0403 0.0287,-0.0278 0.052,-0.0824 0.0699,-0.164l0.0968 0zm1.4703 2.6978l-0.1004 0 -0.2302 -2.1261c-0.0108,-0.0923 -0.0162,-0.1613 -0.0162,-0.207 0,-0.1102 0.0296,-0.1989 0.0878,-0.2652 0.0592,-0.0663 0.1291,-0.0995 0.2115,-0.0995 0.0824,0 0.1514,0.0332 0.2088,0.0995 0.0564,0.0663 0.0851,0.1648 0.0851,0.2966 0,0.0421 -0.0036,0.1003 -0.0108,0.1756l-0.2356 2.1261zm-0.0529 0.4364c0.0807,0 0.1496,0.0278 0.2061,0.0851 0.0573,0.0565 0.0851,0.1246 0.0851,0.2034 0,0.0806 -0.0278,0.1487 -0.0851,0.2061 -0.0565,0.0564 -0.1254,0.0851 -0.2061,0.0851 -0.0806,0 -0.1487,-0.0287 -0.2061,-0.0851 -0.0564,-0.0574 -0.0851,-0.1255 -0.0851,-0.2061 0,-0.0788 0.0287,-0.1469 0.0851,-0.2034 0.0574,-0.0573 0.1255,-0.0851 0.2061,-0.0851z"/>
   </g>
   <g>
    <path id="_42515096" class="fil4" d="M107.44 146.201l0 3.7137 -2.1581 0 0 -10.0848 2.3262 0c0.9242,0 1.6108,0.1177 2.0573,0.3505 0.4489,0.2353 0.6721,0.713 0.6721,1.4355l0 2.7991c0,0.6602 -0.1824,1.1283 -0.5497,1.4019 -0.3649,0.2761 -1.1475,0.4033 -2.3478,0.3841zm0.7394 -1.9756l0 -2.4198c0,-0.3553 -0.2472,-0.5353 -0.7394,-0.5353l0 3.4904c0.4922,0 0.7394,-0.1801 0.7394,-0.5353zm7.2833 0.9074l-2.0045 0 0 -1.7716c0,-0.2497 -0.1152,-0.3745 -0.3432,-0.3745 -0.2305,0 -0.3457,0.12 -0.3457,0.3601l0 6.5679 -2.0045 0 0 -8.1643 2.0045 0 0 0.2736c0.2688,-0.2208 0.6793,-0.3312 1.2387,-0.3312 0.3985,0 0.7393,0.108 1.0274,0.3192 0.2857,0.2137 0.4273,0.4946 0.4273,0.8426l0 2.2782zm2.3502 -3.8337l-2.0045 0 0 -1.4692 2.0045 0 0 1.4692zm0 8.6156l-2.0045 0 0 -8.1643 2.0045 0 0 8.1643zm5.6053 -8.1643l-1.4692 8.1643 -2.4197 0 -1.4692 -8.1643 2.0165 0 0.6889 4.8227 0.677 -4.8227 1.9757 0zm5.0003 8.1643l-1.774 0 0 -0.3169c-0.1488,0.2857 -0.5785,0.4297 -1.2867,0.4297 -1.0922,0 -1.6396,-0.4273 -1.6396,-1.2795l0 -1.6396c0,-0.3649 0.1345,-0.6841 0.3985,-0.9554 0.2641,-0.2737 0.7994,-0.6121 1.6012,-1.0202 0.4633,-0.2353 0.6962,-0.4225 0.6962,-0.5642l0 -1.2074c0,-0.2689 -0.1153,-0.4009 -0.3457,-0.4009 -0.2617,0 -0.3937,0.324 -0.3937,0.977 0,0.1176 0.0072,0.2905 0.0216,0.5209 0.0192,0.2281 0.0264,0.4033 0.0264,0.5185l-1.9325 0 0 -1.6299c0,-1.1019 0.797,-1.654 2.391,-1.654 1.4908,0 2.2373,0.5737 2.2373,1.7236l0 6.4983zm-2.0044 -1.5268l0 -2.1029c-0.4609,0.1129 -0.6914,0.3193 -0.6914,0.6194l0 1.4835c0,0.2497 0.12,0.3745 0.3601,0.3745 0.2208,0 0.3313,-0.1248 0.3313,-0.3745zm6.4407 1.5268l-1.2651 0c-0.905,0 -1.4476,-0.1369 -1.6252,-0.4081 -0.1777,-0.2713 -0.2665,-0.7946 -0.2665,-1.5676l0 -4.9787 -0.893 0 0 -1.2099 0.893 0 0 -1.6468 2.0045 0 0 1.6468 1.0826 0 0 1.2099 -1.0826 0 0 4.9643c0,0.2401 0.0696,0.3985 0.2136,0.4825 0.1441,0.0816 0.4561,0.1225 0.9387,0.1225l0 1.3851zm2.3501 -8.6156l-2.0045 0 0 -1.4692 2.0045 0 0 1.4692zm0 8.6156l-2.0045 0 0 -8.1643 2.0045 0 0 8.1643zm5.1972 0l-4.8107 0 0 -1.1259 2.2709 -5.7301 -2.1437 0 0 -1.3083 4.4651 0 0 1.1042 -2.307 5.7662 2.5254 0 0 1.2939zm5.0796 0l-1.774 0 0 -0.3169c-0.1488,0.2857 -0.5785,0.4297 -1.2867,0.4297 -1.0923,0 -1.6396,-0.4273 -1.6396,-1.2795l0 -1.6396c0,-0.3649 0.1344,-0.6841 0.3985,-0.9554 0.2641,-0.2737 0.7994,-0.6121 1.6012,-1.0202 0.4633,-0.2353 0.6961,-0.4225 0.6961,-0.5642l0 -1.2074c0,-0.2689 -0.1152,-0.4009 -0.3456,-0.4009 -0.2617,0 -0.3937,0.324 -0.3937,0.977 0,0.1176 0.0072,0.2905 0.0216,0.5209 0.0192,0.2281 0.0264,0.4033 0.0264,0.5185l-1.9325 0 0 -1.6299c0,-1.1019 0.797,-1.654 2.391,-1.654 1.4907,0 2.2373,0.5737 2.2373,1.7236l0 6.4983zm-2.0045 -1.5268l0 -2.1029c-0.4609,0.1129 -0.6913,0.3193 -0.6913,0.6194l0 1.4835c0,0.2497 0.12,0.3745 0.3601,0.3745 0.2208,0 0.3312,-0.1248 0.3312,-0.3745zm7.1585 -3.0247l-1.9973 0 0 -2.002c0,-0.2689 -0.1152,-0.4009 -0.3456,-0.4009 -0.2329,0 -0.3505,0.132 -0.3505,0.4009l0 5.0003c0,0.2761 0.1176,0.4129 0.3505,0.4129 0.2304,0 0.3456,-0.1368 0.3456,-0.4129l0 -1.978 1.9973 0 0 1.99c0,1.1019 -0.7706,1.654 -2.3141,1.654 -1.5844,0 -2.3766,-0.5737 -2.3766,-1.7236l0 -4.8875c0,-1.1499 0.7922,-1.7236 2.3766,-1.7236 1.5435,0 2.3141,0.5521 2.3141,1.654l0 2.0164zm-3.0607 6.035l0.2736 -0.4009c0.1081,0.0745 0.1993,0.1129 0.2761,0.1129 0.2113,0 0.3145,-0.1057 0.3145,-0.3169 0,-0.2065 -0.0984,-0.3097 -0.2953,-0.3097 -0.0168,0.0096 -0.0984,0.036 -0.2376,0.0792l0 -0.7033 0.8162 0 0 0.2448c0.3936,0.0888 0.5905,0.3385 0.5905,0.7466 0,0.5281 -0.3817,0.7946 -1.1475,0.7946 -0.2376,0 -0.4345,-0.0816 -0.5905,-0.2473zm3.4616 -3.0943l0 -4.8875c0,-1.1499 0.7946,-1.7236 2.3837,-1.7236 0.6146,0 1.1547,0.1344 1.6228,0.4009 0.4657,0.2688 0.6986,0.6841 0.6986,1.2531l0 5.0267c0,1.1019 -0.773,1.654 -2.3214,1.654 -1.5891,0 -2.3837,-0.5737 -2.3837,-1.7236zm2.7006 0.0576l0 -5.0003c0,-0.2689 -0.1152,-0.4009 -0.3433,-0.4009 -0.2352,0 -0.3528,0.132 -0.3528,0.4009l0 5.0003c0,0.2761 0.1176,0.4129 0.3528,0.4129 0.2281,0 0.3433,-0.1368 0.3433,-0.4129zm2.1437 -8.9037c0,0.4057 -0.1392,0.7874 -0.4177,1.1427 -0.2784,0.3529 -0.6769,0.5305 -1.1907,0.5305 -0.1896,0 -0.4657,-0.0696 -0.8305,-0.204 -0.3625,-0.1368 -0.6362,-0.2041 -0.8234,-0.2041 -0.1537,0 -0.2329,0.1369 -0.2329,0.4081l-1.3011 0c0,-1.1162 0.5785,-1.6732 1.7308,-1.6732 0.168,0 0.4201,0.0625 0.7538,0.1897 0.3361,0.12 0.5905,0.1824 0.7586,0.1824 0.1728,0 0.2592,-0.1248 0.2592,-0.3721l1.2939 0zm4.9596 6.9977l-2.6935 0 0 1.906c0,0.2761 0.1177,0.4129 0.3505,0.4129 0.2305,0 0.3457,-0.1368 0.3457,-0.4129l0 -1.6468 1.9973 0 0 1.6588c0,1.1019 -0.785,1.654 -2.3574,1.654 -1.5555,0 -2.3333,-0.5737 -2.3333,-1.7236l0 -4.8875c0,-1.1499 0.7778,-1.7236 2.3333,-1.7236 1.5724,0 2.3574,0.5521 2.3574,1.654l0 3.1087zm-1.9973 -1.2243l0 -1.87c0,-0.2689 -0.1152,-0.4009 -0.3457,-0.4009 -0.2328,0 -0.3505,0.132 -0.3505,0.4009l0 1.87 0.6962 0zm2.4414 1.3995l1.9972 0 0 1.7308c0,0.2761 0.1129,0.4129 0.3361,0.4129 0.2257,0 0.3385,-0.264 0.3385,-0.7946 0,-0.6889 -0.1392,-1.133 -0.4153,-1.3347 -1.0442,-0.5497 -1.6756,-0.9314 -1.8916,-1.1498 -0.2161,-0.2185 -0.3241,-0.545 -0.3241,-0.9819l0 -1.097c0,-1.1499 0.7802,-1.7236 2.3357,-1.7236 1.5148,0 2.271,0.5521 2.271,1.654l0 1.6107 -1.9541 0 0.0408 -0.9794c0,-0.6794 -0.1224,-1.0178 -0.3721,-1.0178 -0.2472,0 -0.3721,0.2112 -0.3721,0.6385 0,0.4417 0.0553,0.773 0.1657,0.9986 0.1104,0.2257 0.7226,0.6122 1.8388,1.1619 0.4633,0.3313 0.6962,0.773 0.6962,1.3203l0 1.2243c0,1.1499 -0.7898,1.7236 -2.3694,1.7236 -1.5483,0 -2.3213,-0.5521 -2.3213,-1.654l0 -1.7428zm26.0484 1.3707l-2.0044 0 0 -8.1715 2.0044 0 0 8.1715zm0 1.9133l-2.0044 0 0 -1.4692 2.0044 0 0 1.4692z"/>
    <path id="_42512352" class="fil4" d="M174.61 149.915l-2.2781 0 -1.5052 -5.3725 0 5.3725 -1.8484 0 0 -10.0848 2.5158 0 1.2674 4.5995 0 -4.5995 1.8485 0 0 10.0848zm5.1924 0l-1.774 0 0 -0.3169c-0.1489,0.2857 -0.5786,0.4297 -1.2867,0.4297 -1.0923,0 -1.6396,-0.4273 -1.6396,-1.2795l0 -1.6396c0,-0.3649 0.1344,-0.6841 0.3985,-0.9554 0.264,-0.2737 0.7994,-0.6121 1.6012,-1.0202 0.4633,-0.2353 0.6961,-0.4225 0.6961,-0.5642l0 -1.2074c0,-0.2689 -0.1152,-0.4009 -0.3457,-0.4009 -0.2616,0 -0.3936,0.324 -0.3936,0.977 0,0.1176 0.0072,0.2905 0.0216,0.5209 0.0192,0.2281 0.0264,0.4033 0.0264,0.5185l-1.9325 0 0 -1.6299c0,-1.1019 0.797,-1.654 2.391,-1.654 1.4907,0 2.2373,0.5737 2.2373,1.7236l0 6.4983zm-2.0045 -1.5268l0 -2.1029c-0.4609,0.1129 -0.6913,0.3193 -0.6913,0.6194l0 1.4835c0,0.2497 0.12,0.3745 0.36,0.3745 0.2209,0 0.3313,-0.1248 0.3313,-0.3745zm2.1509 -8.9301c0,0.4057 -0.1392,0.7874 -0.4177,1.1427 -0.2784,0.3529 -0.6769,0.5305 -1.1907,0.5305 -0.1896,0 -0.4657,-0.0696 -0.8305,-0.204 -0.3625,-0.1368 -0.6362,-0.2041 -0.8234,-0.2041 -0.1537,0 -0.2329,0.1369 -0.2329,0.4081l-1.3011 0c0,-1.1162 0.5785,-1.6732 1.7308,-1.6732 0.168,0 0.4201,0.0625 0.7538,0.1897 0.3361,0.12 0.5905,0.1824 0.7586,0.1824 0.1728,0 0.2592,-0.1248 0.2592,-0.3721l1.2939 0zm0.2809 8.8461l0 -4.8875c0,-1.1499 0.7946,-1.7236 2.3837,-1.7236 0.6146,0 1.1547,0.1344 1.6228,0.4009 0.4657,0.2688 0.6986,0.6841 0.6986,1.2531l0 5.0267c0,1.1019 -0.773,1.654 -2.3214,1.654 -1.5891,0 -2.3837,-0.5737 -2.3837,-1.7236zm2.7006 0.0576l0 -5.0003c0,-0.2689 -0.1152,-0.4009 -0.3433,-0.4009 -0.2352,0 -0.3528,0.132 -0.3528,0.4009l0 5.0003c0,0.2761 0.1176,0.4129 0.3528,0.4129 0.2281,0 0.3433,-0.1368 0.3433,-0.4129z"/>
   </g>
   <g>
    <path id="_42508560" class="fil0" d="M152.024 154.093l-0.1839 0.9812 0.6254 0c0.1878,0 0.3442,-0.0545 0.4692,-0.1625 0.1249,-0.1081 0.187,-0.2522 0.187,-0.4323 0,-0.2576 -0.2231,-0.3864 -0.6684,-0.3864l-0.4293 0zm-1.2693 -1.0302l2.1156 0c0.3679,0 0.6753,0.046 0.9228,0.138 0.2476,0.092 0.4316,0.2261 0.5519,0.4017 0.1204,0.1755 0.1809,0.3924 0.1809,0.65 0,0.1142 -0.0122,0.2368 -0.0368,0.3679 -0.1962,0.9896 -0.8914,1.4839 -2.0849,1.4839l-0.7419 0 -0.2392 1.3798 -1.4472 0 0.7788 -4.4213z"/>
    <path id="_42508352" class="fil0" d="M142.779 153.062l2.1156 0c0.3679,0 0.6753,0.046 0.9228,0.138 0.2476,0.092 0.4316,0.2261 0.5519,0.4017 0.1116,0.1628 0.1718,0.3612 0.18,0.5946 0.0395,-0.0603 0.0816,-0.1183 0.1261,-0.1739 0.2706,-0.3385 0.5828,-0.5873 0.9367,-0.747 0.3538,-0.1598 0.6981,-0.2357 1.033,-0.2277 0.5019,0.0117 0.8893,0.1043 1.1614,0.2772 0.2721,0.173 0.4486,0.3823 0.5282,0.6275 0.0795,0.2451 0.116,0.5172 0.1079,0.817l-1.3073 0c0.0197,-0.2721 -0.0401,-0.4559 -0.178,-0.5515 -0.1379,-0.0956 -0.2889,-0.143 -0.4523,-0.143 -0.2721,0 -0.491,0.1167 -0.6566,0.3502 -0.1656,0.2334 -0.2772,0.523 -0.3355,0.8696 -0.0154,0.0934 -0.0314,0.2371 -0.0467,0.4319 0.0116,0.4866 0.2334,0.7295 0.6653,0.7295 0.3969,0 0.677,-0.2393 0.8404,-0.7179l1.3248 0c-0.0933,0.3268 -0.2487,0.6253 -0.4669,0.8959 -0.2181,0.2706 -0.4837,0.4793 -0.7966,0.6274 -0.313,0.1481 -0.6603,0.2218 -1.0418,0.2218 -0.5953,0 -1.0593,-0.1488 -1.3919,-0.4465 -0.3327,-0.2977 -0.5027,-0.7128 -0.5107,-1.2461 0.0083,-0.114 0.0169,-0.2149 0.0254,-0.3026 -0.3551,0.4103 -0.917,0.6154 -1.6857,0.6154l-0.7419 0 -0.2392 1.3798 -1.4472 0 0.7788 -4.4213zm1.2693 1.0302l-0.1839 0.9812 0.6255 0c0.1877,0 0.3441,-0.0545 0.4691,-0.1625 0.1249,-0.1081 0.187,-0.2522 0.187,-0.4323 0,-0.2576 -0.2231,-0.3864 -0.6684,-0.3864l-0.4293 0z"/>
    <g>
     <path id="_42506552" class="fil0" d="M141.565 157.492l-0.6588 -0.5909c-0.7781,0.4435 -1.6779,0.3846 -2.429,-0.1179 -0.0167,-0.009 -0.0282,-0.0218 -0.05,-0.0333l-0.0167 0c-0.0884,0.1012 -0.1717,0.2346 -0.2217,0.3679 0.0423,0.0717 0.1576,0.1307 0.1179,0.2435 -0.009,0.041 -0.05,0.0756 -0.0974,0.0884 -0.1295,0.0052 -0.1846,-0.1371 -0.2769,-0.2089 -0.0372,-0.0397 -0.0718,-0.059 -0.091,-0.1013l0.3474 -0.9472 0.0128 -0.0077c0.523,0.4525 1.3279,0.6909 1.9855,0.4435 0.0871,-0.0333 0.1923,-0.0743 0.2538,-0.1423l-0.0039 -0.0153c-0.2768,-0.2654 -0.5742,-0.5294 -0.8613,-0.7922 -0.0308,-0.0256 -0.05,-0.0474 -0.0808,-0.0679l-0.0154 0c-0.1512,0.1384 -0.2691,0.3089 -0.4281,0.4486l-0.0166 -0.0039 -0.3846 -0.3435c0.1243,-0.1692 0.2807,-0.3063 0.414,-0.4858l-0.0089 -0.0243 -0.1116 -0.1141c0.0436,-0.0833 0.1154,-0.1513 0.1923,-0.2166 0.0615,0.0128 0.0833,0.091 0.1577,0.1 0.1089,-0.1 0.1897,-0.2295 0.314,-0.332l0.5204 0.2102 0.0064 0.0166c-0.1333,0.1731 -0.2845,0.3064 -0.4178,0.4846 0,0.0051 0.0038,0.0128 0.0128,0.0243 0.2679,0.2397 0.5358,0.4704 0.8165,0.705 0.0718,0.0538 0.1179,0.109 0.1884,0.15l0.0256 -0.0064c0.2974,-0.3192 0.3936,-0.8229 0.309,-1.2229 -0.1077,-0.6703 -0.5192,-1.2689 -1.046,-1.5881 -0.2192,-0.1423 -0.4909,-0.2525 -0.7357,-0.3269 0.1025,-0.0218 0.2256,0.018 0.3422,0.0372 0.8665,0.223 1.4869,0.705 1.8458,1.4882 0.3025,0.6152 0.2602,1.2895 -0.15,1.8663l-0.1166 0.1512 0 0.0167c0.0115,0.0269 0.041,0.0384 0.0615,0.0641l0.5576 0.4922c-0.0705,0.1025 -0.159,0.1987 -0.2512,0.2909l-0.0116 0z"/>
     <path id="_42505424" class="fil0" d="M138.774 153.058l-0.1311 -0.4054 -0.1534 0.403 -0.3784 0 0.329 0.2059 -0.1932 0.4328 0.4162 -0.2795 0.3562 0.2649 -0.1686 -0.4333 0.3244 -0.1884 -0.4011 0zm-0.0401 0.0359l-0.0912 -0.2818 -0.1066 0.28 -0.2627 0 0.2285 0.1431 -0.1342 0.3006 0.2892 -0.1942 0.2472 0.1841 -0.1169 -0.301 0.2253 -0.1308 -0.2786 0z"/>
    </g>
   </g>
  </g>
  <g>
   <path class="fil4" d="M194.897 137.998l-0.0841 0.0882 -179.561 0 0 -0.1764 179.561 0 0.0841 0.0882zm-0.0841 -0.0882l0.0841 0 0 0.0882 -0.0841 -0.0882zm0 21.1354l-0.0841 -0.0882 0 -20.959 0.1682 0 0 20.959 -0.0841 0.0882zm0.0841 -0.0882l0 0.0882 -0.0841 0 0.0841 -0.0882zm-179.729 0l0.0841 -0.0882 179.561 0 0 0.1764 -179.561 0 -0.0841 -0.0882zm0.0841 0.0882l-0.0841 0 0 -0.0882 0.0841 0.0882zm0 -21.1354l0.0841 0.0882 0 20.959 -0.1682 0 0 -20.959 0.0841 -0.0882zm-0.0841 0.0882l0 -0.0882 0.0841 0 -0.0841 0.0882z"/>
  </g>
  <polygon class="fil5" points="15.587,15.3936 15.587,12.3633 17.7778,12.3633 17.7778,12.721 15.9878,12.721 15.9878,13.6488 17.6642,13.6488 17.6642,14.0044 15.9878,14.0044 15.9878,15.0359 17.8483,15.0359 17.8483,15.3936 "/>
  <polygon id="1" class="fil5" points="18.3464,15.3936 18.3464,12.3633 18.7183,12.3633 18.7183,15.3936 "/>
  <path id="12" class="fil5" d="M20.7975 14.6866l0.3845 0.0473c-0.0606,0.2251 -0.1728,0.3994 -0.3365,0.5235 -0.1644,0.1235 -0.374,0.1856 -0.6287,0.1856 -0.321,0 -0.5757,-0.0988 -0.7634,-0.2963 -0.1883,-0.1976 -0.2822,-0.4749 -0.2822,-0.8319 0,-0.3697 0.0953,-0.6561 0.2851,-0.8601 0.1905,-0.2039 0.4367,-0.3062 0.7401,-0.3062 0.2935,0 0.5334,0.1002 0.7189,0.2999 0.1863,0.1997 0.2794,0.4812 0.2794,0.8431 0,0.0226 -0.0007,0.0558 -0.0021,0.0995l-1.6369 0c0.0135,0.2413 0.0819,0.4262 0.2047,0.5539 0.1227,0.1284 0.2751,0.1926 0.4586,0.1926 0.1361,0 0.2525,-0.036 0.3492,-0.108 0.0967,-0.0712 0.1729,-0.1855 0.2293,-0.3429zm-1.2213 -0.6018l1.2255 0c-0.0162,-0.1841 -0.0635,-0.3231 -0.1404,-0.4149 -0.1185,-0.1432 -0.2723,-0.2152 -0.4607,-0.2152 -0.1707,0 -0.3147,0.0572 -0.4311,0.1715 -0.1164,0.1143 -0.1806,0.2674 -0.1933,0.4586z"/>
  <path id="123" class="fil5" d="M21.6498 15.3936l0 -2.195 0.3323 0 0 0.3077c0.0692,-0.1073 0.1609,-0.1941 0.2752,-0.259 0.1143,-0.0656 0.2448,-0.0988 0.3909,-0.0988 0.1622,0 0.2956,0.0339 0.3993,0.1016 0.1044,0.0678 0.1778,0.1616 0.2201,0.283 0.1743,-0.2562 0.4001,-0.3846 0.6781,-0.3846 0.218,0 0.3852,0.0607 0.5023,0.1814 0.1171,0.1206 0.1757,0.3062 0.1757,0.5566l0 1.5071 -0.3697 0 0 -1.3829c0,-0.1488 -0.012,-0.2561 -0.036,-0.3217 -0.0247,-0.0649 -0.0684,-0.1178 -0.1312,-0.1581 -0.0635,-0.0395 -0.1383,-0.0599 -0.2237,-0.0599 -0.1545,0 -0.2822,0.0515 -0.3845,0.1545 -0.1016,0.1023 -0.1531,0.2667 -0.1531,0.4925l0 1.2756 -0.3718 0 0 -1.4259c0,-0.1658 -0.0304,-0.29 -0.0911,-0.3725 -0.0606,-0.0826 -0.1594,-0.1242 -0.2977,-0.1242 -0.1044,0 -0.2011,0.0275 -0.29,0.0832 -0.0889,0.0551 -0.1538,0.1355 -0.1933,0.2413 -0.0402,0.1066 -0.06,0.2597 -0.06,0.4593l0 1.1388 -0.3718 0z"/>
  <path id="1234" class="fil5" d="M26.6782 14.6866l0.3845 0.0473c-0.0606,0.2251 -0.1728,0.3994 -0.3365,0.5235 -0.1644,0.1235 -0.374,0.1856 -0.6287,0.1856 -0.321,0 -0.5757,-0.0988 -0.7634,-0.2963 -0.1883,-0.1976 -0.2822,-0.4749 -0.2822,-0.8319 0,-0.3697 0.0953,-0.6561 0.2851,-0.8601 0.1905,-0.2039 0.4367,-0.3062 0.7401,-0.3062 0.2935,0 0.5334,0.1002 0.7189,0.2999 0.1863,0.1997 0.2794,0.4812 0.2794,0.8431 0,0.0226 -0.0007,0.0558 -0.0021,0.0995l-1.6369 0c0.0135,0.2413 0.0819,0.4262 0.2047,0.5539 0.1227,0.1284 0.2751,0.1926 0.4586,0.1926 0.1361,0 0.2525,-0.036 0.3492,-0.108 0.0967,-0.0712 0.1729,-0.1855 0.2293,-0.3429zm-1.2213 -0.6018l1.2255 0c-0.0162,-0.1841 -0.0635,-0.3231 -0.1404,-0.4149 -0.1185,-0.1432 -0.2723,-0.2152 -0.4607,-0.2152 -0.1707,0 -0.3147,0.0572 -0.4311,0.1715 -0.1164,0.1143 -0.1806,0.2674 -0.1933,0.4586z"/>
  <path id="12345" class="fil5" d="M27.5305 15.3936l0 -2.195 0.3344 0 0 0.3119c0.1616,-0.2413 0.3944,-0.362 0.6985,-0.362 0.1327,0 0.254,0.024 0.3648,0.0713 0.1115,0.048 0.194,0.1101 0.2491,0.1877 0.0557,0.0769 0.0938,0.1686 0.1164,0.2744 0.0134,0.0692 0.0204,0.1898 0.0204,0.362l0 1.3497 -0.3725 0 0 -1.3356c0,-0.151 -0.0141,-0.2646 -0.043,-0.3401 -0.029,-0.0748 -0.0805,-0.1347 -0.1539,-0.1792 -0.074,-0.0451 -0.1601,-0.0677 -0.2596,-0.0677 -0.1587,0 -0.2949,0.0508 -0.4106,0.151 -0.115,0.1009 -0.1722,0.2914 -0.1722,0.5729l0 1.1987 -0.3718 0z"/>
  <path id="123456" class="fil5" d="M30.697 15.0606l0.0536 0.3288c-0.1044,0.0218 -0.1983,0.0331 -0.2808,0.0331 -0.1355,0 -0.2399,-0.0211 -0.3147,-0.0642 -0.0741,-0.0423 -0.1263,-0.0988 -0.1566,-0.1686 -0.0303,-0.0691 -0.0459,-0.2159 -0.0459,-0.4389l0 -1.2629 -0.273 0 0 -0.2893 0.273 0 0 -0.5439 0.3704 -0.223 0 0.7669 0.374 0 0 0.2893 -0.374 0 0 1.2834c0,0.1065 0.0064,0.1743 0.0191,0.2046 0.0134,0.0304 0.0346,0.0543 0.0642,0.0727 0.0296,0.0176 0.072,0.0268 0.127,0.0268 0.0416,0 0.096,-0.0049 0.1637,-0.0148z"/>
  <path id="1234567" class="fil5" d="M30.9221 14.2958c0,-0.4064 0.1129,-0.7077 0.3394,-0.9031 0.1884,-0.1623 0.4184,-0.2442 0.69,-0.2442 0.302,0 0.5489,0.0988 0.7401,0.2971 0.1919,0.1975 0.2872,0.4706 0.2872,0.8191 0,0.2829 -0.0424,0.5052 -0.127,0.6668 -0.0847,0.1622 -0.2082,0.2878 -0.3697,0.3774 -0.1623,0.0896 -0.3387,0.1341 -0.5306,0.1341 -0.3069,0 -0.5553,-0.0981 -0.7451,-0.2956 -0.1898,-0.1969 -0.2843,-0.4805 -0.2843,-0.8516zm0.3824 0c0,0.2815 0.0614,0.4917 0.1842,0.6314 0.1227,0.1404 0.2772,0.2103 0.4628,0.2103 0.1849,0 0.3387,-0.0706 0.4614,-0.211 0.1221,-0.1404 0.1835,-0.3549 0.1835,-0.6427 0,-0.2717 -0.0614,-0.4777 -0.1849,-0.6174 -0.1235,-0.1397 -0.2766,-0.2095 -0.46,-0.2095 -0.1856,0 -0.3401,0.0698 -0.4628,0.2088 -0.1228,0.139 -0.1842,0.3493 -0.1842,0.6301z"/>
  <path id="12345678" class="fil5" d="M33.2666 14.7381l0.3676 -0.0578c0.0205,0.1474 0.0783,0.2603 0.1729,0.3394 0.0938,0.0783 0.2258,0.1178 0.3958,0.1178 0.1707,0 0.2977,-0.0353 0.3803,-0.1044 0.0825,-0.0699 0.1242,-0.1517 0.1242,-0.2449 0,-0.0846 -0.0367,-0.1502 -0.1101,-0.1989 -0.0508,-0.0332 -0.1778,-0.0748 -0.3803,-0.1256 -0.2723,-0.0692 -0.4621,-0.1284 -0.5673,-0.1792 -0.1051,-0.0501 -0.1855,-0.12 -0.2398,-0.2089 -0.0544,-0.0889 -0.0819,-0.1869 -0.0819,-0.2942 0,-0.0981 0.0226,-0.1884 0.0677,-0.2716 0.0445,-0.084 0.1059,-0.1531 0.1828,-0.2082 0.0578,-0.0423 0.1369,-0.079 0.2363,-0.1086 0.1002,-0.0296 0.2075,-0.0445 0.3218,-0.0445 0.1721,0 0.3231,0.0254 0.4536,0.0748 0.1306,0.0494 0.2265,0.1164 0.2886,0.2011 0.0621,0.0854 0.1044,0.1983 0.1277,0.3401l-0.3633 0.0501c-0.017,-0.1129 -0.065,-0.2011 -0.144,-0.2646 -0.079,-0.0635 -0.1912,-0.0953 -0.3358,-0.0953 -0.1708,0 -0.2928,0.0283 -0.3655,0.0847 -0.0734,0.0565 -0.1101,0.1228 -0.1101,0.1983 0,0.0487 0.0156,0.0917 0.0459,0.1305 0.0303,0.0402 0.0776,0.0727 0.1425,0.0995 0.0374,0.0134 0.1468,0.0451 0.3288,0.0945 0.2632,0.0706 0.4466,0.1277 0.5503,0.1729 0.1045,0.0444 0.1863,0.1101 0.2456,0.1954 0.0592,0.0854 0.0889,0.1912 0.0889,0.3182 0,0.1242 -0.0367,0.2406 -0.1087,0.3507 -0.0727,0.1093 -0.1771,0.194 -0.3133,0.254 -0.1361,0.06 -0.2906,0.0896 -0.4628,0.0896 -0.2857,0 -0.503,-0.0593 -0.6526,-0.1778 -0.1496,-0.1185 -0.2449,-0.2942 -0.2858,-0.5271z"/>
  <path id="123456789" class="fil5" d="M36.64 15.5756l0.3619 0.0537c0.0148,0.1114 0.0572,0.1926 0.1256,0.2441 0.0924,0.0684 0.2187,0.103 0.3782,0.103 0.1728,0 0.3055,-0.0346 0.3993,-0.103 0.0938,-0.0692 0.1566,-0.1658 0.1898,-0.2893 0.0198,-0.0762 0.0282,-0.2349 0.0268,-0.4777 -0.1623,0.1912 -0.3648,0.2872 -0.6075,0.2872 -0.3019,0 -0.5355,-0.1087 -0.7006,-0.3267 -0.1651,-0.2173 -0.2483,-0.479 -0.2483,-0.7831 0,-0.2096 0.0381,-0.4029 0.1136,-0.58 0.0762,-0.1771 0.1862,-0.314 0.3302,-0.4106 0.1439,-0.096 0.3132,-0.1447 0.5073,-0.1447 0.2589,0 0.4727,0.1052 0.6406,0.3147l0 -0.2646 0.3436 0 0 1.8973c0,0.3414 -0.0353,0.5842 -0.1044,0.7267 -0.0699,0.1425 -0.1799,0.2554 -0.3309,0.3379 -0.151,0.0826 -0.3366,0.1242 -0.5574,0.1242 -0.2618,0 -0.4734,-0.0593 -0.6343,-0.1771 -0.1616,-0.1178 -0.2392,-0.2949 -0.2335,-0.532zm0.3076 -1.3186c0,0.2878 0.0571,0.4981 0.1721,0.63 0.1143,0.1327 0.2576,0.1983 0.4297,0.1983 0.1708,0 0.314,-0.0656 0.4297,-0.1969 0.1157,-0.1319 0.1736,-0.3379 0.1736,-0.6194 0,-0.2689 -0.0593,-0.4714 -0.1785,-0.6075 -0.1193,-0.1362 -0.2632,-0.2046 -0.4311,-0.2046 -0.1651,0 -0.3055,0.067 -0.422,0.2018 -0.1157,0.134 -0.1735,0.3337 -0.1735,0.5983z"/>
  <path id="12345678910" class="fil5" d="M39.0586 15.3936l0 -2.195 0.3344 0 0 0.3323c0.0854,-0.1552 0.1644,-0.2582 0.2371,-0.3076 0.0719,-0.0494 0.1517,-0.0748 0.2384,-0.0748 0.1256,0 0.2526,0.0403 0.3824,0.12l-0.1284 0.3457c-0.0903,-0.0543 -0.1813,-0.0811 -0.2723,-0.0811 -0.0819,0 -0.1545,0.0247 -0.2194,0.0733 -0.0649,0.0494 -0.1108,0.1172 -0.1383,0.2039 -0.0416,0.132 -0.0621,0.2766 -0.0621,0.434l0 1.1493 -0.3718 0z"/>
  <path id="1234567891011" class="fil5" d="M41.9048 15.1227c-0.1383,0.1171 -0.271,0.1996 -0.398,0.2483 -0.1277,0.048 -0.2645,0.072 -0.4106,0.072 -0.2413,0 -0.4261,-0.0586 -0.556,-0.1764 -0.1291,-0.1178 -0.194,-0.2688 -0.194,-0.4516 0,-0.1079 0.024,-0.206 0.0734,-0.2949 0.0487,-0.0889 0.1129,-0.1601 0.1919,-0.2138 0.0797,-0.0536 0.1686,-0.0945 0.2681,-0.122 0.0727,-0.0191 0.1827,-0.0381 0.3302,-0.0558 0.3006,-0.0359 0.5221,-0.0783 0.6639,-0.1284 0.0014,-0.0508 0.0021,-0.0832 0.0021,-0.0966 0,-0.1517 -0.0352,-0.259 -0.1058,-0.3203 -0.0945,-0.0847 -0.2364,-0.1263 -0.4233,-0.1263 -0.175,0 -0.3041,0.0303 -0.3881,0.0917 -0.0832,0.0614 -0.1446,0.17 -0.1848,0.326l-0.3634 -0.0501c0.0332,-0.1553 0.0875,-0.2816 0.163,-0.3768 0.0755,-0.096 0.1856,-0.17 0.3288,-0.2215 0.1432,-0.0516 0.309,-0.0777 0.4981,-0.0777 0.1877,0 0.3394,0.0226 0.4565,0.0664 0.1171,0.0444 0.2032,0.0994 0.2589,0.1665 0.0551,0.067 0.0932,0.151 0.1157,0.2533 0.012,0.0635 0.0184,0.1778 0.0184,0.3429l0 0.496c0,0.3464 0.0077,0.5651 0.024,0.6561 0.0155,0.0917 0.0472,0.1799 0.0938,0.2639l-0.3888 0c-0.0381,-0.0769 -0.0635,-0.1672 -0.074,-0.2709zm-0.0311 -0.8312c-0.1354,0.0558 -0.3379,0.1023 -0.6075,0.1411 -0.1531,0.0219 -0.2617,0.0466 -0.3245,0.0741 -0.0635,0.0275 -0.1129,0.0678 -0.1468,0.1214 -0.0345,0.0529 -0.0522,0.1115 -0.0522,0.1764 0,0.0994 0.0381,0.182 0.1129,0.2483 0.0748,0.0656 0.1849,0.0988 0.3295,0.0988 0.1432,0 0.2709,-0.031 0.3824,-0.0938 0.1115,-0.0628 0.194,-0.1489 0.2462,-0.2576 0.0403,-0.0839 0.06,-0.2081 0.06,-0.3718l0 -0.1369zm-0.7239 -1.3659l0.2752 -0.5786 0.4875 0 -0.4543 0.5786 -0.3084 0z"/>
  <path id="123456789101112" class="fil5" d="M42.9151 15.3936l0 -1.9057 -0.3281 0 0 -0.2893 0.3281 0 0 -0.2335c0,-0.1475 0.0134,-0.2575 0.0395,-0.3288 0.036,-0.0966 0.0988,-0.175 0.1891,-0.2349 0.0903,-0.06 0.2166,-0.0896 0.3796,-0.0896 0.1044,0 0.2201,0.012 0.3471,0.0374l-0.0557 0.3245c-0.0769,-0.0141 -0.1503,-0.0212 -0.2195,-0.0212 -0.1128,0 -0.1926,0.024 -0.2391,0.0727 -0.0473,0.048 -0.0706,0.1383 -0.0706,0.2709l0 0.2025 0.4276 0 0 0.2893 -0.4276 0 0 1.9057 -0.3704 0z"/>
  <path id="12345678910111213" class="fil5" d="M44.0045 12.7915l0 -0.4282 0.3725 0 0 0.4282 -0.3725 0zm0 2.6021l0 -2.195 0.3725 0 0 2.195 -0.3725 0z"/>
  <path id="1234567891011121314" class="fil5" d="M46.3759 14.5893l0.3654 0.048c-0.0395,0.2518 -0.1418,0.4494 -0.3069,0.5919 -0.1644,0.1425 -0.3669,0.2138 -0.6067,0.2138 -0.2999,0 -0.5419,-0.0981 -0.7239,-0.2942 -0.1828,-0.1962 -0.2745,-0.4777 -0.2745,-0.8446 0,-0.237 0.0395,-0.4445 0.1178,-0.6223 0.079,-0.1778 0.1983,-0.3111 0.3592,-0.4 0.1601,-0.0889 0.3351,-0.1334 0.5235,-0.1334 0.2384,0 0.4339,0.0607 0.5849,0.1814 0.1517,0.1206 0.249,0.2914 0.2921,0.5136l-0.362 0.0557c-0.0346,-0.1474 -0.0952,-0.2582 -0.1827,-0.333 -0.0875,-0.0741 -0.1933,-0.1115 -0.3175,-0.1115 -0.1877,0 -0.3401,0.0671 -0.4572,0.2018 -0.1171,0.1341 -0.1757,0.3465 -0.1757,0.6371 0,0.295 0.0565,0.5095 0.17,0.6435 0.1129,0.1334 0.2604,0.2004 0.4424,0.2004 0.1461,0 0.2674,-0.0452 0.3655,-0.1348 0.0981,-0.0896 0.1602,-0.2272 0.1863,-0.4134z"/>
  <path id="123456789101112131415" class="fil5" d="M46.9213 14.2958c0,-0.4064 0.1129,-0.7077 0.3394,-0.9031 0.1884,-0.1623 0.4184,-0.2442 0.69,-0.2442 0.302,0 0.5489,0.0988 0.7401,0.2971 0.1919,0.1975 0.2872,0.4706 0.2872,0.8191 0,0.2829 -0.0424,0.5052 -0.127,0.6668 -0.0847,0.1622 -0.2082,0.2878 -0.3697,0.3774 -0.1623,0.0896 -0.3387,0.1341 -0.5306,0.1341 -0.3069,0 -0.5553,-0.0981 -0.7451,-0.2956 -0.1898,-0.1969 -0.2843,-0.4805 -0.2843,-0.8516zm0.3824 0c0,0.2815 0.0614,0.4917 0.1842,0.6314 0.1227,0.1404 0.2772,0.2103 0.4628,0.2103 0.1849,0 0.3387,-0.0706 0.4614,-0.211 0.1221,-0.1404 0.1835,-0.3549 0.1835,-0.6427 0,-0.2717 -0.0614,-0.4777 -0.1849,-0.6174 -0.1235,-0.1397 -0.2766,-0.2095 -0.46,-0.2095 -0.1856,0 -0.3401,0.0698 -0.4628,0.2088 -0.1228,0.139 -0.1842,0.3493 -0.1842,0.6301z"/>
  <path id="12345678910111213141516" class="fil5" d="M49.2658 14.7381l0.3676 -0.0578c0.0205,0.1474 0.0783,0.2603 0.1729,0.3394 0.0938,0.0783 0.2258,0.1178 0.3958,0.1178 0.1707,0 0.2977,-0.0353 0.3803,-0.1044 0.0825,-0.0699 0.1242,-0.1517 0.1242,-0.2449 0,-0.0846 -0.0367,-0.1502 -0.1101,-0.1989 -0.0508,-0.0332 -0.1778,-0.0748 -0.3803,-0.1256 -0.2723,-0.0692 -0.4621,-0.1284 -0.5673,-0.1792 -0.1051,-0.0501 -0.1855,-0.12 -0.2398,-0.2089 -0.0544,-0.0889 -0.0819,-0.1869 -0.0819,-0.2942 0,-0.0981 0.0226,-0.1884 0.0677,-0.2716 0.0445,-0.084 0.1059,-0.1531 0.1828,-0.2082 0.0578,-0.0423 0.1369,-0.079 0.2363,-0.1086 0.1002,-0.0296 0.2075,-0.0445 0.3218,-0.0445 0.1721,0 0.3231,0.0254 0.4536,0.0748 0.1306,0.0494 0.2265,0.1164 0.2886,0.2011 0.0621,0.0854 0.1044,0.1983 0.1277,0.3401l-0.3633 0.0501c-0.017,-0.1129 -0.065,-0.2011 -0.144,-0.2646 -0.079,-0.0635 -0.1912,-0.0953 -0.3358,-0.0953 -0.1708,0 -0.2928,0.0283 -0.3655,0.0847 -0.0734,0.0565 -0.1101,0.1228 -0.1101,0.1983 0,0.0487 0.0156,0.0917 0.0459,0.1305 0.0303,0.0402 0.0776,0.0727 0.1425,0.0995 0.0374,0.0134 0.1468,0.0451 0.3288,0.0945 0.2632,0.0706 0.4466,0.1277 0.5503,0.1729 0.1045,0.0444 0.1863,0.1101 0.2456,0.1954 0.0592,0.0854 0.0889,0.1912 0.0889,0.3182 0,0.1242 -0.0367,0.2406 -0.1087,0.3507 -0.0727,0.1093 -0.1771,0.194 -0.3133,0.254 -0.1361,0.06 -0.2906,0.0896 -0.4628,0.0896 -0.2857,0 -0.503,-0.0593 -0.6526,-0.1778 -0.1496,-0.1185 -0.2449,-0.2942 -0.2858,-0.5271z"/>
  <polygon id="1234567891011121314151617" class="fil5" points="52.4282,15.4451 53.3066,12.3118 53.6044,12.3118 52.7281,15.4451 "/>
  <path id="123456789101112131415161718" class="fil5" d="M54.83 13.1986l0.3224 0 0 -0.1658c0,-0.1841 0.0198,-0.3224 0.0593,-0.4134 0.0395,-0.091 0.1115,-0.1651 0.2166,-0.2223 0.1058,-0.0571 0.2392,-0.0853 0.4,-0.0853 0.1658,0 0.3274,0.0247 0.4862,0.074l-0.0784 0.4057c-0.0924,-0.0225 -0.1813,-0.0331 -0.2666,-0.0331 -0.0847,0 -0.1447,0.019 -0.1814,0.0585 -0.0367,0.0395 -0.0543,0.115 -0.0543,0.2265l0 0.1552 0.4339 0 0 0.4565 -0.4339 0 0 1.7385 -0.5814 0 0 -1.7385 -0.3224 0 0 -0.4565z"/>
  <path id="12345678910111213141516171819" class="fil5" d="M56.9283 13.8682l-0.527 -0.0952c0.0592,-0.2124 0.1608,-0.3691 0.3055,-0.4714 0.1453,-0.1016 0.3598,-0.1531 0.6448,-0.1531 0.2597,0 0.4523,0.0311 0.5793,0.0925 0.1263,0.0613 0.2159,0.139 0.2674,0.2335 0.0515,0.0945 0.0776,0.2674 0.0776,0.52l-0.0063 0.678c0,0.1926 0.0091,0.3352 0.0282,0.4269 0.0183,0.091 0.0536,0.1898 0.1044,0.2942l-0.575 0c-0.0148,-0.0388 -0.0339,-0.096 -0.0558,-0.1714 -0.0091,-0.0346 -0.0162,-0.0572 -0.0204,-0.0685 -0.0995,0.0967 -0.2053,0.1686 -0.3182,0.2173 -0.1129,0.048 -0.2336,0.072 -0.362,0.072 -0.2257,0 -0.4043,-0.0614 -0.5341,-0.1835 -0.1305,-0.1227 -0.1954,-0.2779 -0.1954,-0.4656 0,-0.1235 0.0296,-0.2343 0.0889,-0.3316 0.0593,-0.0974 0.1425,-0.1715 0.249,-0.223 0.1066,-0.0515 0.2611,-0.0966 0.4622,-0.1354 0.2709,-0.0508 0.4593,-0.0988 0.5637,-0.1426l0 -0.0578c0,-0.1122 -0.0275,-0.1912 -0.0825,-0.2392 -0.0551,-0.0473 -0.1588,-0.0713 -0.3119,-0.0713 -0.1037,0 -0.1841,0.0205 -0.242,0.0614 -0.0578,0.0402 -0.1044,0.1115 -0.1404,0.2138zm0.7768 0.4713c-0.0741,0.0247 -0.1919,0.0543 -0.3535,0.0889 -0.1608,0.0346 -0.266,0.0684 -0.3161,0.1009 -0.0754,0.0543 -0.1135,0.1221 -0.1135,0.2046 0,0.0819 0.0303,0.1517 0.091,0.211 0.0606,0.0592 0.1376,0.0889 0.2314,0.0889 0.1051,0 0.2046,-0.0346 0.2999,-0.103 0.0705,-0.0523 0.1164,-0.1165 0.1382,-0.1927 0.0156,-0.0493 0.0226,-0.1439 0.0226,-0.2829l0 -0.1157z"/>
  <path id="1234567891011121314151617181920" class="fil5" d="M58.8488 12.9009l0 -0.5376 0.5807 0 0 0.5376 -0.5807 0zm0 2.4927l0 -2.195 0.5807 0 0 2.195 -0.5807 0z"/>
  <polygon id="123456789101112131415161718192021" class="fil5" points="59.7456,15.3936 60.5372,14.2626 59.7788,13.1986 60.4878,13.1986 60.8766,13.8019 61.2858,13.1986 61.9681,13.1986 61.2237,14.2379 62.0358,15.3936 61.3232,15.3936 60.8766,14.7134 60.4257,15.3936 "/>
  <path id="12345678910111213141516171819202122" class="fil5" d="M62.8133 13.8682l-0.527 -0.0952c0.0592,-0.2124 0.1608,-0.3691 0.3055,-0.4714 0.1453,-0.1016 0.3598,-0.1531 0.6448,-0.1531 0.2597,0 0.4523,0.0311 0.5793,0.0925 0.1263,0.0613 0.2159,0.139 0.2674,0.2335 0.0515,0.0945 0.0776,0.2674 0.0776,0.52l-0.0063 0.678c0,0.1926 0.0091,0.3352 0.0282,0.4269 0.0183,0.091 0.0536,0.1898 0.1044,0.2942l-0.575 0c-0.0148,-0.0388 -0.0339,-0.096 -0.0558,-0.1714 -0.0091,-0.0346 -0.0162,-0.0572 -0.0204,-0.0685 -0.0995,0.0967 -0.2053,0.1686 -0.3182,0.2173 -0.1129,0.048 -0.2336,0.072 -0.362,0.072 -0.2257,0 -0.4043,-0.0614 -0.5341,-0.1835 -0.1305,-0.1227 -0.1954,-0.2779 -0.1954,-0.4656 0,-0.1235 0.0296,-0.2343 0.0889,-0.3316 0.0593,-0.0974 0.1425,-0.1715 0.249,-0.223 0.1066,-0.0515 0.2611,-0.0966 0.4622,-0.1354 0.2709,-0.0508 0.4593,-0.0988 0.5637,-0.1426l0 -0.0578c0,-0.1122 -0.0275,-0.1912 -0.0825,-0.2392 -0.0551,-0.0473 -0.1588,-0.0713 -0.3119,-0.0713 -0.1037,0 -0.1841,0.0205 -0.242,0.0614 -0.0578,0.0402 -0.1044,0.1115 -0.1404,0.2138zm0.7768 0.4713c-0.0741,0.0247 -0.1919,0.0543 -0.3535,0.0889 -0.1608,0.0346 -0.266,0.0684 -0.3161,0.1009 -0.0754,0.0543 -0.1135,0.1221 -0.1135,0.2046 0,0.0819 0.0303,0.1517 0.091,0.211 0.0606,0.0592 0.1376,0.0889 0.2314,0.0889 0.1051,0 0.2046,-0.0346 0.2999,-0.103 0.0705,-0.0523 0.1164,-0.1165 0.1382,-0.1927 0.0156,-0.0493 0.0226,-0.1439 0.0226,-0.2829l0 -0.1157z"/>
  <line class="fil6 str0" x1="15.2519" y1="20.421" x2="195.261" y2= "20.421" />
 </g>
</svg>
