<?xml version="1.0" encoding="UTF-8"?>
<!DOCTYPE svg PUBLIC "-//W3C//DTD SVG 1.1//EN" "http://www.w3.org/Graphics/SVG/1.1/DTD/svg11.dtd">
<!-- Creator: CorelDRAW -->
<svg xmlns="http://www.w3.org/2000/svg" xml:space="preserve" width="210mm" height="297mm" style="shape-rendering:geometricPrecision; text-rendering:geometricPrecision; image-rendering:optimizeQuality; fill-rule:evenodd; clip-rule:evenodd"
viewBox="0 0 210 297"
 xmlns:xlink="http://www.w3.org/1999/xlink">
 <defs>
  <style type="text/css">
   <![CDATA[
    .str0 {stroke:#0093DD;stroke-width:0.3527}
    .fil1 {fill:none}
    .fil2 {fill:#1F1A17}
    .fil5 {fill:white}
    .fil0 {fill:#0093DD;fill-rule:nonzero}
    .fil4 {fill:#DA251D;fill-rule:nonzero}
    .fil3 {fill:white;fill-rule:nonzero}
   ]]>
  </style>
 </defs>
 <g id="Camada_x0020_1">
  <metadata id="CorelCorpID_0Corel-Layer"/>
  <polygon class="fil0" points="15.587,15.3936 15.587,12.3633 17.7778,12.3633 17.7778,12.721 15.9878,12.721 15.9878,13.6488 17.6642,13.6488 17.6642,14.0044 15.9878,14.0044 15.9878,15.0359 17.8483,15.0359 17.8483,15.3936 "/>
  <polygon id="1" class="fil0" points="18.3464,15.3936 18.3464,12.3633 18.7183,12.3633 18.7183,15.3936 "/>
  <path id="12" class="fil0" d="M20.7975 14.6866l0.3845 0.0473c-0.0606,0.2251 -0.1728,0.3994 -0.3365,0.5235 -0.1644,0.1235 -0.374,0.1856 -0.6287,0.1856 -0.321,0 -0.5757,-0.0988 -0.7634,-0.2963 -0.1883,-0.1976 -0.2822,-0.4749 -0.2822,-0.8319 0,-0.3697 0.0953,-0.6561 0.2851,-0.8601 0.1905,-0.2039 0.4367,-0.3062 0.7401,-0.3062 0.2935,0 0.5334,0.1002 0.7189,0.2999 0.1863,0.1997 0.2794,0.4812 0.2794,0.8431 0,0.0226 -0.0007,0.0558 -0.0021,0.0995l-1.6369 0c0.0135,0.2413 0.0819,0.4262 0.2047,0.5539 0.1227,0.1284 0.2751,0.1926 0.4586,0.1926 0.1361,0 0.2525,-0.036 0.3492,-0.108 0.0967,-0.0712 0.1729,-0.1855 0.2293,-0.3429zm-1.2213 -0.6018l1.2255 0c-0.0162,-0.1841 -0.0635,-0.3231 -0.1404,-0.4149 -0.1185,-0.1432 -0.2723,-0.2152 -0.4607,-0.2152 -0.1707,0 -0.3147,0.0572 -0.4311,0.1715 -0.1164,0.1143 -0.1806,0.2674 -0.1933,0.4586z"/>
  <path id="123" class="fil0" d="M21.6498 15.3936l0 -2.195 0.3323 0 0 0.3077c0.0692,-0.1073 0.1609,-0.1941 0.2752,-0.259 0.1143,-0.0656 0.2448,-0.0988 0.3909,-0.0988 0.1622,0 0.2956,0.0339 0.3993,0.1016 0.1044,0.0678 0.1778,0.1616 0.2201,0.283 0.1743,-0.2562 0.4001,-0.3846 0.6781,-0.3846 0.218,0 0.3852,0.0607 0.5023,0.1814 0.1171,0.1206 0.1757,0.3062 0.1757,0.5566l0 1.5071 -0.3697 0 0 -1.3829c0,-0.1488 -0.012,-0.2561 -0.036,-0.3217 -0.0247,-0.0649 -0.0684,-0.1178 -0.1312,-0.1581 -0.0635,-0.0395 -0.1383,-0.0599 -0.2237,-0.0599 -0.1545,0 -0.2822,0.0515 -0.3845,0.1545 -0.1016,0.1023 -0.1531,0.2667 -0.1531,0.4925l0 1.2756 -0.3718 0 0 -1.4259c0,-0.1658 -0.0304,-0.29 -0.0911,-0.3725 -0.0606,-0.0826 -0.1594,-0.1242 -0.2977,-0.1242 -0.1044,0 -0.2011,0.0275 -0.29,0.0832 -0.0889,0.0551 -0.1538,0.1355 -0.1933,0.2413 -0.0402,0.1066 -0.06,0.2597 -0.06,0.4593l0 1.1388 -0.3718 0z"/>
  <path id="1234" class="fil0" d="M26.6782 14.6866l0.3845 0.0473c-0.0606,0.2251 -0.1728,0.3994 -0.3365,0.5235 -0.1644,0.1235 -0.374,0.1856 -0.6287,0.1856 -0.321,0 -0.5757,-0.0988 -0.7634,-0.2963 -0.1883,-0.1976 -0.2822,-0.4749 -0.2822,-0.8319 0,-0.3697 0.0953,-0.6561 0.2851,-0.8601 0.1905,-0.2039 0.4367,-0.3062 0.7401,-0.3062 0.2935,0 0.5334,0.1002 0.7189,0.2999 0.1863,0.1997 0.2794,0.4812 0.2794,0.8431 0,0.0226 -0.0007,0.0558 -0.0021,0.0995l-1.6369 0c0.0135,0.2413 0.0819,0.4262 0.2047,0.5539 0.1227,0.1284 0.2751,0.1926 0.4586,0.1926 0.1361,0 0.2525,-0.036 0.3492,-0.108 0.0967,-0.0712 0.1729,-0.1855 0.2293,-0.3429zm-1.2213 -0.6018l1.2255 0c-0.0162,-0.1841 -0.0635,-0.3231 -0.1404,-0.4149 -0.1185,-0.1432 -0.2723,-0.2152 -0.4607,-0.2152 -0.1707,0 -0.3147,0.0572 -0.4311,0.1715 -0.1164,0.1143 -0.1806,0.2674 -0.1933,0.4586z"/>
  <path id="12345" class="fil0" d="M27.5305 15.3936l0 -2.195 0.3344 0 0 0.3119c0.1616,-0.2413 0.3944,-0.362 0.6985,-0.362 0.1327,0 0.254,0.024 0.3648,0.0713 0.1115,0.048 0.194,0.1101 0.2491,0.1877 0.0557,0.0769 0.0938,0.1686 0.1164,0.2744 0.0134,0.0692 0.0204,0.1898 0.0204,0.362l0 1.3497 -0.3725 0 0 -1.3356c0,-0.151 -0.0141,-0.2646 -0.043,-0.3401 -0.029,-0.0748 -0.0805,-0.1347 -0.1539,-0.1792 -0.074,-0.0451 -0.1601,-0.0677 -0.2596,-0.0677 -0.1587,0 -0.2949,0.0508 -0.4106,0.151 -0.115,0.1009 -0.1722,0.2914 -0.1722,0.5729l0 1.1987 -0.3718 0z"/>
  <path id="123456" class="fil0" d="M30.697 15.0606l0.0536 0.3288c-0.1044,0.0218 -0.1983,0.0331 -0.2808,0.0331 -0.1355,0 -0.2399,-0.0211 -0.3147,-0.0642 -0.0741,-0.0423 -0.1263,-0.0988 -0.1566,-0.1686 -0.0303,-0.0691 -0.0459,-0.2159 -0.0459,-0.4389l0 -1.2629 -0.273 0 0 -0.2893 0.273 0 0 -0.5439 0.3704 -0.223 0 0.7669 0.374 0 0 0.2893 -0.374 0 0 1.2834c0,0.1065 0.0064,0.1743 0.0191,0.2046 0.0134,0.0304 0.0346,0.0543 0.0642,0.0727 0.0296,0.0176 0.072,0.0268 0.127,0.0268 0.0416,0 0.096,-0.0049 0.1637,-0.0148z"/>
  <path id="1234567" class="fil0" d="M30.9221 14.2958c0,-0.4064 0.1129,-0.7077 0.3394,-0.9031 0.1884,-0.1623 0.4184,-0.2442 0.69,-0.2442 0.302,0 0.5489,0.0988 0.7401,0.2971 0.1919,0.1975 0.2872,0.4706 0.2872,0.8191 0,0.2829 -0.0424,0.5052 -0.127,0.6668 -0.0847,0.1622 -0.2082,0.2878 -0.3697,0.3774 -0.1623,0.0896 -0.3387,0.1341 -0.5306,0.1341 -0.3069,0 -0.5553,-0.0981 -0.7451,-0.2956 -0.1898,-0.1969 -0.2843,-0.4805 -0.2843,-0.8516zm0.3824 0c0,0.2815 0.0614,0.4917 0.1842,0.6314 0.1227,0.1404 0.2772,0.2103 0.4628,0.2103 0.1849,0 0.3387,-0.0706 0.4614,-0.211 0.1221,-0.1404 0.1835,-0.3549 0.1835,-0.6427 0,-0.2717 -0.0614,-0.4777 -0.1849,-0.6174 -0.1235,-0.1397 -0.2766,-0.2095 -0.46,-0.2095 -0.1856,0 -0.3401,0.0698 -0.4628,0.2088 -0.1228,0.139 -0.1842,0.3493 -0.1842,0.6301z"/>
  <path id="12345678" class="fil0" d="M33.2666 14.7381l0.3676 -0.0578c0.0205,0.1474 0.0783,0.2603 0.1729,0.3394 0.0938,0.0783 0.2258,0.1178 0.3958,0.1178 0.1707,0 0.2977,-0.0353 0.3803,-0.1044 0.0825,-0.0699 0.1242,-0.1517 0.1242,-0.2449 0,-0.0846 -0.0367,-0.1502 -0.1101,-0.1989 -0.0508,-0.0332 -0.1778,-0.0748 -0.3803,-0.1256 -0.2723,-0.0692 -0.4621,-0.1284 -0.5673,-0.1792 -0.1051,-0.0501 -0.1855,-0.12 -0.2398,-0.2089 -0.0544,-0.0889 -0.0819,-0.1869 -0.0819,-0.2942 0,-0.0981 0.0226,-0.1884 0.0677,-0.2716 0.0445,-0.084 0.1059,-0.1531 0.1828,-0.2082 0.0578,-0.0423 0.1369,-0.079 0.2363,-0.1086 0.1002,-0.0296 0.2075,-0.0445 0.3218,-0.0445 0.1721,0 0.3231,0.0254 0.4536,0.0748 0.1306,0.0494 0.2265,0.1164 0.2886,0.2011 0.0621,0.0854 0.1044,0.1983 0.1277,0.3401l-0.3633 0.0501c-0.017,-0.1129 -0.065,-0.2011 -0.144,-0.2646 -0.079,-0.0635 -0.1912,-0.0953 -0.3358,-0.0953 -0.1708,0 -0.2928,0.0283 -0.3655,0.0847 -0.0734,0.0565 -0.1101,0.1228 -0.1101,0.1983 0,0.0487 0.0156,0.0917 0.0459,0.1305 0.0303,0.0402 0.0776,0.0727 0.1425,0.0995 0.0374,0.0134 0.1468,0.0451 0.3288,0.0945 0.2632,0.0706 0.4466,0.1277 0.5503,0.1729 0.1045,0.0444 0.1863,0.1101 0.2456,0.1954 0.0592,0.0854 0.0889,0.1912 0.0889,0.3182 0,0.1242 -0.0367,0.2406 -0.1087,0.3507 -0.0727,0.1093 -0.1771,0.194 -0.3133,0.254 -0.1361,0.06 -0.2906,0.0896 -0.4628,0.0896 -0.2857,0 -0.503,-0.0593 -0.6526,-0.1778 -0.1496,-0.1185 -0.2449,-0.2942 -0.2858,-0.5271z"/>
  <path id="123456789" class="fil0" d="M36.64 15.5756l0.3619 0.0537c0.0148,0.1114 0.0572,0.1926 0.1256,0.2441 0.0924,0.0684 0.2187,0.103 0.3782,0.103 0.1728,0 0.3055,-0.0346 0.3993,-0.103 0.0938,-0.0692 0.1566,-0.1658 0.1898,-0.2893 0.0198,-0.0762 0.0282,-0.2349 0.0268,-0.4777 -0.1623,0.1912 -0.3648,0.2872 -0.6075,0.2872 -0.3019,0 -0.5355,-0.1087 -0.7006,-0.3267 -0.1651,-0.2173 -0.2483,-0.479 -0.2483,-0.7831 0,-0.2096 0.0381,-0.4029 0.1136,-0.58 0.0762,-0.1771 0.1862,-0.314 0.3302,-0.4106 0.1439,-0.096 0.3132,-0.1447 0.5073,-0.1447 0.2589,0 0.4727,0.1052 0.6406,0.3147l0 -0.2646 0.3436 0 0 1.8973c0,0.3414 -0.0353,0.5842 -0.1044,0.7267 -0.0699,0.1425 -0.1799,0.2554 -0.3309,0.3379 -0.151,0.0826 -0.3366,0.1242 -0.5574,0.1242 -0.2618,0 -0.4734,-0.0593 -0.6343,-0.1771 -0.1616,-0.1178 -0.2392,-0.2949 -0.2335,-0.532zm0.3076 -1.3186c0,0.2878 0.0571,0.4981 0.1721,0.63 0.1143,0.1327 0.2576,0.1983 0.4297,0.1983 0.1708,0 0.314,-0.0656 0.4297,-0.1969 0.1157,-0.1319 0.1736,-0.3379 0.1736,-0.6194 0,-0.2689 -0.0593,-0.4714 -0.1785,-0.6075 -0.1193,-0.1362 -0.2632,-0.2046 -0.4311,-0.2046 -0.1651,0 -0.3055,0.067 -0.422,0.2018 -0.1157,0.134 -0.1735,0.3337 -0.1735,0.5983z"/>
  <path id="12345678910" class="fil0" d="M39.0586 15.3936l0 -2.195 0.3344 0 0 0.3323c0.0854,-0.1552 0.1644,-0.2582 0.2371,-0.3076 0.0719,-0.0494 0.1517,-0.0748 0.2384,-0.0748 0.1256,0 0.2526,0.0403 0.3824,0.12l-0.1284 0.3457c-0.0903,-0.0543 -0.1813,-0.0811 -0.2723,-0.0811 -0.0819,0 -0.1545,0.0247 -0.2194,0.0733 -0.0649,0.0494 -0.1108,0.1172 -0.1383,0.2039 -0.0416,0.132 -0.0621,0.2766 -0.0621,0.434l0 1.1493 -0.3718 0z"/>
  <path id="1234567891011" class="fil0" d="M41.9048 15.1227c-0.1383,0.1171 -0.271,0.1996 -0.398,0.2483 -0.1277,0.048 -0.2645,0.072 -0.4106,0.072 -0.2413,0 -0.4261,-0.0586 -0.556,-0.1764 -0.1291,-0.1178 -0.194,-0.2688 -0.194,-0.4516 0,-0.1079 0.024,-0.206 0.0734,-0.2949 0.0487,-0.0889 0.1129,-0.1601 0.1919,-0.2138 0.0797,-0.0536 0.1686,-0.0945 0.2681,-0.122 0.0727,-0.0191 0.1827,-0.0381 0.3302,-0.0558 0.3006,-0.0359 0.5221,-0.0783 0.6639,-0.1284 0.0014,-0.0508 0.0021,-0.0832 0.0021,-0.0966 0,-0.1517 -0.0352,-0.259 -0.1058,-0.3203 -0.0945,-0.0847 -0.2364,-0.1263 -0.4233,-0.1263 -0.175,0 -0.3041,0.0303 -0.3881,0.0917 -0.0832,0.0614 -0.1446,0.17 -0.1848,0.326l-0.3634 -0.0501c0.0332,-0.1553 0.0875,-0.2816 0.163,-0.3768 0.0755,-0.096 0.1856,-0.17 0.3288,-0.2215 0.1432,-0.0516 0.309,-0.0777 0.4981,-0.0777 0.1877,0 0.3394,0.0226 0.4565,0.0664 0.1171,0.0444 0.2032,0.0994 0.2589,0.1665 0.0551,0.067 0.0932,0.151 0.1157,0.2533 0.012,0.0635 0.0184,0.1778 0.0184,0.3429l0 0.496c0,0.3464 0.0077,0.5651 0.024,0.6561 0.0155,0.0917 0.0472,0.1799 0.0938,0.2639l-0.3888 0c-0.0381,-0.0769 -0.0635,-0.1672 -0.074,-0.2709zm-0.0311 -0.8312c-0.1354,0.0558 -0.3379,0.1023 -0.6075,0.1411 -0.1531,0.0219 -0.2617,0.0466 -0.3245,0.0741 -0.0635,0.0275 -0.1129,0.0678 -0.1468,0.1214 -0.0345,0.0529 -0.0522,0.1115 -0.0522,0.1764 0,0.0994 0.0381,0.182 0.1129,0.2483 0.0748,0.0656 0.1849,0.0988 0.3295,0.0988 0.1432,0 0.2709,-0.031 0.3824,-0.0938 0.1115,-0.0628 0.194,-0.1489 0.2462,-0.2576 0.0403,-0.0839 0.06,-0.2081 0.06,-0.3718l0 -0.1369zm-0.7239 -1.3659l0.2752 -0.5786 0.4875 0 -0.4543 0.5786 -0.3084 0z"/>
  <path id="123456789101112" class="fil0" d="M42.9151 15.3936l0 -1.9057 -0.3281 0 0 -0.2893 0.3281 0 0 -0.2335c0,-0.1475 0.0134,-0.2575 0.0395,-0.3288 0.036,-0.0966 0.0988,-0.175 0.1891,-0.2349 0.0903,-0.06 0.2166,-0.0896 0.3796,-0.0896 0.1044,0 0.2201,0.012 0.3471,0.0374l-0.0557 0.3245c-0.0769,-0.0141 -0.1503,-0.0212 -0.2195,-0.0212 -0.1128,0 -0.1926,0.024 -0.2391,0.0727 -0.0473,0.048 -0.0706,0.1383 -0.0706,0.2709l0 0.2025 0.4276 0 0 0.2893 -0.4276 0 0 1.9057 -0.3704 0z"/>
  <path id="12345678910111213" class="fil0" d="M44.0045 12.7915l0 -0.4282 0.3725 0 0 0.4282 -0.3725 0zm0 2.6021l0 -2.195 0.3725 0 0 2.195 -0.3725 0z"/>
  <path id="1234567891011121314" class="fil0" d="M46.3759 14.5893l0.3654 0.048c-0.0395,0.2518 -0.1418,0.4494 -0.3069,0.5919 -0.1644,0.1425 -0.3669,0.2138 -0.6067,0.2138 -0.2999,0 -0.5419,-0.0981 -0.7239,-0.2942 -0.1828,-0.1962 -0.2745,-0.4777 -0.2745,-0.8446 0,-0.237 0.0395,-0.4445 0.1178,-0.6223 0.079,-0.1778 0.1983,-0.3111 0.3592,-0.4 0.1601,-0.0889 0.3351,-0.1334 0.5235,-0.1334 0.2384,0 0.4339,0.0607 0.5849,0.1814 0.1517,0.1206 0.249,0.2914 0.2921,0.5136l-0.362 0.0557c-0.0346,-0.1474 -0.0952,-0.2582 -0.1827,-0.333 -0.0875,-0.0741 -0.1933,-0.1115 -0.3175,-0.1115 -0.1877,0 -0.3401,0.0671 -0.4572,0.2018 -0.1171,0.1341 -0.1757,0.3465 -0.1757,0.6371 0,0.295 0.0565,0.5095 0.17,0.6435 0.1129,0.1334 0.2604,0.2004 0.4424,0.2004 0.1461,0 0.2674,-0.0452 0.3655,-0.1348 0.0981,-0.0896 0.1602,-0.2272 0.1863,-0.4134z"/>
  <path id="123456789101112131415" class="fil0" d="M46.9213 14.2958c0,-0.4064 0.1129,-0.7077 0.3394,-0.9031 0.1884,-0.1623 0.4184,-0.2442 0.69,-0.2442 0.302,0 0.5489,0.0988 0.7401,0.2971 0.1919,0.1975 0.2872,0.4706 0.2872,0.8191 0,0.2829 -0.0424,0.5052 -0.127,0.6668 -0.0847,0.1622 -0.2082,0.2878 -0.3697,0.3774 -0.1623,0.0896 -0.3387,0.1341 -0.5306,0.1341 -0.3069,0 -0.5553,-0.0981 -0.7451,-0.2956 -0.1898,-0.1969 -0.2843,-0.4805 -0.2843,-0.8516zm0.3824 0c0,0.2815 0.0614,0.4917 0.1842,0.6314 0.1227,0.1404 0.2772,0.2103 0.4628,0.2103 0.1849,0 0.3387,-0.0706 0.4614,-0.211 0.1221,-0.1404 0.1835,-0.3549 0.1835,-0.6427 0,-0.2717 -0.0614,-0.4777 -0.1849,-0.6174 -0.1235,-0.1397 -0.2766,-0.2095 -0.46,-0.2095 -0.1856,0 -0.3401,0.0698 -0.4628,0.2088 -0.1228,0.139 -0.1842,0.3493 -0.1842,0.6301z"/>
  <path id="12345678910111213141516" class="fil0" d="M49.2658 14.7381l0.3676 -0.0578c0.0205,0.1474 0.0783,0.2603 0.1729,0.3394 0.0938,0.0783 0.2258,0.1178 0.3958,0.1178 0.1707,0 0.2977,-0.0353 0.3803,-0.1044 0.0825,-0.0699 0.1242,-0.1517 0.1242,-0.2449 0,-0.0846 -0.0367,-0.1502 -0.1101,-0.1989 -0.0508,-0.0332 -0.1778,-0.0748 -0.3803,-0.1256 -0.2723,-0.0692 -0.4621,-0.1284 -0.5673,-0.1792 -0.1051,-0.0501 -0.1855,-0.12 -0.2398,-0.2089 -0.0544,-0.0889 -0.0819,-0.1869 -0.0819,-0.2942 0,-0.0981 0.0226,-0.1884 0.0677,-0.2716 0.0445,-0.084 0.1059,-0.1531 0.1828,-0.2082 0.0578,-0.0423 0.1369,-0.079 0.2363,-0.1086 0.1002,-0.0296 0.2075,-0.0445 0.3218,-0.0445 0.1721,0 0.3231,0.0254 0.4536,0.0748 0.1306,0.0494 0.2265,0.1164 0.2886,0.2011 0.0621,0.0854 0.1044,0.1983 0.1277,0.3401l-0.3633 0.0501c-0.017,-0.1129 -0.065,-0.2011 -0.144,-0.2646 -0.079,-0.0635 -0.1912,-0.0953 -0.3358,-0.0953 -0.1708,0 -0.2928,0.0283 -0.3655,0.0847 -0.0734,0.0565 -0.1101,0.1228 -0.1101,0.1983 0,0.0487 0.0156,0.0917 0.0459,0.1305 0.0303,0.0402 0.0776,0.0727 0.1425,0.0995 0.0374,0.0134 0.1468,0.0451 0.3288,0.0945 0.2632,0.0706 0.4466,0.1277 0.5503,0.1729 0.1045,0.0444 0.1863,0.1101 0.2456,0.1954 0.0592,0.0854 0.0889,0.1912 0.0889,0.3182 0,0.1242 -0.0367,0.2406 -0.1087,0.3507 -0.0727,0.1093 -0.1771,0.194 -0.3133,0.254 -0.1361,0.06 -0.2906,0.0896 -0.4628,0.0896 -0.2857,0 -0.503,-0.0593 -0.6526,-0.1778 -0.1496,-0.1185 -0.2449,-0.2942 -0.2858,-0.5271z"/>
  <polygon id="1234567891011121314151617" class="fil0" points="52.4282,15.4451 53.3066,12.3118 53.6044,12.3118 52.7281,15.4451 "/>
  <path id="123456789101112131415161718" class="fil0" d="M54.9337 14.4079l0.5955 -0.0585c0.0353,0.2004 0.1079,0.3471 0.218,0.441 0.1094,0.0931 0.2568,0.1404 0.4431,0.1404 0.1968,0 0.3457,-0.0417 0.4452,-0.1256 0.1002,-0.0833 0.1503,-0.1806 0.1503,-0.2921 0,-0.072 -0.0212,-0.1327 -0.0635,-0.1828 -0.0417,-0.0508 -0.115,-0.0945 -0.2202,-0.1312 -0.0712,-0.0254 -0.2349,-0.0691 -0.4896,-0.1326 -0.3281,-0.0812 -0.5581,-0.1814 -0.69,-0.2999 -0.1863,-0.1665 -0.2794,-0.3697 -0.2794,-0.6096 0,-0.1545 0.0437,-0.2984 0.1312,-0.4332 0.0875,-0.1341 0.2138,-0.2364 0.3782,-0.3069 0.1651,-0.0699 0.3633,-0.1051 0.5962,-0.1051 0.381,0 0.6667,0.0832 0.8593,0.2497 0.1919,0.1672 0.2928,0.3895 0.3027,0.6682l-0.6117 0.0268c-0.0261,-0.1559 -0.0826,-0.2681 -0.1686,-0.3359 -0.0861,-0.0684 -0.2152,-0.1023 -0.3874,-0.1023 -0.1778,0 -0.3175,0.036 -0.4177,0.1094 -0.0649,0.0466 -0.0973,0.1094 -0.0973,0.1877 0,0.0719 0.0303,0.1333 0.091,0.1841 0.0769,0.0649 0.2646,0.1327 0.5623,0.2025 0.2977,0.0706 0.5179,0.1432 0.6604,0.218 0.1425,0.0755 0.254,0.1778 0.3351,0.3084 0.0805,0.1305 0.1207,0.2914 0.1207,0.4826 0,0.1735 -0.048,0.3365 -0.1447,0.4875 -0.0966,0.1517 -0.2328,0.2646 -0.4092,0.338 -0.1764,0.074 -0.3965,0.1107 -0.6597,0.1107 -0.3831,0 -0.6773,-0.0882 -0.8826,-0.2653 -0.2053,-0.1771 -0.3281,-0.4353 -0.3676,-0.774z"/>
  <path id="12345678910111213141516171819" class="fil0" d="M59.179 14.6951l0.5792 0.0967c-0.0747,0.2123 -0.1919,0.3739 -0.3527,0.4847 -0.1602,0.1115 -0.3613,0.1665 -0.6026,0.1665 -0.3817,0 -0.6639,-0.1242 -0.8473,-0.374 -0.1447,-0.1996 -0.2173,-0.4522 -0.2173,-0.7563 0,-0.3641 0.0952,-0.6491 0.2857,-0.8551 0.1898,-0.206 0.4304,-0.3091 0.7211,-0.3091 0.3266,0 0.5842,0.108 0.7733,0.3239 0.1883,0.2159 0.2786,0.5461 0.2709,0.9913l-1.4556 0c0.0043,0.1721 0.0508,0.3062 0.1404,0.4014 0.0896,0.096 0.2018,0.144 0.3352,0.144 0.091,0 0.1672,-0.0247 0.2293,-0.0741 0.0621,-0.0501 0.1093,-0.1298 0.1404,-0.2399zm0.0331 -0.587c-0.0042,-0.1686 -0.0472,-0.2963 -0.1298,-0.3838 -0.0825,-0.0875 -0.1834,-0.1313 -0.3019,-0.1313 -0.127,0 -0.2315,0.0466 -0.314,0.139 -0.0826,0.0918 -0.1235,0.2173 -0.1221,0.3761l0.8678 0z"/>
  <polygon id="1234567891011121314151617181920" class="fil0" points="60.2627,15.3936 60.2627,12.3633 60.8434,12.3633 60.8434,15.3936 "/>
  <path id="123456789101112131415161718192021" class="fil0" d="M61.3041 14.2647c0,-0.1926 0.048,-0.3796 0.1426,-0.5602 0.0952,-0.1799 0.23,-0.3182 0.4042,-0.4127 0.1743,-0.0953 0.369,-0.1433 0.5842,-0.1433 0.3316,0 0.604,0.108 0.8164,0.3239 0.2123,0.2159 0.3182,0.4882 0.3182,0.8177 0,0.3316 -0.1073,0.6068 -0.3211,0.8255 -0.2145,0.2187 -0.484,0.3274 -0.8092,0.3274 -0.2018,0 -0.393,-0.0452 -0.5758,-0.1362 -0.1827,-0.091 -0.3217,-0.2243 -0.4169,-0.4 -0.0946,-0.1757 -0.1426,-0.3895 -0.1426,-0.6421zm0.5955 0.0311c0,0.218 0.0515,0.3845 0.1552,0.5002 0.103,0.1157 0.2308,0.1736 0.3824,0.1736 0.1517,0 0.2787,-0.0579 0.381,-0.1736 0.1031,-0.1157 0.1546,-0.2836 0.1546,-0.5045 0,-0.2145 -0.0515,-0.3803 -0.1546,-0.496 -0.1023,-0.1157 -0.2293,-0.1735 -0.381,-0.1735 -0.1516,0 -0.2794,0.0578 -0.3824,0.1735 -0.1037,0.1157 -0.1552,0.283 -0.1552,0.5003z"/>
  <path id="12345678910111213141516171819202122" class="fil0" d="M67.0381 14.8539l0 0.5397 -2.0362 0c0.0226,-0.2039 0.0882,-0.3972 0.199,-0.58 0.1101,-0.1827 0.3281,-0.4247 0.6526,-0.7267 0.2625,-0.2434 0.4227,-0.4092 0.4819,-0.496 0.0797,-0.1199 0.12,-0.2385 0.12,-0.3556 0,-0.1291 -0.0346,-0.2286 -0.1045,-0.2984 -0.0698,-0.0699 -0.1658,-0.1044 -0.2885,-0.1044 -0.1214,0 -0.2173,0.0366 -0.2893,0.1093 -0.0713,0.0734 -0.1129,0.1947 -0.1242,0.3641l-0.5785 -0.0579c0.0345,-0.3196 0.1425,-0.5489 0.3245,-0.6886 0.1821,-0.139 0.4092,-0.2088 0.6823,-0.2088 0.2991,0 0.5341,0.0811 0.7048,0.242 0.1708,0.1615 0.2561,0.3619 0.2561,0.6018 0,0.1362 -0.0246,0.266 -0.0733,0.3895 -0.0487,0.1234 -0.1263,0.2526 -0.2322,0.3873 -0.0705,0.0896 -0.1975,0.2187 -0.3803,0.3867 -0.1834,0.1679 -0.2998,0.2801 -0.3485,0.3351 -0.0487,0.055 -0.0889,0.1086 -0.1192,0.1609l1.1535 0z"/>
  <line class="fil1 str0" x1="15.2519" y1="20.421" x2="195.261" y2= "20.421" />
  <path class="fil2" d="M61.5824 140.902c-0.3869,-0.4079 -1.0284,-1.2916 -1.2799,-1.3603 -0.0185,-0.0678 -0.0185,-0.1357 -0.0185,-0.1693 -0.3294,0 -0.3294,0 -0.5417,-0.1369 -0.0196,-0.1363 -0.0391,-0.2377 -0.0581,-0.3395 -0.0781,-0.034 -0.1358,-0.0682 -0.1936,-0.1028 -0.0398,-0.1359 -0.0583,-0.2375 -0.0781,-0.339 -0.0781,0.0338 -0.1552,0.067 -0.2326,0.1358 -0.8905,-1.2583 -1.625,-1.7684 -2.5353,-2.0409 -0.2336,0.204 -0.5229,0.1703 -0.6201,0.0682 -0.1162,0.4417 -1.0658,0.5788 -1.2592,0.5788 0,-26.0834 0.0194,-68.1323 0.0382,-94.2155l74.7616 0.0001 0 82.1079c-0.6176,-0.034 -1.2745,-0.0338 -1.7574,0.0681 -0.0195,-0.1021 -0.0195,-0.204 -0.0195,-0.3057 -0.33,-0.0684 -0.8128,-0.2723 -0.9316,-0.4759 -0.0183,0.1357 -0.0365,0.3058 -0.0564,0.4759 -0.1735,0 -0.3278,0.0342 -0.4839,0.0677 -0.0394,-0.1019 -0.0579,-0.2043 -0.077,-0.3061 -0.0187,0.0683 -0.0187,0.1363 -0.0187,0.2042 -0.1173,-0.0342 -0.2143,-0.0679 -0.3101,-0.0679 -0.1172,0.4078 -1.1617,0.4762 -1.2799,0.4762 0,0.136 0.0224,0.2714 0.0393,0.4081 -0.7941,0.3402 -0.6966,0.5099 -0.9872,-0.2042 -0.3478,0 -0.1167,0.0675 -0.1348,0.4762 -0.407,-0.6121 -0.4273,-0.0679 -0.6584,0.1019 0,-0.1698 0,-0.3059 0,-0.4422 -0.058,0 -0.1168,0 -0.1551,0 -0.0197,0.1363 -0.0395,0.2724 -0.0588,0.4085 -0.1352,0.0337 -0.2317,0.2719 -0.3099,0.2719 -0.0376,-0.1022 -0.0768,-0.1704 -0.0966,-0.2382 -0.3285,0 -0.3875,0.2036 -0.4266,0.6461 -0.6183,0.2718 -1.2763,0.1706 -1.7232,-0.2044 -0.658,-0.0676 -2.4012,-0.0676 -2.691,0.6807 -1.8401,0.3738 -3.6799,0.9862 -5.3063,0.9182 -1.6069,0.4417 -1.6069,0.4417 -2.2271,0.7825 -0.0579,0.1353 -0.3481,0.3732 -0.4251,0.3052 -0.0204,0.1027 -0.0388,0.2043 -0.0585,0.3404 -0.4451,-0.1361 -0.6576,0.1699 -0.8894,0.4759 -0.4275,0.0343 -0.8724,-0.2038 -1.1048,-0.2377 -0.0392,0.0678 -0.0779,0.1359 -0.097,0.2377 -0.117,-0.0677 -0.2327,-0.1018 -0.3496,-0.1357 -0.0187,0.1016 -0.0377,0.238 -0.0571,0.3745 -0.2516,0.0679 -0.4257,0.2376 -0.5797,0.2034 -0.0206,0.0687 -0.0401,0.136 -0.0604,0.2384 -0.0958,0 -0.1921,0 -0.2896,0 0.0381,-0.068 0.0768,-0.1024 0.1172,-0.1364 -0.0791,0 -0.1551,0 -0.2333,0 -0.0188,0.0684 -0.0384,0.1702 -0.0583,0.2715 -0.0584,0 -0.1156,0 -0.1739,0 -0.0389,-0.1013 -0.0774,-0.169 -0.1159,-0.2375 -0.6195,0 -0.5427,1.1557 -1.2,1.3606 -0.7767,-0.1698 -0.7767,-0.3746 -1.2589,0.2381 -0.0587,-0.1021 -0.0968,-0.1705 -0.1378,-0.2381 -0.0761,0.2381 -0.1921,0.2381 -0.2893,0.4757 -0.1147,-0.0679 -0.2316,-0.1017 -0.3486,-0.1356 -0.1356,0.2378 -0.1356,0.2378 -0.1727,0.6462 -0.8143,0.3739 -1.8991,1.87 -2.6933,1.5636 0,-0.0676 0.0201,-0.1018 0.0383,-0.1354 -0.1348,-0.0342 -0.2512,-0.0682 -0.368,-0.0682 -0.0766,0.2724 -0.2902,0.8843 -0.5613,0.6117 0.0198,0.1702 0.0396,0.3407 0.0778,0.5105 -1.4331,0.8161 -1.4331,0.8161 -2.0136,1.2922 -0.8337,0 -1.1808,-0.3403 -1.6275,-0.7822 -0.5032,0.5104 -1.7619,-0.7823 -2.0134,-0.6798 0.0401,-0.0681 0.0791,-0.1025 0.1351,-0.1362 -0.095,-0.1022 -0.1727,-0.1696 -0.2514,-0.238 -0.0572,0.0335 -0.1157,0.0684 -0.1542,0.1358 -0.2914,-0.748 -1.046,-0.3058 -1.3364,-0.2381 -0.0188,0.0681 -0.0389,0.1358 -0.0579,0.2381 -0.988,0 -0.9289,0.8166 -1.607,1.1904 0,-0.7478 -0.1756,-0.816 -0.3287,-0.952 -0.1164,0.1017 -0.2333,0.2042 -0.3495,0.3401 -0.2707,-0.1359 -0.2707,-0.1359 -0.6765,-0.6127 -0.0216,-0.1358 -0.041,-0.2376 -0.041,-0.3395 -0.1153,-0.0338 -0.231,-0.0679 -0.3282,-0.1021 -0.0183,-0.17 -0.0366,-0.3062 -0.058,-0.4424 -0.1736,-0.1019 -0.3872,0 -0.6974,-0.1019 0.0773,-0.0679 0.1551,-0.1359 0.2507,-0.17 -0.4063,-0.4424 -0.4634,-0.2039 -0.7341,-0.0337 0.0774,0.2718 0.1938,0.1697 0.31,0.0337 0,0.7826 -1.3755,0.6121 -1.55,0.6121 -0.0382,0.0676 -0.0763,0.1364 -0.1147,0.2381 -1.2408,-0.1017 -2.0151,0.0681 -3.1196,0.2376 -0.6765,-0.0677 -1.3549,-0.1017 -2.0127,-0.1358 -0.4843,0.306 -0.9693,0.6125 -1.4322,0.9178 -0.0408,-0.0674 -0.0783,-0.1012 -0.117,-0.1355 -0.0199,0.102 -0.0389,0.204 -0.0584,0.3057 -0.6775,0.1025 -1.3938,-0.0333 -1.898,-0.2714 0.0586,0.0338 0.1359,0.1012 0.2146,0.1697 0,0.0684 0,0.1367 0,0.2384 -0.3888,0 -0.6594,0.0681 -0.9101,0.2717 -0.0792,-0.1358 -0.0792,-0.1358 -0.1752,-0.1358 0,0.1018 0,0.2036 0,0.3061 -0.445,0 -0.7363,1.1563 -1.1428,0.8167 -0.7942,0.3396 -1.2976,-0.749 -1.7438,-1.1228 -0.0377,0.1704 -0.0577,0.3738 -0.0763,0.5779 -0.3299,-0.3403 -0.601,-0.0339 -0.7157,0.0682 -0.0207,-0.1021 -0.0401,-0.2039 -0.0598,-0.306 -0.0958,0.1696 -0.6952,0 -0.7153,0 -0.581,0.5099 -0.9299,0.2722 -1.3363,0.0676 -0.0391,0.102 -0.0776,0.2046 -0.0976,0.3066 -0.0781,-0.0682 -0.1537,-0.102 -0.2322,-0.1364 -0.0186,-0.1357 -0.0186,-0.2378 -0.0186,-0.3403 -0.1938,-0.034 -0.3681,-0.0672 -0.5438,-0.1018 -0.2514,0.6462 -0.5987,0.4421 -0.8696,0.4765 0.0587,0.2039 0.0587,0.2039 0.251,0.2721 0,0.1013 0,0.2034 0,0.3396 -1.8201,0.3059 -3.5234,2.2444 -5.2859,2.4151 -0.2717,0.2377 -1.0469,0.9859 -1.2011,0.4416 -0.0393,0.1358 -0.0588,0.2722 -0.0769,0.4078 -0.0205,-0.1015 -0.0387,-0.203 -0.0587,-0.272 -0.1172,0.2043 -0.2317,0.4085 -0.3476,0.6122z"/>
  <g id="_42454712">
   <g>
    <path id="_42479336" class="fil3" d="M67.9475 100.809c-0.8399,0.3819 -1.4012,0.6491 -1.6838,0.8018 -0.2825,0.1528 -0.5307,0.3895 -0.7445,0.7102 -0.2138,0.3207 -0.2978,0.756 -0.252,1.3058 0.0305,0.3207 0.1718,0.5919 0.4238,0.8133 0.252,0.2214 0.5689,0.3321 0.9507,0.3321 0.779,0 1.2142,-0.5956 1.3058,-1.7868l0 -2.1764zm0.1375 5.0858c-0.7942,1.0538 -1.8556,1.5807 -3.1843,1.5807 -0.9316,0 -1.722,-0.3245 -2.3712,-0.9736 -0.649,-0.6491 -0.9659,-1.5693 -0.9506,-2.7605 0.0152,-1.0539 0.2519,-1.8786 0.7101,-2.4743 0.4583,-0.5956 0.9928,-1.0232 1.6037,-1.2829 0.6109,-0.2596 1.573,-0.5879 2.8865,-0.985 0.7789,-0.1986 1.1683,-0.6567 1.1683,-1.3746 0,-0.3665 -0.1107,-0.6834 -0.3321,-0.9507 -0.2215,-0.2673 -0.4849,-0.4009 -0.7904,-0.4009 -0.336,-0.0152 -0.6147,0.0382 -0.8362,0.1604 -0.2214,0.1222 -0.378,0.3322 -0.4696,0.6299 -0.0916,0.2979 -0.1375,0.6912 -0.1375,1.1799l-3.6654 0c-0.1222,-2.9019 1.5043,-4.3756 4.8797,-4.4215 1.9396,-0.0153 3.253,0.2902 3.9403,0.9164 0.6872,0.6262 1.0309,1.5731 1.0309,2.8407l0 8.316c0,0.2138 0.1069,0.588 0.3207,1.1225l-3.5967 0 -0.2062 -1.1225zm4.5719 -2.1076l0 -6.0251c0,-1.1455 0.3971,-2.0885 1.1913,-2.8292 0.7942,-0.7408 2.0084,-1.1112 3.6425,-1.1112 1.0691,0 1.9549,0.1833 2.6575,0.5499 0.7025,0.3665 1.2256,0.84 1.5693,1.4203 0.3436,0.5804 0.5154,1.2066 0.5154,1.8786l-0.0458 6.0022c0,1.1454 -0.4124,2.0656 -1.2371,2.7605 -0.8247,0.6949 -1.9931,1.0423 -3.5051,1.0423 -1.0996,0 -2.0046,-0.168 -2.7148,-0.504 -0.7101,-0.3359 -1.2332,-0.7865 -1.5692,-1.3516 -0.336,-0.5651 -0.504,-1.176 -0.504,-1.8327zm3.6655 -6.0251l0 5.9106c0,0.7636 0.3741,1.1454 1.1225,1.1454 0.7484,0 1.1226,-0.3818 1.1226,-1.1454l0 -5.9106c0,-0.4277 -0.1032,-0.7522 -0.3094,-0.9736 -0.2061,-0.2215 -0.4619,-0.3322 -0.7674,-0.3322 -0.7789,0 -1.1683,0.4353 -1.1683,1.3058zm13.0482 9.2552l0 -17.1817 4.9254 0c1.6801,0 3.1004,0.3092 4.2611,0.9278 1.1608,0.6186 1.7183,2.0656 1.6724,4.3412 -0.0458,1.619 -0.3856,2.8179 -1.0195,3.5968 -0.6337,0.7789 -1.4127,1.2562 -2.3367,1.4318 -0.924,0.1756 -2.0809,0.2481 -3.4707,0.2176l0 6.6665 -4.032 0zm4.032 -9.7592l0.1604 0c0.8247,0.0153 1.4203,-0.0725 1.7869,-0.2635 0.3665,-0.1909 0.5879,-0.4314 0.6643,-0.7216 0.0764,-0.2902 0.1299,-0.7637 0.1604,-1.4204 0,-0.8094 -0.1566,-1.3249 -0.4697,-1.5464 -0.313,-0.2214 -0.7445,-0.3321 -1.2943,-0.3321 -0.1375,-0.0306 -0.3284,-0.0458 -0.5727,-0.0458l-0.4353 0 0 4.3298zm7.8479 9.7592l0 -17.2275 9.2094 0 0 3.4363 -5.1774 0 0 3.1844 5.04 0 0 3.4363 -5.04 0 0 3.7342 5.4982 0 0 3.4363 -9.5302 0zm17.4697 -6.7123l4.032 0 0 2.5429c0,1.5579 -0.5728,2.7109 -1.7182,3.4592 -1.1454,0.7484 -2.4283,1.1227 -3.8487,1.1227 -1.8938,0 -3.2684,-0.4278 -4.1236,-1.283 -0.8553,-0.8553 -1.2829,-2.1916 -1.2829,-4.0091l0 -7.4225c0,-3.5585 1.8022,-5.3225 5.4065,-5.292 1.7716,0 3.1347,0.4086 4.0893,1.2256 0.9545,0.8171 1.4318,2.0657 1.4318,3.7457l0 0.3207 0 1.1226 -4.0778 0 0 -1.1226c0,-1.4662 -0.4353,-2.1993 -1.3058,-2.1993l-0.0459 0c-0.4734,0.0306 -0.8362,0.1527 -1.0881,0.3666 -0.252,0.2138 -0.378,0.6415 -0.378,1.2829l0 8.6825c0,0.9927 0.4582,1.4891 1.3745,1.4891 0.9011,0.0459 1.3974,-0.5193 1.489,-1.6953l0.0459 -0.733 0 -1.6037z"/>
    <g>
     <path id="_42477216" class="fil3" d="M61.5784 87.1449l0 -32.5822 7.9067 0 5.8214 18.246 0.1737 0 -0.7384 -18.246 7.2984 0 0 32.5822 -7.9067 0 -5.9517 -18.2461 -0.0868 0.0869 0.6949 18.1592 -7.2115 0zm34.0841 -11.7731c-1.5929,0.7241 -2.6572,1.231 -3.193,1.5205 -0.5359,0.2897 -1.0065,0.7385 -1.4119,1.3468 -0.4055,0.6081 -0.5648,1.4336 -0.4779,2.4761 0.058,0.6083 0.3259,1.1225 0.8036,1.5424 0.4779,0.4199 1.0789,0.6298 1.8029,0.6298 1.4771,0 2.3026,-1.1295 2.4763,-3.3885l0 -4.1271zm0.2607 9.6444c-1.5061,1.9983 -3.5188,2.9975 -6.0385,2.9975 -1.7667,0 -3.2655,-0.6154 -4.4964,-1.8463 -1.231,-1.2309 -1.8319,-2.9759 -1.8029,-5.2348 0.0289,-1.9985 0.4779,-3.5624 1.3466,-4.692 0.869,-1.1295 1.8827,-1.9404 3.0411,-2.4328 1.1585,-0.4923 2.9831,-1.115 5.4737,-1.868 1.4772,-0.3766 2.2157,-1.2453 2.2157,-2.6066 0,-0.6951 -0.2099,-1.2961 -0.6298,-1.8029 -0.42,-0.5068 -0.9196,-0.7603 -1.4989,-0.7603 -0.6371,-0.0288 -1.1657,0.0725 -1.5857,0.3042 -0.42,0.2317 -0.7168,0.6299 -0.8905,1.1946 -0.1737,0.5648 -0.2606,1.3106 -0.2606,2.2373l-6.951 0c-0.2317,-5.5028 2.8527,-8.2975 9.2534,-8.3844 3.6782,-0.0291 6.1689,0.5503 7.4722,1.7376 1.3034,1.1875 1.955,2.9832 1.955,5.387l0 15.7699c0,0.4054 0.2027,1.115 0.6081,2.1287l-6.8206 0 -0.3909 -2.1287zm8.6698 -3.9968l0 -11.4256c0,-2.1721 0.753,-3.9604 2.259,-5.3651 1.506,-1.4047 3.8086,-2.107 6.9074,-2.107 2.0275,0 3.7072,0.3475 5.0395,1.0427 1.3323,0.6949 2.3242,1.5928 2.9759,2.6934 0.6517,1.1006 0.9774,2.288 0.9774,3.5623l-0.0869 11.3821c0,2.1721 -0.782,3.9171 -2.3459,5.2348 -1.5639,1.3179 -3.7796,1.9767 -6.6468,1.9767 -2.0853,0 -3.8012,-0.3186 -5.148,-0.9557 -1.3467,-0.6371 -2.3386,-1.4915 -2.9759,-2.5632 -0.6371,-1.0715 -0.9557,-2.2301 -0.9557,-3.4754zm6.9509 -11.4256l0 11.2084c0,1.4481 0.7097,2.1721 2.1287,2.1721 1.4192,0 2.1287,-0.724 2.1287,-2.1721l0 -11.2084c0,-0.8109 -0.1955,-1.4263 -0.5865,-1.8462 -0.3909,-0.42 -0.8761,-0.63 -1.4554,-0.63 -1.477,0 -2.2155,0.8255 -2.2155,2.4762z"/>
     <path id="_42468784" class="fil4" d="M85.0624 60.4274c0.6951,-4.1706 2.4763,-6.2123 5.3435,-6.1254 0.9268,0.0289 1.7088,0.152 2.346,0.3692 0.6371,0.2172 1.3466,0.4996 2.1287,0.8472 0.7819,0.3475 1.3756,0.5357 1.7811,0.5647 0.782,-0.0869 1.4047,-0.6517 1.868,-1.6943l3.4755 0c-0.4923,3.7941 -2.3024,5.72 -5.4303,5.7779 -0.8109,0.029 -1.9261,-0.2172 -3.3452,-0.7385 -1.4191,-0.5213 -2.3893,-0.782 -2.9107,-0.782 -0.8688,0 -1.4915,0.5938 -1.868,1.7812l-3.3886 0z"/>
    </g>
   </g>
   <path id="_42460720" class="fil3" d="M62.6183 114.617l0 1.7316c0.1346,0 0.2387,0.0041 0.3121,0.0123 0.2815,-0.0163 0.4956,-0.0306 0.6425,-0.0429 0.2284,-0.0408 0.3957,-0.1254 0.5018,-0.2539 0.106,-0.1285 0.159,-0.3314 0.159,-0.6088 0,-0.4977 -0.2366,-0.7731 -0.7098,-0.8261 -0.0938,-0.0082 -0.2488,-0.0122 -0.465,-0.0122l-0.4406 0zm0 4.1364l-0.514 0 0 -4.5893 1.2055 0c0.5099,0 0.8689,0.1 1.0769,0.2999 0.2489,0.2284 0.3733,0.5548 0.3733,0.979 0,0.6201 -0.2162,1.0301 -0.6486,1.2299 -0.2162,0.0816 -0.5426,0.1306 -0.9791,0.1469 -0.1183,-0.0082 -0.2896,-0.0122 -0.514,-0.0122l0 1.9458z"/>
   <path id="_424607201" class="fil3" d="M65.4882 118.753l0 -3.4205 0.4528 0 0 0.5874c0.1183,-0.2284 0.2447,-0.3896 0.3793,-0.4834 0.1347,-0.0938 0.3468,-0.1387 0.6364,-0.1346l0 0.5017c-0.106,-0.0163 -0.1897,-0.0244 -0.2509,-0.0244 -0.2284,0 -0.4089,0.0846 -0.5415,0.2539 -0.1326,0.1693 -0.1989,0.411 -0.1989,0.7251l0 1.9948 -0.4772 0z"/>
   <path id="_4246072012" class="fil3" d="M67.33 116.997c0,-1.1544 0.3977,-1.7316 1.1932,-1.7316 0.4487,0 0.7679,0.1438 0.9576,0.4314 0.1897,0.2876 0.2845,0.7251 0.2845,1.3125 0,1.2156 -0.3936,1.8296 -1.1809,1.8418 -0.4447,0 -0.7649,-0.1683 -0.9607,-0.5048 -0.1958,-0.3366 -0.2937,-0.7863 -0.2937,-1.3493zm0.5017 0.0123c0,0.4202 0.0439,0.7618 0.1316,1.0249 0.0877,0.2631 0.2906,0.3947 0.6088,0.3947 0.2978,0 0.4875,-0.1316 0.5691,-0.3947 0.0816,-0.2631 0.1224,-0.5884 0.1224,-0.976 0,-0.4038 -0.0449,-0.7383 -0.1346,-1.0035 -0.0898,-0.2651 -0.2836,-0.3977 -0.5813,-0.3977 -0.4773,0 -0.716,0.4508 -0.716,1.3523z"/>
   <path id="_42460720123" class="fil3" d="M70.3772 117.113c-0.0081,-0.257 0.0133,-0.5283 0.0643,-0.8138 0.051,-0.2856 0.157,-0.5314 0.3182,-0.7374 0.1611,-0.206 0.3967,-0.309 0.7067,-0.309 0.1387,0 0.2611,0.0327 0.3672,0.0979 0.106,0.0653 0.1968,0.1387 0.2722,0.2203 0.0755,0.0816 0.1133,0.1142 0.1133,0.0979l0 -0.3243 0.4772 0 0 2.5822 0 0.2632c0,0.5221 -0.0714,0.9341 -0.2141,1.236 -0.1428,0.3019 -0.4671,0.461 -0.973,0.4773 -0.3018,0 -0.5405,-0.0745 -0.7159,-0.2234 -0.1754,-0.1489 -0.2753,-0.3498 -0.2998,-0.6027l0.4712 0c0,0.0979 0.0489,0.1917 0.1468,0.2815 0.0979,0.0897 0.2305,0.1346 0.3977,0.1346 0.4651,0 0.6976,-0.3263 0.6976,-0.979l0 -0.1775c-0.204,0.3427 -0.4548,0.514 -0.7526,0.514 -0.4202,0 -0.7047,-0.1764 -0.8536,-0.5293 -0.1489,-0.3529 -0.2234,-0.7557 -0.2234,-1.2085zm0.4773 0c0.0041,0.4651 0.0602,0.8006 0.1683,1.0066 0.1081,0.206 0.2743,0.309 0.4987,0.309 0.4854,0 0.7179,-0.4487 0.6976,-1.3462 -0.0082,-0.4487 -0.0541,-0.7965 -0.1377,-1.0433 -0.0837,-0.2468 -0.2784,-0.3702 -0.5844,-0.3702 -0.4283,0 -0.6425,0.4814 -0.6425,1.4441z"/>
   <path id="_424607201234" class="fil3" d="M73.6387 118.753l0 -3.4205 0.4528 0 0 0.5874c0.1183,-0.2284 0.2447,-0.3896 0.3793,-0.4834 0.1347,-0.0938 0.3468,-0.1387 0.6364,-0.1346l0 0.5017c-0.106,-0.0163 -0.1897,-0.0244 -0.2509,-0.0244 -0.2284,0 -0.4089,0.0846 -0.5415,0.2539 -0.1326,0.1693 -0.1989,0.411 -0.1989,0.7251l0 1.9948 -0.4772 0z"/>
   <path id="_4246072012345" class="fil3" d="M75.3642 117.927c-0.0041,-0.2774 0.0418,-0.4864 0.1377,-0.6272 0.0958,-0.1407 0.2376,-0.2457 0.4253,-0.3151l0.7281 -0.2998c0.049,-0.0204 0.0989,-0.0398 0.1499,-0.0582 0.051,-0.0183 0.0908,-0.0438 0.1194,-0.0764 0.0285,-0.0327 0.0428,-0.0755 0.0428,-0.1285l0 -0.3549c0,-0.1143 -0.0388,-0.2111 -0.1163,-0.2907 -0.0775,-0.0795 -0.206,-0.1193 -0.3855,-0.1193 -0.208,0 -0.3477,0.0438 -0.4191,0.1315 -0.0714,0.0878 -0.1071,0.2438 -0.1071,0.4681l-0.4406 0c-0.0122,-0.669 0.3101,-1.0035 0.9668,-1.0035 0.4161,-0.004 0.6813,0.0877 0.7955,0.2754 0.1142,0.1876 0.1713,0.4304 0.1713,0.7281l0 1.8296c0,0.1306 0.0112,0.2162 0.0337,0.257 0.0224,0.0408 0.0642,0.0653 0.1254,0.0735 0.0286,-0.0082 0.0755,-0.0123 0.1408,-0.0123l0 0.3488c-0.1469,0.0163 -0.2428,0.0245 -0.2876,0.0245 -0.155,0 -0.2642,-0.0388 -0.3274,-0.1163 -0.0632,-0.0775 -0.101,-0.206 -0.1132,-0.3855 -0.1713,0.3753 -0.4426,0.563 -0.8138,0.563 -0.3223,-0.0204 -0.5385,-0.1122 -0.6486,-0.2754 -0.1102,-0.1632 -0.1693,-0.3753 -0.1775,-0.6364zm1.5665 -1.0157c-0.1469,0.0816 -0.3264,0.1693 -0.5385,0.2631 -0.2121,0.0938 -0.3518,0.1866 -0.4192,0.2784 -0.0673,0.0918 -0.103,0.2376 -0.107,0.4375 -0.0123,0.3508 0.1366,0.5344 0.4467,0.5507 0.159,-0.0081 0.3018,-0.0703 0.4283,-0.1866 0.1264,-0.1163 0.1897,-0.2682 0.1897,-0.4559l0 -0.8872z"/>
   <path id="_42460720123456" class="fil3" d="M78.3441 118.753l0 -3.4083 0.4651 0 0 0.4467c0.0938,-0.1672 0.2182,-0.3008 0.3732,-0.4008 0.1551,-0.0999 0.3101,-0.1458 0.4651,-0.1377 0.359,0.0245 0.6221,0.2081 0.7893,0.5507 0.2407,-0.3671 0.5385,-0.5507 0.8934,-0.5507 0.3386,0.0123 0.565,0.1122 0.6792,0.2999 0.1142,0.1876 0.1714,0.3936 0.1714,0.618l0 2.5822 -0.4773 0 0 -2.521c0,-0.3998 -0.1673,-0.5875 -0.5018,-0.563 -0.4609,0.0163 -0.6914,0.2713 -0.6914,0.7649l0 2.3191 -0.4895 0 0 -2.3925c0,-0.2285 -0.0357,-0.4008 -0.1071,-0.5171 -0.0714,-0.1162 -0.1969,-0.1744 -0.3764,-0.1744 -0.1835,0 -0.3487,0.0571 -0.4956,0.1714 -0.1468,0.1142 -0.2203,0.312 -0.2203,0.5935l0 2.3191 -0.4773 0z"/>
   <path id="_424607201234567" class="fil3" d="M82.8294 117.927c-0.0041,-0.2774 0.0418,-0.4864 0.1377,-0.6272 0.0958,-0.1407 0.2376,-0.2457 0.4253,-0.3151l0.7281 -0.2998c0.049,-0.0204 0.0989,-0.0398 0.1499,-0.0582 0.051,-0.0183 0.0908,-0.0438 0.1194,-0.0764 0.0285,-0.0327 0.0428,-0.0755 0.0428,-0.1285l0 -0.3549c0,-0.1143 -0.0388,-0.2111 -0.1163,-0.2907 -0.0775,-0.0795 -0.206,-0.1193 -0.3855,-0.1193 -0.208,0 -0.3477,0.0438 -0.4191,0.1315 -0.0714,0.0878 -0.1071,0.2438 -0.1071,0.4681l-0.4406 0c-0.0122,-0.669 0.3101,-1.0035 0.9668,-1.0035 0.4161,-0.004 0.6813,0.0877 0.7955,0.2754 0.1142,0.1876 0.1713,0.4304 0.1713,0.7281l0 1.8296c0,0.1306 0.0112,0.2162 0.0337,0.257 0.0224,0.0408 0.0642,0.0653 0.1254,0.0735 0.0286,-0.0082 0.0755,-0.0123 0.1408,-0.0123l0 0.3488c-0.1469,0.0163 -0.2428,0.0245 -0.2876,0.0245 -0.155,0 -0.2642,-0.0388 -0.3274,-0.1163 -0.0632,-0.0775 -0.101,-0.206 -0.1132,-0.3855 -0.1713,0.3753 -0.4426,0.563 -0.8138,0.563 -0.3223,-0.0204 -0.5385,-0.1122 -0.6486,-0.2754 -0.1102,-0.1632 -0.1693,-0.3753 -0.1775,-0.6364zm1.5665 -1.0157c-0.1469,0.0816 -0.3264,0.1693 -0.5385,0.2631 -0.2121,0.0938 -0.3518,0.1866 -0.4192,0.2784 -0.0673,0.0918 -0.103,0.2376 -0.107,0.4375 -0.0123,0.3508 0.1366,0.5344 0.4467,0.5507 0.159,-0.0081 0.3018,-0.0703 0.4283,-0.1866 0.1264,-0.1163 0.1897,-0.2682 0.1897,-0.4559l0 -0.8872z"/>
   <path id="_4246072012345678" class="fil3" d="M87.1923 117.113c0.0081,-0.5303 0.0755,-0.9739 0.2019,-1.3309 0.1265,-0.3569 0.4141,-0.5333 0.8628,-0.5293 0.2896,0 0.5405,0.155 0.7526,0.4651l0 -1.5665 0.4773 0 0 4.6015 -0.4528 0 0 -0.4528c-0.0979,0.1754 -0.208,0.311 -0.3304,0.4069 -0.1224,0.0959 -0.2835,0.1438 -0.4834,0.1438 -0.4202,0 -0.7006,-0.1785 -0.8414,-0.5354 -0.1407,-0.357 -0.2029,-0.7577 -0.1866,-1.2024zm1.8296 -0.0673c-0.0082,-0.4406 -0.0602,-0.7822 -0.1561,-1.0249 -0.0958,-0.2428 -0.2763,-0.3641 -0.5415,-0.3641 -0.4283,0 -0.6425,0.4936 -0.6425,1.4808 0,0.3712 0.0388,0.6792 0.1163,0.924 0.0775,0.2447 0.2447,0.3671 0.5017,0.3671 0.2489,0 0.4324,-0.102 0.5507,-0.306 0.1183,-0.2039 0.1754,-0.5629 0.1714,-1.0769z"/>
   <path id="_42460720123456789" class="fil3" d="M90.1967 117.095c0,-0.4365 0.0734,-0.8526 0.2203,-1.2483 0.1469,-0.3957 0.4406,-0.5936 0.8811,-0.5936 0.4324,0 0.716,0.1377 0.8506,0.4131 0.1346,0.2753 0.2019,0.6394 0.2019,1.0922l0 0.3366 -1.6521 0c0,0.0611 -0.0041,0.1162 -0.0123,0.1652 0.0082,0.3467 0.05,0.6282 0.1255,0.8444 0.0754,0.2162 0.2335,0.3243 0.4742,0.3243 0.2529,0 0.4151,-0.0775 0.4865,-0.2325 0.0713,-0.155 0.107,-0.3488 0.107,-0.5813l0.459 0c0.004,0.4772 -0.1081,0.8026 -0.3366,0.9759 -0.2284,0.1734 -0.4671,0.2601 -0.7159,0.2601 -0.7261,0 -1.0892,-0.5854 -1.0892,-1.7561zm1.6521 -0.3978c0,-0.3182 -0.0346,-0.5711 -0.104,-0.7587 -0.0693,-0.1877 -0.2141,-0.2815 -0.4344,-0.2815 -0.2366,0 -0.3998,0.103 -0.4895,0.309 -0.0898,0.206 -0.1306,0.4497 -0.1224,0.7312l1.1503 0z"/>
   <polygon id="_4246072012345678910" class="fil3" points="94.6269,118.753 94.6269,114.151 96.9215,114.151 96.9215,114.617 95.1409,114.617 95.1409,116.134 96.8175,116.134 96.8175,116.587 95.1409,116.587 95.1409,118.288 96.9338,118.288 96.9338,118.753 "/>
   <path id="_424607201234567891011" class="fil3" d="M97.509 116.171c0,-0.1836 0.0387,-0.3437 0.1162,-0.4804 0.0775,-0.1366 0.1917,-0.2437 0.3427,-0.3212 0.1509,-0.0775 0.3365,-0.1163 0.5568,-0.1163 0.6935,0 1.0402,0.3345 1.0402,1.0035l-0.4772 0c0.0081,-0.2162 -0.0296,-0.3681 -0.1132,-0.4558 -0.0837,-0.0877 -0.2213,-0.1316 -0.4131,-0.1316 -0.3508,0 -0.5344,0.1469 -0.5507,0.4406 -0.0041,0.1428 0.0163,0.2529 0.0612,0.3304 0.0449,0.0775 0.1142,0.1408 0.208,0.1897 0.0939,0.049 0.2713,0.1265 0.5324,0.2325 0.31,0.1183 0.5324,0.2458 0.667,0.3825 0.1346,0.1366 0.2019,0.309 0.2019,0.517 0,0.3508 -0.1061,0.6201 -0.3182,0.8077 -0.2121,0.1877 -0.4875,0.2774 -0.8261,0.2693 -0.4079,-0.0041 -0.6832,-0.1112 -0.826,-0.3213 -0.1428,-0.2101 -0.2142,-0.462 -0.2142,-0.7557l0.4651 0c0,0.2121 0.0408,0.3763 0.1223,0.4926 0.0816,0.1163 0.2326,0.1744 0.4528,0.1744 0.2081,0 0.3651,-0.0459 0.4712,-0.1377 0.1061,-0.0918 0.1632,-0.2172 0.1713,-0.3763 0.0041,-0.204 -0.0438,-0.3447 -0.1438,-0.4222 -0.0999,-0.0775 -0.2947,-0.1673 -0.5843,-0.2693 -0.2081,-0.0693 -0.3733,-0.1356 -0.4957,-0.1988 -0.1223,-0.0632 -0.2274,-0.1612 -0.3151,-0.2937 -0.0877,-0.1326 -0.1315,-0.3192 -0.1315,-0.5599z"/>
   <path id="_42460720123456789101112" class="fil3" d="M100.471 118.074l0 -2.3191 -0.465 0 0 -0.41 0.465 0 0 -0.9178 0.4773 0 0 0.9178 0.5752 0 0 0.41 -0.5752 0 0 2.3742c0,0.0775 0.0163,0.1336 0.049,0.1682 0.0326,0.0347 0.0958,0.052 0.1897,0.052l0.312 0 0 0.4039 -0.5262 0c-0.155,0 -0.2672,-0.0235 -0.3366,-0.0704 -0.0693,-0.0469 -0.1142,-0.1132 -0.1346,-0.1988 -0.0204,-0.0857 -0.0306,-0.2224 -0.0306,-0.41z"/>
   <path id="_4246072012345678910111213" class="fil3" d="M101.835 117.927c-0.0041,-0.2774 0.0418,-0.4864 0.1377,-0.6272 0.0958,-0.1407 0.2376,-0.2457 0.4253,-0.3151l0.7281 -0.2998c0.049,-0.0204 0.0989,-0.0398 0.1499,-0.0582 0.051,-0.0183 0.0908,-0.0438 0.1194,-0.0764 0.0285,-0.0327 0.0428,-0.0755 0.0428,-0.1285l0 -0.3549c0,-0.1143 -0.0388,-0.2111 -0.1163,-0.2907 -0.0775,-0.0795 -0.206,-0.1193 -0.3855,-0.1193 -0.208,0 -0.3477,0.0438 -0.4191,0.1315 -0.0714,0.0878 -0.1071,0.2438 -0.1071,0.4681l-0.4406 0c-0.0122,-0.669 0.3101,-1.0035 0.9668,-1.0035 0.4161,-0.004 0.6813,0.0877 0.7955,0.2754 0.1142,0.1876 0.1713,0.4304 0.1713,0.7281l0 1.8296c0,0.1306 0.0112,0.2162 0.0337,0.257 0.0224,0.0408 0.0642,0.0653 0.1254,0.0735 0.0286,-0.0082 0.0755,-0.0123 0.1408,-0.0123l0 0.3488c-0.1469,0.0163 -0.2428,0.0245 -0.2876,0.0245 -0.155,0 -0.2642,-0.0388 -0.3274,-0.1163 -0.0632,-0.0775 -0.101,-0.206 -0.1132,-0.3855 -0.1713,0.3753 -0.4426,0.563 -0.8138,0.563 -0.3223,-0.0204 -0.5385,-0.1122 -0.6486,-0.2754 -0.1102,-0.1632 -0.1693,-0.3753 -0.1775,-0.6364zm1.5665 -1.0157c-0.1469,0.0816 -0.3264,0.1693 -0.5385,0.2631 -0.2121,0.0938 -0.3518,0.1866 -0.4192,0.2784 -0.0673,0.0918 -0.103,0.2376 -0.107,0.4375 -0.0123,0.3508 0.1366,0.5344 0.4467,0.5507 0.159,-0.0081 0.3018,-0.0703 0.4283,-0.1866 0.1264,-0.1163 0.1897,-0.2682 0.1897,-0.4559l0 -0.8872z"/>
   <path id="_424607201234567891011121314" class="fil3" d="M104.815 118.753l0 -4.6015 0.4773 0 0 1.542c0.1999,-0.2937 0.4365,-0.4406 0.7098,-0.4406 0.7221,0 1.0831,0.5487 1.0831,1.646 0,0.6772 -0.0857,1.1698 -0.257,1.4778 -0.1713,0.308 -0.4406,0.462 -0.8077,0.462 -0.3182,0 -0.5732,-0.1632 -0.7649,-0.4896l0 0.4039 -0.4406 0zm0.4406 -1.6032c0,0.4569 0.0561,0.7863 0.1683,0.9882 0.1122,0.202 0.2886,0.3029 0.5293,0.3029 0.4201,0 0.6302,-0.4344 0.6302,-1.3033l0 -0.2264c0,-0.3835 -0.052,-0.6884 -0.156,-0.9148 -0.104,-0.2264 -0.258,-0.3396 -0.462,-0.3396 -0.2162,0 -0.3763,0.0734 -0.4803,0.2203 -0.104,0.1468 -0.1683,0.3212 -0.1928,0.5231 -0.0244,0.202 -0.0367,0.4518 -0.0367,0.7496z"/>
   <path id="_42460720123456789101112131415" class="fil3" d="M107.862 118.753l0 -3.4083 0.4651 0 0 3.4083 -0.4651 0zm0 -3.9774l0 -0.6119 0.4651 0 0 0.6119 -0.4651 0z"/>
   <polygon id="_4246072012345678910111213141516" class="fil3" points="109.215,118.753 109.215,114.151 109.692,114.151 109.692,118.753 "/>
   <path id="_424607201234567891011121314151617" class="fil3" d="M110.591 118.753l0 -3.4083 0.4651 0 0 3.4083 -0.4651 0zm0 -3.9774l0 -0.6119 0.4651 0 0 0.6119 -0.4651 0z"/>
   <path id="_42460720123456789101112131415161718" class="fil3" d="M111.821 117.113c0.0081,-0.5303 0.0755,-0.9739 0.2019,-1.3309 0.1265,-0.3569 0.4141,-0.5333 0.8628,-0.5293 0.2896,0 0.5405,0.155 0.7526,0.4651l0 -1.5665 0.4773 0 0 4.6015 -0.4528 0 0 -0.4528c-0.0979,0.1754 -0.208,0.311 -0.3304,0.4069 -0.1224,0.0959 -0.2835,0.1438 -0.4834,0.1438 -0.4202,0 -0.7006,-0.1785 -0.8414,-0.5354 -0.1407,-0.357 -0.2029,-0.7577 -0.1866,-1.2024zm1.8296 -0.0673c-0.0082,-0.4406 -0.0602,-0.7822 -0.1561,-1.0249 -0.0958,-0.2428 -0.2763,-0.3641 -0.5415,-0.3641 -0.4283,0 -0.6425,0.4936 -0.6425,1.4808 0,0.3712 0.0388,0.6792 0.1163,0.924 0.0775,0.2447 0.2447,0.3671 0.5017,0.3671 0.2489,0 0.4324,-0.102 0.5507,-0.306 0.1183,-0.2039 0.1754,-0.5629 0.1714,-1.0769z"/>
   <path id="_4246072012345678910111213141516171819" class="fil3" d="M114.758 117.927c-0.0041,-0.2774 0.0418,-0.4864 0.1377,-0.6272 0.0958,-0.1407 0.2376,-0.2457 0.4253,-0.3151l0.7281 -0.2998c0.049,-0.0204 0.0989,-0.0398 0.1499,-0.0582 0.051,-0.0183 0.0908,-0.0438 0.1194,-0.0764 0.0285,-0.0327 0.0428,-0.0755 0.0428,-0.1285l0 -0.3549c0,-0.1143 -0.0388,-0.2111 -0.1163,-0.2907 -0.0775,-0.0795 -0.206,-0.1193 -0.3855,-0.1193 -0.208,0 -0.3477,0.0438 -0.4191,0.1315 -0.0714,0.0878 -0.1071,0.2438 -0.1071,0.4681l-0.4406 0c-0.0122,-0.669 0.3101,-1.0035 0.9668,-1.0035 0.4161,-0.004 0.6813,0.0877 0.7955,0.2754 0.1142,0.1876 0.1713,0.4304 0.1713,0.7281l0 1.8296c0,0.1306 0.0112,0.2162 0.0337,0.257 0.0224,0.0408 0.0642,0.0653 0.1254,0.0735 0.0286,-0.0082 0.0755,-0.0123 0.1408,-0.0123l0 0.3488c-0.1469,0.0163 -0.2428,0.0245 -0.2876,0.0245 -0.155,0 -0.2642,-0.0388 -0.3274,-0.1163 -0.0632,-0.0775 -0.101,-0.206 -0.1132,-0.3855 -0.1713,0.3753 -0.4426,0.563 -0.8138,0.563 -0.3223,-0.0204 -0.5385,-0.1122 -0.6486,-0.2754 -0.1102,-0.1632 -0.1693,-0.3753 -0.1775,-0.6364zm1.5665 -1.0157c-0.1469,0.0816 -0.3264,0.1693 -0.5385,0.2631 -0.2121,0.0938 -0.3518,0.1866 -0.4192,0.2784 -0.0673,0.0918 -0.103,0.2376 -0.107,0.4375 -0.0123,0.3508 0.1366,0.5344 0.4467,0.5507 0.159,-0.0081 0.3018,-0.0703 0.4283,-0.1866 0.1264,-0.1163 0.1897,-0.2682 0.1897,-0.4559l0 -0.8872z"/>
   <path id="_424607201234567891011121314151617181920" class="fil3" d="M117.591 117.113c0.0081,-0.5303 0.0755,-0.9739 0.2019,-1.3309 0.1265,-0.3569 0.4141,-0.5333 0.8628,-0.5293 0.2896,0 0.5405,0.155 0.7526,0.4651l0 -1.5665 0.4773 0 0 4.6015 -0.4528 0 0 -0.4528c-0.0979,0.1754 -0.208,0.311 -0.3304,0.4069 -0.1224,0.0959 -0.2835,0.1438 -0.4834,0.1438 -0.4202,0 -0.7006,-0.1785 -0.8414,-0.5354 -0.1407,-0.357 -0.2029,-0.7577 -0.1866,-1.2024zm1.8296 -0.0673c-0.0082,-0.4406 -0.0602,-0.7822 -0.1561,-1.0249 -0.0958,-0.2428 -0.2763,-0.3641 -0.5415,-0.3641 -0.4283,0 -0.6425,0.4936 -0.6425,1.4808 0,0.3712 0.0388,0.6792 0.1163,0.924 0.0775,0.2447 0.2447,0.3671 0.5017,0.3671 0.2489,0 0.4324,-0.102 0.5507,-0.306 0.1183,-0.2039 0.1754,-0.5629 0.1714,-1.0769z"/>
   <path id="_42460720123456789101112131415161718192021" class="fil3" d="M120.596 117.095c0,-0.4365 0.0734,-0.8526 0.2203,-1.2483 0.1469,-0.3957 0.4406,-0.5936 0.8811,-0.5936 0.4324,0 0.716,0.1377 0.8506,0.4131 0.1346,0.2753 0.2019,0.6394 0.2019,1.0922l0 0.3366 -1.6521 0c0,0.0611 -0.0041,0.1162 -0.0123,0.1652 0.0082,0.3467 0.05,0.6282 0.1255,0.8444 0.0754,0.2162 0.2335,0.3243 0.4742,0.3243 0.2529,0 0.4151,-0.0775 0.4865,-0.2325 0.0713,-0.155 0.107,-0.3488 0.107,-0.5813l0.459 0c0.004,0.4772 -0.1081,0.8026 -0.3366,0.9759 -0.2284,0.1734 -0.4671,0.2601 -0.7159,0.2601 -0.7261,0 -1.0892,-0.5854 -1.0892,-1.7561zm1.6521 -0.3978c0,-0.3182 -0.0346,-0.5711 -0.104,-0.7587 -0.0693,-0.1877 -0.2141,-0.2815 -0.4344,-0.2815 -0.2366,0 -0.3998,0.103 -0.4895,0.309 -0.0898,0.206 -0.1306,0.4497 -0.1224,0.7312l1.1503 0z"/>
   <path id="_4246072012345678910111213141516171819202122" class="fil3" d="M61.8412 124.529c0,-0.4365 0.0734,-0.8526 0.2203,-1.2483 0.1469,-0.3957 0.4406,-0.5936 0.8811,-0.5936 0.4324,0 0.716,0.1377 0.8506,0.4131 0.1346,0.2753 0.2019,0.6394 0.2019,1.0922l0 0.3366 -1.6521 0c0,0.0611 -0.0041,0.1162 -0.0123,0.1652 0.0082,0.3467 0.05,0.6282 0.1255,0.8444 0.0754,0.2162 0.2335,0.3243 0.4742,0.3243 0.2529,0 0.4151,-0.0775 0.4865,-0.2325 0.0713,-0.155 0.107,-0.3488 0.107,-0.5813l0.459 0c0.004,0.4772 -0.1081,0.8026 -0.3366,0.9759 -0.2284,0.1734 -0.4671,0.2601 -0.7159,0.2601 -0.7261,0 -1.0892,-0.5854 -1.0892,-1.7561zm1.6521 -0.3978c0,-0.3182 -0.0346,-0.5711 -0.104,-0.7587 -0.0693,-0.1877 -0.2141,-0.2815 -0.4344,-0.2815 -0.2366,0 -0.3998,0.103 -0.4895,0.309 -0.0898,0.206 -0.1306,0.4497 -0.1224,0.7312l1.1503 0z"/>
   <path id="_424607201234567891011121314151617181920212223" class="fil3" d="M66.1429 124.021c0.0082,-0.412 0.0235,-0.7312 0.0459,-0.9576 0.0224,-0.2265 0.0806,-0.4671 0.1744,-0.7221 0.0938,-0.2549 0.2386,-0.4589 0.4344,-0.6119 0.1958,-0.153 0.459,-0.2295 0.7894,-0.2295 0.3712,0 0.6823,0.1143 0.9331,0.3427 0.2509,0.2285 0.3784,0.6058 0.3825,1.132l-0.514 0c-0.0245,-0.2855 -0.0867,-0.5293 -0.1866,-0.7312 -0.1,-0.2019 -0.3213,-0.2968 -0.664,-0.2845 -0.3875,0.0122 -0.6292,0.2213 -0.7251,0.6272 -0.0958,0.4059 -0.1438,0.8821 -0.1438,1.4288 -0.0081,0.5425 0.051,0.9821 0.1775,1.3186 0.1265,0.3365 0.3733,0.5048 0.7404,0.5048 0.2284,0 0.3987,-0.0704 0.5109,-0.2111 0.1122,-0.1407 0.1867,-0.307 0.2234,-0.4987 0.0367,-0.1917 0.0591,-0.3916 0.0673,-0.5996l0.5017 0c0.0123,0.416 -0.0387,0.7556 -0.1529,1.0188 -0.1143,0.2631 -0.2693,0.4538 -0.4651,0.5721 -0.1958,0.1183 -0.4161,0.1774 -0.6608,0.1774 -0.4039,-0.004 -0.7139,-0.1121 -0.9301,-0.3243 -0.2162,-0.2121 -0.36,-0.4813 -0.4314,-0.8077 -0.0714,-0.3263 -0.1071,-0.7077 -0.1071,-1.1442z"/>
   <path id="_42460720123456789101112131415161718192021222324" class="fil3" d="M69.7287 126.187l0 -3.4205 0.4528 0 0 0.5874c0.1183,-0.2284 0.2447,-0.3896 0.3793,-0.4834 0.1347,-0.0938 0.3468,-0.1387 0.6364,-0.1346l0 0.5017c-0.106,-0.0163 -0.1897,-0.0244 -0.2509,-0.0244 -0.2284,0 -0.4089,0.0846 -0.5415,0.2539 -0.1326,0.1693 -0.1989,0.411 -0.1989,0.7251l0 1.9948 -0.4772 0z"/>
   <path id="_4246072012345678910111213141516171819202122232425" class="fil3" d="M71.5215 124.529c0,-0.4365 0.0734,-0.8526 0.2203,-1.2483 0.1469,-0.3957 0.4406,-0.5936 0.8811,-0.5936 0.4324,0 0.716,0.1377 0.8506,0.4131 0.1346,0.2753 0.2019,0.6394 0.2019,1.0922l0 0.3366 -1.6521 0c0,0.0611 -0.0041,0.1162 -0.0123,0.1652 0.0082,0.3467 0.05,0.6282 0.1255,0.8444 0.0754,0.2162 0.2335,0.3243 0.4742,0.3243 0.2529,0 0.4151,-0.0775 0.4865,-0.2325 0.0713,-0.155 0.107,-0.3488 0.107,-0.5813l0.459 0c0.004,0.4772 -0.1081,0.8026 -0.3366,0.9759 -0.2284,0.1734 -0.4671,0.2601 -0.7159,0.2601 -0.7261,0 -1.0892,-0.5854 -1.0892,-1.7561zm1.6521 -0.3978c0,-0.3182 -0.0346,-0.5711 -0.104,-0.7587 -0.0693,-0.1877 -0.2141,-0.2815 -0.4344,-0.2815 -0.2366,0 -0.3998,0.103 -0.4895,0.309 -0.0898,0.206 -0.1306,0.4497 -0.1224,0.7312l1.1503 0z"/>
   <path id="_424607201234567891011121314151617181920212223242526" class="fil3" d="M74.2445 123.605c0,-0.1836 0.0387,-0.3437 0.1162,-0.4804 0.0775,-0.1366 0.1917,-0.2437 0.3427,-0.3212 0.1509,-0.0775 0.3365,-0.1163 0.5568,-0.1163 0.6935,0 1.0402,0.3345 1.0402,1.0035l-0.4772 0c0.0081,-0.2162 -0.0296,-0.3681 -0.1132,-0.4558 -0.0837,-0.0877 -0.2213,-0.1316 -0.4131,-0.1316 -0.3508,0 -0.5344,0.1469 -0.5507,0.4406 -0.0041,0.1428 0.0163,0.2529 0.0612,0.3304 0.0449,0.0775 0.1142,0.1408 0.208,0.1897 0.0939,0.049 0.2713,0.1265 0.5324,0.2325 0.31,0.1183 0.5324,0.2458 0.667,0.3825 0.1346,0.1366 0.2019,0.309 0.2019,0.517 0,0.3508 -0.1061,0.6201 -0.3182,0.8077 -0.2121,0.1877 -0.4875,0.2774 -0.8261,0.2693 -0.4079,-0.0041 -0.6832,-0.1112 -0.826,-0.3213 -0.1428,-0.2101 -0.2142,-0.462 -0.2142,-0.7557l0.4651 0c0,0.2121 0.0408,0.3763 0.1223,0.4926 0.0816,0.1163 0.2326,0.1744 0.4528,0.1744 0.2081,0 0.3651,-0.0459 0.4712,-0.1377 0.1061,-0.0918 0.1632,-0.2172 0.1713,-0.3763 0.0041,-0.204 -0.0438,-0.3447 -0.1438,-0.4222 -0.0999,-0.0775 -0.2947,-0.1673 -0.5843,-0.2693 -0.2081,-0.0693 -0.3733,-0.1356 -0.4957,-0.1988 -0.1223,-0.0632 -0.2274,-0.1612 -0.3151,-0.2937 -0.0877,-0.1326 -0.1315,-0.3192 -0.1315,-0.5599z"/>
   <path id="_42460720123456789101112131415161718192021222324252627" class="fil3" d="M76.9552 124.535c0,-0.5589 0.0795,-1.0066 0.2386,-1.3432 0.1591,-0.3365 0.4732,-0.5048 0.9423,-0.5048 0.2978,0 0.5375,0.0979 0.719,0.2937 0.1815,0.1959 0.2805,0.4834 0.2968,0.8628l-0.4528 0c0,-0.2039 -0.0429,-0.3783 -0.1285,-0.5232 -0.0857,-0.1448 -0.2346,-0.2172 -0.4467,-0.2172 -0.3019,0 -0.4885,0.1428 -0.5599,0.4284 -0.0714,0.2855 -0.1071,0.62 -0.1071,1.0035 0,0.3834 0.0398,0.7006 0.1193,0.9515 0.0796,0.2509 0.2621,0.3763 0.5477,0.3763 0.3834,0 0.5752,-0.2896 0.5752,-0.8689l0.4528 0c0,0.3059 -0.0714,0.5986 -0.2142,0.8781 -0.1428,0.2794 -0.414,0.4171 -0.8138,0.413 -0.2937,-0.0041 -0.5283,-0.0795 -0.7037,-0.2264 -0.1754,-0.1469 -0.2968,-0.3447 -0.3641,-0.5935 -0.0673,-0.2489 -0.1009,-0.5589 -0.1009,-0.9301z"/>
   <path id="_4246072012345678910111213141516171819202122232425262728" class="fil3" d="M79.8433 126.187l0 -3.4083 0.4651 0 0 3.4083 -0.4651 0zm0 -3.9774l0 -0.6119 0.4651 0 0 0.6119 -0.4651 0z"/>
   <path id="_424607201234567891011121314151617181920212223242526272829" class="fil3" d="M81.22 126.187l0 -3.4083 0.4651 0 0 0.4467c0.0938,-0.1672 0.2182,-0.3008 0.3732,-0.4008 0.1551,-0.0999 0.3101,-0.1458 0.4651,-0.1377 0.359,0.0245 0.6221,0.2081 0.7893,0.5507 0.2407,-0.3671 0.5385,-0.5507 0.8934,-0.5507 0.3386,0.0123 0.565,0.1122 0.6792,0.2999 0.1142,0.1876 0.1714,0.3936 0.1714,0.618l0 2.5822 -0.4773 0 0 -2.521c0,-0.3998 -0.1673,-0.5875 -0.5018,-0.563 -0.4609,0.0163 -0.6914,0.2713 -0.6914,0.7649l0 2.3191 -0.4895 0 0 -2.3925c0,-0.2285 -0.0357,-0.4008 -0.1071,-0.5171 -0.0714,-0.1162 -0.1969,-0.1744 -0.3764,-0.1744 -0.1835,0 -0.3487,0.0571 -0.4956,0.1714 -0.1468,0.1142 -0.2203,0.312 -0.2203,0.5935l0 2.3191 -0.4773 0z"/>
   <path id="_42460720123456789101112131415161718192021222324252627282930" class="fil3" d="M85.7726 124.529c0,-0.4365 0.0734,-0.8526 0.2203,-1.2483 0.1469,-0.3957 0.4406,-0.5936 0.8811,-0.5936 0.4324,0 0.716,0.1377 0.8506,0.4131 0.1346,0.2753 0.2019,0.6394 0.2019,1.0922l0 0.3366 -1.6521 0c0,0.0611 -0.0041,0.1162 -0.0123,0.1652 0.0082,0.3467 0.05,0.6282 0.1255,0.8444 0.0754,0.2162 0.2335,0.3243 0.4742,0.3243 0.2529,0 0.4151,-0.0775 0.4865,-0.2325 0.0713,-0.155 0.107,-0.3488 0.107,-0.5813l0.459 0c0.004,0.4772 -0.1081,0.8026 -0.3366,0.9759 -0.2284,0.1734 -0.4671,0.2601 -0.7159,0.2601 -0.7261,0 -1.0892,-0.5854 -1.0892,-1.7561zm1.6521 -0.3978c0,-0.3182 -0.0346,-0.5711 -0.104,-0.7587 -0.0693,-0.1877 -0.2141,-0.2815 -0.4344,-0.2815 -0.2366,0 -0.3998,0.103 -0.4895,0.309 -0.0898,0.206 -0.1306,0.4497 -0.1224,0.7312l1.1503 0z"/>
   <path id="_4246072012345678910111213141516171819202122232425262728293031" class="fil3" d="M88.6608 126.187l0 -3.4083 0.4895 0 0 0.3855c0.0122,-0.0571 0.105,-0.1509 0.2784,-0.2815 0.1734,-0.1305 0.3478,-0.1958 0.5232,-0.1958 0.3018,0 0.5272,0.0755 0.6761,0.2264 0.1489,0.151 0.2234,0.3896 0.2234,0.716l0 2.5577 -0.4895 0 0 -2.3191c0,-0.2611 -0.0296,-0.4548 -0.0888,-0.5813 -0.0591,-0.1265 -0.1927,-0.1917 -0.4008,-0.1958 -0.1999,-0.0082 -0.3702,0.0571 -0.5109,0.1958 -0.1407,0.1387 -0.2111,0.3243 -0.2111,0.5568l0 2.3436 -0.4895 0z"/>
   <path id="_424607201234567891011121314151617181920212223242526272829303132" class="fil3" d="M91.8059 125.508l0 -2.3191 -0.465 0 0 -0.41 0.465 0 0 -0.9178 0.4773 0 0 0.9178 0.5752 0 0 0.41 -0.5752 0 0 2.3742c0,0.0775 0.0163,0.1336 0.049,0.1682 0.0326,0.0347 0.0958,0.052 0.1897,0.052l0.312 0 0 0.4039 -0.5262 0c-0.155,0 -0.2672,-0.0235 -0.3366,-0.0704 -0.0693,-0.0469 -0.1142,-0.1132 -0.1346,-0.1988 -0.0204,-0.0857 -0.0306,-0.2224 -0.0306,-0.41z"/>
   <path id="_42460720123456789101112131415161718192021222324252627282930313233" class="fil3" d="M93.2868 124.431c0,-1.1544 0.3977,-1.7316 1.1932,-1.7316 0.4487,0 0.7679,0.1438 0.9576,0.4314 0.1897,0.2876 0.2845,0.7251 0.2845,1.3125 0,1.2156 -0.3936,1.8296 -1.1809,1.8418 -0.4447,0 -0.7649,-0.1683 -0.9607,-0.5048 -0.1958,-0.3366 -0.2937,-0.7863 -0.2937,-1.3493zm0.5017 0.0123c0,0.4202 0.0439,0.7618 0.1316,1.0249 0.0877,0.2631 0.2906,0.3947 0.6088,0.3947 0.2978,0 0.4875,-0.1316 0.5691,-0.3947 0.0816,-0.2631 0.1224,-0.5884 0.1224,-0.976 0,-0.4038 -0.0449,-0.7383 -0.1346,-1.0035 -0.0898,-0.2651 -0.2836,-0.3977 -0.5813,-0.3977 -0.4773,0 -0.716,0.4508 -0.716,1.3523z"/>
   <rect id="_42454832" class="fil5" x="61.5784" y="110.821" width="61.1738" height="0.438284"/>
  </g>
  <g id="_42436816">
   <path id="_42454384" class="fil2" d="M61.2197 266.685c-0.3869,-0.4079 -1.0284,-1.2916 -1.2799,-1.3603 -0.0185,-0.0678 -0.0185,-0.1357 -0.0185,-0.1693 -0.3294,0 -0.3294,0 -0.5417,-0.1369 -0.0196,-0.1363 -0.0391,-0.2377 -0.0581,-0.3395 -0.0781,-0.034 -0.1358,-0.0682 -0.1936,-0.1028 -0.0398,-0.1359 -0.0583,-0.2375 -0.0781,-0.339 -0.0781,0.0338 -0.1552,0.067 -0.2326,0.1358 -0.8905,-1.2583 -1.625,-1.7684 -2.5353,-2.0409 -0.2336,0.204 -0.5229,0.1703 -0.6201,0.0682 -0.1162,0.4417 -1.0658,0.5788 -1.2592,0.5788 0,-26.0834 0.0194,-68.1323 0.0382,-94.2155l74.7616 0.0001 0 82.1079c-0.6176,-0.034 -1.2745,-0.0338 -1.7574,0.0681 -0.0195,-0.1021 -0.0195,-0.204 -0.0195,-0.3057 -0.33,-0.0684 -0.8128,-0.2723 -0.9316,-0.4759 -0.0183,0.1357 -0.0365,0.3058 -0.0564,0.4759 -0.1735,0 -0.3278,0.0342 -0.4839,0.0677 -0.0394,-0.1019 -0.0579,-0.2043 -0.077,-0.3061 -0.0187,0.0683 -0.0187,0.1363 -0.0187,0.2042 -0.1173,-0.0342 -0.2143,-0.0679 -0.3101,-0.0679 -0.1172,0.4078 -1.1617,0.4762 -1.2799,0.4762 0,0.136 0.0224,0.2714 0.0393,0.4081 -0.7941,0.3402 -0.6966,0.5099 -0.9872,-0.2042 -0.3478,0 -0.1167,0.0675 -0.1348,0.4762 -0.407,-0.6121 -0.4273,-0.0679 -0.6584,0.1019 0,-0.1698 0,-0.3059 0,-0.4422 -0.058,0 -0.1168,0 -0.1551,0 -0.0197,0.1363 -0.0395,0.2724 -0.0588,0.4085 -0.1352,0.0337 -0.2317,0.2719 -0.3099,0.2719 -0.0376,-0.1022 -0.0768,-0.1704 -0.0966,-0.2382 -0.3285,0 -0.3875,0.2036 -0.4266,0.6461 -0.6183,0.2718 -1.2763,0.1706 -1.7232,-0.2044 -0.658,-0.0676 -2.4012,-0.0676 -2.691,0.6807 -1.8401,0.3738 -3.6799,0.9862 -5.3063,0.9182 -1.6069,0.4417 -1.6069,0.4417 -2.2271,0.7825 -0.0579,0.1353 -0.3481,0.3732 -0.4251,0.3052 -0.0204,0.1027 -0.0388,0.2043 -0.0585,0.3404 -0.4451,-0.1361 -0.6576,0.1699 -0.8894,0.4759 -0.4275,0.0343 -0.8724,-0.2038 -1.1048,-0.2377 -0.0392,0.0678 -0.0779,0.1359 -0.097,0.2377 -0.117,-0.0677 -0.2327,-0.1018 -0.3496,-0.1357 -0.0187,0.1016 -0.0377,0.238 -0.0571,0.3745 -0.2516,0.0679 -0.4257,0.2376 -0.5797,0.2034 -0.0206,0.0687 -0.0401,0.136 -0.0604,0.2384 -0.0958,0 -0.1921,0 -0.2896,0 0.0381,-0.068 0.0768,-0.1024 0.1172,-0.1364 -0.0791,0 -0.1551,0 -0.2333,0 -0.0188,0.0684 -0.0384,0.1702 -0.0583,0.2715 -0.0584,0 -0.1156,0 -0.1739,0 -0.0389,-0.1013 -0.0774,-0.169 -0.1159,-0.2375 -0.6195,0 -0.5427,1.1557 -1.2,1.3606 -0.7767,-0.1698 -0.7767,-0.3746 -1.2589,0.2381 -0.0587,-0.1021 -0.0968,-0.1705 -0.1378,-0.2381 -0.0761,0.2381 -0.1921,0.2381 -0.2893,0.4757 -0.1147,-0.0679 -0.2316,-0.1017 -0.3486,-0.1356 -0.1356,0.2378 -0.1356,0.2378 -0.1727,0.6462 -0.8143,0.3739 -1.8991,1.87 -2.6933,1.5636 0,-0.0676 0.0201,-0.1018 0.0383,-0.1354 -0.1348,-0.0342 -0.2512,-0.0682 -0.368,-0.0682 -0.0766,0.2724 -0.2902,0.8843 -0.5613,0.6117 0.0198,0.1702 0.0396,0.3407 0.0778,0.5105 -1.4331,0.8161 -1.4331,0.8161 -2.0136,1.2922 -0.8337,0 -1.1808,-0.3403 -1.6275,-0.7822 -0.5032,0.5104 -1.7619,-0.7823 -2.0134,-0.6798 0.0401,-0.0681 0.0791,-0.1025 0.1351,-0.1362 -0.095,-0.1022 -0.1727,-0.1696 -0.2514,-0.238 -0.0572,0.0335 -0.1157,0.0684 -0.1542,0.1358 -0.2914,-0.748 -1.046,-0.3058 -1.3364,-0.2381 -0.0188,0.0681 -0.0389,0.1358 -0.0579,0.2381 -0.988,0 -0.9289,0.8166 -1.607,1.1904 0,-0.7478 -0.1756,-0.816 -0.3287,-0.952 -0.1164,0.1017 -0.2333,0.2042 -0.3495,0.3401 -0.2707,-0.1359 -0.2707,-0.1359 -0.6765,-0.6127 -0.0216,-0.1358 -0.041,-0.2376 -0.041,-0.3395 -0.1153,-0.0338 -0.231,-0.0679 -0.3282,-0.1021 -0.0183,-0.17 -0.0366,-0.3062 -0.058,-0.4424 -0.1736,-0.1019 -0.3872,0 -0.6974,-0.1019 0.0773,-0.0679 0.1551,-0.1359 0.2507,-0.17 -0.4063,-0.4424 -0.4634,-0.2039 -0.7341,-0.0337 0.0774,0.2718 0.1938,0.1697 0.31,0.0337 0,0.7826 -1.3755,0.6121 -1.55,0.6121 -0.0382,0.0676 -0.0763,0.1364 -0.1147,0.2381 -1.2408,-0.1017 -2.0151,0.0681 -3.1196,0.2376 -0.6765,-0.0677 -1.3549,-0.1017 -2.0127,-0.1358 -0.4843,0.306 -0.9693,0.6125 -1.4322,0.9178 -0.0408,-0.0674 -0.0783,-0.1012 -0.117,-0.1355 -0.0199,0.102 -0.0389,0.204 -0.0584,0.3057 -0.6775,0.1025 -1.3938,-0.0333 -1.898,-0.2714 0.0586,0.0338 0.1359,0.1012 0.2146,0.1697 0,0.0684 0,0.1367 0,0.2384 -0.3888,0 -0.6594,0.0681 -0.9101,0.2717 -0.0792,-0.1358 -0.0792,-0.1358 -0.1752,-0.1358 0,0.1018 0,0.2036 0,0.3061 -0.445,0 -0.7363,1.1563 -1.1428,0.8167 -0.7942,0.3396 -1.2976,-0.749 -1.7438,-1.1228 -0.0377,0.1704 -0.0577,0.3738 -0.0763,0.5779 -0.3299,-0.3403 -0.601,-0.0339 -0.7157,0.0682 -0.0207,-0.1021 -0.0401,-0.2039 -0.0598,-0.306 -0.0958,0.1696 -0.6952,0 -0.7153,0 -0.581,0.5099 -0.9299,0.2722 -1.3363,0.0676 -0.0391,0.102 -0.0776,0.2046 -0.0976,0.3066 -0.0781,-0.0682 -0.1537,-0.102 -0.2322,-0.1364 -0.0186,-0.1357 -0.0186,-0.2378 -0.0186,-0.3403 -0.1938,-0.034 -0.3681,-0.0672 -0.5438,-0.1018 -0.2514,0.6462 -0.5987,0.4421 -0.8696,0.4765 0.0587,0.2039 0.0587,0.2039 0.251,0.2721 0,0.1013 0,0.2034 0,0.3396 -1.8201,0.3059 -3.5234,2.2444 -5.2859,2.4151 -0.2717,0.2377 -1.0469,0.9859 -1.2011,0.4416 -0.0393,0.1358 -0.0588,0.2722 -0.0769,0.4078 -0.0205,-0.1015 -0.0387,-0.203 -0.0587,-0.272 -0.1172,0.2043 -0.2317,0.4085 -0.3476,0.6122z"/>
   <g>
    <path id="_42453592" class="fil3" d="M67.5848 226.592c-0.8399,0.3819 -1.4012,0.6491 -1.6838,0.8018 -0.2825,0.1528 -0.5307,0.3895 -0.7445,0.7102 -0.2138,0.3207 -0.2978,0.756 -0.252,1.3058 0.0305,0.3207 0.1718,0.5919 0.4238,0.8133 0.252,0.2214 0.5689,0.3321 0.9507,0.3321 0.779,0 1.2142,-0.5956 1.3058,-1.7868l0 -2.1764zm0.1375 5.0858c-0.7942,1.0538 -1.8556,1.5807 -3.1843,1.5807 -0.9316,0 -1.722,-0.3245 -2.3712,-0.9736 -0.649,-0.6491 -0.9659,-1.5693 -0.9506,-2.7605 0.0152,-1.0539 0.2519,-1.8786 0.7101,-2.4743 0.4583,-0.5956 0.9928,-1.0232 1.6037,-1.2829 0.6109,-0.2596 1.573,-0.5879 2.8865,-0.985 0.7789,-0.1986 1.1683,-0.6567 1.1683,-1.3746 0,-0.3665 -0.1107,-0.6834 -0.3321,-0.9507 -0.2215,-0.2673 -0.4849,-0.4009 -0.7904,-0.4009 -0.336,-0.0152 -0.6147,0.0382 -0.8362,0.1604 -0.2214,0.1222 -0.378,0.3322 -0.4696,0.6299 -0.0916,0.2979 -0.1375,0.6912 -0.1375,1.1799l-3.6654 0c-0.1222,-2.9019 1.5043,-4.3756 4.8797,-4.4215 1.9396,-0.0153 3.253,0.2902 3.9403,0.9164 0.6872,0.6262 1.0309,1.5731 1.0309,2.8407l0 8.316c0,0.2138 0.1069,0.588 0.3207,1.1225l-3.5967 0 -0.2062 -1.1225zm4.5719 -2.1076l0 -6.0251c0,-1.1455 0.3971,-2.0885 1.1913,-2.8292 0.7942,-0.7408 2.0084,-1.1112 3.6425,-1.1112 1.0691,0 1.9549,0.1833 2.6575,0.5499 0.7025,0.3665 1.2256,0.84 1.5693,1.4203 0.3436,0.5804 0.5154,1.2066 0.5154,1.8786l-0.0458 6.0022c0,1.1454 -0.4124,2.0656 -1.2371,2.7605 -0.8247,0.6949 -1.9931,1.0423 -3.5051,1.0423 -1.0996,0 -2.0046,-0.168 -2.7148,-0.504 -0.7101,-0.3359 -1.2332,-0.7865 -1.5692,-1.3516 -0.336,-0.5651 -0.504,-1.176 -0.504,-1.8327zm3.6655 -6.0251l0 5.9106c0,0.7636 0.3741,1.1454 1.1225,1.1454 0.7484,0 1.1226,-0.3818 1.1226,-1.1454l0 -5.9106c0,-0.4277 -0.1032,-0.7522 -0.3094,-0.9736 -0.2061,-0.2215 -0.4619,-0.3322 -0.7674,-0.3322 -0.7789,0 -1.1683,0.4353 -1.1683,1.3058zm13.0482 9.2552l0 -17.1817 4.9254 0c1.6801,0 3.1004,0.3092 4.2611,0.9278 1.1608,0.6186 1.7183,2.0656 1.6724,4.3412 -0.0458,1.619 -0.3856,2.8179 -1.0195,3.5968 -0.6337,0.7789 -1.4127,1.2562 -2.3367,1.4318 -0.924,0.1756 -2.0809,0.2481 -3.4707,0.2176l0 6.6665 -4.032 0zm4.032 -9.7592l0.1604 0c0.8247,0.0153 1.4203,-0.0725 1.7869,-0.2635 0.3665,-0.1909 0.5879,-0.4314 0.6643,-0.7216 0.0764,-0.2902 0.1299,-0.7637 0.1604,-1.4204 0,-0.8094 -0.1566,-1.3249 -0.4697,-1.5464 -0.313,-0.2214 -0.7445,-0.3321 -1.2943,-0.3321 -0.1375,-0.0306 -0.3284,-0.0458 -0.5727,-0.0458l-0.4353 0 0 4.3298zm7.8479 9.7592l0 -17.2275 9.2094 0 0 3.4363 -5.1774 0 0 3.1844 5.04 0 0 3.4363 -5.04 0 0 3.7342 5.4982 0 0 3.4363 -9.5302 0zm17.4697 -6.7123l4.032 0 0 2.5429c0,1.5579 -0.5728,2.7109 -1.7182,3.4592 -1.1454,0.7484 -2.4283,1.1227 -3.8487,1.1227 -1.8938,0 -3.2684,-0.4278 -4.1236,-1.283 -0.8553,-0.8553 -1.2829,-2.1916 -1.2829,-4.0091l0 -7.4225c0,-3.5585 1.8022,-5.3225 5.4065,-5.292 1.7716,0 3.1347,0.4086 4.0893,1.2256 0.9545,0.8171 1.4318,2.0657 1.4318,3.7457l0 0.3207 0 1.1226 -4.0778 0 0 -1.1226c0,-1.4662 -0.4353,-2.1993 -1.3058,-2.1993l-0.0459 0c-0.4734,0.0306 -0.8362,0.1527 -1.0881,0.3666 -0.252,0.2138 -0.378,0.6415 -0.378,1.2829l0 8.6825c0,0.9927 0.4582,1.4891 1.3745,1.4891 0.9011,0.0459 1.3974,-0.5193 1.489,-1.6953l0.0459 -0.733 0 -1.6037z"/>
    <g>
     <path id="_42446752" class="fil3" d="M61.2157 212.928l0 -32.5822 7.9067 0 5.8214 18.246 0.1737 0 -0.7384 -18.246 7.2984 0 0 32.5822 -7.9067 0 -5.9517 -18.2461 -0.0868 0.0869 0.6949 18.1592 -7.2115 0zm34.0841 -11.7731c-1.5929,0.7241 -2.6572,1.231 -3.193,1.5205 -0.5359,0.2897 -1.0065,0.7385 -1.4119,1.3468 -0.4055,0.6081 -0.5648,1.4336 -0.4779,2.4761 0.058,0.6083 0.3259,1.1225 0.8036,1.5424 0.4779,0.4199 1.0789,0.6298 1.8029,0.6298 1.4771,0 2.3026,-1.1295 2.4763,-3.3885l0 -4.1271zm0.2607 9.6444c-1.5061,1.9983 -3.5188,2.9975 -6.0385,2.9975 -1.7667,0 -3.2655,-0.6154 -4.4964,-1.8463 -1.231,-1.2309 -1.8319,-2.9759 -1.8029,-5.2348 0.0289,-1.9985 0.4779,-3.5624 1.3466,-4.692 0.869,-1.1295 1.8827,-1.9404 3.0411,-2.4328 1.1585,-0.4923 2.9831,-1.115 5.4737,-1.868 1.4772,-0.3766 2.2157,-1.2453 2.2157,-2.6066 0,-0.6951 -0.2099,-1.2961 -0.6298,-1.8029 -0.42,-0.5068 -0.9196,-0.7603 -1.4989,-0.7603 -0.6371,-0.0288 -1.1657,0.0725 -1.5857,0.3042 -0.42,0.2317 -0.7168,0.6299 -0.8905,1.1946 -0.1737,0.5648 -0.2606,1.3106 -0.2606,2.2373l-6.951 0c-0.2317,-5.5028 2.8527,-8.2975 9.2534,-8.3844 3.6782,-0.0291 6.1689,0.5503 7.4722,1.7376 1.3034,1.1875 1.955,2.9832 1.955,5.387l0 15.7699c0,0.4054 0.2027,1.115 0.6081,2.1287l-6.8206 0 -0.3909 -2.1287zm8.6698 -3.9968l0 -11.4256c0,-2.1721 0.753,-3.9604 2.259,-5.3651 1.506,-1.4047 3.8086,-2.107 6.9074,-2.107 2.0275,0 3.7072,0.3475 5.0395,1.0427 1.3323,0.6949 2.3242,1.5928 2.9759,2.6934 0.6517,1.1006 0.9774,2.288 0.9774,3.5623l-0.0869 11.3821c0,2.1721 -0.782,3.9171 -2.3459,5.2348 -1.5639,1.3179 -3.7796,1.9767 -6.6468,1.9767 -2.0853,0 -3.8012,-0.3186 -5.148,-0.9557 -1.3467,-0.6371 -2.3386,-1.4915 -2.9759,-2.5632 -0.6371,-1.0715 -0.9557,-2.2301 -0.9557,-3.4754zm6.9509 -11.4256l0 11.2084c0,1.4481 0.7097,2.1721 2.1287,2.1721 1.4192,0 2.1287,-0.724 2.1287,-2.1721l0 -11.2084c0,-0.8109 -0.1955,-1.4263 -0.5865,-1.8462 -0.3909,-0.42 -0.8761,-0.63 -1.4554,-0.63 -1.477,0 -2.2155,0.8255 -2.2155,2.4762z"/>
     <path id="_42444488" class="fil3" d="M84.6997 186.21c0.6951,-4.1706 2.4763,-6.2123 5.3435,-6.1254 0.9268,0.0289 1.7088,0.152 2.346,0.3692 0.6371,0.2172 1.3466,0.4996 2.1287,0.8472 0.7819,0.3475 1.3756,0.5357 1.7811,0.5647 0.782,-0.0869 1.4047,-0.6517 1.868,-1.6943l3.4755 0c-0.4923,3.7941 -2.3024,5.72 -5.4303,5.7779 -0.8109,0.029 -1.9261,-0.2172 -3.3452,-0.7385 -1.4191,-0.5213 -2.3893,-0.782 -2.9107,-0.782 -0.8688,0 -1.4915,0.5938 -1.868,1.7812l-3.3886 0z"/>
    </g>
   </g>
   <path id="_42436768" class="fil3" d="M62.2556 240.399l0 1.7316c0.1346,0 0.2387,0.0041 0.3121,0.0123 0.2815,-0.0163 0.4956,-0.0306 0.6425,-0.0429 0.2284,-0.0408 0.3957,-0.1254 0.5018,-0.2539 0.106,-0.1285 0.159,-0.3314 0.159,-0.6088 0,-0.4977 -0.2366,-0.7731 -0.7098,-0.8261 -0.0938,-0.0082 -0.2488,-0.0122 -0.465,-0.0122l-0.4406 0zm0 4.1364l-0.514 0 0 -4.5893 1.2055 0c0.5099,0 0.8689,0.1 1.0769,0.2999 0.2489,0.2284 0.3733,0.5548 0.3733,0.979 0,0.6201 -0.2162,1.0301 -0.6486,1.2299 -0.2162,0.0816 -0.5426,0.1306 -0.9791,0.1469 -0.1183,-0.0082 -0.2896,-0.0122 -0.514,-0.0122l0 1.9458z"/>
   <path id="_424367681" class="fil3" d="M65.1255 244.536l0 -3.4205 0.4528 0 0 0.5874c0.1183,-0.2284 0.2447,-0.3896 0.3793,-0.4834 0.1347,-0.0938 0.3468,-0.1387 0.6364,-0.1346l0 0.5017c-0.106,-0.0163 -0.1897,-0.0244 -0.2509,-0.0244 -0.2284,0 -0.4089,0.0846 -0.5415,0.2539 -0.1326,0.1693 -0.1989,0.411 -0.1989,0.7251l0 1.9948 -0.4772 0z"/>
   <path id="_4243676812" class="fil3" d="M66.9673 242.779c0,-1.1544 0.3977,-1.7316 1.1932,-1.7316 0.4487,0 0.7679,0.1438 0.9576,0.4314 0.1897,0.2876 0.2845,0.7251 0.2845,1.3125 0,1.2156 -0.3936,1.8296 -1.1809,1.8418 -0.4447,0 -0.7649,-0.1683 -0.9607,-0.5048 -0.1958,-0.3366 -0.2937,-0.7863 -0.2937,-1.3493zm0.5017 0.0123c0,0.4202 0.0439,0.7618 0.1316,1.0249 0.0877,0.2631 0.2906,0.3947 0.6088,0.3947 0.2978,0 0.4875,-0.1316 0.5691,-0.3947 0.0816,-0.2631 0.1224,-0.5884 0.1224,-0.976 0,-0.4038 -0.0449,-0.7383 -0.1346,-1.0035 -0.0898,-0.2651 -0.2836,-0.3977 -0.5813,-0.3977 -0.4773,0 -0.716,0.4508 -0.716,1.3523z"/>
   <path id="_42436768123" class="fil3" d="M70.0145 242.896c-0.0081,-0.257 0.0133,-0.5283 0.0643,-0.8138 0.051,-0.2856 0.157,-0.5314 0.3182,-0.7374 0.1611,-0.206 0.3967,-0.309 0.7067,-0.309 0.1387,0 0.2611,0.0327 0.3672,0.0979 0.106,0.0653 0.1968,0.1387 0.2722,0.2203 0.0755,0.0816 0.1133,0.1142 0.1133,0.0979l0 -0.3243 0.4772 0 0 2.5822 0 0.2632c0,0.5221 -0.0714,0.9341 -0.2141,1.236 -0.1428,0.3019 -0.4671,0.461 -0.973,0.4773 -0.3018,0 -0.5405,-0.0745 -0.7159,-0.2234 -0.1754,-0.1489 -0.2753,-0.3498 -0.2998,-0.6027l0.4712 0c0,0.0979 0.0489,0.1917 0.1468,0.2815 0.0979,0.0897 0.2305,0.1346 0.3977,0.1346 0.4651,0 0.6976,-0.3263 0.6976,-0.979l0 -0.1775c-0.204,0.3427 -0.4548,0.514 -0.7526,0.514 -0.4202,0 -0.7047,-0.1764 -0.8536,-0.5293 -0.1489,-0.3529 -0.2234,-0.7557 -0.2234,-1.2085zm0.4773 0c0.0041,0.4651 0.0602,0.8006 0.1683,1.0066 0.1081,0.206 0.2743,0.309 0.4987,0.309 0.4854,0 0.7179,-0.4487 0.6976,-1.3462 -0.0082,-0.4487 -0.0541,-0.7965 -0.1377,-1.0433 -0.0837,-0.2468 -0.2784,-0.3702 -0.5844,-0.3702 -0.4283,0 -0.6425,0.4814 -0.6425,1.4441z"/>
   <path id="_424367681234" class="fil3" d="M73.276 244.536l0 -3.4205 0.4528 0 0 0.5874c0.1183,-0.2284 0.2447,-0.3896 0.3793,-0.4834 0.1347,-0.0938 0.3468,-0.1387 0.6364,-0.1346l0 0.5017c-0.106,-0.0163 -0.1897,-0.0244 -0.2509,-0.0244 -0.2284,0 -0.4089,0.0846 -0.5415,0.2539 -0.1326,0.1693 -0.1989,0.411 -0.1989,0.7251l0 1.9948 -0.4772 0z"/>
   <path id="_4243676812345" class="fil3" d="M75.0015 243.71c-0.0041,-0.2774 0.0418,-0.4864 0.1377,-0.6272 0.0958,-0.1407 0.2376,-0.2457 0.4253,-0.3151l0.7281 -0.2998c0.049,-0.0204 0.0989,-0.0398 0.1499,-0.0582 0.051,-0.0183 0.0908,-0.0438 0.1194,-0.0764 0.0285,-0.0327 0.0428,-0.0755 0.0428,-0.1285l0 -0.3549c0,-0.1143 -0.0388,-0.2111 -0.1163,-0.2907 -0.0775,-0.0795 -0.206,-0.1193 -0.3855,-0.1193 -0.208,0 -0.3477,0.0438 -0.4191,0.1315 -0.0714,0.0878 -0.1071,0.2438 -0.1071,0.4681l-0.4406 0c-0.0122,-0.669 0.3101,-1.0035 0.9668,-1.0035 0.4161,-0.004 0.6813,0.0877 0.7955,0.2754 0.1142,0.1876 0.1713,0.4304 0.1713,0.7281l0 1.8296c0,0.1306 0.0112,0.2162 0.0337,0.257 0.0224,0.0408 0.0642,0.0653 0.1254,0.0735 0.0286,-0.0082 0.0755,-0.0123 0.1408,-0.0123l0 0.3488c-0.1469,0.0163 -0.2428,0.0245 -0.2876,0.0245 -0.155,0 -0.2642,-0.0388 -0.3274,-0.1163 -0.0632,-0.0775 -0.101,-0.206 -0.1132,-0.3855 -0.1713,0.3753 -0.4426,0.563 -0.8138,0.563 -0.3223,-0.0204 -0.5385,-0.1122 -0.6486,-0.2754 -0.1102,-0.1632 -0.1693,-0.3753 -0.1775,-0.6364zm1.5665 -1.0157c-0.1469,0.0816 -0.3264,0.1693 -0.5385,0.2631 -0.2121,0.0938 -0.3518,0.1866 -0.4192,0.2784 -0.0673,0.0918 -0.103,0.2376 -0.107,0.4375 -0.0123,0.3508 0.1366,0.5344 0.4467,0.5507 0.159,-0.0081 0.3018,-0.0703 0.4283,-0.1866 0.1264,-0.1163 0.1897,-0.2682 0.1897,-0.4559l0 -0.8872z"/>
   <path id="_42436768123456" class="fil3" d="M77.9814 244.536l0 -3.4083 0.4651 0 0 0.4467c0.0938,-0.1672 0.2182,-0.3008 0.3732,-0.4008 0.1551,-0.0999 0.3101,-0.1458 0.4651,-0.1377 0.359,0.0245 0.6221,0.2081 0.7893,0.5507 0.2407,-0.3671 0.5385,-0.5507 0.8934,-0.5507 0.3386,0.0123 0.565,0.1122 0.6792,0.2999 0.1142,0.1876 0.1714,0.3936 0.1714,0.618l0 2.5822 -0.4773 0 0 -2.521c0,-0.3998 -0.1673,-0.5875 -0.5018,-0.563 -0.4609,0.0163 -0.6914,0.2713 -0.6914,0.7649l0 2.3191 -0.4895 0 0 -2.3925c0,-0.2285 -0.0357,-0.4008 -0.1071,-0.5171 -0.0714,-0.1162 -0.1969,-0.1744 -0.3764,-0.1744 -0.1835,0 -0.3487,0.0571 -0.4956,0.1714 -0.1468,0.1142 -0.2203,0.312 -0.2203,0.5935l0 2.3191 -0.4773 0z"/>
   <path id="_424367681234567" class="fil3" d="M82.4667 243.71c-0.0041,-0.2774 0.0418,-0.4864 0.1377,-0.6272 0.0958,-0.1407 0.2376,-0.2457 0.4253,-0.3151l0.7281 -0.2998c0.049,-0.0204 0.0989,-0.0398 0.1499,-0.0582 0.051,-0.0183 0.0908,-0.0438 0.1194,-0.0764 0.0285,-0.0327 0.0428,-0.0755 0.0428,-0.1285l0 -0.3549c0,-0.1143 -0.0388,-0.2111 -0.1163,-0.2907 -0.0775,-0.0795 -0.206,-0.1193 -0.3855,-0.1193 -0.208,0 -0.3477,0.0438 -0.4191,0.1315 -0.0714,0.0878 -0.1071,0.2438 -0.1071,0.4681l-0.4406 0c-0.0122,-0.669 0.3101,-1.0035 0.9668,-1.0035 0.4161,-0.004 0.6813,0.0877 0.7955,0.2754 0.1142,0.1876 0.1713,0.4304 0.1713,0.7281l0 1.8296c0,0.1306 0.0112,0.2162 0.0337,0.257 0.0224,0.0408 0.0642,0.0653 0.1254,0.0735 0.0286,-0.0082 0.0755,-0.0123 0.1408,-0.0123l0 0.3488c-0.1469,0.0163 -0.2428,0.0245 -0.2876,0.0245 -0.155,0 -0.2642,-0.0388 -0.3274,-0.1163 -0.0632,-0.0775 -0.101,-0.206 -0.1132,-0.3855 -0.1713,0.3753 -0.4426,0.563 -0.8138,0.563 -0.3223,-0.0204 -0.5385,-0.1122 -0.6486,-0.2754 -0.1102,-0.1632 -0.1693,-0.3753 -0.1775,-0.6364zm1.5665 -1.0157c-0.1469,0.0816 -0.3264,0.1693 -0.5385,0.2631 -0.2121,0.0938 -0.3518,0.1866 -0.4192,0.2784 -0.0673,0.0918 -0.103,0.2376 -0.107,0.4375 -0.0123,0.3508 0.1366,0.5344 0.4467,0.5507 0.159,-0.0081 0.3018,-0.0703 0.4283,-0.1866 0.1264,-0.1163 0.1897,-0.2682 0.1897,-0.4559l0 -0.8872z"/>
   <path id="_4243676812345678" class="fil3" d="M86.8296 242.896c0.0081,-0.5303 0.0755,-0.9739 0.2019,-1.3309 0.1265,-0.3569 0.4141,-0.5333 0.8628,-0.5293 0.2896,0 0.5405,0.155 0.7526,0.4651l0 -1.5665 0.4773 0 0 4.6015 -0.4528 0 0 -0.4528c-0.0979,0.1754 -0.208,0.311 -0.3304,0.4069 -0.1224,0.0959 -0.2835,0.1438 -0.4834,0.1438 -0.4202,0 -0.7006,-0.1785 -0.8414,-0.5354 -0.1407,-0.357 -0.2029,-0.7577 -0.1866,-1.2024zm1.8296 -0.0673c-0.0082,-0.4406 -0.0602,-0.7822 -0.1561,-1.0249 -0.0958,-0.2428 -0.2763,-0.3641 -0.5415,-0.3641 -0.4283,0 -0.6425,0.4936 -0.6425,1.4808 0,0.3712 0.0388,0.6792 0.1163,0.924 0.0775,0.2447 0.2447,0.3671 0.5017,0.3671 0.2489,0 0.4324,-0.102 0.5507,-0.306 0.1183,-0.2039 0.1754,-0.5629 0.1714,-1.0769z"/>
   <path id="_42436768123456789" class="fil3" d="M89.834 242.878c0,-0.4365 0.0734,-0.8526 0.2203,-1.2483 0.1469,-0.3957 0.4406,-0.5936 0.8811,-0.5936 0.4324,0 0.716,0.1377 0.8506,0.4131 0.1346,0.2753 0.2019,0.6394 0.2019,1.0922l0 0.3366 -1.6521 0c0,0.0611 -0.0041,0.1162 -0.0123,0.1652 0.0082,0.3467 0.05,0.6282 0.1255,0.8444 0.0754,0.2162 0.2335,0.3243 0.4742,0.3243 0.2529,0 0.4151,-0.0775 0.4865,-0.2325 0.0713,-0.155 0.107,-0.3488 0.107,-0.5813l0.459 0c0.004,0.4772 -0.1081,0.8026 -0.3366,0.9759 -0.2284,0.1734 -0.4671,0.2601 -0.7159,0.2601 -0.7261,0 -1.0892,-0.5854 -1.0892,-1.7561zm1.6521 -0.3978c0,-0.3182 -0.0346,-0.5711 -0.104,-0.7587 -0.0693,-0.1877 -0.2141,-0.2815 -0.4344,-0.2815 -0.2366,0 -0.3998,0.103 -0.4895,0.309 -0.0898,0.206 -0.1306,0.4497 -0.1224,0.7312l1.1503 0z"/>
   <polygon id="_4243676812345678910" class="fil3" points="94.2642,244.536 94.2642,239.934 96.5588,239.934 96.5588,240.399 94.7782,240.399 94.7782,241.917 96.4548,241.917 96.4548,242.37 94.7782,242.37 94.7782,244.071 96.5711,244.071 96.5711,244.536 "/>
   <path id="_424367681234567891011" class="fil3" d="M97.1463 241.954c0,-0.1836 0.0387,-0.3437 0.1162,-0.4804 0.0775,-0.1366 0.1917,-0.2437 0.3427,-0.3212 0.1509,-0.0775 0.3365,-0.1163 0.5568,-0.1163 0.6935,0 1.0402,0.3345 1.0402,1.0035l-0.4772 0c0.0081,-0.2162 -0.0296,-0.3681 -0.1132,-0.4558 -0.0837,-0.0877 -0.2213,-0.1316 -0.4131,-0.1316 -0.3508,0 -0.5344,0.1469 -0.5507,0.4406 -0.0041,0.1428 0.0163,0.2529 0.0612,0.3304 0.0449,0.0775 0.1142,0.1408 0.208,0.1897 0.0939,0.049 0.2713,0.1265 0.5324,0.2325 0.31,0.1183 0.5324,0.2458 0.667,0.3825 0.1346,0.1366 0.2019,0.309 0.2019,0.517 0,0.3508 -0.1061,0.6201 -0.3182,0.8077 -0.2121,0.1877 -0.4875,0.2774 -0.8261,0.2693 -0.4079,-0.0041 -0.6832,-0.1112 -0.826,-0.3213 -0.1428,-0.2101 -0.2142,-0.462 -0.2142,-0.7557l0.4651 0c0,0.2121 0.0408,0.3763 0.1223,0.4926 0.0816,0.1163 0.2326,0.1744 0.4528,0.1744 0.2081,0 0.3651,-0.0459 0.4712,-0.1377 0.1061,-0.0918 0.1632,-0.2172 0.1713,-0.3763 0.0041,-0.204 -0.0438,-0.3447 -0.1438,-0.4222 -0.0999,-0.0775 -0.2947,-0.1673 -0.5843,-0.2693 -0.2081,-0.0693 -0.3733,-0.1356 -0.4957,-0.1988 -0.1223,-0.0632 -0.2274,-0.1612 -0.3151,-0.2937 -0.0877,-0.1326 -0.1315,-0.3192 -0.1315,-0.5599z"/>
   <path id="_42436768123456789101112" class="fil3" d="M100.108 243.857l0 -2.3191 -0.465 0 0 -0.41 0.465 0 0 -0.9178 0.4773 0 0 0.9178 0.5752 0 0 0.41 -0.5752 0 0 2.3742c0,0.0775 0.0163,0.1336 0.049,0.1682 0.0326,0.0347 0.0958,0.052 0.1897,0.052l0.312 0 0 0.4039 -0.5262 0c-0.155,0 -0.2672,-0.0235 -0.3366,-0.0704 -0.0693,-0.0469 -0.1142,-0.1132 -0.1346,-0.1988 -0.0204,-0.0857 -0.0306,-0.2224 -0.0306,-0.41z"/>
   <path id="_4243676812345678910111213" class="fil3" d="M101.472 243.71c-0.0041,-0.2774 0.0418,-0.4864 0.1377,-0.6272 0.0958,-0.1407 0.2376,-0.2457 0.4253,-0.3151l0.7281 -0.2998c0.049,-0.0204 0.0989,-0.0398 0.1499,-0.0582 0.051,-0.0183 0.0908,-0.0438 0.1194,-0.0764 0.0285,-0.0327 0.0428,-0.0755 0.0428,-0.1285l0 -0.3549c0,-0.1143 -0.0388,-0.2111 -0.1163,-0.2907 -0.0775,-0.0795 -0.206,-0.1193 -0.3855,-0.1193 -0.208,0 -0.3477,0.0438 -0.4191,0.1315 -0.0714,0.0878 -0.1071,0.2438 -0.1071,0.4681l-0.4406 0c-0.0122,-0.669 0.3101,-1.0035 0.9668,-1.0035 0.4161,-0.004 0.6813,0.0877 0.7955,0.2754 0.1142,0.1876 0.1713,0.4304 0.1713,0.7281l0 1.8296c0,0.1306 0.0112,0.2162 0.0337,0.257 0.0224,0.0408 0.0642,0.0653 0.1254,0.0735 0.0286,-0.0082 0.0755,-0.0123 0.1408,-0.0123l0 0.3488c-0.1469,0.0163 -0.2428,0.0245 -0.2876,0.0245 -0.155,0 -0.2642,-0.0388 -0.3274,-0.1163 -0.0632,-0.0775 -0.101,-0.206 -0.1132,-0.3855 -0.1713,0.3753 -0.4426,0.563 -0.8138,0.563 -0.3223,-0.0204 -0.5385,-0.1122 -0.6486,-0.2754 -0.1102,-0.1632 -0.1693,-0.3753 -0.1775,-0.6364zm1.5665 -1.0157c-0.1469,0.0816 -0.3264,0.1693 -0.5385,0.2631 -0.2121,0.0938 -0.3518,0.1866 -0.4192,0.2784 -0.0673,0.0918 -0.103,0.2376 -0.107,0.4375 -0.0123,0.3508 0.1366,0.5344 0.4467,0.5507 0.159,-0.0081 0.3018,-0.0703 0.4283,-0.1866 0.1264,-0.1163 0.1897,-0.2682 0.1897,-0.4559l0 -0.8872z"/>
   <path id="_424367681234567891011121314" class="fil3" d="M104.452 244.536l0 -4.6015 0.4773 0 0 1.542c0.1999,-0.2937 0.4365,-0.4406 0.7098,-0.4406 0.7221,0 1.0831,0.5487 1.0831,1.646 0,0.6772 -0.0857,1.1698 -0.257,1.4778 -0.1713,0.308 -0.4406,0.462 -0.8077,0.462 -0.3182,0 -0.5732,-0.1632 -0.7649,-0.4896l0 0.4039 -0.4406 0zm0.4406 -1.6032c0,0.4569 0.0561,0.7863 0.1683,0.9882 0.1122,0.202 0.2886,0.3029 0.5293,0.3029 0.4201,0 0.6302,-0.4344 0.6302,-1.3033l0 -0.2264c0,-0.3835 -0.052,-0.6884 -0.156,-0.9148 -0.104,-0.2264 -0.258,-0.3396 -0.462,-0.3396 -0.2162,0 -0.3763,0.0734 -0.4803,0.2203 -0.104,0.1468 -0.1683,0.3212 -0.1928,0.5231 -0.0244,0.202 -0.0367,0.4518 -0.0367,0.7496z"/>
   <path id="_42436768123456789101112131415" class="fil3" d="M107.5 244.536l0 -3.4083 0.4651 0 0 3.4083 -0.4651 0zm0 -3.9774l0 -0.6119 0.4651 0 0 0.6119 -0.4651 0z"/>
   <polygon id="_4243676812345678910111213141516" class="fil3" points="108.852,244.536 108.852,239.934 109.329,239.934 109.329,244.536 "/>
   <path id="_424367681234567891011121314151617" class="fil3" d="M110.229 244.536l0 -3.4083 0.4651 0 0 3.4083 -0.4651 0zm0 -3.9774l0 -0.6119 0.4651 0 0 0.6119 -0.4651 0z"/>
   <path id="_42436768123456789101112131415161718" class="fil3" d="M111.459 242.896c0.0081,-0.5303 0.0755,-0.9739 0.2019,-1.3309 0.1265,-0.3569 0.4141,-0.5333 0.8628,-0.5293 0.2896,0 0.5405,0.155 0.7526,0.4651l0 -1.5665 0.4773 0 0 4.6015 -0.4528 0 0 -0.4528c-0.0979,0.1754 -0.208,0.311 -0.3304,0.4069 -0.1224,0.0959 -0.2835,0.1438 -0.4834,0.1438 -0.4202,0 -0.7006,-0.1785 -0.8414,-0.5354 -0.1407,-0.357 -0.2029,-0.7577 -0.1866,-1.2024zm1.8296 -0.0673c-0.0082,-0.4406 -0.0602,-0.7822 -0.1561,-1.0249 -0.0958,-0.2428 -0.2763,-0.3641 -0.5415,-0.3641 -0.4283,0 -0.6425,0.4936 -0.6425,1.4808 0,0.3712 0.0388,0.6792 0.1163,0.924 0.0775,0.2447 0.2447,0.3671 0.5017,0.3671 0.2489,0 0.4324,-0.102 0.5507,-0.306 0.1183,-0.2039 0.1754,-0.5629 0.1714,-1.0769z"/>
   <path id="_4243676812345678910111213141516171819" class="fil3" d="M114.396 243.71c-0.0041,-0.2774 0.0418,-0.4864 0.1377,-0.6272 0.0958,-0.1407 0.2376,-0.2457 0.4253,-0.3151l0.7281 -0.2998c0.049,-0.0204 0.0989,-0.0398 0.1499,-0.0582 0.051,-0.0183 0.0908,-0.0438 0.1194,-0.0764 0.0285,-0.0327 0.0428,-0.0755 0.0428,-0.1285l0 -0.3549c0,-0.1143 -0.0388,-0.2111 -0.1163,-0.2907 -0.0775,-0.0795 -0.206,-0.1193 -0.3855,-0.1193 -0.208,0 -0.3477,0.0438 -0.4191,0.1315 -0.0714,0.0878 -0.1071,0.2438 -0.1071,0.4681l-0.4406 0c-0.0122,-0.669 0.3101,-1.0035 0.9668,-1.0035 0.4161,-0.004 0.6813,0.0877 0.7955,0.2754 0.1142,0.1876 0.1713,0.4304 0.1713,0.7281l0 1.8296c0,0.1306 0.0112,0.2162 0.0337,0.257 0.0224,0.0408 0.0642,0.0653 0.1254,0.0735 0.0286,-0.0082 0.0755,-0.0123 0.1408,-0.0123l0 0.3488c-0.1469,0.0163 -0.2428,0.0245 -0.2876,0.0245 -0.155,0 -0.2642,-0.0388 -0.3274,-0.1163 -0.0632,-0.0775 -0.101,-0.206 -0.1132,-0.3855 -0.1713,0.3753 -0.4426,0.563 -0.8138,0.563 -0.3223,-0.0204 -0.5385,-0.1122 -0.6486,-0.2754 -0.1102,-0.1632 -0.1693,-0.3753 -0.1775,-0.6364zm1.5665 -1.0157c-0.1469,0.0816 -0.3264,0.1693 -0.5385,0.2631 -0.2121,0.0938 -0.3518,0.1866 -0.4192,0.2784 -0.0673,0.0918 -0.103,0.2376 -0.107,0.4375 -0.0123,0.3508 0.1366,0.5344 0.4467,0.5507 0.159,-0.0081 0.3018,-0.0703 0.4283,-0.1866 0.1264,-0.1163 0.1897,-0.2682 0.1897,-0.4559l0 -0.8872z"/>
   <path id="_424367681234567891011121314151617181920" class="fil3" d="M117.229 242.896c0.0081,-0.5303 0.0755,-0.9739 0.2019,-1.3309 0.1265,-0.3569 0.4141,-0.5333 0.8628,-0.5293 0.2896,0 0.5405,0.155 0.7526,0.4651l0 -1.5665 0.4773 0 0 4.6015 -0.4528 0 0 -0.4528c-0.0979,0.1754 -0.208,0.311 -0.3304,0.4069 -0.1224,0.0959 -0.2835,0.1438 -0.4834,0.1438 -0.4202,0 -0.7006,-0.1785 -0.8414,-0.5354 -0.1407,-0.357 -0.2029,-0.7577 -0.1866,-1.2024zm1.8296 -0.0673c-0.0082,-0.4406 -0.0602,-0.7822 -0.1561,-1.0249 -0.0958,-0.2428 -0.2763,-0.3641 -0.5415,-0.3641 -0.4283,0 -0.6425,0.4936 -0.6425,1.4808 0,0.3712 0.0388,0.6792 0.1163,0.924 0.0775,0.2447 0.2447,0.3671 0.5017,0.3671 0.2489,0 0.4324,-0.102 0.5507,-0.306 0.1183,-0.2039 0.1754,-0.5629 0.1714,-1.0769z"/>
   <path id="_42436768123456789101112131415161718192021" class="fil3" d="M120.233 242.878c0,-0.4365 0.0734,-0.8526 0.2203,-1.2483 0.1469,-0.3957 0.4406,-0.5936 0.8811,-0.5936 0.4324,0 0.716,0.1377 0.8506,0.4131 0.1346,0.2753 0.2019,0.6394 0.2019,1.0922l0 0.3366 -1.6521 0c0,0.0611 -0.0041,0.1162 -0.0123,0.1652 0.0082,0.3467 0.05,0.6282 0.1255,0.8444 0.0754,0.2162 0.2335,0.3243 0.4742,0.3243 0.2529,0 0.4151,-0.0775 0.4865,-0.2325 0.0713,-0.155 0.107,-0.3488 0.107,-0.5813l0.459 0c0.004,0.4772 -0.1081,0.8026 -0.3366,0.9759 -0.2284,0.1734 -0.4671,0.2601 -0.7159,0.2601 -0.7261,0 -1.0892,-0.5854 -1.0892,-1.7561zm1.6521 -0.3978c0,-0.3182 -0.0346,-0.5711 -0.104,-0.7587 -0.0693,-0.1877 -0.2141,-0.2815 -0.4344,-0.2815 -0.2366,0 -0.3998,0.103 -0.4895,0.309 -0.0898,0.206 -0.1306,0.4497 -0.1224,0.7312l1.1503 0z"/>
   <path id="_4243676812345678910111213141516171819202122" class="fil3" d="M61.4785 250.312c0,-0.4365 0.0734,-0.8526 0.2203,-1.2483 0.1469,-0.3957 0.4406,-0.5936 0.8811,-0.5936 0.4324,0 0.716,0.1377 0.8506,0.4131 0.1346,0.2753 0.2019,0.6394 0.2019,1.0922l0 0.3366 -1.6521 0c0,0.0611 -0.0041,0.1162 -0.0123,0.1652 0.0082,0.3467 0.05,0.6282 0.1255,0.8444 0.0754,0.2162 0.2335,0.3243 0.4742,0.3243 0.2529,0 0.4151,-0.0775 0.4865,-0.2325 0.0713,-0.155 0.107,-0.3488 0.107,-0.5813l0.459 0c0.004,0.4772 -0.1081,0.8026 -0.3366,0.9759 -0.2284,0.1734 -0.4671,0.2601 -0.7159,0.2601 -0.7261,0 -1.0892,-0.5854 -1.0892,-1.7561zm1.6521 -0.3978c0,-0.3182 -0.0346,-0.5711 -0.104,-0.7587 -0.0693,-0.1877 -0.2141,-0.2815 -0.4344,-0.2815 -0.2366,0 -0.3998,0.103 -0.4895,0.309 -0.0898,0.206 -0.1306,0.4497 -0.1224,0.7312l1.1503 0z"/>
   <path id="_424367681234567891011121314151617181920212223" class="fil3" d="M65.7802 249.804c0.0082,-0.412 0.0235,-0.7312 0.0459,-0.9576 0.0224,-0.2265 0.0806,-0.4671 0.1744,-0.7221 0.0938,-0.2549 0.2386,-0.4589 0.4344,-0.6119 0.1958,-0.153 0.459,-0.2295 0.7894,-0.2295 0.3712,0 0.6823,0.1143 0.9331,0.3427 0.2509,0.2285 0.3784,0.6058 0.3825,1.132l-0.514 0c-0.0245,-0.2855 -0.0867,-0.5293 -0.1866,-0.7312 -0.1,-0.2019 -0.3213,-0.2968 -0.664,-0.2845 -0.3875,0.0122 -0.6292,0.2213 -0.7251,0.6272 -0.0958,0.4059 -0.1438,0.8821 -0.1438,1.4288 -0.0081,0.5425 0.051,0.9821 0.1775,1.3186 0.1265,0.3365 0.3733,0.5048 0.7404,0.5048 0.2284,0 0.3987,-0.0704 0.5109,-0.2111 0.1122,-0.1407 0.1867,-0.307 0.2234,-0.4987 0.0367,-0.1917 0.0591,-0.3916 0.0673,-0.5996l0.5017 0c0.0123,0.416 -0.0387,0.7556 -0.1529,1.0188 -0.1143,0.2631 -0.2693,0.4538 -0.4651,0.5721 -0.1958,0.1183 -0.4161,0.1774 -0.6608,0.1774 -0.4039,-0.004 -0.7139,-0.1121 -0.9301,-0.3243 -0.2162,-0.2121 -0.36,-0.4813 -0.4314,-0.8077 -0.0714,-0.3263 -0.1071,-0.7077 -0.1071,-1.1442z"/>
   <path id="_42436768123456789101112131415161718192021222324" class="fil3" d="M69.366 251.97l0 -3.4205 0.4528 0 0 0.5874c0.1183,-0.2284 0.2447,-0.3896 0.3793,-0.4834 0.1347,-0.0938 0.3468,-0.1387 0.6364,-0.1346l0 0.5017c-0.106,-0.0163 -0.1897,-0.0244 -0.2509,-0.0244 -0.2284,0 -0.4089,0.0846 -0.5415,0.2539 -0.1326,0.1693 -0.1989,0.411 -0.1989,0.7251l0 1.9948 -0.4772 0z"/>
   <path id="_4243676812345678910111213141516171819202122232425" class="fil3" d="M71.1588 250.312c0,-0.4365 0.0734,-0.8526 0.2203,-1.2483 0.1469,-0.3957 0.4406,-0.5936 0.8811,-0.5936 0.4324,0 0.716,0.1377 0.8506,0.4131 0.1346,0.2753 0.2019,0.6394 0.2019,1.0922l0 0.3366 -1.6521 0c0,0.0611 -0.0041,0.1162 -0.0123,0.1652 0.0082,0.3467 0.05,0.6282 0.1255,0.8444 0.0754,0.2162 0.2335,0.3243 0.4742,0.3243 0.2529,0 0.4151,-0.0775 0.4865,-0.2325 0.0713,-0.155 0.107,-0.3488 0.107,-0.5813l0.459 0c0.004,0.4772 -0.1081,0.8026 -0.3366,0.9759 -0.2284,0.1734 -0.4671,0.2601 -0.7159,0.2601 -0.7261,0 -1.0892,-0.5854 -1.0892,-1.7561zm1.6521 -0.3978c0,-0.3182 -0.0346,-0.5711 -0.104,-0.7587 -0.0693,-0.1877 -0.2141,-0.2815 -0.4344,-0.2815 -0.2366,0 -0.3998,0.103 -0.4895,0.309 -0.0898,0.206 -0.1306,0.4497 -0.1224,0.7312l1.1503 0z"/>
   <path id="_424367681234567891011121314151617181920212223242526" class="fil3" d="M73.8818 249.388c0,-0.1836 0.0387,-0.3437 0.1162,-0.4804 0.0775,-0.1366 0.1917,-0.2437 0.3427,-0.3212 0.1509,-0.0775 0.3365,-0.1163 0.5568,-0.1163 0.6935,0 1.0402,0.3345 1.0402,1.0035l-0.4772 0c0.0081,-0.2162 -0.0296,-0.3681 -0.1132,-0.4558 -0.0837,-0.0877 -0.2213,-0.1316 -0.4131,-0.1316 -0.3508,0 -0.5344,0.1469 -0.5507,0.4406 -0.0041,0.1428 0.0163,0.2529 0.0612,0.3304 0.0449,0.0775 0.1142,0.1408 0.208,0.1897 0.0939,0.049 0.2713,0.1265 0.5324,0.2325 0.31,0.1183 0.5324,0.2458 0.667,0.3825 0.1346,0.1366 0.2019,0.309 0.2019,0.517 0,0.3508 -0.1061,0.6201 -0.3182,0.8077 -0.2121,0.1877 -0.4875,0.2774 -0.8261,0.2693 -0.4079,-0.0041 -0.6832,-0.1112 -0.826,-0.3213 -0.1428,-0.2101 -0.2142,-0.462 -0.2142,-0.7557l0.4651 0c0,0.2121 0.0408,0.3763 0.1223,0.4926 0.0816,0.1163 0.2326,0.1744 0.4528,0.1744 0.2081,0 0.3651,-0.0459 0.4712,-0.1377 0.1061,-0.0918 0.1632,-0.2172 0.1713,-0.3763 0.0041,-0.204 -0.0438,-0.3447 -0.1438,-0.4222 -0.0999,-0.0775 -0.2947,-0.1673 -0.5843,-0.2693 -0.2081,-0.0693 -0.3733,-0.1356 -0.4957,-0.1988 -0.1223,-0.0632 -0.2274,-0.1612 -0.3151,-0.2937 -0.0877,-0.1326 -0.1315,-0.3192 -0.1315,-0.5599z"/>
   <path id="_42436768123456789101112131415161718192021222324252627" class="fil3" d="M76.5925 250.318c0,-0.5589 0.0795,-1.0066 0.2386,-1.3432 0.1591,-0.3365 0.4732,-0.5048 0.9423,-0.5048 0.2978,0 0.5375,0.0979 0.719,0.2937 0.1815,0.1959 0.2805,0.4834 0.2968,0.8628l-0.4528 0c0,-0.2039 -0.0429,-0.3783 -0.1285,-0.5232 -0.0857,-0.1448 -0.2346,-0.2172 -0.4467,-0.2172 -0.3019,0 -0.4885,0.1428 -0.5599,0.4284 -0.0714,0.2855 -0.1071,0.62 -0.1071,1.0035 0,0.3834 0.0398,0.7006 0.1193,0.9515 0.0796,0.2509 0.2621,0.3763 0.5477,0.3763 0.3834,0 0.5752,-0.2896 0.5752,-0.8689l0.4528 0c0,0.3059 -0.0714,0.5986 -0.2142,0.8781 -0.1428,0.2794 -0.414,0.4171 -0.8138,0.413 -0.2937,-0.0041 -0.5283,-0.0795 -0.7037,-0.2264 -0.1754,-0.1469 -0.2968,-0.3447 -0.3641,-0.5935 -0.0673,-0.2489 -0.1009,-0.5589 -0.1009,-0.9301z"/>
   <path id="_4243676812345678910111213141516171819202122232425262728" class="fil3" d="M79.4806 251.97l0 -3.4083 0.4651 0 0 3.4083 -0.4651 0zm0 -3.9774l0 -0.6119 0.4651 0 0 0.6119 -0.4651 0z"/>
   <path id="_424367681234567891011121314151617181920212223242526272829" class="fil3" d="M80.8573 251.97l0 -3.4083 0.4651 0 0 0.4467c0.0938,-0.1672 0.2182,-0.3008 0.3732,-0.4008 0.1551,-0.0999 0.3101,-0.1458 0.4651,-0.1377 0.359,0.0245 0.6221,0.2081 0.7893,0.5507 0.2407,-0.3671 0.5385,-0.5507 0.8934,-0.5507 0.3386,0.0123 0.565,0.1122 0.6792,0.2999 0.1142,0.1876 0.1714,0.3936 0.1714,0.618l0 2.5822 -0.4773 0 0 -2.521c0,-0.3998 -0.1673,-0.5875 -0.5018,-0.563 -0.4609,0.0163 -0.6914,0.2713 -0.6914,0.7649l0 2.3191 -0.4895 0 0 -2.3925c0,-0.2285 -0.0357,-0.4008 -0.1071,-0.5171 -0.0714,-0.1162 -0.1969,-0.1744 -0.3764,-0.1744 -0.1835,0 -0.3487,0.0571 -0.4956,0.1714 -0.1468,0.1142 -0.2203,0.312 -0.2203,0.5935l0 2.3191 -0.4773 0z"/>
   <path id="_42436768123456789101112131415161718192021222324252627282930" class="fil3" d="M85.4099 250.312c0,-0.4365 0.0734,-0.8526 0.2203,-1.2483 0.1469,-0.3957 0.4406,-0.5936 0.8811,-0.5936 0.4324,0 0.716,0.1377 0.8506,0.4131 0.1346,0.2753 0.2019,0.6394 0.2019,1.0922l0 0.3366 -1.6521 0c0,0.0611 -0.0041,0.1162 -0.0123,0.1652 0.0082,0.3467 0.05,0.6282 0.1255,0.8444 0.0754,0.2162 0.2335,0.3243 0.4742,0.3243 0.2529,0 0.4151,-0.0775 0.4865,-0.2325 0.0713,-0.155 0.107,-0.3488 0.107,-0.5813l0.459 0c0.004,0.4772 -0.1081,0.8026 -0.3366,0.9759 -0.2284,0.1734 -0.4671,0.2601 -0.7159,0.2601 -0.7261,0 -1.0892,-0.5854 -1.0892,-1.7561zm1.6521 -0.3978c0,-0.3182 -0.0346,-0.5711 -0.104,-0.7587 -0.0693,-0.1877 -0.2141,-0.2815 -0.4344,-0.2815 -0.2366,0 -0.3998,0.103 -0.4895,0.309 -0.0898,0.206 -0.1306,0.4497 -0.1224,0.7312l1.1503 0z"/>
   <path id="_4243676812345678910111213141516171819202122232425262728293031" class="fil3" d="M88.2981 251.97l0 -3.4083 0.4895 0 0 0.3855c0.0122,-0.0571 0.105,-0.1509 0.2784,-0.2815 0.1734,-0.1305 0.3478,-0.1958 0.5232,-0.1958 0.3018,0 0.5272,0.0755 0.6761,0.2264 0.1489,0.151 0.2234,0.3896 0.2234,0.716l0 2.5577 -0.4895 0 0 -2.3191c0,-0.2611 -0.0296,-0.4548 -0.0888,-0.5813 -0.0591,-0.1265 -0.1927,-0.1917 -0.4008,-0.1958 -0.1999,-0.0082 -0.3702,0.0571 -0.5109,0.1958 -0.1407,0.1387 -0.2111,0.3243 -0.2111,0.5568l0 2.3436 -0.4895 0z"/>
   <path id="_424367681234567891011121314151617181920212223242526272829303132" class="fil3" d="M91.4432 251.291l0 -2.3191 -0.465 0 0 -0.41 0.465 0 0 -0.9178 0.4773 0 0 0.9178 0.5752 0 0 0.41 -0.5752 0 0 2.3742c0,0.0775 0.0163,0.1336 0.049,0.1682 0.0326,0.0347 0.0958,0.052 0.1897,0.052l0.312 0 0 0.4039 -0.5262 0c-0.155,0 -0.2672,-0.0235 -0.3366,-0.0704 -0.0693,-0.0469 -0.1142,-0.1132 -0.1346,-0.1988 -0.0204,-0.0857 -0.0306,-0.2224 -0.0306,-0.41z"/>
   <path id="_42436768123456789101112131415161718192021222324252627282930313233" class="fil3" d="M92.9241 250.214c0,-1.1544 0.3977,-1.7316 1.1932,-1.7316 0.4487,0 0.7679,0.1438 0.9576,0.4314 0.1897,0.2876 0.2845,0.7251 0.2845,1.3125 0,1.2156 -0.3936,1.8296 -1.1809,1.8418 -0.4447,0 -0.7649,-0.1683 -0.9607,-0.5048 -0.1958,-0.3366 -0.2937,-0.7863 -0.2937,-1.3493zm0.5017 0.0123c0,0.4202 0.0439,0.7618 0.1316,1.0249 0.0877,0.2631 0.2906,0.3947 0.6088,0.3947 0.2978,0 0.4875,-0.1316 0.5691,-0.3947 0.0816,-0.2631 0.1224,-0.5884 0.1224,-0.976 0,-0.4038 -0.0449,-0.7383 -0.1346,-1.0035 -0.0898,-0.2651 -0.2836,-0.3977 -0.5813,-0.3977 -0.4773,0 -0.716,0.4508 -0.716,1.3523z"/>
   <rect id="_42439000" class="fil5" x="61.2157" y="236.604" width="61.1738" height="0.438284"/>
  </g>
 </g>
</svg>
