<?xml version="1.0" encoding="UTF-8"?>
<!DOCTYPE svg PUBLIC "-//W3C//DTD SVG 1.1//EN" "http://www.w3.org/Graphics/SVG/1.1/DTD/svg11.dtd">
<!-- Creator: CorelDRAW -->
<svg xmlns="http://www.w3.org/2000/svg" xml:space="preserve" width="210mm" height="297mm" style="shape-rendering:geometricPrecision; text-rendering:geometricPrecision; image-rendering:optimizeQuality; fill-rule:evenodd; clip-rule:evenodd"
viewBox="0 0 210 297"
 xmlns:xlink="http://www.w3.org/1999/xlink">
 <defs>
  <style type="text/css">
   <![CDATA[
    .str0 {stroke:white;stroke-width:0.3527}
    .str2 {stroke:white;stroke-width:0.3527}
    .str1 {stroke:#75C5F0;stroke-width:1.4108}
    .fil2 {fill:none}
    .fil0 {fill:#0093DD}
    .fil1 {fill:white;fill-rule:nonzero}
   ]]>
  </style>
 </defs>
 <g id="Camada_x0020_1">
  <metadata id="CorelCorpID_0Corel-Layer"/>
  <rect class="fil0" x="15.2519" y="16.4237" width="179.561" height="264.816"/>
  <g id="_42474472">
   <path id="_41862880" class="fil1" d="M55.6979 119.349l0 0.9473 -1.1553 1.1668 1.1553 1.1784 0 0.9704 -1.7329 -1.8022 0 -0.7047 1.7329 -1.756zm-2.0564 0l0 0.9473 -1.1437 1.1668 1.1437 1.1784 0 0.9704 -1.7329 -1.8022 0 -0.7047 1.7329 -1.756z"/>
   <polygon id="_418628801" class="fil1" points="57.5925,125.056 57.5925,116.369 59.1521,116.369 61.9248,124.398 61.9017,116.369 62.8721,116.369 62.8721,125.056 61.2894,125.056 58.7016,117.605 58.5398,116.819 58.5398,125.056 "/>
   <path id="_4186288012" class="fil1" d="M64.1198 123.497c-0.0077,-0.5237 0.0789,-0.9185 0.2599,-1.1842 0.181,-0.2657 0.4487,-0.464 0.8029,-0.5949l1.3748 -0.5661c0.0924,-0.0385 0.1868,-0.0751 0.283,-0.1098 0.0963,-0.0346 0.1714,-0.0828 0.2253,-0.1444 0.0539,-0.0616 0.0809,-0.1425 0.0809,-0.2426l0 -0.67c0,-0.2157 -0.0732,-0.3986 -0.2195,-0.5488 -0.1463,-0.1502 -0.3889,-0.2253 -0.7278,-0.2253 -0.3928,0 -0.6566,0.0828 -0.7914,0.2484 -0.1348,0.1656 -0.2022,0.4602 -0.2022,0.8838l-0.8318 0c-0.0231,-1.2631 0.5854,-1.8946 1.8254,-1.8946 0.7856,-0.0077 1.2862,0.1655 1.5018,0.5198 0.2157,0.3543 0.3235,0.8126 0.3235,1.3748l0 3.4543c0,0.2464 0.0212,0.4082 0.0635,0.4852 0.0424,0.077 0.1213,0.1232 0.2369,0.1386 0.0539,-0.0154 0.1425,-0.0231 0.2657,-0.0231l0 0.6585c-0.2773,0.0308 -0.4583,0.0462 -0.543,0.0462 -0.2927,0 -0.4987,-0.0732 -0.6181,-0.2195 -0.1193,-0.1463 -0.1906,-0.3889 -0.2137,-0.7278 -0.3235,0.7086 -0.8356,1.0628 -1.5365,1.0628 -0.6084,-0.0385 -1.0166,-0.2118 -1.2246,-0.5198 -0.2079,-0.3081 -0.3196,-0.7086 -0.335,-1.2015zm2.9575 -1.9178c-0.2773,0.1541 -0.6162,0.3197 -1.0167,0.4968 -0.4005,0.1771 -0.6642,0.3524 -0.7913,0.5257 -0.1271,0.1732 -0.1945,0.4486 -0.2022,0.826 -0.0231,0.6623 0.258,1.0089 0.8434,1.0397 0.3003,-0.0154 0.5699,-0.1328 0.8086,-0.3523 0.2388,-0.2195 0.3582,-0.5064 0.3582,-0.8607l0 -1.6752zm-2.7034 -3.8586c0.0232,-0.3619 0.1445,-0.6623 0.364,-0.9011 0.2195,-0.2387 0.4717,-0.3581 0.7567,-0.3581 0.1925,0 0.4948,0.0751 0.9068,0.2253 0.4121,0.1502 0.6836,0.2252 0.8145,0.2252 0.1232,0 0.2368,-0.05 0.3408,-0.1501 0.104,-0.1002 0.1637,-0.2234 0.1791,-0.3697l0.5661 0c-0.0308,0.3312 -0.1444,0.6238 -0.3408,0.878 -0.1964,0.2541 -0.491,0.3812 -0.8838,0.3812 -0.1233,0 -0.3832,-0.0751 -0.7798,-0.2253 -0.3967,-0.1501 -0.6797,-0.2252 -0.8492,-0.2252 -0.1309,0 -0.2522,0.0597 -0.3639,0.179 -0.1116,0.1194 -0.1675,0.233 -0.1675,0.3408l-0.543 0z"/>
   <path id="_41862880123" class="fil1" d="M69.4571 121.741c0,-2.1796 0.7509,-3.2694 2.2528,-3.2694 0.8472,0 1.4498,0.2714 1.808,0.8144 0.3581,0.543 0.5372,1.369 0.5372,2.4781 0,2.2951 -0.7433,3.4542 -2.2297,3.4773 -0.8395,0 -1.4441,-0.3177 -1.8138,-0.9531 -0.3697,-0.6354 -0.5545,-1.4845 -0.5545,-2.5473zm0.9473 0.0231c0,0.7933 0.0828,1.4383 0.2484,1.9351 0.1656,0.4967 0.5487,0.7451 1.1495,0.7451 0.5622,0 0.9204,-0.2484 1.0744,-0.7451 0.154,-0.4968 0.231,-1.111 0.231,-1.8427 0,-0.7625 -0.0847,-1.394 -0.2541,-1.8946 -0.1695,-0.5007 -0.5353,-0.751 -1.0975,-0.751 -0.9011,0 -1.3517,0.8511 -1.3517,2.5532z"/>
   <path id="_418628801234" class="fil1" d="M77.9021 123.497c-0.0077,-0.5237 0.0789,-0.9185 0.2599,-1.1842 0.181,-0.2657 0.4487,-0.464 0.8029,-0.5949l1.3748 -0.5661c0.0924,-0.0385 0.1868,-0.0751 0.283,-0.1098 0.0963,-0.0346 0.1714,-0.0828 0.2253,-0.1444 0.0539,-0.0616 0.0809,-0.1425 0.0809,-0.2426l0 -0.67c0,-0.2157 -0.0732,-0.3986 -0.2195,-0.5488 -0.1463,-0.1502 -0.3889,-0.2253 -0.7278,-0.2253 -0.3928,0 -0.6566,0.0828 -0.7914,0.2484 -0.1348,0.1656 -0.2022,0.4602 -0.2022,0.8838l-0.8318 0c-0.0231,-1.2631 0.5854,-1.8946 1.8254,-1.8946 0.7856,-0.0077 1.2862,0.1655 1.5018,0.5198 0.2157,0.3543 0.3235,0.8126 0.3235,1.3748l0 3.4543c0,0.2464 0.0212,0.4082 0.0635,0.4852 0.0424,0.077 0.1213,0.1232 0.2369,0.1386 0.0539,-0.0154 0.1425,-0.0231 0.2657,-0.0231l0 0.6585c-0.2773,0.0308 -0.4583,0.0462 -0.543,0.0462 -0.2927,0 -0.4987,-0.0732 -0.6181,-0.2195 -0.1193,-0.1463 -0.1906,-0.3889 -0.2137,-0.7278 -0.3235,0.7086 -0.8356,1.0628 -1.5365,1.0628 -0.6084,-0.0385 -1.0166,-0.2118 -1.2246,-0.5198 -0.2079,-0.3081 -0.3196,-0.7086 -0.335,-1.2015zm2.9575 -1.9178c-0.2773,0.1541 -0.6162,0.3197 -1.0167,0.4968 -0.4005,0.1771 -0.6642,0.3524 -0.7913,0.5257 -0.1271,0.1732 -0.1945,0.4486 -0.2022,0.826 -0.0231,0.6623 0.258,1.0089 0.8434,1.0397 0.3003,-0.0154 0.5699,-0.1328 0.8086,-0.3523 0.2388,-0.2195 0.3582,-0.5064 0.3582,-0.8607l0 -1.6752zm-0.7625 -3.743l-1.5134 -1.629 1.2592 0 1.0398 1.629 -0.7856 0z"/>
   <path id="_4186288012345" class="fil1" d="M83.1701 120.181c0,-0.3466 0.0731,-0.6489 0.2195,-0.9069 0.1463,-0.258 0.362,-0.4602 0.6469,-0.6065 0.285,-0.1464 0.6354,-0.2195 1.0513,-0.2195 1.3093,0 1.964,0.6315 1.964,1.8946l-0.9011 0c0.0154,-0.4082 -0.0559,-0.6951 -0.2138,-0.8607 -0.1578,-0.1656 -0.4178,-0.2484 -0.7798,-0.2484 -0.6623,0 -1.0089,0.2773 -1.0397,0.8318 -0.0077,0.2696 0.0308,0.4775 0.1155,0.6239 0.0847,0.1463 0.2157,0.2657 0.3928,0.3581 0.1772,0.0924 0.5122,0.2388 1.0051,0.439 0.5853,0.2234 1.0051,0.464 1.2592,0.7221 0.2542,0.258 0.3813,0.5834 0.3813,0.9762 0,0.6623 -0.2003,1.1706 -0.6008,1.5249 -0.4005,0.3543 -0.9203,0.5237 -1.5596,0.5083 -0.7702,-0.0077 -1.29,-0.2098 -1.5596,-0.6065 -0.2696,-0.3966 -0.4043,-0.8722 -0.4043,-1.4267l0.878 0c0,0.4005 0.077,0.7105 0.231,0.93 0.1541,0.2195 0.439,0.3292 0.8549,0.3292 0.3928,0 0.6893,-0.0866 0.8896,-0.2599 0.2002,-0.1733 0.3081,-0.4101 0.3235,-0.7105 0.0077,-0.3851 -0.0828,-0.6508 -0.2715,-0.7972 -0.1887,-0.1463 -0.5565,-0.3157 -1.1033,-0.5083 -0.3928,-0.1309 -0.7047,-0.2561 -0.9358,-0.3754 -0.231,-0.1194 -0.4294,-0.3043 -0.5949,-0.5546 -0.1656,-0.2503 -0.2484,-0.6026 -0.2484,-1.057z"/>
   <path id="_41862880123456" class="fil1" d="M92.6202 117.247l0 3.2694c0.2541,0 0.4505,0.0077 0.5891,0.0231 0.5315,-0.0308 0.9358,-0.0578 1.2131,-0.0809 0.4313,-0.077 0.7471,-0.2368 0.9473,-0.4794 0.2002,-0.2426 0.3004,-0.6258 0.3004,-1.1495 0,-0.9396 -0.4467,-1.4595 -1.3401,-1.5596 -0.1772,-0.0154 -0.4699,-0.0231 -0.878,-0.0231l-0.8318 0zm0 7.8096l-0.9705 0 0 -8.6645 2.2759 0c0.9627,0 1.6405,0.1887 2.0333,0.5661 0.4698,0.4313 0.7047,1.0474 0.7047,1.8484 0,1.1707 -0.4082,1.9447 -1.2246,2.3221 -0.4082,0.154 -1.0243,0.2464 -1.8484,0.2772 -0.2234,-0.0154 -0.5468,-0.0231 -0.9704,-0.0231l0 3.6738z"/>
   <path id="_418628801234567" class="fil1" d="M98.0384 125.056l0 -6.458 0.8549 0 0 1.1091c0.2234,-0.4313 0.4621,-0.7355 0.7163,-0.9127 0.2541,-0.1771 0.6546,-0.2618 1.2015,-0.2541l0 0.9473c-0.2003,-0.0308 -0.3582,-0.0462 -0.4737,-0.0462 -0.4313,0 -0.7721,0.1598 -1.0224,0.4794 -0.2503,0.3196 -0.3755,0.776 -0.3755,1.369l0 3.7662 -0.9011 0z"/>
   <path id="_4186288012345678" class="fil1" d="M101.781 125.056l0 -6.4349 0.878 0 0 6.4349 -0.878 0zm0 -7.5093l0 -1.1552 0.878 0 0 1.1552 -0.878 0z"/>
   <polygon id="_41862880123456789" class="fil1" points="105.582,125.056 103.665,118.622 104.612,118.622 106.079,124.294 107.546,118.622 108.494,118.622 106.576,125.056 "/>
   <path id="_4186288012345678910" class="fil1" d="M108.99 123.497c-0.0077,-0.5237 0.0789,-0.9185 0.2599,-1.1842 0.181,-0.2657 0.4487,-0.464 0.8029,-0.5949l1.3748 -0.5661c0.0924,-0.0385 0.1868,-0.0751 0.283,-0.1098 0.0963,-0.0346 0.1714,-0.0828 0.2253,-0.1444 0.0539,-0.0616 0.0809,-0.1425 0.0809,-0.2426l0 -0.67c0,-0.2157 -0.0732,-0.3986 -0.2195,-0.5488 -0.1463,-0.1502 -0.3889,-0.2253 -0.7278,-0.2253 -0.3928,0 -0.6566,0.0828 -0.7914,0.2484 -0.1348,0.1656 -0.2022,0.4602 -0.2022,0.8838l-0.8318 0c-0.0231,-1.2631 0.5854,-1.8946 1.8254,-1.8946 0.7856,-0.0077 1.2862,0.1655 1.5018,0.5198 0.2157,0.3543 0.3235,0.8126 0.3235,1.3748l0 3.4543c0,0.2464 0.0212,0.4082 0.0635,0.4852 0.0424,0.077 0.1213,0.1232 0.2369,0.1386 0.0539,-0.0154 0.1425,-0.0231 0.2657,-0.0231l0 0.6585c-0.2773,0.0308 -0.4583,0.0462 -0.543,0.0462 -0.2927,0 -0.4987,-0.0732 -0.6181,-0.2195 -0.1193,-0.1463 -0.1906,-0.3889 -0.2137,-0.7278 -0.3235,0.7086 -0.8356,1.0628 -1.5365,1.0628 -0.6084,-0.0385 -1.0166,-0.2118 -1.2246,-0.5198 -0.2079,-0.3081 -0.3196,-0.7086 -0.335,-1.2015zm2.9575 -1.9178c-0.2773,0.1541 -0.6162,0.3197 -1.0167,0.4968 -0.4005,0.1771 -0.6642,0.3524 -0.7913,0.5257 -0.1271,0.1732 -0.1945,0.4486 -0.2022,0.826 -0.0231,0.6623 0.258,1.0089 0.8434,1.0397 0.3003,-0.0154 0.5699,-0.1328 0.8086,-0.3523 0.2388,-0.2195 0.3582,-0.5064 0.3582,-0.8607l0 -1.6752z"/>
   <path id="_418628801234567891011" class="fil1" d="M114.732 123.774l0 -4.3785 -0.878 0 0 -0.7741 0.878 0 0 -1.7329 0.9011 0 0 1.7329 1.086 0 0 0.7741 -1.086 0 0 4.4824c0,0.1464 0.0308,0.2523 0.0925,0.3177 0.0616,0.0655 0.181,0.0982 0.3581,0.0982l0.5892 0 0 0.7625 -0.9935 0c-0.2927,0 -0.5045,-0.0443 -0.6354,-0.1329 -0.131,-0.0885 -0.2157,-0.2137 -0.2542,-0.3754 -0.0385,-0.1618 -0.0578,-0.4198 -0.0578,-0.774z"/>
   <path id="_41862880123456789101112" class="fil1" d="M117.793 125.056l0 -6.4349 0.878 0 0 6.4349 -0.878 0zm0 -7.5093l0 -1.1552 0.878 0 0 1.1552 -0.878 0z"/>
   <polygon id="_4186288012345678910111213" class="fil1" points="119.804,124.294 122.761,119.373 119.919,119.373 119.919,118.622 123.732,118.622 123.732,119.373 120.751,124.294 123.755,124.294 123.755,125.033 119.804,125.033 "/>
   <path id="_418628801234567891011121314" class="fil1" d="M124.379 123.497c-0.0077,-0.5237 0.0789,-0.9185 0.2599,-1.1842 0.181,-0.2657 0.4487,-0.464 0.8029,-0.5949l1.3748 -0.5661c0.0924,-0.0385 0.1868,-0.0751 0.283,-0.1098 0.0963,-0.0346 0.1714,-0.0828 0.2253,-0.1444 0.0539,-0.0616 0.0809,-0.1425 0.0809,-0.2426l0 -0.67c0,-0.2157 -0.0732,-0.3986 -0.2195,-0.5488 -0.1463,-0.1502 -0.3889,-0.2253 -0.7278,-0.2253 -0.3928,0 -0.6566,0.0828 -0.7914,0.2484 -0.1348,0.1656 -0.2022,0.4602 -0.2022,0.8838l-0.8318 0c-0.0231,-1.2631 0.5854,-1.8946 1.8254,-1.8946 0.7856,-0.0077 1.2862,0.1655 1.5018,0.5198 0.2157,0.3543 0.3235,0.8126 0.3235,1.3748l0 3.4543c0,0.2464 0.0212,0.4082 0.0635,0.4852 0.0424,0.077 0.1213,0.1232 0.2369,0.1386 0.0539,-0.0154 0.1425,-0.0231 0.2657,-0.0231l0 0.6585c-0.2773,0.0308 -0.4583,0.0462 -0.543,0.0462 -0.2927,0 -0.4987,-0.0732 -0.6181,-0.2195 -0.1193,-0.1463 -0.1906,-0.3889 -0.2137,-0.7278 -0.3235,0.7086 -0.8356,1.0628 -1.5365,1.0628 -0.6084,-0.0385 -1.0166,-0.2118 -1.2246,-0.5198 -0.2079,-0.3081 -0.3196,-0.7086 -0.335,-1.2015zm2.9575 -1.9178c-0.2773,0.1541 -0.6162,0.3197 -1.0167,0.4968 -0.4005,0.1771 -0.6642,0.3524 -0.7913,0.5257 -0.1271,0.1732 -0.1945,0.4486 -0.2022,0.826 -0.0231,0.6623 0.258,1.0089 0.8434,1.0397 0.3003,-0.0154 0.5699,-0.1328 0.8086,-0.3523 0.2388,-0.2195 0.3582,-0.5064 0.3582,-0.8607l0 -1.6752z"/>
   <path id="_41862880123456789101112131415" class="fil1" d="M129.647 121.787c0,-2.2258 0.7355,-3.3387 2.2065,-3.3387 0.3697,0 0.699,0.0847 0.9878,0.2541 0.2888,0.1695 0.516,0.4198 0.6816,0.7509 0.1656,0.3312 0.2484,0.7317 0.2484,1.2015l-0.878 0c0,-0.9473 -0.3466,-1.421 -1.0398,-1.421 -0.5468,0 -0.8934,0.2503 -1.0397,0.751 -0.1463,0.5006 -0.2272,1.1321 -0.2426,1.8946 -0.0308,1.7098 0.3735,2.5647 1.213,2.5647 0.4621,0 0.7702,-0.1521 0.9242,-0.4563 0.1541,-0.3042 0.2311,-0.699 0.2311,-1.1842l0.8549 0c0,0.6316 -0.1309,1.1745 -0.3928,1.629 -0.2619,0.4544 -0.6932,0.7239 -1.2939,0.8086l-0.3812 0.5199c0.0847,0 0.1501,-0.0077 0.1964,-0.0231 0.7393,0.0385 1.109,0.3389 1.109,0.9011 0,0.3235 -0.129,0.57 -0.387,0.7394 -0.258,0.1694 -0.5873,0.2542 -0.9878,0.2542 -0.3928,0 -0.7624,-0.0771 -1.109,-0.2311l0.1848 -0.4737c0.2311,0.1233 0.4775,0.1849 0.7394,0.1849 0.1848,0 0.3447,-0.0405 0.4794,-0.1213 0.1348,-0.0809 0.2022,-0.1983 0.2022,-0.3524 0,-0.1155 -0.0558,-0.2176 -0.1675,-0.3061 -0.1117,-0.0886 -0.2522,-0.1367 -0.4217,-0.1444 -0.1617,0.0308 -0.2965,0.0577 -0.4043,0.0808l-0.208 -0.2195 0.6123 -0.8318c-0.8241,-0.0693 -1.3497,-0.4313 -1.5769,-1.0859 -0.2272,-0.6547 -0.3408,-1.4364 -0.3408,-2.3452z"/>
   <path id="_4186288012345678910111213141516" class="fil1" d="M134.834 121.741c0,-2.1796 0.7509,-3.2694 2.2528,-3.2694 0.8472,0 1.4498,0.2714 1.808,0.8144 0.3581,0.543 0.5372,1.369 0.5372,2.4781 0,2.2951 -0.7433,3.4542 -2.2297,3.4773 -0.8395,0 -1.4441,-0.3177 -1.8138,-0.9531 -0.3697,-0.6354 -0.5545,-1.4845 -0.5545,-2.5473zm0.9473 0.0231c0,0.7933 0.0828,1.4383 0.2484,1.9351 0.1656,0.4967 0.5487,0.7451 1.1495,0.7451 0.5622,0 0.9204,-0.2484 1.0744,-0.7451 0.154,-0.4968 0.231,-1.111 0.231,-1.8427 0,-0.7625 -0.0847,-1.394 -0.2541,-1.8946 -0.1695,-0.5007 -0.5353,-0.751 -1.0975,-0.751 -0.9011,0 -1.3517,0.8511 -1.3517,2.5532zm-0.6123 -4.0435c0.0231,-0.3619 0.1444,-0.6623 0.3639,-0.9011 0.2195,-0.2387 0.4756,-0.3581 0.7683,-0.3581 0.1848,0 0.4833,0.0751 0.8953,0.2253 0.4121,0.1502 0.6835,0.2252 0.8145,0.2252 0.1309,0 0.2464,-0.05 0.3466,-0.1501 0.1001,-0.1002 0.1578,-0.2234 0.1733,-0.3697l0.566 0c-0.0308,0.3312 -0.1463,0.6238 -0.3465,0.878 -0.2003,0.2541 -0.493,0.3812 -0.8781,0.3812 -0.1232,0 -0.3831,-0.0751 -0.7798,-0.2253 -0.3966,-0.1501 -0.6758,-0.2252 -0.8375,-0.2252 -0.1387,0 -0.2638,0.0597 -0.3755,0.179 -0.1117,0.1194 -0.1675,0.233 -0.1675,0.3408l-0.543 0z"/>
   <path id="_418628801234567891011121314151617" class="fil1" d="M140.518 121.926c0,-0.8241 0.1386,-1.6097 0.4159,-2.3567 0.2772,-0.7471 0.8318,-1.1206 1.6636,-1.1206 0.8163,0 1.3516,0.2599 1.6058,0.7798 0.2541,0.5198 0.3812,1.2072 0.3812,2.0621l0 0.6354 -3.1192 0c0,0.1155 -0.0077,0.2195 -0.0231,0.3119 0.0154,0.6547 0.0943,1.1861 0.2368,1.5943 0.1425,0.4082 0.4409,0.6123 0.8953,0.6123 0.4776,0 0.7837,-0.1463 0.9185,-0.439 0.1348,-0.2927 0.2022,-0.6585 0.2022,-1.0975l0.8664 0c0.0077,0.9011 -0.2041,1.5153 -0.6354,1.8427 -0.4313,0.3273 -0.8818,0.4909 -1.3517,0.4909 -1.3709,0 -2.0563,-1.1052 -2.0563,-3.3156zm3.1192 -0.7509c0,-0.6007 -0.0655,-1.0783 -0.1964,-1.4325 -0.1309,-0.3543 -0.4043,-0.5315 -0.8202,-0.5315 -0.4467,0 -0.7548,0.1945 -0.9243,0.5834 -0.1694,0.389 -0.2464,0.8492 -0.231,1.3806l2.1719 0z"/>
   <path id="_41862880123456789101112131415161718" class="fil1" d="M145.659 120.181c0,-0.3466 0.0731,-0.6489 0.2195,-0.9069 0.1463,-0.258 0.362,-0.4602 0.6469,-0.6065 0.285,-0.1464 0.6354,-0.2195 1.0513,-0.2195 1.3093,0 1.964,0.6315 1.964,1.8946l-0.9011 0c0.0154,-0.4082 -0.0559,-0.6951 -0.2138,-0.8607 -0.1578,-0.1656 -0.4178,-0.2484 -0.7798,-0.2484 -0.6623,0 -1.0089,0.2773 -1.0397,0.8318 -0.0077,0.2696 0.0308,0.4775 0.1155,0.6239 0.0847,0.1463 0.2157,0.2657 0.3928,0.3581 0.1772,0.0924 0.5122,0.2388 1.0051,0.439 0.5853,0.2234 1.0051,0.464 1.2592,0.7221 0.2542,0.258 0.3813,0.5834 0.3813,0.9762 0,0.6623 -0.2003,1.1706 -0.6008,1.5249 -0.4005,0.3543 -0.9203,0.5237 -1.5596,0.5083 -0.7702,-0.0077 -1.29,-0.2098 -1.5596,-0.6065 -0.2696,-0.3966 -0.4043,-0.8722 -0.4043,-1.4267l0.878 0c0,0.4005 0.077,0.7105 0.231,0.93 0.1541,0.2195 0.439,0.3292 0.8549,0.3292 0.3928,0 0.6893,-0.0866 0.8896,-0.2599 0.2002,-0.1733 0.3081,-0.4101 0.3235,-0.7105 0.0077,-0.3851 -0.0828,-0.6508 -0.2715,-0.7972 -0.1887,-0.1463 -0.5565,-0.3157 -1.1033,-0.5083 -0.3928,-0.1309 -0.7047,-0.2561 -0.9358,-0.3754 -0.231,-0.1194 -0.4294,-0.3043 -0.5949,-0.5546 -0.1656,-0.2503 -0.2484,-0.6026 -0.2484,-1.057z"/>
   <path id="_4186288012345678910111213141516171819" class="fil1" d="M151.654 125.056l0 -1.1553 1.0628 0 0 1.1553 -1.0628 0zm0.2772 -2.1257l-0.2772 -3.4196 0 -3.1192 1.0628 0 0 3.0961 -0.2888 3.4427 -0.4968 0z"/>
   <path id="_418628801234567891011121314151617181920" class="fil1" d="M157.142 119.349l1.7329 1.7791 0 0.7278 -1.7329 1.756 0 -0.9473 1.1668 -1.2015 -1.1668 -1.1668 0 -0.9473zm-2.0564 0l1.7329 1.7791 0 0.7278 -1.7329 1.756 0 -0.9473 1.1322 -1.1784 -1.1322 -1.213 0 -0.9242z"/>
   <path id="_41862880123456789101112131415161718192021" class="fil1" d="M72.4549 181.364l0 -8.6876 2.5301 0.0231c1.0628,0 1.8099,0.3581 2.2412,1.0744 0.4313,0.7162 0.6469,1.6135 0.6469,2.6918l0 0.3812c0,1.1168 -0.181,2.1488 -0.5429,3.0961 -0.362,0.9473 -1.1052,1.421 -2.2297,1.421l-2.6456 0zm0.9704 -0.8549l1.5828 0c1.2323,0 1.8484,-0.9935 1.8484,-2.9806l0 -0.4968c-0.0154,-0.8087 -0.0712,-1.4575 -0.1675,-1.9466 -0.0963,-0.4891 -0.2888,-0.8664 -0.5776,-1.1322 -0.2889,-0.2657 -0.7105,-0.3985 -1.2651,-0.3985l-1.421 0 0 6.9547z"/>
   <polygon id="_4186288012345678910111213141516171819202122" class="fil1" points="79.4212,181.364 79.4212,172.677 83.7535,172.677 83.7535,173.555 80.3916,173.555 80.3916,176.42 83.5571,176.42 83.5571,177.275 80.3916,177.275 80.3916,180.486 83.7766,180.486 83.7766,181.364 "/>
   <path id="_418628801234567891011121314151617181920212223" class="fil1" d="M86.3066 173.555l0 3.2694c0.2541,0 0.4505,0.0077 0.5891,0.0231 0.5315,-0.0308 0.9358,-0.0578 1.2131,-0.0809 0.4313,-0.077 0.7471,-0.2368 0.9473,-0.4794 0.2002,-0.2426 0.3004,-0.6258 0.3004,-1.1495 0,-0.9396 -0.4467,-1.4595 -1.3401,-1.5596 -0.1772,-0.0154 -0.4699,-0.0231 -0.878,-0.0231l-0.8318 0zm0 7.8096l-0.9705 0 0 -8.6645 2.2759 0c0.9627,0 1.6405,0.1887 2.0333,0.5661 0.4698,0.4313 0.7047,1.0474 0.7047,1.8484 0,1.1707 -0.4082,1.9447 -1.2246,2.3221 -0.4082,0.154 -1.0243,0.2464 -1.8484,0.2772 -0.2234,-0.0154 -0.5468,-0.0231 -0.9704,-0.0231l0 3.6738z"/>
   <polygon id="_41862880123456789101112131415161718192021222324" class="fil1" points="90.6158,181.676 93.4346,172.7 94.1393,172.7 91.3436,181.676 "/>
   <path id="_4186288012345678910111213141516171819202122232425" class="fil1" d="M95.9416 173.555l0 3.2694c0.2541,0 0.4505,0.0077 0.5891,0.0231 0.5315,-0.0308 0.9358,-0.0578 1.2131,-0.0809 0.4313,-0.077 0.7471,-0.2368 0.9473,-0.4794 0.2002,-0.2426 0.3004,-0.6258 0.3004,-1.1495 0,-0.9396 -0.4467,-1.4595 -1.3401,-1.5596 -0.1772,-0.0154 -0.4699,-0.0231 -0.878,-0.0231l-0.8318 0zm0 7.8096l-0.9705 0 0 -8.6645 2.2759 0c0.9627,0 1.6405,0.1887 2.0333,0.5661 0.4698,0.4313 0.7047,1.0474 0.7047,1.8484 0,1.1707 -0.4082,1.9447 -1.2246,2.3221 -0.4082,0.154 -1.0243,0.2464 -1.8484,0.2772 -0.2234,-0.0154 -0.5468,-0.0231 -0.9704,-0.0231l0 3.6738z"/>
   <path id="_418628801234567891011121314151617181920212223242526" class="fil1" d="M101.025 177.275c0.0154,-0.7778 0.0443,-1.3805 0.0866,-1.808 0.0424,-0.4274 0.1521,-0.8818 0.3293,-1.3632 0.1771,-0.4813 0.4505,-0.8664 0.8202,-1.1552 0.3697,-0.2889 0.8665,-0.4333 1.4903,-0.4333 0.7009,0 1.2882,0.2157 1.7618,0.647 0.4737,0.4313 0.7144,1.1437 0.7221,2.1372l-0.9705 0c-0.0462,-0.5391 -0.1636,-0.9993 -0.3523,-1.3805 -0.1887,-0.3813 -0.6065,-0.5603 -1.2535,-0.5372 -0.7317,0.0231 -1.188,0.4178 -1.369,1.1841 -0.181,0.7664 -0.2715,1.6656 -0.2715,2.6976 -0.0154,1.0243 0.0963,1.8542 0.3351,2.4896 0.2387,0.6354 0.7047,0.9531 1.3978,0.9531 0.4313,0 0.7529,-0.1329 0.9647,-0.3986 0.2118,-0.2657 0.3523,-0.5795 0.4217,-0.9415 0.0693,-0.362 0.1116,-0.7394 0.127,-1.1322l0.9474 0c0.0231,0.7856 -0.0732,1.4268 -0.2889,1.9235 -0.2156,0.4968 -0.5083,0.8569 -0.878,1.0802 -0.3697,0.2234 -0.7856,0.335 -1.2477,0.335 -0.7624,-0.0077 -1.3478,-0.2118 -1.756,-0.6122 -0.4082,-0.4005 -0.6797,-0.9089 -0.8144,-1.525 -0.1348,-0.6161 -0.2022,-1.3363 -0.2022,-2.1604z"/>
   <path id="_41862880123456789101112131415161718192021222324252627" class="fil1" d="M108.811 173.555l0 3.2694c0.2541,0 0.4505,0.0077 0.5891,0.0231 0.5315,-0.0308 0.9358,-0.0578 1.2131,-0.0809 0.4313,-0.077 0.7471,-0.2368 0.9473,-0.4794 0.2002,-0.2426 0.3004,-0.6258 0.3004,-1.1495 0,-0.9396 -0.4467,-1.4595 -1.3401,-1.5596 -0.1772,-0.0154 -0.4699,-0.0231 -0.878,-0.0231l-0.8318 0zm0 7.8096l-0.9705 0 0 -8.6645 2.2759 0c0.9627,0 1.6405,0.1887 2.0333,0.5661 0.4698,0.4313 0.7047,1.0474 0.7047,1.8484 0,1.1707 -0.4082,1.9447 -1.2246,2.3221 -0.4082,0.154 -1.0243,0.2464 -1.8484,0.2772 -0.2234,-0.0154 -0.5468,-0.0231 -0.9704,-0.0231l0 3.6738z"/>
   <path id="_4186288012345678910111213141516171819202122232425262728" class="fil1" d="M116.725 181.364c0.0308,-1.2092 0.3004,-2.0525 0.8087,-2.53 0.8857,-0.8318 1.6174,-1.552 2.195,-2.1604 0.2542,-0.2619 0.4121,-0.5218 0.4737,-0.7798 0.0616,-0.258 0.0924,-0.5719 0.0924,-0.9415 0.0077,-0.4391 -0.0982,-0.7779 -0.3177,-1.0167 -0.2195,-0.2387 -0.5295,-0.3658 -0.93,-0.3812 -0.4467,0 -0.7817,0.154 -1.0051,0.4621 -0.2233,0.3081 -0.3388,0.8241 -0.3465,1.548 0.0154,0.0154 0.0231,0.0463 0.0231,0.0925l-0.9243 0c-0.0693,-0.9628 0.0963,-1.6964 0.4968,-2.2008 0.4005,-0.5045 1.0089,-0.7567 1.8253,-0.7567 0.7317,0 1.2747,0.2233 1.629,0.67 0.3543,0.4467 0.5314,1.0128 0.5314,1.6983 0,0.5699 -0.0867,1.0282 -0.2599,1.3747 -0.1733,0.3466 -0.4102,0.6701 -0.7105,0.9705 -0.7471,0.7085 -1.2862,1.2053 -1.6174,1.4903 -0.3774,0.3235 -0.6277,0.5795 -0.7509,0.7682 -0.1233,0.1887 -0.1964,0.4679 -0.2195,0.8376l3.6506 0 0 0.8549 -4.6442 0z"/>
   <path id="_418628801234567891011121314151617181920212223242526272829" class="fil1" d="M122.49 177.194c0,-0.8164 0.0385,-1.5288 0.1155,-2.1373 0.077,-0.6084 0.2888,-1.1533 0.6354,-1.6347 0.3466,-0.4813 0.878,-0.722 1.5943,-0.722 0.7316,0 1.2688,0.2253 1.6116,0.6758 0.3427,0.4506 0.5545,0.982 0.6354,1.5943 0.0808,0.6123 0.1213,1.3536 0.1213,2.2239 0,1.2477 -0.1348,2.2855 -0.4044,3.1134 -0.2695,0.828 -0.9242,1.2419 -1.9639,1.2419 -1.009,0 -1.6521,-0.4216 -1.9293,-1.265 -0.2773,-0.8433 -0.4159,-1.8734 -0.4159,-3.0903zm0.9704 0c0,0.8318 0.0173,1.4729 0.052,1.9235 0.0346,0.4506 0.1502,0.8202 0.3466,1.1091 0.1964,0.2888 0.5218,0.4332 0.9762,0.4332 0.6161,0 0.9993,-0.3139 1.1495,-0.9416 0.1502,-0.6277 0.2252,-1.4691 0.2252,-2.5242 0,-1.24 -0.0827,-2.1565 -0.2483,-2.7496 -0.1656,-0.593 -0.5411,-0.8895 -1.1264,-0.8895 -0.5854,0 -0.9608,0.2965 -1.1264,0.8895 -0.1656,0.5931 -0.2484,1.5096 -0.2484,2.7496z"/>
   <path id="_41862880123456789101112131415161718192021222324252627282930" class="fil1" d="M130.426 181.364l0 -6.3193 -1.8484 0 0 -0.7394c0.6547,-0.0154 1.1456,-0.1232 1.473,-0.3235 0.3273,-0.2002 0.5218,-0.6277 0.5834,-1.2823l0.7394 0 0 8.6645 -0.9474 0z"/>
   <path id="_4186288012345678910111213141516171819202122232425262728293031" class="fil1" d="M134.042 177.194c0,-0.8164 0.0385,-1.5288 0.1155,-2.1373 0.077,-0.6084 0.2888,-1.1533 0.6354,-1.6347 0.3466,-0.4813 0.878,-0.722 1.5943,-0.722 0.7316,0 1.2688,0.2253 1.6116,0.6758 0.3427,0.4506 0.5545,0.982 0.6354,1.5943 0.0808,0.6123 0.1213,1.3536 0.1213,2.2239 0,1.2477 -0.1348,2.2855 -0.4044,3.1134 -0.2695,0.828 -0.9242,1.2419 -1.9639,1.2419 -1.009,0 -1.6521,-0.4216 -1.9293,-1.265 -0.2773,-0.8433 -0.4159,-1.8734 -0.4159,-3.0903zm0.9704 0c0,0.8318 0.0173,1.4729 0.052,1.9235 0.0346,0.4506 0.1502,0.8202 0.3466,1.1091 0.1964,0.2888 0.5218,0.4332 0.9762,0.4332 0.6161,0 0.9993,-0.3139 1.1495,-0.9416 0.1502,-0.6277 0.2252,-1.4691 0.2252,-2.5242 0,-1.24 -0.0827,-2.1565 -0.2483,-2.7496 -0.1656,-0.593 -0.5411,-0.8895 -1.1264,-0.8895 -0.5854,0 -0.9608,0.2965 -1.1264,0.8895 -0.1656,0.5931 -0.2484,1.5096 -0.2484,2.7496z"/>
   <polygon id="_418628801234567891011121314151617181920212223242526272829303132" class="fil1" points="60.2498,153.107 60.2498,144.419 64.894,144.419 64.894,146.152 62.2831,146.152 62.2831,147.758 64.8246,147.758 64.8246,149.491 62.2831,149.491 62.2831,151.374 65.0557,151.374 65.0557,153.107 "/>
   <polygon id="_41862880123456789101112131415161718192021222324252627282930313233" class="fil1" points="66.1647,153.107 66.1647,144.442 68.0131,144.442 68.0131,153.107 "/>
   <path id="_4186288012345678910111213141516171819202122232425262728293031323334" class="fil1" d="M70.9591 150.172l0 1.2477c0.0231,0.362 0.2195,0.5545 0.5892,0.5776 0.2618,0 0.4293,-0.0847 0.5025,-0.2541 0.0732,-0.1695 0.1098,-0.4583 0.1098,-0.8665l1.8253 0c0.0462,0.7702 -0.1329,1.369 -0.5372,1.7965 -0.4044,0.4274 -1.007,0.6411 -1.808,0.6411 -1.6405,0 -2.4838,-0.6315 -2.5301,-1.8946l0 -2.7842c0,-1.4556 0.8511,-2.1835 2.5532,-2.1835 0.4775,0 0.8896,0.0655 1.2361,0.1964 0.3466,0.131 0.6258,0.3351 0.8376,0.6123 0.2118,0.2773 0.3177,0.6239 0.3177,1.0398l0 1.8715 -3.0961 0zm0 -1.213l1.2708 0 0 -0.3466c0,-0.6315 -0.2118,-0.9473 -0.6354,-0.9473 -0.2619,0 -0.4332,0.0924 -0.5141,0.2772 -0.0809,0.1849 -0.129,0.4544 -0.1444,0.8087 0.0154,0.0462 0.0231,0.1156 0.0231,0.208z"/>
   <path id="_418628801234567891011121314151617181920212223242526272829303132333435" class="fil1" d="M74.8869 153.107l0 -6.4811 1.7214 0 0 0.7741 0 0 0.0231 0c0.1463,-0.3004 0.3524,-0.5295 0.6181,-0.6874 0.2657,-0.1579 0.541,-0.2368 0.826,-0.2368 0.6084,0 1.0359,0.2772 1.2823,0.8317l0.0463 0c0.154,-0.2772 0.36,-0.489 0.618,-0.6354 0.258,-0.1463 0.5334,-0.2195 0.826,-0.2195 0.4159,0 0.7721,0.129 1.0687,0.3871 0.2965,0.258 0.4447,0.5949 0.4447,1.0108l0.0232 5.2565 -1.86 0 0 -4.6211c0,-0.3466 -0.1579,-0.5199 -0.4737,-0.5199 -0.3312,0 -0.4968,0.1733 -0.4968,0.5199l0 4.6211 -1.8484 0 0 -4.598c0,-0.362 -0.1502,-0.543 -0.4505,-0.543 -0.3466,0 -0.5199,0.1733 -0.5199,0.5199l0 4.6211 -1.8485 0z"/>
   <path id="_41862880123456789101112131415161718192021222324252627282930313233343536" class="fil1" d="M85.088 150.172l0 1.2477c0.0231,0.362 0.2195,0.5545 0.5892,0.5776 0.2618,0 0.4293,-0.0847 0.5025,-0.2541 0.0732,-0.1695 0.1098,-0.4583 0.1098,-0.8665l1.8253 0c0.0462,0.7702 -0.1329,1.369 -0.5372,1.7965 -0.4044,0.4274 -1.007,0.6411 -1.808,0.6411 -1.6405,0 -2.4838,-0.6315 -2.5301,-1.8946l0 -2.7842c0,-1.4556 0.8511,-2.1835 2.5532,-2.1835 0.4775,0 0.8896,0.0655 1.2361,0.1964 0.3466,0.131 0.6258,0.3351 0.8376,0.6123 0.2118,0.2773 0.3177,0.6239 0.3177,1.0398l0 1.8715 -3.0961 0zm0 -1.213l1.2708 0 0 -0.3466c0,-0.6315 -0.2118,-0.9473 -0.6354,-0.9473 -0.2619,0 -0.4332,0.0924 -0.5141,0.2772 -0.0809,0.1849 -0.129,0.4544 -0.1444,0.8087 0.0154,0.0462 0.0231,0.1156 0.0231,0.208z"/>
   <path id="_4186288012345678910111213141516171819202122232425262728293031323334353637" class="fil1" d="M89.1545 153.107l0 -6.4811 1.7098 0 0 0.8203c0.1386,-0.3312 0.3331,-0.5757 0.5834,-0.7336 0.2503,-0.1579 0.5295,-0.2368 0.8376,-0.2368 0.4159,0 0.7721,0.1174 1.0686,0.3523 0.2965,0.2349 0.4448,0.5449 0.4448,0.93l0 5.3489 -1.8254 0 0 -4.6211c0,-0.1386 -0.0385,-0.2599 -0.1155,-0.3639 -0.077,-0.104 -0.1964,-0.156 -0.3581,-0.156 -0.1541,0 -0.2792,0.0424 -0.3755,0.1271 -0.0963,0.0847 -0.1444,0.208 -0.1444,0.3697l0 4.6442 -1.8253 0z"/>
   <path id="_418628801234567891011121314151617181920212223242526272829303132333435363738" class="fil1" d="M95.2196 146.625l0 -1.8484 1.8484 0 0 1.8484 0.8665 0 0 1.3401 -0.8665 0 0 3.489c0,0.0616 0.0231,0.1405 0.0693,0.2368 0.0463,0.0963 0.1464,0.1483 0.3004,0.156 0.0077,-0.0077 0.027,-0.0135 0.0578,-0.0174 0.0308,-0.0038 0.0635,-0.0077 0.0982,-0.0115 0.0346,-0.0039 0.0558,-0.0097 0.0635,-0.0174l0.2773 0 0 1.3055 -0.5661 0.0693c-0.0616,0 -0.1348,0.0019 -0.2195,0.0058 -0.0847,0.0038 -0.1848,0.0096 -0.3004,0.0173 -0.3928,0 -0.7162,-0.0616 -0.9704,-0.1848 -0.1925,-0.1001 -0.3504,-0.2619 -0.4737,-0.4852 -0.1232,-0.2234 -0.1848,-0.466 -0.1848,-0.7279l0 -3.8355 -0.7163 0 0 -1.3401 0.7163 0z"/>
   <path id="_41862880123456789101112131415161718192021222324252627282930313233343536373839" class="fil1" d="M98.6739 151.478l0 -3.0384c0,-0.5776 0.2002,-1.0532 0.6007,-1.4267 0.4005,-0.3736 1.0128,-0.5604 1.8369,-0.5604 0.5391,0 0.9858,0.0925 1.3401,0.2773 0.3543,0.1849 0.6181,0.4236 0.7914,0.7163 0.1732,0.2926 0.2599,0.6084 0.2599,0.9473l-0.0231 3.0268c0,0.5776 -0.208,1.0417 -0.6239,1.3921 -0.4159,0.3504 -1.005,0.5257 -1.7675,0.5257 -0.5546,0 -1.0109,-0.0848 -1.369,-0.2542 -0.3582,-0.1694 -0.6219,-0.3966 -0.7914,-0.6816 -0.1694,-0.285 -0.2541,-0.5931 -0.2541,-0.9242zm1.8484 -3.0384l0 2.9806c0,0.3851 0.1887,0.5776 0.5661,0.5776 0.3774,0 0.5661,-0.1925 0.5661,-0.5776l0 -2.9806c0,-0.2156 -0.052,-0.3793 -0.156,-0.491 -0.104,-0.1117 -0.233,-0.1675 -0.387,-0.1675 -0.3928,0 -0.5892,0.2195 -0.5892,0.6585z"/>
   <path id="_4186288012345678910111213141516171819202122232425262728293031323334353637383940" class="fil1" d="M104.127 151.143l1.756 0c-0.0154,0.6162 0.2041,0.9397 0.6585,0.9705 0.4852,-0.0616 0.7086,-0.2811 0.6701,-0.6585 -0.0231,-0.1387 -0.0674,-0.2523 -0.1329,-0.3408 -0.0655,-0.0886 -0.1945,-0.1676 -0.387,-0.2369 -0.2927,-0.1386 -0.5911,-0.2772 -0.8953,-0.4159 -0.3043,-0.1386 -0.5777,-0.2965 -0.8203,-0.4736 -0.2426,-0.1772 -0.4351,-0.3851 -0.5776,-0.6239 -0.1425,-0.2387 -0.2253,-0.5121 -0.2484,-0.8202 -0.0077,-0.4544 0.0905,-0.8376 0.2946,-1.1495 0.2041,-0.3119 0.4929,-0.5468 0.8664,-0.7047 0.3736,-0.1579 0.7914,-0.2369 1.2535,-0.2369 0.7163,0.0154 1.2958,0.1984 1.7387,0.5488 0.4428,0.3504 0.6373,0.8645 0.5834,1.5423l-1.7214 0c0,-0.5854 -0.2002,-0.878 -0.6007,-0.878 -0.1925,0 -0.3485,0.05 -0.4679,0.1502 -0.1194,0.1001 -0.1675,0.2464 -0.1444,0.439 0.0308,0.2695 0.3601,0.5391 0.9878,0.8087 0.6277,0.2695 1.109,0.5198 1.4441,0.7509 0.335,0.231 0.5333,0.6431 0.5949,1.2361 0.0616,0.6624 -0.1174,1.2092 -0.5372,1.6405 -0.4197,0.4313 -1.0763,0.647 -1.9697,0.647l-0.1155 0c-1.5096,-0.0463 -2.2528,-0.7779 -2.2297,-2.1951z"/>
   <path id="_418628801234567891011121314151617181920212223242526272829303132333435363738394041" class="fil1" d="M114.281 148.682l0 2.0102c0,0.2541 0.0423,0.4448 0.1271,0.5718 0.0847,0.1271 0.2233,0.1907 0.4159,0.1907 0.3619,0 0.5429,-0.2542 0.5429,-0.7625l0 -2.0102c0,-0.4775 -0.2041,-0.7163 -0.6123,-0.7163 -0.1463,0 -0.2618,0.0751 -0.3465,0.2253 -0.0848,0.1502 -0.1271,0.3139 -0.1271,0.491zm1.109 3.5467c-0.4159,0.4544 -0.8664,0.6932 -1.3516,0.7163 -0.5854,0.0077 -0.9993,-0.1964 -1.2419,-0.6123 -0.2426,-0.4159 -0.3639,-0.8357 -0.3639,-1.2593l0 -2.6109c0,-0.6161 0.154,-1.1052 0.4621,-1.4672 0.308,-0.362 0.6816,-0.543 1.1206,-0.543 0.6315,0 1.1283,0.3235 1.4903,0.9705l0 -0.7972 1.7098 0 0 6.6428c0,0.724 -0.2215,1.2381 -0.6643,1.5423 -0.4429,0.3042 -0.9955,0.4641 -1.6578,0.4795 -0.5777,0.0154 -1.0436,-0.0328 -1.3979,-0.1444 -0.3543,-0.1117 -0.6238,-0.3023 -0.8087,-0.5719 -0.1848,-0.2696 -0.285,-0.6393 -0.3004,-1.1091l1.8485 0c0,0.0771 -0.0077,0.131 -0.0231,0.1618 0.0154,0.1694 0.0635,0.2907 0.1444,0.3639 0.0808,0.0731 0.2214,0.1097 0.4217,0.1097 0.2618,0 0.4293,-0.052 0.5025,-0.1559 0.0732,-0.104 0.1097,-0.2638 0.1097,-0.4795l0 -1.2361z"/>
   <path id="_41862880123456789101112131415161718192021222324252627282930313233343536373839404142" class="fil1" d="M118.233 153.107l0 -6.4811 1.7098 0 0 0.9936 0.0231 0c0.1386,-0.4698 0.3465,-0.7818 0.6238,-0.9358 0.2773,-0.154 0.543,-0.2311 0.7971,-0.2311l0 2.0911c-0.0462,-0.0077 -0.1097,-0.0193 -0.1906,-0.0347 -0.0808,-0.0154 -0.2021,-0.0231 -0.3639,-0.0231 -0.516,0 -0.7663,0.208 -0.7509,0.6239l0 3.9972 -1.8484 0z"/>
   <path id="_4186288012345678910111213141516171819202122232425262728293031323334353637383940414243" class="fil1" d="M125.095 149.976c-0.4236,0.1926 -0.7067,0.3273 -0.8492,0.4044 -0.1424,0.077 -0.2676,0.1964 -0.3754,0.3581 -0.1078,0.1617 -0.1502,0.3812 -0.1271,0.6585 0.0154,0.1617 0.0866,0.2984 0.2137,0.4101 0.1271,0.1117 0.2869,0.1675 0.4795,0.1675 0.3928,0 0.6123,-0.3003 0.6585,-0.9011l0 -1.0975zm0.0693 2.5647c-0.4005,0.5314 -0.9358,0.7972 -1.6058,0.7972 -0.4699,0 -0.8684,-0.1637 -1.1957,-0.491 -0.3274,-0.3274 -0.4872,-0.7914 -0.4795,-1.3921 0.0077,-0.5315 0.1271,-0.9474 0.3582,-1.2477 0.231,-0.3004 0.5006,-0.516 0.8086,-0.647 0.3081,-0.1309 0.7933,-0.2965 1.4557,-0.4967 0.3928,-0.1002 0.5892,-0.3312 0.5892,-0.6932 0,-0.1849 -0.0559,-0.3447 -0.1675,-0.4794 -0.1117,-0.1348 -0.2446,-0.2022 -0.3986,-0.2022 -0.1695,-0.0077 -0.31,0.0192 -0.4217,0.0809 -0.1117,0.0616 -0.1906,0.1675 -0.2368,0.3177 -0.0462,0.1501 -0.0693,0.3485 -0.0693,0.5949l-1.8485 0c-0.0616,-1.4633 0.7587,-2.2065 2.4608,-2.2297 0.9781,-0.0077 1.6404,0.1464 1.987,0.4622 0.3466,0.3157 0.5199,0.7932 0.5199,1.4325l0 4.1936c0,0.1078 0.0539,0.2965 0.1617,0.5661l-1.8137 0 -0.104 -0.5661zm-1.8716 -6.7468l1.1438 -1.7098 2.4145 0 -2.0102 1.6867 -1.5481 0.0231z"/>
   <path id="_418628801234567891011121314151617181920212223242526272829303132333435363738394041424344" class="fil1" d="M128.318 153.107l0 -5.1178 -0.7394 0 0 -1.3402 0.7394 0c0.0154,-0.2772 0.0328,-0.566 0.052,-0.8664 0.0193,-0.3004 0.0924,-0.5565 0.2195,-0.7683 0.1271,-0.2118 0.3793,-0.3735 0.7567,-0.4852 0.3774,-0.1117 0.9088,-0.1405 1.5943,-0.0866l0 1.3285 -0.4159 0c-0.154,0 -0.2522,0.0251 -0.2946,0.0751 -0.0424,0.0501 -0.0635,0.0944 -0.0635,0.1329l0 0.67 0.774 0 0 1.3402 -0.774 0 0 5.1178 -1.8485 0z"/>
   <path id="_41862880123456789101112131415161718192021222324252627282930313233343536373839404142434445" class="fil1" d="M131.888 153.107l0 -6.4811 1.8484 0 0 6.4811 -1.8484 0zm0 -7.1049l0 -1.5596 1.8484 0 0 1.5596 -1.8484 0z"/>
   <path id="_4186288012345678910111213141516171819202122232425262728293031323334353637383940414243444546" class="fil1" d="M137.976 150.484l1.756 0c0.0539,1.0552 -0.1252,1.7946 -0.5372,2.2182 -0.4121,0.4236 -1.0763,0.6354 -1.9928,0.6354 -1.4865,-0.0232 -2.2297,-0.7163 -2.2297,-2.0795l0 -2.7727c0,-0.6084 0.1771,-1.0994 0.5314,-1.4729 0.3543,-0.3736 0.9204,-0.5604 1.6983,-0.5604 0.8086,0 1.4402,0.1849 1.8946,0.5546 0.4544,0.3697 0.6431,1.0474 0.5661,2.0332l-1.7329 0 -0.0462 -0.5545c-0.0385,-0.4852 -0.1464,-0.7278 -0.3235,-0.7278 -0.5083,0 -0.7625,0.2426 -0.7625,0.7278l0 2.842c0,0.4467 0.1964,0.67 0.5892,0.67 0.3466,0 0.543,-0.2695 0.5892,-0.8086l0 -0.7048z"/>
   <path id="_418628801234567891011121314151617181920212223242526272829303132333435363738394041424344454647" class="fil1" d="M140.656 151.478l0 -3.0384c0,-0.5776 0.2002,-1.0532 0.6007,-1.4267 0.4005,-0.3736 1.0128,-0.5604 1.8369,-0.5604 0.5391,0 0.9858,0.0925 1.3401,0.2773 0.3543,0.1849 0.6181,0.4236 0.7914,0.7163 0.1732,0.2926 0.2599,0.6084 0.2599,0.9473l-0.0231 3.0268c0,0.5776 -0.208,1.0417 -0.6239,1.3921 -0.4159,0.3504 -1.005,0.5257 -1.7675,0.5257 -0.5546,0 -1.0109,-0.0848 -1.369,-0.2542 -0.3582,-0.1694 -0.6219,-0.3966 -0.7914,-0.6816 -0.1694,-0.285 -0.2541,-0.5931 -0.2541,-0.9242zm1.8484 -3.0384l0 2.9806c0,0.3851 0.1887,0.5776 0.5661,0.5776 0.3774,0 0.5661,-0.1925 0.5661,-0.5776l0 -2.9806c0,-0.2156 -0.052,-0.3793 -0.156,-0.491 -0.104,-0.1117 -0.233,-0.1675 -0.387,-0.1675 -0.3928,0 -0.5892,0.2195 -0.5892,0.6585z"/>
   <path id="_41862880123456789101112131415161718192021222324252627282930313233343536373839404142434445464748" class="fil1" d="M146.109 151.143l1.756 0c-0.0154,0.6162 0.2041,0.9397 0.6585,0.9705 0.4852,-0.0616 0.7086,-0.2811 0.6701,-0.6585 -0.0231,-0.1387 -0.0674,-0.2523 -0.1329,-0.3408 -0.0655,-0.0886 -0.1945,-0.1676 -0.387,-0.2369 -0.2927,-0.1386 -0.5911,-0.2772 -0.8953,-0.4159 -0.3043,-0.1386 -0.5777,-0.2965 -0.8203,-0.4736 -0.2426,-0.1772 -0.4351,-0.3851 -0.5776,-0.6239 -0.1425,-0.2387 -0.2253,-0.5121 -0.2484,-0.8202 -0.0077,-0.4544 0.0905,-0.8376 0.2946,-1.1495 0.2041,-0.3119 0.4929,-0.5468 0.8664,-0.7047 0.3736,-0.1579 0.7914,-0.2369 1.2535,-0.2369 0.7163,0.0154 1.2958,0.1984 1.7387,0.5488 0.4428,0.3504 0.6373,0.8645 0.5834,1.5423l-1.7214 0c0,-0.5854 -0.2002,-0.878 -0.6007,-0.878 -0.1925,0 -0.3485,0.05 -0.4679,0.1502 -0.1194,0.1001 -0.1675,0.2464 -0.1444,0.439 0.0308,0.2695 0.3601,0.5391 0.9878,0.8087 0.6277,0.2695 1.109,0.5198 1.4441,0.7509 0.335,0.231 0.5333,0.6431 0.5949,1.2361 0.0616,0.6624 -0.1174,1.2092 -0.5372,1.6405 -0.4197,0.4313 -1.0763,0.647 -1.9697,0.647l-0.1155 0c-1.5096,-0.0463 -2.2528,-0.7779 -2.2297,-2.1951z"/>
   <line id="_41861936" class="fil2 str0" x1="50.9138" y1="106.731" x2="159.086" y2= "106.731" />
   <line id="_41697088" class="fil2 str1" x1="50.9138" y1="136.567" x2="158.884" y2= "136.567" />
   <line id="_41696312" class="fil2 str1" x1="50.9138" y1="164.429" x2="158.915" y2= "164.429" />
   <line id="_42449200" class="fil2 str2" x1="50.9138" y1="190.269" x2="158.96" y2= "190.269" />
  </g>
 </g>
</svg>
